<svg xmlns="http://www.w3.org/2000/svg" xmlns:xlink="http://www.w3.org/1999/xlink" width="140" height="140" viewBox="0 0 140 140">
  <defs>
    <clipPath id="clip-path">
      <circle id="Ellipse_7" data-name="Ellipse 7" cx="70" cy="70" r="70" transform="translate(3859 335)" fill="#222" stroke="#979fad" stroke-width="0.5"/>
    </clipPath>
    <radialGradient id="radial-gradient" cx="0.5" cy="0.5" r="0.5" gradientUnits="objectBoundingBox">
      <stop offset="0" stop-color="#585757"/>
      <stop offset="1" stop-color="#3f3f3f"/>
    </radialGradient>
  </defs>
  <g id="Group_163" data-name="Group 163" transform="translate(-3859 -335)">
    <g id="Ellipse_3" data-name="Ellipse 3" transform="translate(3859 335)" fill="#222" stroke="rgba(151,159,173,0.39)" stroke-width="0.5">
      <circle cx="70" cy="70" r="70" stroke="none"/>
      <circle cx="70" cy="70" r="69.75" fill="none"/>
    </g>
    <g id="Mask_Group_1" data-name="Mask Group 1" clip-path="url(#clip-path)">
      <g id="Group_160" data-name="Group 160" transform="translate(-649.313 54.217)" opacity="0.34">
        <g id="Ellipse_4" data-name="Ellipse 4" transform="translate(4516.208 288.984)" fill="none" stroke="#707070" stroke-width="0.5">
          <circle cx="62.105" cy="62.105" r="62.105" stroke="none"/>
          <circle cx="62.105" cy="62.105" r="61.855" fill="none"/>
        </g>
        <g id="Ellipse_5" data-name="Ellipse 5" transform="translate(4540.683 313.459)" fill="none" stroke="#707070" stroke-width="0.5">
          <circle cx="37.63" cy="37.63" r="37.63" stroke="none"/>
          <circle cx="37.63" cy="37.63" r="37.38" fill="none"/>
        </g>
        <g id="Rectangle_10" data-name="Rectangle 10" transform="translate(4551.696 324.473)" fill="none" stroke="#707070" stroke-width="0.5">
          <rect width="53.233" height="53.845" stroke="none"/>
          <rect x="0.25" y="0.25" width="52.733" height="53.345" fill="none"/>
        </g>
        <g id="Rectangle_11" data-name="Rectangle 11" transform="translate(4516.208 288.984)" fill="none" stroke="#707070" stroke-width="0.5">
          <rect width="124.21" height="124.21" stroke="none"/>
          <rect x="0.25" y="0.25" width="123.71" height="123.71" fill="none"/>
        </g>
        <path id="Path_292" data-name="Path 292" d="M4523,295l124.371,124.371" transform="translate(-6.792 -6.016)" fill="none" stroke="#707070" stroke-width="0.5"/>
        <line id="Line_10" data-name="Line 10" y2="140.731" transform="translate(4578.313 281.336)" fill="none" stroke="#707070" stroke-width="0.5"/>
        <line id="Line_11" data-name="Line 11" x1="142.567" transform="translate(4507.335 324.779)" fill="none" stroke="#707070" stroke-width="0.5"/>
        <line id="Line_12" data-name="Line 12" x2="142.567" transform="translate(4507.335 351.089)" fill="none" stroke="#707070" stroke-width="0.5"/>
        <line id="Line_13" data-name="Line 13" x1="145.626" transform="translate(4505.5 378.012)" fill="none" stroke="#707070" stroke-width="0.5"/>
        <line id="Line_14" data-name="Line 14" x1="124.21" y2="124.21" transform="translate(4516.514 289.29)" fill="none" stroke="#707070" stroke-width="0.5"/>
        <line id="Line_15" data-name="Line 15" y2="142.567" transform="translate(4604.624 279.5)" fill="none" stroke="#707070" stroke-width="0.5"/>
        <line id="Line_16" data-name="Line 16" y2="142.567" transform="translate(4552.002 279.5)" fill="none" stroke="#707070" stroke-width="0.5"/>
        <g id="Ellipse_8" data-name="Ellipse 8" transform="translate(4551.696 324.473)" stroke="#707070" stroke-width="0.5" opacity="0.35" fill="url(#radial-gradient)">
          <circle cx="26.617" cy="26.617" r="26.617" stroke="none"/>
          <circle cx="26.617" cy="26.617" r="26.367" fill="none"/>
        </g>
      </g>
    </g>
    <g id="Group_161" data-name="Group 161" transform="translate(4545.106 308.911)">
      <path id="Path_293" data-name="Path 293" d="M-614.143,80.337c.442.08.894.124,1.324.246a7.554,7.554,0,0,1,5.765,6.112,7.516,7.516,0,0,1-2.659,7.479c-.092.08-.185.159-.29.249.547.227,1.081.416,1.583.67a1.718,1.718,0,0,1,.647.574,1.064,1.064,0,0,1-.164,1.279,1.147,1.147,0,0,1-1.288.289,25.144,25.144,0,0,0-2.38-.84,12.341,12.341,0,0,0-8.857,1,12.553,12.553,0,0,0-5.567,5.558,12.161,12.161,0,0,0-1.1,3.136,1.171,1.171,0,0,0,.984,1.41,2.7,2.7,0,0,0,.43.023h13.791a1.184,1.184,0,0,1,1.217.737,1.15,1.15,0,0,1-.972,1.559c-.124.012-.249.008-.374.008-4.549,0-9.1-.028-13.647.013a3.568,3.568,0,0,1-3.719-2.994c0-.025-.028-.048-.043-.072v-.864c.156-.59.28-1.192.473-1.77A14.877,14.877,0,0,1-620.83,95c.449-.208.918-.374,1.4-.571-.114-.1-.209-.176-.3-.257a7.52,7.52,0,0,1-2.656-7.479,7.563,7.563,0,0,1,5.766-6.111c.43-.122.882-.166,1.324-.246Zm-.568,2.3a5.546,5.546,0,0,0-5.537,5.528,5.544,5.544,0,0,0,5.42,5.526,5.539,5.539,0,0,0,5.637-5.51A5.546,5.546,0,0,0-614.71,82.642Z" fill="#fff"/>
      <path id="Path_294" data-name="Path 294" d="M-365.744,344.056c0,1.078,0,2.114,0,3.149a1.106,1.106,0,0,1-.615,1.032,1.087,1.087,0,0,1-1.149-.046,1.132,1.132,0,0,1-.537-1.021q0-1.381,0-2.763v-.351h-.321c-.95,0-1.9.007-2.849,0a1.141,1.141,0,0,1-1.132-.957,1.128,1.128,0,0,1,.679-1.237,1.681,1.681,0,0,1,.588-.1c1-.01,1.994,0,3.035,0,0-.113,0-.213,0-.314,0-.95-.007-1.9,0-2.849a1.142,1.142,0,0,1,.951-1.138,1.127,1.127,0,0,1,1.241.672,1.66,1.66,0,0,1,.1.587c.011.911,0,1.823,0,2.734v.308h.8c.768,0,1.535,0,2.3,0a1.153,1.153,0,0,1,1.219,1.146,1.151,1.151,0,0,1-1.211,1.155c-.921.006-1.842,0-2.763,0Z" transform="translate(-238.55 -238.548)" fill="#fff"/>
    </g>
  </g>
</svg>
