<svg xmlns="http://www.w3.org/2000/svg" width="22.505" height="20.957" viewBox="0 0 22.505 20.957">
  <g id="Group_461" data-name="Group 461" transform="translate(505.451 -219.057)">
    <path id="Path_712" data-name="Path 712" d="M-505.451,229.23a2.156,2.156,0,0,1,.66-.987q4.084-4.074,8.16-8.154a3.382,3.382,0,0,1,4.192-.535,3.793,3.793,0,0,1,.682.549c.795.779,1.578,1.571,2.366,2.357a.552.552,0,0,0,.055.039,1.694,1.694,0,0,0,.018-.17c0-.381-.008-.762,0-1.143a1.3,1.3,0,0,1,1.02-1.267,1.263,1.263,0,0,1,1.42.706,1.835,1.835,0,0,1,.136.7c.013,1.2,0,2.4.012,3.6a.5.5,0,0,0,.132.32c1.061,1.073,2.131,2.137,3.2,3.206a1.289,1.289,0,0,1,.112,1.85,1.279,1.279,0,0,1-1.729.157,3.092,3.092,0,0,1-.275-.251l-8.236-8.234a.807.807,0,0,0-1.351.005l-8.282,8.281a1.3,1.3,0,0,1-1.672.279,1.492,1.492,0,0,1-.62-.871Z" transform="translate(0 0)" fill="#fff"/>
    <path id="Path_713" data-name="Path 713" d="M-440.449,323.366v-5.72h-4.19v5.72c-.082.005-.139.012-.2.012-1.15,0-2.3.006-3.449,0a2.319,2.319,0,0,1-2.369-2.008,2.617,2.617,0,0,1-.021-.416c0-1.743,0-3.486,0-5.229a.9.9,0,0,1,.283-.682q3.656-3.646,7.3-7.3a.662.662,0,0,1,1.094,0q3.652,3.65,7.3,7.3a.9.9,0,0,1,.287.681c-.007,1.78,0,3.559-.006,5.339a2.321,2.321,0,0,1-1.924,2.288,2.5,2.5,0,0,1-.437.032q-1.747,0-3.493,0C-440.316,323.378-440.366,323.371-440.449,323.366Z" transform="translate(-51.657 -83.366)" fill="#fff"/>
  </g>
</svg>
