<svg id="Group_2497" data-name="Group 2497" xmlns="http://www.w3.org/2000/svg" width="87.535" height="87.704" viewBox="0 0 87.535 87.704">
  <path id="Path_643" data-name="Path 643" d="M479.472,1351.844c-.228-2.578-.477-5.154-.671-7.734a11.882,11.882,0,0,1,.124-1.961c.153-1.665.158-1.664,1.9-2.45,0,.858-.009,1.67,0,2.481a1.563,1.563,0,1,0,3.1.011c.011-2.445,0-4.89,0-7.562.3.364.488.555.637.772,1.06,1.553,2.1,3.121,3.171,4.667a8.419,8.419,0,0,0,7.68,3.941c2.019-.081,4.043-.02,6.065-.019a7.576,7.576,0,0,0,6.3-3.056c1.334-1.737,2.52-3.589,3.775-5.388.178-.255.373-.5.66-.881.038.349.078.55.079.752,0,2.225,0,4.451.005,6.677,0,1.143.608,1.855,1.55,1.858s1.542-.706,1.554-1.851c.008-.769,0-1.539,0-2.316,1.285.306,1.74.83,1.867,2.021a29.615,29.615,0,0,1-.5,9.612,2.616,2.616,0,0,0-.025.425Z" transform="translate(-454.339 -1264.14)" fill="#fff"/>
  <path id="Path_644" data-name="Path 644" d="M624.627,1054c-1.463,6.205-5.8,10.339-10.385,14.226a91.8,91.8,0,0,1-20.425,12.639,1.078,1.078,0,0,1-.644.121c-2.377-.562-4.747-1.149-7.136-1.935.315-.126.629-.255.945-.379,8.805-3.461,17.2-7.668,24.675-13.562a32.747,32.747,0,0,0,6.585-6.558,41.11,41.11,0,0,0,2.271-4.084c.1-.187.209-.432.378-.512a6.86,6.86,0,0,0,3.231-3.21l.506,1.542Z" transform="translate(-537.092 -1045.097)" fill="#d0ad60"/>
  <path id="Path_645" data-name="Path 645" d="M376.233,1378.225c.584-.381,1.146-.8,1.758-1.135,3.1-1.675,6.218-3.3,9.3-4.995a26.338,26.338,0,0,1,6.549-2.591c.879-.21,1.753-.442,2.711-.684,0,.347-.018.673,0,1q.246,3.866.5,7.732c.015.225.019.451.028.676Z" transform="translate(-375.206 -1290.522)" fill="#fff"/>
  <path id="Path_646" data-name="Path 646" d="M659.185,1378.318c.185-1.807.418-3.61.537-5.421.085-1.3.017-2.613.017-3.957a34.333,34.333,0,0,1,8.955,3.073c3.222,1.8,6.5,3.494,9.745,5.253.56.3,1.071.7,1.6,1.052Z" transform="translate(-593.534 -1290.615)" fill="#fff"/>
  <path id="Path_647" data-name="Path 647" d="M601.1,1026l1.595.244-.711,2.956c-1.552,0-3.166-.044-4.777.008a77.508,77.508,0,0,0-17.015,2.542,4.347,4.347,0,0,1-1.811-.019c-1.786-.327-3.559-.726-5.332-1.1a2.3,2.3,0,0,1,.39-.194,91.712,91.712,0,0,1,21.877-4.3,4.433,4.433,0,0,0,.655-.138Z" transform="translate(-527.068 -1026)" fill="#d0ad60"/>
  <path id="Path_648" data-name="Path 648" d="M719.363,1150.45a7.4,7.4,0,0,1-3.856,4.752,5.936,5.936,0,0,1-.541.251c-.1.043-.211.067-.386.121a8.825,8.825,0,0,0-1.266-5.937.58.58,0,0,1,.053-.518,3.466,3.466,0,0,0,.229-3.742,40.865,40.865,0,0,0-2.832-4.642,22.353,22.353,0,0,0-1.949-2.213l2.571-2.072c3.566,3.493,6.861,7.078,7.977,12.117Z" transform="translate(-631.828 -1111.223)" fill="#fff"/>
  <path id="Path_649" data-name="Path 649" d="M429.734,1026c1.607.171,3.217.323,4.821.518a95.8,95.8,0,0,1,15.145,3.188c-1.2.479-2.246.812-3.21,1.308a4.461,4.461,0,0,1-3.34.246,72.284,72.284,0,0,0-17.318-2.114c-.739,0-1.478.069-2.217.1a.486.486,0,0,1-.148-.037l-.94-2.934,1.907-.276Z" transform="translate(-410.927 -1026)" fill="#fff"/>
  <path id="Path_650" data-name="Path 650" d="M383.368,1026a4.28,4.28,0,0,1,2.92,2.943,3.9,3.9,0,1,1-5.383-2.595c.252-.115.5-.232.753-.349Z" transform="translate(-377.041 -1026)" fill="#fff"/>
  <path id="Path_651" data-name="Path 651" d="M717.846,1026c.193.107.382.22.578.319a3.119,3.119,0,1,1-2.7-.007c.2-.1.391-.208.586-.312Z" transform="translate(-635.782 -1026)" fill="#fff"/>
  <path id="Path_652" data-name="Path 652" d="M480.063,1225c3.606-.733,6.993-1.341,10.337-2.127,2.681-.631,5.307-1.495,7.969-2.215a2.583,2.583,0,0,1,1.388-.012,107.991,107.991,0,0,0,17.511,4.08c.588.085.735.29.74.852.014,1.883.081,3.766.132,5.648a12.236,12.236,0,0,1-3.759,9.405,37.422,37.422,0,0,0-6.4,8.09c-1.722,3.031-4.081,4.614-7.681,4.169a34.995,34.995,0,0,0-4.439-.03,4.817,4.817,0,0,1-4.012-1.91,27.271,27.271,0,0,1-1.793-2.5,42.647,42.647,0,0,0-6.291-7.857,11.835,11.835,0,0,1-3.567-6.854,10.964,10.964,0,0,1-.13-1.447C480.056,1229.845,480.063,1227.4,480.063,1225Z" transform="translate(-455.321 -1176.121)" fill="#fff"/>
  <path id="Path_653" data-name="Path 653" d="M515.121,1075.5a5.293,5.293,0,0,1-.689.539,115.28,115.28,0,0,1-17.894,8.2,4.837,4.837,0,0,1-3.582-.012,119.936,119.936,0,0,1-17.833-8.133,1.092,1.092,0,0,1-.647-1.345c1.066-6.168,4.614-10.239,10.359-12.537,7.919-3.169,15.6-2.715,22.942,1.619a14.609,14.609,0,0,1,7.268,11.024C515.065,1075,515.078,1075.14,515.121,1075.5Z" transform="translate(-450.984 -1052.355)" fill="#fff"/>
  <path id="Path_654" data-name="Path 654" d="M372,1062.77a7.364,7.364,0,0,0,4.34,2.443.859.859,0,0,1,.513.394c2.936,5.015,7.307,8.575,12.039,11.705a112.416,112.416,0,0,0,40.653,16.442c2.732.541,5.511.843,8.254,1.253v5.347c-1.477-.2-3.14-.377-4.786-.652a115.713,115.713,0,0,1-42.606-16.329,56.728,56.728,0,0,1-14.543-12.335,16.133,16.133,0,0,1-3.825-7.722C372.027,1063.208,372.027,1063.1,372,1062.77Z" transform="translate(-371.943 -1054.372)" fill="#fff"/>
  <path id="Path_655" data-name="Path 655" d="M379.776,1136.663l2.444,1.983c-1.068,1.305-2.141,2.526-3.108,3.825a9.471,9.471,0,0,0-1.957,4.316,3.15,3.15,0,0,0,1.613,3.4,13.568,13.568,0,0,0,5.439,1.623c5.718.72,11.367.058,16.99-.947a4,4,0,0,1,2.535.256c2.141.981,4.334,1.847,6.732,2.853-1.617.429-3.033.837-4.465,1.179a75.209,75.209,0,0,1-19.939,2.469,23.808,23.808,0,0,1-10.275-2.17c-2.008-1.024-3.575-2.451-3.968-4.819a8.144,8.144,0,0,1,.585-4.187A27.11,27.11,0,0,1,379.776,1136.663Z" transform="translate(-371.737 -1111.388)" fill="#d0ad60"/>
  <path id="Path_656" data-name="Path 656" d="M683.763,1196.021a5.419,5.419,0,0,1-5.432,5.5,5.47,5.47,0,1,1,5.432-5.5Z" transform="translate(-604.065 -1152.994)" fill="#fff"/>
  <path id="Path_657" data-name="Path 657" d="M449.55,1089.716l-2.616,6.846-3.956-2.767Z" transform="translate(-426.708 -1075.163)" fill="#d0ad60"/>
</svg>
