<svg id="Component_28_1" data-name="Component 28 – 1" xmlns="http://www.w3.org/2000/svg" xmlns:xlink="http://www.w3.org/1999/xlink" width="157.921" height="157.921" viewBox="0 0 157.921 157.921">
  <defs>
    <clipPath id="clip-path">
      <ellipse id="Ellipse_200" data-name="Ellipse 200" cx="78.96" cy="78.96" rx="78.96" ry="78.96" fill="none"/>
    </clipPath>
  </defs>
  <ellipse id="Ellipse_199" data-name="Ellipse 199" cx="78.96" cy="78.96" rx="78.96" ry="78.96" fill="#fff"/>
  <g id="Group_2296" data-name="Group 2296" transform="translate(0)">
    <g id="Group_2283" data-name="Group 2283" transform="translate(0)" clip-path="url(#clip-path)">
      <g id="Group_2282" data-name="Group 2282" transform="translate(10.823 14.175)">
        <g id="Group_2281" data-name="Group 2281">
          <g id="Group_2280" data-name="Group 2280">
            <path id="Path_1847" data-name="Path 1847" d="M-11.2,126.415c.651.037,1.434.635,1.827-.43C-9.879,126.552-10.633,126.085-11.2,126.415ZM-53.384,301.482a44.685,44.685,0,0,0,3.322,5.589c.986,1.519,1.716,1.442,2.333-.235.678-1.848,1.2-3.755,1.738-5.65.095-.34.19-.678.287-1.018.008-.027.013-.053.021-.074a15.435,15.435,0,0,1,3.728-5.735.534.534,0,0,0,.063-.09.756.756,0,0,0,.069-.108c.111-.2.19-.406.293-.609-.124.142-.248.287-.372.427-2.239,1.326-3.3,3.538-4.369,5.758-.77,2.69-1.542,5.381-2.394,8.361C-50.475,305.745-51.272,303.132-53.384,301.482ZM-61.267,210.6c1,1.524,2.046,3.024,3.148,4.477,4.551,6.009,6.6,12.9,7.446,20.278.723,6.3.933,12.635,1.387,18.954.527,7.33.169,14.736,1.643,21.995.242,1.189-.475,2.494.443,3.6.045-.385.066-.77.076-1.147.066-2.592-.519-5.141-.625-7.717-.282-6.874-.662-13.75-1.039-20.618-.38-6.937-.506-13.927-2.136-20.74-1.321-5.537-3.3-10.789-6.887-15.319-1-1.263-1.835-2.658-2.8-3.942-3.733-4.965-3.525-10.52-2.563-16.208a2.464,2.464,0,0,1,.182-.633c1.941-4.155,4.8-7.831,6.1-12.73a11.307,11.307,0,0,1,2.373,4.72c3.486,11.451,6.446,23.023,7.124,35.043.208,3.636,2.716,5.321,5.35,6.971A1.342,1.342,0,0,0-40,226.973a11.922,11.922,0,0,1,3.093-3.486c.124-.105.243-.211.361-.322.084-.066.163-.14.242-.211,1.131-1.434.6-3,.343-4.54-.105-.612-.329-1.2-.453-1.806-.029-.163-.055-.329-.069-.5-.04-.156-.079-.308-.119-.466-1.078-4.345-1.107-8.817-1.563-13.236-.754-7.274-.741-14.644-1.985-21.839-1.113-6.441-3.059-12.724-4.358-19.166-.889-4.406-2.107-7.121-4.5-8.788a44.281,44.281,0,0,1,8.843,6.109c1.057.9,1.967,1.962,2.961,2.934.077.071.15.145.227.222a3.025,3.025,0,0,1,.227.229,30.2,30.2,0,0,1,6.869,11.641c.424,1.2.553,2.75,2.5,2.315a2.43,2.43,0,0,1-1.843-2.03,31.127,31.127,0,0,0-6.386-11.68,6.414,6.414,0,0,0-1.01-.815c-6.077-7.324-13.908-11.285-23.6-12.318a3.093,3.093,0,0,0,3.153,1.764c7.348-.005,9.56,2.927,11.5,8.619a20.771,20.771,0,0,1,1.474,8.353,8.211,8.211,0,0,0,.836,4.031c2.255,4.944,2.853,10.172,3.164,15.53.359,6.091,1.144,12.16,1.648,18.243.285,3.478.211,6.989,1.387,10.343.021,2.2,1.6,4.3.43,6.576a7.182,7.182,0,0,0-3.881,3.979c-.367,1.039-.92.8-1.474.388-2.66-1.964-4.938-3.847-4.9-7.876.063-5.584-1.237-11.113-2.486-16.579-1.637-7.182-3.156-14.4-6.088-21.206-.264-.614-.4-1.429-1.113-1.482-.815-.063-.849.87-1.11,1.426-1.429,3.008-2.745,6.038-4.382,8.983C-65.8,197.04-65.594,204.008-61.267,210.6Zm5.89-60.083c-.833-.111-1.729-.2-2.7-.269A20.782,20.782,0,0,1-55.377,150.522ZM-84.441,178.81c3.019,3.275,3.032,7.433,4.3,11.227.082.256.174.5.477,1.374.683-2.666,1.213-4.714,1.732-6.76a10.13,10.13,0,0,1,2.513-5.171c2.014-2.006,1.68-5.286-.3-7.343a5.463,5.463,0,0,0-7.375-.52C-85.337,173.36-86.32,176.772-84.441,178.81ZM-95.172,296.156c.293,1.255,1.091.414,1.432.2a27.477,27.477,0,0,1,12.368-4c.907-.074,1.505-.52,1.4-1.558-.069-.738.066-1.487,0-2.226v-.011a3.12,3.12,0,0,0-.177-.791c-.3,1.2.5,2.639-.3,3.6-.773.947-2.2.269-3.33.506a27.764,27.764,0,0,0-10.467,4.111C-94.528,296.187-94.787,296.538-95.172,296.156Zm-9.8-87.486a68.274,68.274,0,0,0,7.591-3.552c-.008-.058-.016-.116-.026-.169a.483.483,0,0,0-.047.013A17.838,17.838,0,0,0-104.972,208.67Z" transform="translate(115.567 -102.261)"/>
            <path id="Path_1848" data-name="Path 1848" d="M-128.334,145.452a21.621,21.621,0,0,1,6.038.353c2.7.744,2.716.678,2.879-2.231-2.056-2.85-.63-4.925,1.5-6.881q4.121-3.789,8.179-7.644c.836-.8,1.223-.762,1.935.251,2.478,3.538,2.391,7.464,1.7,11.369-.849,4.815-2.065,9.568-3.122,14.343-.269,1.21-.549,2.42-.894,3.931-1.956-3.135-3.688-5.906-5.418-8.675a68.275,68.275,0,0,1-7.591,3.552c3.111,4.762,6.716,9.159,10.214,13.631a2.606,2.606,0,0,1,.419,2.449c-3.6,15.068-2.584,30.282-1.46,45.5.572,7.754.743,15.509.606,23.279-.018.875.013,1.756.021,2.631.385.382.643.032.925-.163a27.764,27.764,0,0,1,10.467-4.111c1.126-.237,2.557.44,3.33-.506.8-.965,0-2.4.3-3.6-.846-5.426-1.276-10.889-1.619-16.366a15.481,15.481,0,0,1,.918-6.046,118.528,118.528,0,0,0,5.856-23.158c.069-.54-.053-1.239.9-1.12a.941.941,0,0,1,.933.994c.538,7.588,3.931,14.354,6.207,21.438,2.5,7.791,4.822,15.643,7.818,23.276a26.777,26.777,0,0,0,2.834,5.671,16.591,16.591,0,0,1,2.922,9.02c2.112,1.65,2.908,4.263,4.72,6.618.852-2.979,1.624-5.671,2.394-8.361,1.065-2.22,2.13-4.432,4.369-5.758.124-.14.248-.285.372-.427-2.175-4.427-4.49-8.8-5.671-13.645-.918-1.1-.2-2.41-.443-3.6-1.474-7.259-1.115-14.665-1.643-21.995-.454-6.32-.664-12.653-1.387-18.954-.844-7.375-2.895-14.27-7.446-20.278-1.1-1.453-2.149-2.953-3.148-4.477-4.327-6.6-4.532-13.565-.791-20.289,1.637-2.945,2.953-5.975,4.382-8.983.261-.556.3-1.489,1.11-1.426.714.053.849.867,1.113,1.482,2.932,6.81,4.451,14.024,6.088,21.206,1.25,5.466,2.55,10.995,2.486,16.579-.042,4.029,2.236,5.911,4.9,7.876.554.409,1.107.651,1.474-.388a7.182,7.182,0,0,1,3.881-3.979c1.168-2.275-.409-4.374-.43-6.576-1.176-3.354-1.1-6.866-1.387-10.343-.5-6.083-1.289-12.152-1.648-18.243-.311-5.358-.909-10.586-3.164-15.53a8.211,8.211,0,0,1-.836-4.031,20.771,20.771,0,0,0-1.474-8.353c-1.938-5.693-4.15-8.624-11.5-8.619a3.093,3.093,0,0,1-3.153-1.764c9.69,1.034,17.521,4.994,23.6,12.318a6.413,6.413,0,0,1,1.01.815,31.126,31.126,0,0,1,6.386,11.68,2.43,2.43,0,0,0,1.843,2.03c6.731,1.9,13.2.678,19.6-1.6,4.472-1.6,8.835-3.546,13.669-3.947a12.3,12.3,0,0,1,4.764.522c3.259,1.031,4.7,3.069,4.727,6.5.005.8,0,1.611,0,2.694,1.569-2.492,1.941-4.891.688-7.322-2.755-5.36-7.8-6.1-13.579-6.2A25.449,25.449,0,0,1-9.5,108.12c.672-.285,1.25.29,1.814.6a32.471,32.471,0,0,1,6.043,4.722c.58.533,1.041,1.545,2.288,1.036-.912-1.492-1.8-2.951-2.8-4.588,5.452,1.774,10.4,5.9,16.368,2.32-5.181,1.236-8.78-1.2-11.812-5a21.909,21.909,0,0,0-1.221-2.328,5.719,5.719,0,0,1-.72-4.949c2.007-8.479-3.108-15.87-12.073-16.244a33.339,33.339,0,0,0-6.963.446,1.656,1.656,0,0,0,.493-.723c.862-1.761-.145-4.111-2.434-5.727C-25.387,74.6-30.708,75-36.055,75.655a25.974,25.974,0,0,1-6.022.625c4.005-1.827,7.773-2.217,11.87-2.652-2.284-.925-4.422-1.036-6.431-1.748,2.423-.636,4.857-.335,7.277-.314.567-.33,1.321.137,1.827-.43-.762-.387-1.524-.77-2.312-1.168,2.655-1.21,6.188-1.152,10.876.158-1.1-2.02-1.716-2.547-3.984-3.059a31.209,31.209,0,0,0-8.93-.947c-7.623.5-14.581-1.505-21.272-5.047C-60,57.446-66.684,53.489-74.022,50.852a65.039,65.039,0,0,0-12.745-3.235A23.012,23.012,0,0,0-100.1,49.961a10.308,10.308,0,0,0-5.271,4.044,3.52,3.52,0,0,0-1.55,3.375c.553,3.583-.446,7.562,2.447,10.6-1.215,9.637.8,18.306,7.583,25.573a2.686,2.686,0,0,1-1.173,4.551,19.847,19.847,0,0,0-10.422,7.7c-6.041,9.088-13.007,17.465-19.609,26.118C-131.975,137.007-131.846,139.867-128.334,145.452ZM-8.054,89.74c4.242-.224,7.765,5.458,6.676,10.515C-2.788,96.118-4.141,92.265-8.054,89.74Zm-10.135,6.341c5.492-2.046,8.925-.772,11.39,3.794q1.451,2.689,2.913,5.379c-.15.171-.3.34-.44.511C-8.468,102.05-12.178,97.724-18.189,96.081ZM-37.811,82.724a63.36,63.36,0,0,1,10.475-3.262c3.934-.672,5.941.314,7.7,3.939.153.316.235.743.643.8a40.319,40.319,0,0,0-4.854,1.2,42.23,42.23,0,0,1-7.62,2.083c-2.681.309-5.133-.208-7.011-2.3C-39.664,83.847-39.506,83.322-37.811,82.724Zm-63.448,34.044a5.463,5.463,0,0,1,7.375.52c1.983,2.056,2.318,5.336.3,7.343a10.13,10.13,0,0,0-2.513,5.171c-.519,2.046-1.05,4.095-1.732,6.76-.3-.87-.4-1.118-.477-1.374-1.265-3.794-1.279-7.952-4.3-11.227C-104.481,121.922-103.5,118.51-101.259,116.768Z" transform="translate(133.727 -47.412)"/>
            <path id="Path_1849" data-name="Path 1849" d="M31.843,264.333c1,1.523,2.047,3.024,3.147,4.476,4.551,6.008,6.6,12.9,7.447,20.277.722,6.3.933,12.637,1.386,18.957.528,7.328.167,14.736,1.642,21.994.242,1.188-.475,2.5.444,3.6a1.97,1.97,0,0,1,.075-1.149c.2-.379.687-.357,1.51.057,2.073,1.048,4.194,1.989,6.3,2.98,4.283,2.566,8.425,5.4,13.222,7h0c4.9,2.272,9.9,1.68,14.791.178,7.085-2.178,12.57-6.372,15.786-13.295,1.877-4.039,3.668-8.122,5.9-12,4.055-7.033,9.894-9.98,18.014-8.687a99.314,99.314,0,0,0,16.2,1.3c7.718-.044,14.321-2.594,19.7-8.211,2.686-2.806,5.432-5.555,8.171-8.309,4.064-4.087,8.58-7.429,14.416-8.762-2.294-.247-4.6-.417-6.881-.756-8.492-1.261-16.163-4.261-22.833-9.924-6.793-5.767-15.149-8.082-23.761-9.58-8.732-1.518-17.618-2-26.29-3.93-7.428-1.65-14.5-4.114-20.676-8.738a33.234,33.234,0,0,1-9.791-12.49c-1.19-2.441-2.312-4.916-3.465-7.376h0c-.058-.752-.845-1.316-.563-2.156a2.431,2.431,0,0,1-1.844-2.029A31.133,31.133,0,0,0,57.5,216.085a6.318,6.318,0,0,0-1.008-.814c-6.078-7.324-13.908-11.285-23.6-12.32a3.1,3.1,0,0,0,3.156,1.765c7.346,0,9.56,2.927,11.5,8.618a20.779,20.779,0,0,1,1.474,8.354,8.224,8.224,0,0,0,.836,4.032c2.253,4.943,2.852,10.172,3.165,15.528.357,6.091,1.144,12.161,1.646,18.244.286,3.477.211,6.989,1.386,10.343.022,2.2,1.6,4.3.431,6.576a7.188,7.188,0,0,0-3.882,3.979c-.365,1.039-.92.8-1.474.387-2.659-1.963-4.938-3.847-4.894-7.874.062-5.585-1.237-11.114-2.487-16.58-1.637-7.183-3.156-14.4-6.087-21.206-.264-.616-.4-1.431-1.114-1.483-.814-.062-.85.871-1.109,1.426-1.43,3.011-2.746,6.039-4.384,8.983C27.309,250.768,27.516,257.735,31.843,264.333Zm15.819,19.718a.758.758,0,0,0-.11.1c-.022-.088-.049-.181-.075-.273Q47.569,283.972,47.661,284.051Zm1.29,6.338a.82.82,0,0,0,.062.057,1.39,1.39,0,0,0,.189.145,7.943,7.943,0,0,1,3.614-.775c2.372-.136,2.469.04,2.337,2.372-.268,4.749-.96,9.494-.621,14.247.247,3.438.312,6.871.423,10.313a21.432,21.432,0,0,1-1.752,9.194,10.377,10.377,0,0,0-.929,2.808c-.546-1.237-.159-2.5.163-3.75a16.855,16.855,0,0,0,.691-6.281,5.971,5.971,0,0,0-.321-1.5c-.233-.594-.4-1.373-1.25-1.285-.779.079-.964.805-1.14,1.444-.357,1.294.431,2.8-.665,3.957-.211.009-.365-.066-.365-.216-.075-5.673-.836-11.4,1.188-16.923a6.089,6.089,0,0,0,.4-2.808c-.449-3.658-.295-7.43-1.972-10.867C48.986,290.482,48.969,290.433,48.951,290.389Z" transform="translate(22.458 -155.988)" fill="#d1ad61"/>
            <path id="Path_1850" data-name="Path 1850" d="M-120.5,745.686c-.314,3.278-.7,6.55-.924,9.834a10.931,10.931,0,0,1-4.943,8.627c-3.611,2.505-7.3,4.9-10.9,7.416-1.253.878-3.3,1.661-2.685,3.522.634,1.916,2.7,1.24,4.251,1.129a40.008,40.008,0,0,0,11.786-2.455,16.083,16.083,0,0,1,8.66-.52c4.752.775,6.963-1.379,5.785-6.052a93.5,93.5,0,0,1-2.826-14.856,46.91,46.91,0,0,1,2.78-19.83c.452-1.1-.328-1.167-.976-.964a72.7,72.7,0,0,0-8.351,2.713,2.6,2.6,0,0,0-1.48,2.684C-120.363,739.852-120.059,742.778-120.5,745.686Z" transform="translate(140.063 -524.913)"/>
            <path id="Path_1851" data-name="Path 1851" d="M79.628,750.529c.018,1.791.634,2.914,2.491,3.16.295-.018.59-.04.885-.057a5.937,5.937,0,0,0,1.642-4.8c-.123-5.709.475-11.391.739-17.082.295-6.417.576-12.835.986-19.247.458-7.222.713-14.459,1.2-21.681.185-2.755.621-5.572-.528-8.257-.027-.062-.053-.119-.079-.181-2.24,1.325-3.306,3.539-4.371,5.757a1.36,1.36,0,0,1,.335,1.008c-.018.145-.04.295-.053.44-1.034,8.028-.951,16.127-1.567,24.177-.365,4.78.132,9.635-1.1,14.348q.092.357.159.713v.018a9.97,9.97,0,0,1,.167,1.184,49.616,49.616,0,0,1-.229,6.756C80.116,741.369,79.579,745.933,79.628,750.529Z" transform="translate(-13.294 -490.666)" fill="#161616"/>
            <path id="Path_1852" data-name="Path 1852" d="M90.815,752.644c1.84-.858,2.527-2.57,3.182-4.3-.07-5.066.392-10.11.6-15.167a2.135,2.135,0,0,1,.537-1.162q-.429-2.859-.867-5.722a23.983,23.983,0,0,1-.009-6.153,117.534,117.534,0,0,1,2.958-14.952c1.958-8.288,1.756-16.408-2.078-24.212-.123.141-.246.286-.37.427,0,.1,0,.194.009.29.238,8.015-.739,15.986-.982,23.983-.172,5.748-.524,11.5-.858,17.249-.519,9.023-1.29,18.033-1.219,27.082C91.731,751.06,90.881,751.689,90.815,752.644Z" transform="translate(-21.105 -489.679)" fill="#060606"/>
            <path id="Path_1853" data-name="Path 1853" d="M65.888,703.2c.361,9.071,2.025,17.98,3.275,26.945a88.576,88.576,0,0,1,1.25,13.512,1.794,1.794,0,0,0,.533-.312c.585-.533.163-1.245-.11-1.932,1.268-2.24,1.246-4.683,1.281-7.17.154-9.881,1.316-19.718,1.285-29.6,0-.915,1.109-2.011.189-2.826a2.322,2.322,0,0,0-.59-.357c-.77,2.689-1.54,5.383-2.394,8.363C68.8,707.461,68,704.847,65.888,703.2Z" transform="translate(-3.704 -503.976)" fill="#29292b"/>
            <path id="Path_1854" data-name="Path 1854" d="M-74.224,678.6c.8.63,1.5.049,2.236-.18,3.939-1.219,7.781-2.782,11.928-3.235,1.413-4.1,2.333-8.244,1.479-12.561v-.009c-.053-.264-.11-.528-.176-.792-.3,1.206.5,2.641-.3,3.6-.775.947-2.205.269-3.332.506a27.778,27.778,0,0,0-10.467,4.111c-.282.194-.541.546-.924.163C-74.677,672.961-74.2,675.792-74.224,678.6Z" transform="translate(94.176 -476.307)" fill="#2c2c2e"/>
            <path id="Path_1855" data-name="Path 1855" d="M-60.763,704.217c-.2-1.268-1.011-.7-1.652-.519a129.308,129.308,0,0,0-12.512,3.933c-.286,6.159-.476,12.32-.387,18.486.9-2.468.446-5.039.377-7.537a3.421,3.421,0,0,1,2.853-3.91c2.3-.663,4.579-1.426,6.85-2.2.557-.189.81-.106.9.459C-62.952,710.1-61.3,707.39-60.763,704.217Z" transform="translate(94.879 -505.344)" fill="#151516"/>
            <path id="Path_1856" data-name="Path 1856" d="M71.57,833.783c-.186.74.2,1.586-.419,2.246-.861,2.834-1.97,5.568-3.055,8.324a13.965,13.965,0,0,0,.959,12.984,3.79,3.79,0,0,0,4.211,2.035c-1.5-.6-1.877-1.687-1.791-3.26.365-6.692.632-13.391.891-20.089C72.4,835.224,72.768,834.194,71.57,833.783Z" transform="translate(-4.44 -596.351)" fill="#272728"/>
            <path id="Path_1857" data-name="Path 1857" d="M-122.2,368.791a42.462,42.462,0,0,0,5.2,8.369,17.838,17.838,0,0,1,7.517-3.707.492.492,0,0,1,.047-.013,9.379,9.379,0,0,0-3.29-6.088v.134c-.005.1-.005.187-.005.277-.087,2.7-.459,2.916-3.143,2.21a14.761,14.761,0,0,0-2.992-.5C-120.01,369.421-121.207,369.592-122.2,368.791Z" transform="translate(127.594 -270.751)"/>
            <path id="Path_1858" data-name="Path 1858" d="M-97.455,387.527a17.838,17.838,0,0,0-7.517,3.707,68.277,68.277,0,0,0,7.591-3.552c-.008-.058-.016-.116-.026-.169A.466.466,0,0,0-97.455,387.527Z" transform="translate(115.567 -284.826)" fill="#212223"/>
            <path id="Path_1859" data-name="Path 1859" d="M-122.2,367.778c.994.8,2.191.63,3.335.678a14.767,14.767,0,0,1,2.992.5c2.684.707,3.056.493,3.143-2.21,0-.09,0-.182.005-.277v-.134c-.177-.153-.367-.3-.559-.438-.163,2.908-.182,2.974-2.879,2.231A21.619,21.619,0,0,0-122.2,367.778Z" transform="translate(127.594 -269.738)"/>
            <path id="Path_1860" data-name="Path 1860" d="M100.614,850.017c-1.046.123-1.21.84-1.256,1.731-.219,4.22-.5,8.438-.695,12.659a2.143,2.143,0,0,0,.81,1.938c2.676-4.255,3.786-8.7,1.792-13.588A17.7,17.7,0,0,1,100.614,850.017Z" transform="translate(-26.581 -607.683)" fill="#060606"/>
            <path id="Path_1861" data-name="Path 1861" d="M101.134,810.676a10.1,10.1,0,0,0,.008,6.153Q101.138,813.752,101.134,810.676Z" transform="translate(-27.976 -580.221)" fill="#161616"/>
            <path id="Path_1862" data-name="Path 1862" d="M205.6,126.414c1.109.238,2.214.476,3.473.748-.295-.964-1.047-.964-1.646-1.18C206.918,126.551,206.166,126.084,205.6,126.414Z" transform="translate(-101.231 -102.26)" fill="#323537"/>
            <path id="Path_1863" data-name="Path 1863" d="M-80.028,387.514a.466.466,0,0,0-.047.013c.026.053.053.1.074.155C-80.009,387.625-80.017,387.567-80.028,387.514Z" transform="translate(98.187 -284.826)" fill="#f5f5f5"/>
            <path id="Path_1864" data-name="Path 1864" d="M-39.264,281.559c3.019,3.275,3.033,7.434,4.3,11.228.084.255.176.5.48,1.373.682-2.667,1.21-4.714,1.73-6.761a10.173,10.173,0,0,1,2.513-5.172c2.016-2.007,1.681-5.286-.3-7.342a5.457,5.457,0,0,0-7.372-.519C-40.162,276.11-41.143,279.521-39.264,281.559Z" transform="translate(70.391 -205.01)" fill="#6fcef3"/>
            <path id="Path_1865" data-name="Path 1865" d="M95.383,489.365c.3,2.447.424,4.93.941,7.33a14.728,14.728,0,0,1-.514,7.911c-1.715,5.267-.538,10.727-.852,16.092-.026.435-.011.927.513,1.09a.91.91,0,0,0,1.091-.52c.6-1.078,1.424-2.167.888-3.469-.431-1.048.044-1.812.47-3.009a9.493,9.493,0,0,1,.743,6.7c-.305,1.568-.787,3.1-1.047,4.676-.151.912-.244,2.027,1.293,1.908,3.736-6.586,3.446-13.709,2.793-20.882-.059-.652-.143-1.306-.148-1.959a121.894,121.894,0,0,1,.85-15.032c.26-2.238-.263-2.657-2.523-2.29a18.192,18.192,0,0,1-2.84.12C96.113,488.038,95.475,488.346,95.383,489.365Z" transform="translate(-23.923 -354.829)"/>
            <path id="Path_1866" data-name="Path 1866" d="M-33.461,283.48a3.684,3.684,0,0,0,3.66,3.584,3.729,3.729,0,0,0,3.682-3.794,3.716,3.716,0,0,0-3.674-3.579A3.674,3.674,0,0,0-33.461,283.48Z" transform="translate(65.649 -209.558)" fill="#000203"/>
          </g>
          <path id="Path_1867" data-name="Path 1867" d="M-18.066,190.42a11.028,11.028,0,0,0,5.088,1.922c3.164.4,12.776-6.169,12.776-6.169s-9.988,5.263-12.234,5.544S-18.066,190.42-18.066,190.42Z" transform="translate(54.901 -144.276)" fill="#6fcef3"/>
          <path id="Path_1868" data-name="Path 1868" d="M-34.549,80.259s5.6-10.788,15.187-7.955,17.3,9.04,25.794,11.27c-6.147-.6-19.792-8.275-25.191-9.944s-11.752,1.748-14.1,5.785A6.24,6.24,0,0,1-34.549,80.259Z" transform="translate(66.407 -64.457)" fill="#6fcef3"/>
          <path id="Path_1869" data-name="Path 1869" d="M-50.631,68.907s-.236-8.357,6.393-10.527,17.839-.964,17.839-.964A60.762,60.762,0,0,0-36.885,56.03c-4.46-.03-11.468.273-13.961,8.559Z" transform="translate(77.784 -53.427)" fill="#6fcef3"/>
        </g>
      </g>
    </g>
  </g>
</svg>
