<svg id="Component_27_1" data-name="Component 27 – 1" xmlns="http://www.w3.org/2000/svg" xmlns:xlink="http://www.w3.org/1999/xlink" width="157.921" height="157.921" viewBox="0 0 157.921 157.921">
  <defs>
    <clipPath id="clip-path">
      <ellipse id="Ellipse_198" data-name="Ellipse 198" cx="78.96" cy="78.96" rx="78.96" ry="78.96" fill="none"/>
    </clipPath>
  </defs>
  <ellipse id="Ellipse_197" data-name="Ellipse 197" cx="78.96" cy="78.96" rx="78.96" ry="78.96" transform="translate(0)" fill="#fff"/>
  <g id="Group_2295" data-name="Group 2295" transform="translate(0 0)">
    <ellipse id="Ellipse_197-2" data-name="Ellipse 197" cx="78.96" cy="78.96" rx="78.96" ry="78.96" transform="translate(0 0)" fill="#fff"/>
    <g id="Group_2278" data-name="Group 2278" transform="translate(0 0)">
      <g id="Group_2277" data-name="Group 2277" transform="translate(0 0)" clip-path="url(#clip-path)">
        <g id="Group_2276" data-name="Group 2276" transform="translate(-82.736 15.379)">
          <g id="Group_2275" data-name="Group 2275">
            <path id="Path_1839" data-name="Path 1839" d="M-845.51,197.088l-53.372,8.812c-5.447,4.464-30.566,18.811-30.566,18.811-.5.173-.989.349-1.486.517a46.178,46.178,0,0,1-15.341,2.869c-1.922-.018-3.769-.412-5.659-.527-.643-.163-1.3-.2-1.955-.365-2.5-.623-5.032-1.134-7.551-1.687-.361-.1-.73-.172-1.091-.27a62.462,62.462,0,0,0-7.837-1.77l-8.639-1.69a63.045,63.045,0,0,0-13.251-1.217,47.851,47.851,0,0,0-10.882.75c-13.67,2.453-23.577,10.288-30.976,21.7-.058.288.074.377.341.326,1.823-1.9,3.583-3.865,5.484-5.684,4.659-4.457,9.618-8.51,15.781-10.765,5.51-2.016,10.532-1.429,14.806,2.908a23.428,23.428,0,0,1,4.338,10.163c.665,3.441,1,6.923,1.575,10.371h0a69.191,69.191,0,0,0,1.574,10.033c1.005,4.206,2.425,8.238,5.372,11.549h0c2.844,3.614,6.776,5.51,10.991,6.96h0a26.013,26.013,0,0,0,8.325,1.973h0a6.262,6.262,0,0,0,2.611.279,2.975,2.975,0,0,0,1.679.239c4.656.206,9.279-.378,13.917-.594h0a37.541,37.541,0,0,1,10.124.146c3.81.589,6.817,2.8,9.762,5.087h0a33.874,33.874,0,0,1,5.467,6.627c.5,1.132,1.01,2.259,1.494,3.4a35.31,35.31,0,0,1,1.945,8.747,44.152,44.152,0,0,1-2.433,15.374c5.335-4.015,10.027-8.043,14.582-12.227,4.342-3.988,8.608-8.058,12.908-12.091a35.29,35.29,0,0,1-.505-8c.107-2.627.374-5.25.233-7.885.5-7.94.962-15.875.026-23.822a19.662,19.662,0,0,0-1.358-5.06l28.423,21.8s27.866-20.059,33.4-40.514S-845.51,197.088-845.51,197.088ZM-902.74,248.8a6.279,6.279,0,0,1-4.058,1.51c-1.609.142-3.238-.2-4.829.236h0c-.374.068-.756.107-1.121.207-2.619.718-3.226.383-4.027-2.256a3.449,3.449,0,0,1-.211-.835,12.01,12.01,0,0,0-1.536-4.592c-.868-2.62-1.834-5.221-1.429-8.066l1.01-2.236,18.1,13.886Z" transform="translate(1034.131 -155.798)" fill="#d1ad61"/>
            <path id="Path_1840" data-name="Path 1840" d="M-525.985,329.221a79.051,79.051,0,0,1-3.836-8.511c-2.262-6.107-4.289-12.306-7.176-18.169a15.719,15.719,0,0,1-1.259-5,172.331,172.331,0,0,1-1.133-17.952c-.158-7.087-1.64-13.724-5.4-19.86a138.85,138.85,0,0,1-8.058-15.572c-3.026-6.718-5.519-13.583-6.012-21.028-.311-4.7-.006-9.41-.17-14.111-.363-10.378-3.032-19.958-9.741-28.155-1.579-1.928-2.992-3.989-4.389-6.058a21.125,21.125,0,0,1-3.675-15.027c.712-5.335,2.089-10.416,6.012-14.468,2.136-2.2,4.116-4.562,6.13-6.882a42.959,42.959,0,0,1,9.1-7.888,102.974,102.974,0,0,0,12.618-9.3c4.24-3.773,5.45-8.56,4.539-13.967-.882-5.234-3.862-9.3-7.5-12.99a6.208,6.208,0,0,0-4.341-1.888,37.984,37.984,0,0,0-5.787.141l-.28.029c-1.372.141-2.738.349-4.1.6a27.714,27.714,0,0,1-7.453.582,16.062,16.062,0,0,1-2.675-.452c-.646-.167-1.4-.28-1.565-1.072-.761-3.608-1.793-7.208-.937-10.943.308-1.349.934-2.626,1.216-3.98s.813-3-.3-4.084a4.193,4.193,0,0,1-1.311-3.551c.078-1.726.026-3.456.049-5.185a2.7,2.7,0,0,0-.329-1.516q-1.625-2.633-3.219-5.28a4.023,4.023,0,0,0-2.9-1.885,93.76,93.76,0,0,0-26.509-1.634c.4.285.942.669,1.484,1.055a46.955,46.955,0,0,0,7.692,3.888,34.623,34.623,0,0,1,4.3,2.182c-2.188-1.1-4.632-1.677-6.759-2.914a.65.65,0,0,0-.994.208c.231.8-.473.605-.81.7-2.225.625-4.459,1.213-6.926,1.873,1,.481,1.827.879,2.654,1.274A39.419,39.419,0,0,0-591.67,65.96a16.6,16.6,0,0,1-7.289-.989c-.473-.167-1.038-.36-1.4.268,2.669,1.28,3.793,3.493,3.9,6.355.037,1.006.288,2.032-.971,2.533a.8.8,0,0,0-.412.718c-.2,2.078-.306,4.147,1.141,5.891a3.667,3.667,0,0,1,.813,2.245c.167,2.824.386,5.649.49,8.476.15,4.127-.994,5.977-4.839,7.511a29.781,29.781,0,0,1-13.846,1.894c-6.073-.55-12.546,2.735-15.226,8.2-.481.986-.934,1.986-1.4,2.977a5.211,5.211,0,0,0-1.012,1.873c-1.672,4.632-3.32,9.272-5.361,13.762-.9,1.8-1.649,3.666-2.381,5.539-.406,2.8.441,5.387,1.427,7.943.32.853.695,1.686,1.009,2.542.458,1.262.5,2.634,1.052,3.879.769,1.747,1.712,2.245,3.53,1.764.6-.158,1.2-.314,1.813-.45a21.227,21.227,0,0,1,4.4-.133,7.032,7.032,0,0,0,4.611-1.614c1.084-1.023,1.977-2.219,2.98-3.317.721-.79,1.141-.637,1.571.242,1.8,3.657,3.706,7.254,3.888,11.485.063,1.43.115,2.871.274,4.3a49.981,49.981,0,0,1,.063,8.762c-.213,3.2-.245,6.41-.464,9.609.052,3.669-.53,7.32-.32,10.989.089,1.585-.075,3.26.994,4.649a39.723,39.723,0,0,1,1.127,5.044c.625,6.588,1.133,13.191,2.1,19.745,1.127,7.692,2.424,15.367,5.485,22.567a22.156,22.156,0,0,1,2.066,8.692,26.247,26.247,0,0,0,2.712,10.9,53.284,53.284,0,0,1,3.859,10.352c1.666,7.344,2.9,14.768,3.951,22.221A123.056,123.056,0,0,1-589.737,311a9.65,9.65,0,0,1-1.821,5.781,43.759,43.759,0,0,1-6.646,6.957,7.183,7.183,0,0,1-5.4,2.11,23.525,23.525,0,0,0-4.851.522,7.725,7.725,0,0,0-6.652,7.156h47.4a81.085,81.085,0,0,0-5.542-19.794,39.069,39.069,0,0,1-1.968-28.184,48.2,48.2,0,0,0,2.081-11.727c.265-5.369-1.1-10.453-2.692-15.5a92.3,92.3,0,0,1-3.888-24.209c.378-.677-.063-1.219-.36-1.729a116.491,116.491,0,0,1-6.3-13.716c-2.049-4.917-3.825-9.937-5.678-14.929.726,1.891,1.421,3.793,2.216,5.658q4.794,11.253,10.125,22.261a73.985,73.985,0,0,0,4.611,8.937q5.032,8.218,9.727,16.632a16.676,16.676,0,0,1,2.121,7.81,56.691,56.691,0,0,0,1.009,9.577,30,30,0,0,0,4.877,11.41c6.217,8.874,9.505,18.638,8.793,29.59-.185,2.824-.4,5.658-.355,8.485a23.222,23.222,0,0,1-1.061,7.067,20.5,20.5,0,0,0-.9,5.81c0,.9.259,1.225,1.237,1.219q11.811-.069,23.624,0c.917.006,1.144-.337,1.216-1.115A14.013,14.013,0,0,0-525.985,329.221Zm-72.081-131.235a2.609,2.609,0,0,1-2.176-1.793c-.758-1.758-1.355-3.594-2.1-5.159a9.973,9.973,0,0,0,3.963,3.525,10.294,10.294,0,0,1,4.753,5.364c.257.571.5,1.144.741,1.723A6.421,6.421,0,0,0-598.066,197.985Z" transform="translate(753.28 -53.824)"/>
            <path id="Path_1841" data-name="Path 1841" d="M-490.834,566.874c-2.265-4.495-4.482-9.01-6.392-13.673-2.345-5.725-4.494-11.526-6.543-17.357-1.041-2.962-2.908-4.552-5.947-4.769a1.876,1.876,0,0,1-1.817-1.444c-1.063-2.754-2.188-5.484-3.16-8.308a15.011,15.011,0,0,0,6.831,6.534c1.806.948,2.722,2.821,3.459,4.656,2.592,6.45,5.171,12.9,8.066,19.228q4.672,10.2,9.6,20.288a3.016,3.016,0,0,1,.52,1.324,30.917,30.917,0,0,1-3.734-5.2C-490.239,567.719-490.54,567.3-490.834,566.874Z" transform="translate(664.399 -386.585)" fill="#6fcef3"/>
            <path id="Path_1842" data-name="Path 1842" d="M-522.205,83.674c2.038.312,3.893,1.244,5.882,1.737a33.38,33.38,0,0,0,7.483,1.178,10.5,10.5,0,0,1,3.282.744c-3.533.457-6.617.567-9.642-.555-.506-.188-1-.623-1.62-.291Z" transform="translate(669.746 -75.071)" fill="#6fcef3"/>
            <path id="Path_1843" data-name="Path 1843" d="M-519.294,58.646c5.053,2.466,10.5,4.179,15,7.872-.43.237-.648-.088-.859-.234-2.909-2.016-6.506-2.542-9.5-4.38-.08-.049-.263.07-.4.109A35.593,35.593,0,0,1-519.294,58.646Z" transform="translate(667.674 -57.256)" fill="#6fcef3"/>
            <path id="Path_1844" data-name="Path 1844" d="M-516.4,326.782c-1.777,4.381-.791,5.867,3.673,5.46,4.4-.4,8.433-2.134,12.4-3.975,1.454-.675,2.892-1.387,4.462-2.141a28.929,28.929,0,0,1-16.208,6.691c-.9.084-1.791.33-2.691.465-1.968.3-3.045-.39-3.459-2.325a7.873,7.873,0,0,0-2.236-3.625c-2.109-2.3-4.291-4.531-6.433-6.8a5.226,5.226,0,0,1-1.2-1.823q2.086,1.877,4.171,3.755,1.977,1.786,3.946,3.581C-518.963,326.967-517.983,328.007-516.4,326.782Z" transform="translate(673.937 -242.367)" fill="#6fcef3"/>
            <path id="Path_1845" data-name="Path 1845" d="M-477.843,161.875c.387.6.763,1.208,1.163,1.8,1.561,2.311,2.9,2.731,5.517,1.672,2.884-1.168,5.141-3.283,7.653-5.027,2.6-1.809,2.866-4.436,3.287-7.113a8.65,8.65,0,0,1,.625-2.356c-.221,2.448-.438,4.9-.668,7.344-.04.421-.39.644-.686.882-2.388,1.921-4.77,3.851-7.174,5.751a9.9,9.9,0,0,1-5.588,2.025c-1.418.1-2.634-.269-3.131-1.892a28.938,28.938,0,0,0-1.273-2.984Z" transform="translate(638.367 -122.886)" fill="#6fcef3"/>
            <path id="Path_1846" data-name="Path 1846" d="M-415.177,126.533c1.75.049,2.634,1.335,2,2.761-.481,1.084-1.054,2.128-1.581,3.18C-414.9,130.532-413.22,128.439-415.177,126.533Z" transform="translate(593.565 -105.578)" fill="#6fcef3"/>
          </g>
        </g>
      </g>
    </g>
  </g>
</svg>
