<svg xmlns="http://www.w3.org/2000/svg" xmlns:xlink="http://www.w3.org/1999/xlink" width="157.92" height="157.92" viewBox="0 0 157.92 157.92">
  <defs>
    <clipPath id="clip-path">
      <circle id="Ellipse_199" data-name="Ellipse 199" cx="78.96" cy="78.96" r="78.96" transform="translate(-210.974 448.466)" fill="none"/>
    </clipPath>
    <clipPath id="clip-path-2">
      <rect id="Rectangle_165" data-name="Rectangle 165" width="147.039" height="226.3" transform="translate(-292.808 455.269)" fill="none"/>
    </clipPath>
    <clipPath id="clip-path-3">
      <rect id="Rectangle_166" data-name="Rectangle 166" width="128.845" height="253.132" transform="translate(-146.671 440.778)" fill="none"/>
    </clipPath>
  </defs>
  <g id="Group_2344" data-name="Group 2344" transform="translate(210.974 -448.466)">
    <circle id="Ellipse_199-2" data-name="Ellipse 199" cx="78.96" cy="78.96" r="78.96" transform="translate(-210.974 448.466)" fill="#fff"/>
    <g id="Group_2343" data-name="Group 2343">
      <g id="Group_2342" data-name="Group 2342" clip-path="url(#clip-path)">
        <g id="Group_2341" data-name="Group 2341">
          <g id="Group_2337" data-name="Group 2337">
            <g id="Group_2336" data-name="Group 2336" clip-path="url(#clip-path-2)">
              <g id="Group_2335" data-name="Group 2335">
                <path id="Path_1937" data-name="Path 1937" d="M-123.654,526.075q-.032,2.61-.062,5.221c-2.812,4.157-1.214,8.761-1.247,13.168-.085,11.268,1.7,14.086,12.251,17.807,3.55,1.252,7.4,1.565,11.1,2.79,4.185,1.386,7.69,4.61,12.508,4.491,1.79-.044,3.051,1.947,2.876,3.984-.168,1.95-1.947,1.953-3.389,2.3-4.295,1.047-4.351,1.091-2.243,5.317a43.536,43.536,0,0,1,4.673,23.1c-.4,5.321-3.243,7.221-8.2,5.374a8.874,8.874,0,0,1-1.638-.746c-16.828-10.594-35-10.087-52.485-3.7-14.576,5.326-25.282,1.3-35.522-8.293-.438-.411.117.1-.319-.313-1.054-.867-1.939-1.925-3,.2a17.1,17.1,0,0,0-1.673,5.953c-1.076,9.665-4.489,18.285-11.7,25.114-6.235,5.907-11.573,6.127-18.332.662a91.793,91.793,0,0,1,5.61,7.647,39.59,39.59,0,0,1,4.722,9.171c1.057,3.126,2.39,6.147,3.429,9.28a96.788,96.788,0,0,0,12.3,24.915,8.635,8.635,0,0,0,6.572,3.991c6.261.795,11.753,2.919,15.06,9.116,1.5,2.8,4.5,4.707,6.821,7.024-2.231-2.023-4.259-4.254-6.379-6.392a4.165,4.165,0,0,1-.963-4.187c2.153-8.682.965-17.271-.709-25.833-1.239-6.336-1.615-12.334,5.434-16.266-10.209,1.617-15.858-4.953-21.324-11.308-2.607-3.03-4.614-4.916-8.377-2.057-.859.652-2.346,1.29-3.224.028-.816-1.172.078-2.368.915-3.2,7.921-7.85,9.945-17.819,10.278-28.394A8.759,8.759,0,0,1-188,596.664c.848-1.064,1.721-1.04,2.64-.1,3.738,3.248,7.133,6.858,10.991,9.973a19.041,19.041,0,0,0,18.155,3.779c11.021-3.141,22.15-5.179,33.72-4.594a53.756,53.756,0,0,1,23.251,6.2,6.921,6.921,0,0,1,4.02,6.436c.246,6.987-.408,13.791-3.34,20.233a82.558,82.558,0,0,0-7.825,37.568c.3,7.351-.654,14.505-.542,21.752a31.7,31.7,0,0,0,.75,6.247c2.3,10.553-1.484,19.1-8.754,26.809,2.21-2.589,4.814-4.387,6.927-6.709.887-.976,1.785-2.3,3.33-1.844,1.7.5,1.934,2.131,2.144,3.64q1.458,10.47,2.431,21c1.214,13.3,1.974,26.594-.425,39.876a62.07,62.07,0,0,1-6.3,19.144,12.139,12.139,0,0,0-1.519,8.643c.916,4.381-.026,8.737-.911,12.931A210.967,210.967,0,0,1-115.1,850.25c-1.8,5.471-1.311,11.332-1.481,16.938-.3,9.736-1.256,19.44-1.23,29.194.024,8.861.838,17.654,1.534,26.463.209,2.647.283,5.146-2.6,6.8,4.129-.208,7.289,1.7,10.4,3.508q10.5,6.118,21.149,11.965c3.447,1.9,7.31,2.783,10.65,4.8,2.475,1.494,5.765,2.5,5.755,6.2,0,2.115-5.6,7.017-8.138,7.721-1.9.527-3.894.082-5.759.729-7.984.485-15.707-1.538-23.523-2.56-8.948-1.17-17.912-.828-26.873-1.027-2.118-.665-4.5-.489-6.369-1.943-1.206-.937-2.584-2.009-1.956-3.68.674-1.792,2.366-1.493,3.867-1.066a30.1,30.1,0,0,1,3,.951c-2.128-1.032-4.752-1.032-6.469-2.945a9.062,9.062,0,0,1-2.179-7.1c.414-5.428,2.693-8.322,8.18-9.836-3.123-4.09-2.4-8.618-2.141-13.27.575-10.265-1.36-20.321-3.747-30.257-2.522-10.5-5.869-20.883-6.408-31.709-.411-8.252-1.277-16.767,3.473-24.422,2.112-3.4,4.519-6.467,8.356-7.842,2.705-.969,3.093-2.714,3.013-5.218-.282-8.849-2.73-17.2-6.1-25.238a23.432,23.432,0,0,1-.993-16.961c3.309-10.615,3.419-21.86,5.526-32.736.593-3.061,1.152-6.133,1.561-8.452.365-1.32.948-.583.392-.81-.187-.076-.3-.027-.337.148-1.841,8.781-2.93,17.693-4.766,26.483-3.9,18.664-11.394,35.344-25.578,48.548a6.242,6.242,0,0,0-2.286,3.277c-1.274,7.553-6.033,13.294-10.1,19.614,2.015.038,2.908,1.077,2.823,2.966-.1,2.248.344,4.613-.309,6.726-4.155,13.463-5.288,27.712-10.656,40.848a99.059,99.059,0,0,0-5.774,21.232c-1.38,8.246-2.629,16.562-.9,24.949l.312,2.507c-.184,1.531,1.719,4.148-2.066,3.823-.592-.051.068.516.1.8.742,7.035,3.038,13.681,5.047,20.406.871,2.916.988,5.875-1.124,8.5,1.164-.329,2.765-1.3,3.612.6.918,2.057-.828,2.912-2.08,3.935-11.725,4.225-23.141,2.735-34.39-1.857a14.135,14.135,0,0,1-3.4-3.561c-.989-1.315-1.5-2.886-.329-4.109,1.3-1.352,2.376.127,3.417.9.4.294.7.744,1.288.855-7.475-6.385-1.535-19.073,8.448-26.73-2.829-.8-3.339-2.788-2.826-5.229a12.266,12.266,0,0,1,2.543-5.711c4.437-5,4.988-11.1,5.013-17.288.054-13.344,1.207-26.65,1.105-40.01a93.367,93.367,0,0,1,2.073-18.294c.761-3.933,1.982-7.748,1.224-11.963-.469-2.608,1.2-5.193,2.3-7.659,2.9-6.486,7.237-12.092,11.146-17.951a9.51,9.51,0,0,0,1.585-8.039c-5.15-21.424-3.935-42.851.151-64.266a174.96,174.96,0,0,1,3.8-17.589c.888-2.957.342-4.667-2.556-6.589-4.7-3.114-8.6-7.4-12.163-11.8a11.52,11.52,0,0,1-2.806-9.245c.632-3.487-.888-5.707-3.376-7.733a178.844,178.844,0,0,0-18.284-13.093c-7.76-4.844-15.563-9.644-21.878-16.452-6.708-7.233-8.828-16.217-9.819-25.565-.357-3.36,1.4-6.417,3.171-9.229a55.023,55.023,0,0,0,7.519-19.635,41.764,41.764,0,0,1,2.656-9.051c3.779-8.74,13.78-11.743,19.562-2.656-1.413-1.76-2.869-4.046-4.97-5.671-3.068-2.374-3.377-5.3-2.67-8.834,3.1-15.46,21.1-25.633,37.143-20.887.577.168.29-.672.243-.073-.008.107-.164.136-.444.031a22.721,22.721,0,0,0-7.471-1.336c-1.313-.035-2.935.257-3.483-1.363-.6-1.778.888-2.69,2.035-3.625,5.245-4.279,8.3-4.21,14.4.289,1.9-5.224,5.565-7.186,10.783-5.614,5.824,1.754,10.913,4.934,15.826,8.427a3.061,3.061,0,0,0-.927-2.436c-3.949-5.4-6.463-11.057-4.565-18,.505-1.845-.4-3.839-1.162-5.654-.735-3.632.969-7.1.694-10.707,2.651.4,2.015,2.61,2.026,4.156.025,3.538,1.191,6.393,3.776,8.4.34-6.883-1.72-13.623-2.541-20.419-.914-7.569-1.505-15.6-.093-23.391.106-.589.288-1.165.356-1.761.855-7.556,2.315-9.23,9.52-11.331a30.62,30.62,0,0,1,23.434,2.288c3.03,1.564,5.05,3.756,4.263,7.532a9.676,9.676,0,0,0,.374,3.542c.731,4.535,2.177,9.143-1.173,13.353a2.5,2.5,0,0,0-.324,2.589c2.4,4.678,1.035,9.462.179,14.09-1,5.394-1.549,10.91-2.871,15.554C-128.574,531.538-127.378,527.575-123.654,526.075Z" fill="#5b5b5b"/>
                <path id="Path_1938" data-name="Path 1938" d="M-66.51,701.821c-1.568,2.433-2.8,4.983-1.2,7.93-1.072-.225-1.522.19-1.9,1.262a36.065,36.065,0,0,1-2.749,6.146C-79.054,728.532-78.3,728.3-91,724.828c-2.533-.694-5.218-1.4-7.165-3.46,2.956-1.622,5.534.378,8.174,1.009,8.246,1.956,10.364,1.091,14.365-6.534,1.541-2.928,3.127-5.875,3.677-9.165,1.217-7.362,4.83-13.815,7.579-20.61a47.775,47.775,0,0,0,3.623-19.781,22.673,22.673,0,0,0-1.631-7.895c-2.353-5.632-5.344-6.831-11.031-4.5a19.1,19.1,0,0,1-2.082.857c-.721.189-1.541.441-2.082-.226-.675-.82-.279-1.712.2-2.5a8.047,8.047,0,0,1,2.9-2.794c4.947-2.839,5.6-7.651,5.3-12.508-.307-4.93-1.154-9.9-3.713-14.275A11.462,11.462,0,0,1-73.909,613c2.749-10.174,2.226-19.925-4.641-28.622a15.389,15.389,0,0,0-12.535-6.263c2.045,3.443,4.091,6.362,5.6,9.553,3.019,6.326,4.867,12.914,4.542,19.988-.207,4.389-1.478,8.309-5.434,10.8-2.217,1.388-2.785,3.425-2.6,5.8a33.653,33.653,0,0,1-3.64,17.862c-1.74,3.451-2.992,7.047-2.136,11.021.009.027.009.063.018.091-.036.027-.072.045-.108.072a2.222,2.222,0,0,1-.009-.244c-2.226-1.072-3.344-.423-4.056,2.01a88.376,88.376,0,0,0-3.884,28.514q-.4,5.055-.811,10.111c.3-.3.586-.586.883-.865-.063.225-.126.469-.2.7q.351-.636.73-1.19c2.541-2.226,5.2-3.5,8.6-3.253,2.361-.117,4.741.117,7.066-.775,1.433-.55,3.6.252,4.145-1.838.559-2.163-1.126-3.876-2.505-4.894-7.48-5.5-7.94-13.247-6.795-21.259a7.331,7.331,0,0,0-1.226-5.678h-.009c0-.009.009-.009.009-.018,2.235-1.009,4.056.37,5.966,1.1,1.091.414,1.541,1.081.712,2.415-3.929,6.3-3.641,11.355.856,17.114a56.24,56.24,0,0,1,4.416,5.677c3.019,5.056,2.109,7.994-3.19,10.364a23.481,23.481,0,0,1-8.318,1.7c-7.02.433-10.824,5.317-9.517,12.2,1.037,5.426,1.8,10.923,3.758,16.132-3.127.054-1.649,2.2-1.442,3.487a255.8,255.8,0,0,1,3.857,37.959c.217,15.473-.279,30.91-8.038,45a4.507,4.507,0,0,0-.28,3.046c.694,4.344.9,8.9-.585,12.923-4.155,11.229-4.29,23.017-5.759,34.633-2.415,19.033-4.47,38.048-4.209,57.3.108,7.885,2.713,13.166,9.589,17.123a260.188,260.188,0,0,0,27.568,14.085c5.145,2.19,10.147,4.641,11.409,10.968.676,3.388.36,5.623-3.948,6.191a87.973,87.973,0,0,1-14.761.523c.234-.063.469-.126.7-.2h.018c.009,0,.009,0,.018-.009a13.045,13.045,0,0,1,2.694-.648c4.7-.379,6.489-4.614,9.544-7.138,1.018-.829-.072-2.037-.883-2.613a29.391,29.391,0,0,0-5.741-3.488c-10.517-4.154-20.087-10.057-29.766-15.78-3.9-2.3-7.913-4.29-13.284-4.569,5.876-1.892,3.912-5.894,3.56-9.625-1.811-18.889-.261-37.769.081-56.658.216-12.454,5.119-23.674,7.237-35.579.594-3.388,1.64-6.966,1.09-10.219-1.072-6.336,1.19-11.418,3.614-17,5.741-13.211,6.173-27.351,5.4-41.527-.622-11.22-1.874-22.394-3.289-33.542-.136-.991.207-2.136-1.027-3.154A66.535,66.535,0,0,1-118.8,734.507c.081-1.811,1.171-2.37,1.892-3.091,7.778-7.786,11.869-16.726,9.355-28.018-1.208-5.434-1.694-10.95.64-16.33a5.487,5.487,0,0,0,.225-3.1c-3-15.158.649-29.424,6.038-43.374,2.794-7.237,4.632-14.509,4.326-22.314a5.4,5.4,0,0,0-3.236-5.236c-13.869-7.362-28.522-7.182-43.4-4.659a80.492,80.492,0,0,0-11.3,2.884c-7.958,2.568-15.041,1.2-21.457-4.119-3.8-3.154-7.579-6.326-10.238-10.589a.524.524,0,0,1,.036-.45V596.1c.072-.135.243-.18.505-.153,3.623,2.379,7.336,4.641,10.841,7.173,5.389,3.9,11.094,4.9,17.411,2.749a107.6,107.6,0,0,1,30.271-6.038A53.146,53.146,0,0,1-97.277,607.3c6.886,3.992,9.138,2.586,9.184-5.335.045-9.409-3.01-17.889-8-26.252,3.325-.541,6.2-1,9.1-1.478.09-1.694-.928-4.019-1.829-3.659-5.6,2.2-8.3-5.137-13.446-3.749-1.46.388-1.676-.973-2.307-1.685a3.634,3.634,0,0,0-3.6-1.361c-7.651,1.451-11.752-5.074-17.492-7.894-1.019-.505-.793-2.172-.793-3.371,0-5.389.423-10.787-.379-16.167-.36-2.433,1.6-3.659,3.118-5.056.316,6.281.523,12.563.974,18.835.279,3.9,7.263,8.408,10.94,7.128,1.794-.63,3.551-1.108,5.146.018,3.109,2.19,4.785,6.814,9.832,5.606,2.5,4.884,8.976,3.172,11.995,7.218-1.388,2.091-.036,3.443,1.442,4.488,14.284,10.076,17.735,24.143,14.969,40.473a8.113,8.113,0,0,0,1.009,5.614c3.6,5.975,4.146,12.59,3.118,19.034-.73,4.6.838,7.714,3.181,11,5.534,7.732,5.993,16.375,4.912,25.45C-57.336,685.7-61.445,693.917-66.51,701.821Z" fill="#5b5b5b"/>
                <path id="Path_1939" data-name="Path 1939" d="M-244.092,668.4c-9.547-6.789-13.715-17.061-18.542-27.184-3.138-6.581-2.633-10.934,1.885-16.584,5.893-7.371,8.423-16.589,10.11-25.885,2.819-6.056,5.771-11.959,13.306-13.337,1.669-.3,1.263-1.89,1.386-2.951,1.413-12.172,10.04-19.655,18.029-27.443,2.314-2.256,5.491-3.643,9.1-2.2,2.644,1.054,4.262-1.137,5.795-2.532,3.271-2.976,6.681-3.939,10.569-1.643,1.889,1.116,3.015.314,4.285-.9,2.933-2.8,5.863-4.465,10.432-3.066,4.411,1.351,7.79-1.91,8.321-6.718.312-2.819.682-5.632,1.026-8.447,2.989,2.289,2.878,5.4,2.119,8.566a10.823,10.823,0,0,0,2.063,10.067,32.066,32.066,0,0,1,5.671,11.424c-6.127-5.011-12.055-8.873-18.886-11.155-1.583-.528-3.113-1.079-4.807-.564-4.274,1.3-5.582,4.076-3.44,8.851-3.306-2.762-5.7-5.9-9.509-6.222-4.138-.351-6.425,2.941-10.081,5.589,5.561.915,10.45.76,14.456,3.927a33.7,33.7,0,0,0-16.756-.592c-11.712,2.347-20.879,11.532-22.365,22.344-.324,2.355.079,3.818,1.972,5.369,3.9,3.192,5.14,5.419,6.243,9.475-1.234-.162-1.446-1.352-2.08-2.053-6.334-7.007-13.824-5.873-17.795,2.748-1.9,4.129-2.341,8.655-3.427,13a47.485,47.485,0,0,1-6.9,16c-2.614,3.74-3.231,7.737-2.576,12.356,1.7,12,7.413,21.238,17.266,28.252,10.259,7.3,21.471,13.2,31.138,21.379,3.218,2.721,6.043,5.151,4.51,10.1a7.317,7.317,0,0,0,1.843,6.746c4.762,4.995,8.434,11.324,15.469,13.732,2.307.789,1.387,2.369,1.054,3.664a248.8,248.8,0,0,0-7.158,39.243c-1.4,15.309-1.373,30.526,2.627,45.5a8.2,8.2,0,0,1-1.221,7.5c-4.749,6.9-10.109,13.563-12.747,21.622-2.016,6.162-1.577,12.824-2.782,19.229-3.26,17.338-1.7,35-2.7,52.5-.231,4.043-.478,8.068-.933,12.094a13.023,13.023,0,0,1-2.813,6.472,28.014,28.014,0,0,0-3.457,5.743c-2.119,5.08-1.323,6.091,4.253,5.385-3.6,3.5-7.187,6.573-10.044,10.361-5.594,7.416-5.1,13.586,2.052,19.907-3.483.04-5.311-2.5-7.823-3.927-.594,3.5,1.981,5.377,3.256,7.8-5.129-2.595-7.12-8.739-4.671-14.239,3.562-8,6.166-16.417,9.318-24.484,7.479-19.14,4.727-38.362,3.77-57.646-1.085-21.859.335-42.97,15.1-60.7,3.624-4.352,2.283-8.58,1.7-13.105-2.73-21.115-.13-41.822,4.9-62.329,1.141-4.649,2.218-9.325,3.642-13.89.793-2.541.706-3.856-2.325-4.252a8.679,8.679,0,0,1-4.986-2.88c-1.228-1.3-2.054-2.679-.218-4.166,1.57-.569,1.883,1.194,2.8,1.358A18.7,18.7,0,0,0-196.4,713.4c-5.877-4.179-9.661-9.377-8.342-17.075.276-1.61-.986-2.409-1.891-3.357-5.554-5.817-12.261-10.053-19.188-14C-231.934,675.487-238,671.925-244.092,668.4Z" fill="#000203"/>
                <path id="Path_1940" data-name="Path 1940" d="M-192.1,933.24c-3.15-5.792-1.785-11.974-1.365-18,.938-13.443,5.968-25.872,9.964-38.549a164.9,164.9,0,0,0,5.106-22.758c.831-5.018,3.534-9.677,2.947-15-.064-.584.178-1.212-.966-1.741l-2.217,2.844c-.229-3.873,1.574-6.792,3.75-9.433,3.326-4.037,5.69-8.448,6.166-13.713a4.27,4.27,0,0,1,1.63-3.021c15.775-13.976,23.44-32.155,27.314-52.382,1.654-8.636,2.963-17.373,6.006-25.717-3.081,16.091-2.645,32.723-7.6,48.495a11.574,11.574,0,0,0,.271,8.207c4.05,10.336,7.81,20.739,7.966,32.084.032,2.367-.508,3.307-2.763,4.015-7.29,2.288-11.08,10.713-12.046,18.385-2.528,20.1,6.169,38.207,8.669,57.361.97,7.43,2.227,14.846.713,22.338-.888,4.4,2.147,7.242,4.167,10.741-2.217.867-4.312-1.746-6.382.062a10.05,10.05,0,0,0-3.033,5.868c-1.331,6.266.113,8.254,8.751,11.889-2.778,1.088-5.283-.857-8.014.048,1.21,3.91,5.36,3.731,7.852,5.718-3.646.425-7.03-.722-10.535-1.462-4.492-.947-5.429-3.465-4.646-7.42,1.274-6.443,2.249-12.905,5.8-18.721,2.8-4.574,1.626-9.9,1.659-14.962.105-16.127-5.219-31.2-8.931-46.591a105.763,105.763,0,0,1-2.369-12.771c-1.486-13.057,3.941-23.936,11.4-34,1.535-2.072,2.406-3.976,2.174-6.524-.664-7.292-2.788-14.222-4.889-22.224-5.007,9.583-10.689,17.384-18.446,23.493-.785.618-.746,1.564-.925,2.443-.329,1.61-.316,3.555-1.243,4.733-4.358,5.536-4.12,11.99-3.929,18.37.36,12.044-2.943,23.219-8.73,33.469C-188.418,895.794-191.583,914.147-192.1,933.24Z" fill="#577582"/>
                <path id="Path_1941" data-name="Path 1941" d="M-123.654,526.075c-2.239,4.166-5.694,7.236-9.935,11.021,3.957-8.921,3.288-17.847,5.8-26.138a4.979,4.979,0,0,0-.25-3.061c-1.425-3.531-2.951-6.954.98-9.987.435-.336.391-1.379.449-2.1.368-4.6-2.641-8.882-1.14-13.688.415-1.327-1.3-2.577-2.508-3.5-7.253-5.535-22.946-5.724-30.283-.374-2.084,1.52-3.17,3.18-2.446,6.1.717,2.9-.5,5.947-.572,8.989-.075,3.379-1.655,6.664,1.121,9.686a1.328,1.328,0,0,1,.084,1.261c-3.313,4.662-.519,8.854.881,13.2a13.5,13.5,0,0,1,.684,7.08c-.74,3.437.3,6.718,1.7,10.888-5.035-3.924-8.936-7.214-7.67-13.436.234-1.148.347-2.431-.939-3.215-4.692-2.593-5.711-9.386-1.693-12.667,1.316-1.074.907-2.117.79-3.139-.441-3.855-.911-7.719-1.66-11.523a12.507,12.507,0,0,1,3.23-11.481c9.386-10.681,34.158-10.465,43.2.471A11.953,11.953,0,0,1-121,491.228a68.515,68.515,0,0,0-1.37,8.393c-.235,2.664-1.017,5.242,1.494,7.8,2.158,2.2,1.071,5.891-.353,8.033C-123.5,518.874-123.2,522.472-123.654,526.075Z" fill="#000203"/>
                <path id="Path_1942" data-name="Path 1942" d="M-196.4,713.4a12.229,12.229,0,0,1,6.135,4.281c-3.153.1-4.067-2.728-6.2-3.426A1.836,1.836,0,0,1-196.4,713.4Z" fill="#172c38"/>
                <path id="Path_1943" data-name="Path 1943" d="M-170.093,694.053c-1.072-1.262-2.523-2.335-1.919-4.245,3.046-9.7.847-19.25-.721-28.829-.785-4.813-1.271-9.535,4.406-12.166a5.541,5.541,0,0,0,3.118-3.749c-10.174,3.082-16.816-2.109-22.71-9-1.739-2.028-3.055-5.434-5.1-5.912-2-.469-4.677,2.01-7.075,3.154-.144.072-.441-.18-.928-.4,9.309-8.553,12.689-19.322,12.1-31.6-.1-2.1.388-4.155,2.965-4.732.081-.09.162-.189.252-.279a.009.009,0,0,1,.009-.009c.082-.108.181-.216.28-.324-1.217-1.361-2.3-3.227-3.488.153a26.838,26.838,0,0,0-1.721,5.029,54.526,54.526,0,0,1-3.992,14.68c-2.668,5.822-5.993,11.121-11.869,14.23-3.695,1.964-7.336,2.208-10.878-.685-1.712-1.406-3.514-2.929-6.542-3.335,4.163,4.651,7.687,8.9,10.327,13.825,2.641,4.9,4.371,10.165,6.192,15.4a102.182,102.182,0,0,0,13.427,26.333,6.261,6.261,0,0,0,5.507,3.019c5.623.144,10.715,2.1,14.149,6.687,2.928,3.911,6.6,6.957,10.561,11.3C-164.893,698.054-168.047,696.477-170.093,694.053Zm-7.894-17.682c-1.289,2.172.18,5.182-2,7-.721.6-11.1-3.415-11.716-4.334A89.7,89.7,0,0,1-203.942,653.7a91.654,91.654,0,0,0-4.425-12.68c-1.694-3.722,1.812-3.307,3.091-4.632,1.37-1.424,2.587-1.505,3.912.361,5,7.029,11.463,12.616,18.195,17.906,1.072.848,2.163,1.65,2.406,3.11q1.446,8.866,2.884,17.735A2.29,2.29,0,0,1-177.987,676.371Z" fill="#577482"/>
                <path id="Path_1944" data-name="Path 1944" d="M-66.42,693.5a31.106,31.106,0,0,0-3.073,8.741,51.742,51.742,0,0,1-6.921,17.42c-2.523,4.155-5.885,6.192-10.94,4.552-3.542-1.154-7.2-1.911-10.806-2.848l-.063-.036a6.541,6.541,0,0,1-3-5.444c-.189-3.541-1.153-7.047-1.838-10.552-1.577-8.057,2.658-13.383,10.787-13.645a25.983,25.983,0,0,0,4.857-.612c8.192-1.839,9.454-5.173,3.948-11.644-4.092-4.8-7.5-9.543-6.84-16.338.279-2.812.729-4.993,4.352-5.849-2.721-1.019-4.83-1.812-6.948-2.6h-.009c-.613-.513-1.225-1.009-1.838-1.505.009.027.009.063.018.091-.036.027-.072.045-.108.072a2.222,2.222,0,0,1-.009-.244c-2.181-2-2.109-4.1-.82-6.678,3.92-7.858,6.894-15.987,5.56-25.035a2.579,2.579,0,0,1,1.838-3.118c5-1.946,6.065-6.209,6.182-10.913.226-8.823-2.523-16.8-7.164-24.188-1.154-1.839-2.442-3.6-3.92-5.714-.126-.189-.261-.378-.4-.577.316-.027.631-.036.938-.045,6.4-.225,11.264,1.929,15.041,6.786,7.047,9.075,7.795,19.2,4.758,29.821a9.748,9.748,0,0,0,.694,7.966c3.37,6.453,5.01,13.329,3.776,20.809-.541,3.253-1.7,5.551-4.479,7.254a11.475,11.475,0,0,0-4.668,4.714c.522.054.838.189,1.018.09,9.49-5.434,13.878-3.542,16.149,7.29C-57.94,672.965-61.2,683.5-66.42,693.5Z" fill="#5b5b5b"/>
                <path id="Path_1945" data-name="Path 1945" d="M-94.735,653.229c-.036.027-.072.045-.108.072a2.222,2.222,0,0,1-.009-.244c.036.027.063.054.1.081C-94.744,653.165-94.744,653.2-94.735,653.229Z" fill="#2a82ae"/>
                <path id="Path_1946" data-name="Path 1946" d="M-214.661,558.361c2.623-2.65,4.812-3.183,7.521-1.938Z" fill="#0c1e29"/>
              </g>
            </g>
          </g>
          <g id="Group_2340" data-name="Group 2340">
            <g id="Group_2339" data-name="Group 2339" clip-path="url(#clip-path-3)">
              <g id="Group_2338" data-name="Group 2338">
                <path id="Path_1947" data-name="Path 1947" d="M-148.839,473.422c-8.3.441-15.644,9.282-14.707,17.474a12.2,12.2,0,0,1-1.514,6.822l-.009.018c-.108.144-.217.3-.316.441-1.757,2.893,3.335,3.921,2.271,5.993-1.27,2.461-3.532,4.38-2.307,7.534.009.018.009.027.018.036.063.108.145.217.217.325l.009.009c.45.2.784-.036,1.2-.2,1.091-.451.541-3.263,2.641-2,1.829,1.108.549,2.613.054,3.956-.676,1.811-1.541,3.614-.379,5.56.352.532.7,1.064,1.046,1.6a.228.228,0,0,0,.108.018,3.081,3.081,0,0,1,2.307,1.6c.757,1.315,1.838,3.433,3.695,2.045a1.84,1.84,0,0,0,.82-1.243c1.883,4.875,5.02,9.48,7.786,14.374-1.18-1.235-1.91-1.676-2.893-1.28.181,1.514-.919,3.19.586,4.524,2.415,4.425,2.325,7.318-1.018,10.445-2.461,2.307-4.065,6.416-9.2,3.893-2.551-1.244-5.3,1.965-7.471,3.5-1.866,1.315-5.588,3.7-1.884,7.02.108.1.226.2.343.3l.054.055c1.135,1,.18,2.523-.018,3.793-1.055,6.94-4.912,12.392-9.147,17.763-5.678,7.21-3.019,15.915,5.6,19.159a23.843,23.843,0,0,0,13.139,1.361,22.984,22.984,0,0,1-8.336,2.974c-3.46.577-4.4,2.578-3.649,5.8a59.62,59.62,0,0,0,2.685,8.588c3.118,7.777,2.163,14.852-2.848,21.629-8.768,11.869-7.786,24.584-3.01,37.553a25.214,25.214,0,0,0-4.677-7.688c-1.712-1.829-4.163-1.946-4.335.685-.369,5.732-4.01,9.94-5.866,14.942-2.767,7.453-2.262,15.4-3.839,22.99-1.866,8.948.594,17.14,2.8,25.53,1.848,6.958,3.948,13.852,5.489,20.89,1.982,9.084,4.722,18.267,3.217,27.558-1.595,9.833.973,18.069,6.678,25.72,1.063,1.433,1.631,2.785.865,4.552-1.352,3.154-1.145,6.506-.775,9.768.549,4.921,1.018,9.841,1.676,14.744s1.162,9.841,1.5,14.762,1.054,9.832,1.208,14.779.18,10.039,1.18,14.735c.829,3.884-1.424,7.912-.072,11.616v.009a6.624,6.624,0,0,0,.559,1.181,7.765,7.765,0,0,0,.622.874c.18.216-.622,0-.9.261-2.685,2.541-.423,3.208,1.478,3.956-3.451,1.271-4.947,4.245-6.128,7.345-2.712,7.146-6.227,13.951-8.705,21.178a2.438,2.438,0,0,1-2.623,1.83c-4.821.288-8.462,2.7-11.472,6.29-1.5,2.172.234,2.586,1.7,2.866,6.363,1.216,12.8,1.018,19.214.657,2.118-.126,3.532-1.09,3.559-3.667.027-3.037,1.74-5.642,2.848-8.39,3.091-5.741,7.877-9.58,13.653-12.392,7.021-3.433,8-7.714,3.434-14.293-.694-.991-2.406-1.676-1.091-3.334q-.405-2.23-.811-4.461a31.783,31.783,0,0,1-1.46-7.759c-.495-5.227-.513-10.481-.721-15.7-.288-7-1.874-14.437,3.65-20.565.947-1.046,1.109-2.794,1.217-4.281.739-10.22,1.217-20.439-3.551-29.992a20.432,20.432,0,0,1-2.361-11.751c1.965-15.816,1.839-31.7,1.847-47.592,0-.6.163-1.2.2-1.794.82-12.9,3.659-25.5,5.641-38.228a11.8,11.8,0,0,0-2.992-10.409,64.874,64.874,0,0,1-5-5.615,12.137,12.137,0,0,0,3.938,2.839c6.551,3.344,10.012,2.487,14.131-3.532a49.222,49.222,0,0,0,2.9-4.551c.757-1.433,1.55-2.839,2.154-3.858-3.6,8.1-8.327,16.447-3.253,26.1a3.348,3.348,0,0,1,.27,1.766c-.171,2.614,1.037,4.542,2.776,6.363a93.6,93.6,0,0,1,23.611,43.329c3.407,13.924,9.688,26.441,20.277,36.444,1.658,1.559,2.19,3.154,1.145,5.191-2.19,4.263-1.433,8.444.36,12.581,2.037,4.677,4.01,9.381,5.876,14.131,6.777,17.167,13.022,34.452,14.653,53.107.253,2.938-.4,5.957.541,8.967.414,1.288,2.938,1.189,1.748,2.9-1.775,2.55-.721,5.028.208,7.29,1.036,2.533,1.973,5.083,2.784,7.66q-.311-.851-.649-1.7c-.766-1.928-1.378-4.47-4.415-4.235a66.382,66.382,0,0,1,3.875,19.6c.171,8.3,4.749,14.762,12.616,17.457,9.49,3.253,12.7.874,12.239-9.066a24.086,24.086,0,0,0-3.659-10.391c-5.326-7.66-8.219-16.366-11.013-25.125-.351-1.109-.514-2.353-1.487-3.182-.856-2.027-1.955-4.019-.883-6.317-.721-3.181-2.019-6.236-2.469-9.472-1.667-12.021-1.7-24.17-2.37-36.273a160.222,160.222,0,0,0-3.578-28.027,23.662,23.662,0,0,0-8.616-13.833A9.514,9.514,0,0,1-76.04,806.9a63.793,63.793,0,0,0-6.913-17.988,19.3,19.3,0,0,1-2.595-10.291,157.464,157.464,0,0,0-1.712-27.775c-1.712-12.049-6.1-23.575-7.426-35.624-1.118-10.211-4.5-19.448-8.76-28.559A42.449,42.449,0,0,1-107,675.1c-.352-2.253.018-4.182,2.127-5.453a26.032,26.032,0,0,0,6.362-4.415,15.191,15.191,0,0,0,3.055-5.894,4.348,4.348,0,0,1,2.5-2.83c2.073-1.045,4.11-2.127,6.137-3.244a.068.068,0,0,1,.036-.018c4.912-2.7,9.706-5.624,14.329-8.778a.6.6,0,0,0,.091-.063c1.586-1.09,3.172-2.2,4.722-3.361,8.264-6.1,17.285-11.437,22.349-21.079,2.8-5.326,2.974-6.237-.883-10.679-8.453-9.733-17.032-19.358-26.4-28.244a19.727,19.727,0,0,1-4.695-7.029,39.418,39.418,0,0,0-9.273-14.194c-5.777-5.425-12.265-5.732-19.1-3.352,2.5-2.6,3.009-4.542,1.126-5.137-3.479-1.091-7.092-2.533-10.625-2.343a5.422,5.422,0,0,1-4.569-1.541c-3.3-2.884-3.488-6.381-2.334-10.229.09-.216.189-.433.288-.649,3.8-2.875,7.282-.324,10.418,1.127,17.663,8.137,36.327,9.57,55.36,8.94.992-.028,2.307.333,2.695-.983.432-1.433-.721-2.154-1.794-2.73-.207-.109-.414-.226-.6-.325,3.424,1.46,7.507,2.172,11.337,3.7,1.072.424,2.586,1.109,3.271-.135.793-1.424-.514-2.514-1.667-3.163a51.915,51.915,0,0,0-15.338-5.939,6.229,6.229,0,0,0,2.91-2.325l3.227-.64c-4.038-.928-6.994.081-9.544-1.379a126.906,126.906,0,0,1-24.738-9.03c.334.117.685.243,1.019.379,1.153.468,2.64,1.91,3.55.459.009-.018.027-.045.036-.063a1.922,1.922,0,0,0,.153-.315c.5-1.343-1.1-2.271-2.09-3.127-1.523-1.343-3.227-2.5-4.434-4.795a19.974,19.974,0,0,0,5.758.171c5.227,2.911,11.662.595,17.258,3.7-1-7.272-4.893-12.788-10.823-16.915-6.435-4.479-13.617-7.6-20.926-10.265-4.019-1.46-7.056-3.5-8.534-7.57,5.515-1.613,6.38-1.487,15.032,2.154-2.109-3.109-5.047-4.335-8.192-5.236-4.281-.459-8.471-1.685-12.833-1.306-1.622.135-2.442.549-4.073-1.623-3.713-4.965-10.193-6.344-16.15-5.9-2.541.189-4.848-1.037-7.263-.289-.325.108-.938.108-.406-.532m80.549,468.747a14.672,14.672,0,0,0,.441,2.893,20.875,20.875,0,0,1-1.3-7.255,28.316,28.316,0,0,0-.217-4.388A65.457,65.457,0,0,1-58.593,941.348Zm-49.728-294.113c-3.659.045-6.056,1.451-6.381,5.38v.009c-3.4-.063-2.928-3.019-3.325-4.921-.847-3.983-.36-8.065-.117-12.112.379.217.748.442,1.108.685A45.977,45.977,0,0,1-111,621.569c5.39-8.435,11.31-16.528,15.69-25.585,2.037-4.191,2.388-4.164,5.939-.721,6.119,5.921,11.887,12.274,19.331,16.627,2.054,1.2,1.442,2.136.351,3.461-2.271,2.775-5.137,4.938-7.282,7.9-5.344,7.4-11.2,14.4-18.555,20-3.262,2.47-6.516,4.182-10.661,2.542-.054.009-.1.009-.153.018.234.18.468.36.7.532C-106.14,647.784-107.393,647.226-108.321,647.235ZM-67.29,516.273c-8.327,1.316-14.851-1.757-21.3-5.109q-3.15-4.962-6.308-9.923C-83.547,501.854-73.805,505.387-67.29,516.273Zm-87.019,5.38a10.372,10.372,0,0,0-1.045-1.18c-2.524-2.542-2.677-5.119-.793-8.057a24.135,24.135,0,0,0,1.847-4.181A20.943,20.943,0,0,0-154.309,521.653Z" fill="#5b5b5b"/>
                <path id="Path_1948" data-name="Path 1948" d="M-148.433,546.869c-.505,3.046-2.884,6.317-5.272,5.9-6.525-1.154-9.967,3.839-14.843,5.875-3.83,1.6-4.181,5.66-6.488,8.246-3.569,4-6.471,8.354-7.679,13.518-2.73,11.608-8.182,21.926-15.266,31.263-3.5,4.6-3,8.579-1.225,13.238,3.226,8.435,8.93,15.149,14.491,22.061,2.838,3.524,4.821,9.12,3.424,12.581-3.866,9.625-6.254,19.655-9.435,29.442-6.083,18.727-8.2,37.9-2.56,57.289,3.055,10.472,6.994,20.772,9,31.443,2.425,12.86,2.506,26.017,5.281,38.985,4.6,21.512,5.768,43.609,8.2,65.481.937,8.417,2.2,17.168-.441,25.062-2.821,8.426-5.4,17.114-9.733,25.044a7.774,7.774,0,0,1-4.876,4.128c-3.83,1.2-7.777,2.487-9.246,6.948,4.632-3.7,9.553-6.561,15.086-5.344.045-6.777,3.668-12.022,6.173-17.483,2.523-5.489,3.524-12.338,11.373-14.221-2.28-1.055-4.8.6-5.533-1.613-.64-1.983,2.271-1.028,2.938-2.343a6.709,6.709,0,0,1-2.307-.73,1.108,1.108,0,0,1-.559-1.181v-.009A3.877,3.877,0,0,1-166.9,898.7c1.271-1.451.685-3.155.568-4.75-1.5-21.529-3.172-43.032-5.849-64.462-.405-3.208-1.045-6.741.983-9.643,1.451-2.072.513-3.082-.775-4.551-5.146-5.849-8.58-12.707-7.4-20.52,1.829-12.085-1.091-23.449-3.38-35.056-2.847-14.356-10.228-27.838-7.606-43.285,1.424-8.372.847-17.122,4.38-25.08,1.911-4.308,5.317-8.02,4.65-13.238a1.5,1.5,0,0,1,1.19-1.677c.874-.135,1.262.685,1.667,1.289,2.379,3.56,4.722,7.138,7.705,11.644a16.519,16.519,0,0,0-.351-2.407c-5.885-14.482-6.66-28.378,3.749-41.536,4.172-5.263,4.47-11.58,2.145-17.942a80.872,80.872,0,0,1-3.65-11.536c-.487-2.379.108-3.046,2.46-3.361,4.416-.6,8.724-1.721,12.427-5.867a81.922,81.922,0,0,1-9,.649c-6.075-.27-11.617-1.856-14.654-7.84-3.055-6,.874-10.013,4.362-13.915,4.605-5.146,6.236-11.481,7.831-17.9.19-.766.4-1.532-.279-2.063-1.036-.8-2.821-1.136-2.839-2.623-.027-2.343,2.947-.928,2.92-1.279-.478-6.7,3.19-1.244,4.587-1.343.568-1.577-2.983-3.19.424-4.047,2.262-.576,4.208-.018,3.668,3.569,2.811-2.307,5.136-4.19,7.425-6.1a25.938,25.938,0,0,0,2.316-2.136m-28.207,60.065c.288,7.516,5.191,13.247,7.579,19.934a31.5,31.5,0,0,1,.82,3.461c-.64,2.109-.36,5.434-2.766,5.506-2.181.063-5.065-.306-6.7-3.343-3.614-6.705-3.461-14.113-4.614-21.251-.361-2.225,2.568-3.406,4.028-5.019C-176.379,610.268-175.46,611.1-175.433,611.755Z" fill="#577482"/>
                <path id="Path_1949" data-name="Path 1949" d="M-152.587,900.365c-2.815-2.958-2.081-6.861-2.4-10.328-.835-8.947-1.666-17.924-1.181-26.938.061-1.125-.5-2.558.839-3.264,3.638-1.918,4.012-5.64,4.342-8.9,1.036-10.23.8-20.424-4.217-29.816-2.646-4.951-2.551-10.305-1.717-15.387,1.713-10.445,1.349-20.926,1.547-31.4.255-13.508,1.262-26.879,4.174-40.136.913-4.155,1.377-8.511,2.023-12.778a9.605,9.605,0,0,0-2.747-8.238,69.965,69.965,0,0,1-7.407-9.213c2.876,1.661,5.673,3.482,8.646,4.947,5.487,2.7,7.5,2.155,10.941-2.84,2.84-4.124,5.532-8.35,9.036-12.172-1.6,4.294-2.985,8.684-4.856,12.856-2.3,5.132-1.162,9.824-.209,15.134,1.32,7.347,6.157,11.676,10.256,16.863,8.5,10.759,13.776,23.013,17.211,36.239,3.7,14.271,9.708,27.366,21.554,36.944,1.173.948,1.475,1.832.7,3.02-3.783,5.846-1.849,11.379.668,17.026,8.431,18.92,15.279,38.368,18.962,58.82.313,1.742.789,3.822.145,5.286-1.138,2.585.907,2.655,2.235,3.68-.723,1-3.555.978-2.609,1.9,1.7,1.651-.461,6.7,5.08,5.168-3.91,1.8-3.728,4.387-2.59,7.374,3.359,8.819,6.453,17.709,6.824,27.288.1,2.516,1.1,4.849,2.749,8.213-5.1-3.666-6.049-7.843-6.1-12.387a37.464,37.464,0,0,0-3.138-15.74c-.732-1.564-1.369-3.378-3.241-4.124-2.15-5.123-.8-10.592-1.48-15.9-1.8-14.01-5.234-27.54-12.965-39.26-8.472-12.843-14.063-26.355-14.779-41.7-.227-4.861-1.977-8.952-4.374-12.971-1.988-3.333-3.856-6.739-5.777-10.113-3.29-2.649-3.792-6.683-4.873-10.327-2.5-8.429-5.438-16.693-8.669-24.86-3.471-8.259-8.8-15.3-14.453-22.139-1.017-1.231-2.46-2.218-2.095-4.221,1.535-8.434-5.2-14.14-7.09-21.626-.766,8.471-4.894,16.035-4.255,24.761.353,4.809-2.261,9.8-2.888,14.87-1.559,12.58-.605,25.158-.154,37.738a56.231,56.231,0,0,1-.433,10.769c-1.017,6.507.637,12.63,2.206,18.944,3.533,14.222,2.623,28.479-1.461,42.573a72.243,72.243,0,0,0-1.882,34.569A7.1,7.1,0,0,1-152.587,900.365Z" fill="#577482"/>
                <path id="Path_1950" data-name="Path 1950" d="M-55.373,900.444c-3.289-4.887-3.93-10.55-4.351-16.155-1.086-14.489-1.83-29-2.88-43.493a76.393,76.393,0,0,0-3.316-16.675c-1.07-3.517-2.641-7.127-5.714-8.914-4.244-2.467-5.322-6.054-6.3-10.342a52.771,52.771,0,0,0-6.6-16.141c-1.344-2.165-2.525-4.445-2.38-7.135,1.14-21.192-3.215-41.627-8.495-61.94a27.14,27.14,0,0,1-1.189-6.6c-.018-8.644-3.708-16.15-7.091-23.74a66.025,66.025,0,0,1-4.7-13.987c-.651-3.26-.377-5.455,3.516-5.666-1.207,4.4.994,8.133,2.71,11.773a210.781,210.781,0,0,1,9.239,22.882c8.094,24.128,11.718,45.063,11.629,71.469-.016,4.941,1.456,9.324,2.93,13.928a95.378,95.378,0,0,0,14.134,27.309c6.293,8.65,6.832,19.355,7.1,29.719.329,12.736-.533,25.476.023,38.232C-56.881,890.2-55.443,895.232-55.373,900.444Z" fill="#577582"/>
                <path id="Path_1951" data-name="Path 1951" d="M-95.5,552.443c-.86.672-1.329,1.569.125,1.8,11.707,1.882,16.154,10.985,20.313,20.335a28.128,28.128,0,0,0,7.637,9.785c9.857,8.4,16.828,19.337,25.914,28.374,3.287,3.269.079,5.963-1.239,8.2-3.6,6.109-9.5,10.17-14.942,14.487-10.579,8.4-22.281,15.129-33.935,21.9a3.078,3.078,0,0,0-1.55,2.56c-1.164-.768-1.707-.412-2.161.89-.611,1.75-.87,3.861-3.166,4.456.754-2.807,3.093-5.189,2.246-8.441a1.089,1.089,0,0,1,.415-.963c14.347-4.973,25.805-14.618,37.816-23.359a45.76,45.76,0,0,0,13.381-15.414c1.017-1.872,1.066-3.078-.41-4.722-7.805-8.692-14.994-17.944-23.7-25.813-4.472-4.045-8.507-8.34-10.54-14.278a29.855,29.855,0,0,0-4.213-7.39c-6.256-8.747-13.381-10.712-23.5-6.684-.524.208-1.008.721-1.779.12a22.948,22.948,0,0,0,1.931-1.761c1.112-1.262,3.621-2.41,2.316-4.218-1.335-1.852-3.177.163-4.758.955-.848-1.173,1.775-2.3.371-2.9-2.479-1.067-3.4,1.852-5.285,2.705-1.287-1.566,2.042-2.071.663-3.879-4.863,3.874-7.235-.774-9.306-3.571-1.688-2.279-2.361-5.887.814-8.4.811,3.72.859,8.009,5.357,9.465,2.428.785,5.152.617,7.629,1.3C-104.475,549.237-99.556,549.55-95.5,552.443Z" fill="#000203"/>
                <path id="Path_1952" data-name="Path 1952" d="M-121.761,536.572c.032-2.49.91-3.369,3.609-2.619a95.432,95.432,0,0,1,11.356,4.179c12.772,5.364,26.134,7.413,39.907,7.266,4.334-.046,8.669-.007,13.259-.007-1.432-2.37-4.406-2.518-7.05-4.781,7.167,1.358,13.383,2.785,19.336,5.377-5.489-5.31-12.942-6.294-19.786-9.192l5.965-2.065c-.081,2.246,1.973,1.892,3.146,2.425,5.864,2.664,11.811,5.171,16.694,9.521,4.3,3.834,5.3,8.052,3,13-.5-5.088-4.33-6.256-8.06-7.391-7.811-2.376-15.949-2.686-23.988-3.014-17.195-.7-33.975-2.825-49.623-10.668C-116.339,537.435-119.162,537.226-121.761,536.572Z" fill="#000203"/>
                <path id="Path_1953" data-name="Path 1953" d="M-147.873,474.491c-2.9-.954-6.122,1.891-8.931,3.831-4.934,3.409-6.79,8.305-5.561,13.739.747,3.3-.291,4.485-2.7,5.655-1.773-4.7-.557-8.839.783-13.66,2.335-8.4,8.676-11.5,15.532-11.871a84.685,84.685,0,0,1,12.9.077c2.609.175,3.822-.673,6.335-1.544,4.162-1.441,7.787.988,11.408,2.674a11.392,11.392,0,0,1,3.437,2.075,18.244,18.244,0,0,0,13.808,5.9,7.623,7.623,0,0,1,2.439.888c-6.237-.258-12.471-.839-19.469.309,1.6-1.244,4.668-1.376,1.455-3.287-3.465-2.06-6.649-4.508-11.107-4.131-4.989.423-9.868-1.521-15.038-.69" fill="#000203"/>
                <path id="Path_1954" data-name="Path 1954" d="M-61.482,532.711c-11.609-.369-21.12-5.974-30.426-12.107,3.52.729,6.406,3.2,10.942,3.977-3.711-3.38-7.34-5.577-9.475-9.728a18.653,18.653,0,0,1,8.207,1.542c-1.735,1.173.035,1.68.525,2.232C-76.105,524.943-68.993,529.119-61.482,532.711Z" fill="#000203"/>
                <path id="Path_1955" data-name="Path 1955" d="M-148.795,536.517c-3.865-5.231-6.95-11.057-11.818-15.526.649.249,1-1.836,1.948-.135.838,1.5,1.721,3.169,4.215,3.685-.067-3.869-5.655-4.991-4.434-8.853,1.015-3.209,3.2-5.993,3.586-10.035,2.509,2.783,2.913,5.48,1.877,8.185-1.829,4.774-.047,8.61,2.374,12.57" fill="#5b7883"/>
                <path id="Path_1956" data-name="Path 1956" d="M-119.979,762.334a52.333,52.333,0,0,1,7.365,17.08,125.384,125.384,0,0,0,6.177,18.107,2.727,2.727,0,0,1-3.079-2.066C-113.124,784.453-117.8,773.785-119.979,762.334Z" fill="#c9d6dd"/>
                <path id="Path_1957" data-name="Path 1957" d="M-165.073,497.738c-.313,3.486,2.143,4.395,5.674,4.884-3.5,2.8-6.339,5.224-5.782,9.453C-168.7,507.089-168.664,502.624-165.073,497.738Z" fill="#000203"/>
                <path id="Path_1958" data-name="Path 1958" d="M-165.189,512.069c1.162-4.543,3.58-4.99,7.173-2.006a22.518,22.518,0,0,0-3.646,9.326C-164.389,517.7-164.194,514.6-165.189,512.069Z" fill="#5d7684"/>
                <path id="Path_1959" data-name="Path 1959" d="M-69.768,607.564A229.653,229.653,0,0,1-87.72,591.919c-10.156-9.444-15.6-8.29-20.772,4.606-2.731,6.813-7.615,10.625-14.627,11.769-8.525,1.388-17.627.036-20.754-12.626-.144-.585-.478-1.063-1.208-1.009-.631,9.012,3.758,15.077,12.383,16.97,5.082,1.117,10.129.207,15.185-.4,1.784-.207,3.947-1.505,5.272.874,1.126,2.028.522,4.119-.316,6.047a29.654,29.654,0,0,1-2.172,3.407c-6.668,10.778-9.264,21.935-3.181,34.02a6.842,6.842,0,0,0,3.217-2.956c3.344-.658,6.309-3.506,9.787-2.6,3.867,1.019,6.1-.982,8.877-2.883,10.878-7.48,20.295-16.357,27.5-27.469,2.4-3.722,5.091-6.723,10.237-6.02C-62.135,611.412-66.262,610.205-69.768,607.564Zm-38.553,39.671c-3.659.045-6.056,1.451-6.381,5.38v.009c-3.4-.063-2.928-3.019-3.325-4.921-.847-3.983-.36-8.065-.117-12.112.379.217.748.442,1.108.685A45.977,45.977,0,0,1-111,621.569c5.39-8.435,11.31-16.528,15.69-25.585,2.037-4.191,2.388-4.164,5.939-.721,6.119,5.921,11.887,12.274,19.331,16.627,2.054,1.2,1.442,2.136.351,3.461-2.271,2.775-5.137,4.938-7.282,7.9-5.344,7.4-11.2,14.4-18.555,20-3.262,2.47-6.516,4.182-10.661,2.542-.054.009-.1.009-.153.018.234.18.468.36.7.532C-106.14,647.784-107.393,647.226-108.321,647.235Z" fill="#5b5b5b"/>
                <path id="Path_1960" data-name="Path 1960" d="M-88.594,511.164c-2.686-2.938-6.218-5.336-6.308-9.923Q-91.752,506.2-88.594,511.164Z" fill="#fbfcfc"/>
                <path id="Path_1961" data-name="Path 1961" d="M-129.473,538.426c2.169-4.013,4.115-8.17,6.564-12.005a19.01,19.01,0,0,0,2.237-15.893,10.5,10.5,0,0,1,1.1-8.565c1.663,3.712,1.686,7.7,4.424,10.491.335.342.156,1.543-.172,2.128C-119.839,522.636-120.013,533.084-129.473,538.426Z" fill="#000203"/>
                <path id="Path_1962" data-name="Path 1962" d="M-88.594,511.164c-6.344-.226-7.48-5.561-9.841-9.823,1.28-.712,2.415-.2,3.533-.1Q-91.752,506.2-88.594,511.164Z" fill="#000203"/>
                <path id="Path_1963" data-name="Path 1963" d="M-167.062,565.475c-3.362,7.681-4.956,14.632-10.653,19.735-6.445,5.771-6.894,10.344-3.622,18.5.836,2.084,4.183,3.746,1.184,6.983-2.18,2.353-4.4,1.718-7.069,1.6,4.8,2.419,4.044,7.049,4.76,10.949.9,4.878,1.807,9.753,4.052,14.18,1.193,2.351,1.906,5.621,5.944,5.085,1.226-.163,2.226.745,1,2.359-2.519,3.311-4.892,6.734-7.281,10.049a1.425,1.425,0,0,1-1.487-1.526c.8-5.03-2.387-7.968-5.288-11.361a56.535,56.535,0,0,1-11.9-21.461c-.585-2.08-.823-4.151.646-5.957,7.706-9.476,11.75-20.807,16.21-31.925,2.363-5.892,4.947-11.618,10.387-15.424C-169.584,566.849-168.918,566.535-167.062,565.475Z" fill="#030304"/>
                <path id="Path_1964" data-name="Path 1964" d="M-66.8,613.134c-.343,2-2.776,3.731-4.461,5.407-6.624,6.624-11.193,15.032-18.384,21.169a65.62,65.62,0,0,1-9.58,7.218c-2.677,1.55-4.4,1.037-6.407-.585-.235-.172-.469-.352-.7-.532.054-.009.1-.009.153-.018,4.145,1.64,7.4-.072,10.661-2.542,7.354-5.6,13.211-12.6,18.555-20,2.145-2.965,5.011-5.128,7.282-7.9,1.091-1.325,1.7-2.262-.351-3.461-7.444-4.353-13.212-10.706-19.331-16.627-3.551-3.443-3.9-3.47-5.939.721-4.38,9.057-10.3,17.15-15.69,25.585a45.977,45.977,0,0,0-6.038,14.707c-.36-.243-.729-.468-1.108-.685a60.425,60.425,0,0,1,9.562-19.727c5.037-7.119,9.823-14.473,13.328-22.467,1.7-3.875,2.875-2.721,4.921-.675,5.9,5.9,11.607,12.021,18.546,16.789a1.166,1.166,0,0,1,.325.306C-70.309,611.647-66.4,610.817-66.8,613.134Z" fill="#000203"/>
              </g>
            </g>
          </g>
        </g>
      </g>
    </g>
    <path id="Path_1965" data-name="Path 1965" d="M-135.467,588.6a10.088,10.088,0,0,0-2.51,5.17c-.521,2.05-1.051,4.09-1.73,6.76-.02-.05-.03-.1-.051-.14v-20.84a5.414,5.414,0,0,1,3.99,1.71C-133.788,583.313-133.447,586.593-135.467,588.6Z" fill="#000203"/>
    <path id="Path_1966" data-name="Path 1966" d="M-136.088,585.093v.02a3.727,3.727,0,0,1-3.67,3.78v-7.38A3.714,3.714,0,0,1-136.088,585.093Z" fill="#000203"/>
  </g>
</svg>
