<svg id="Component_30_2" data-name="Component 30 – 2" xmlns="http://www.w3.org/2000/svg" xmlns:xlink="http://www.w3.org/1999/xlink" width="157.92" height="157.92" viewBox="0 0 157.92 157.92">
  <defs>
    <clipPath id="clip-path">
      <circle id="Ellipse_199" data-name="Ellipse 199" cx="78.96" cy="78.96" r="78.96" transform="translate(-461.823 544.248)" fill="none"/>
    </clipPath>
    <clipPath id="clip-path-2">
      <rect id="Rectangle_167" data-name="Rectangle 167" width="147.039" height="226.3" transform="translate(-543.658 551.05)" fill="none"/>
    </clipPath>
    <clipPath id="clip-path-3">
      <rect id="Rectangle_168" data-name="Rectangle 168" width="128.845" height="253.132" transform="translate(-397.52 536.559)" fill="none"/>
    </clipPath>
  </defs>
  <circle id="Ellipse_199-2" data-name="Ellipse 199" cx="78.96" cy="78.96" r="78.96" fill="#fff"/>
  <g id="Group_2354" data-name="Group 2354" transform="translate(461.823 -544.248)">
    <g id="Group_2353" data-name="Group 2353" clip-path="url(#clip-path)">
      <g id="Group_2351" data-name="Group 2351">
        <g id="Group_2347" data-name="Group 2347">
          <g id="Group_2346" data-name="Group 2346" clip-path="url(#clip-path-2)">
            <g id="Group_2345" data-name="Group 2345">
              <path id="Path_1967" data-name="Path 1967" d="M-374.5,621.856l-.063,5.221c-2.811,4.157-1.213,8.761-1.246,13.169-.085,11.267,1.705,14.085,12.251,17.806,3.55,1.253,7.4,1.565,11.1,2.791,4.186,1.385,7.691,4.609,12.509,4.491,1.79-.045,3.05,1.946,2.875,3.983-.167,1.95-1.946,1.953-3.388,2.3-4.295,1.046-4.351,1.091-2.243,5.316a43.536,43.536,0,0,1,4.673,23.1c-.4,5.321-3.243,7.221-8.2,5.374a8.849,8.849,0,0,1-1.638-.746c-16.828-10.594-34.995-10.086-52.485-3.7-14.576,5.326-25.282,1.3-35.522-8.293-.438-.411.117.1-.319-.313-1.054-.867-1.939-1.925-3,.2a17.1,17.1,0,0,0-1.673,5.954c-1.076,9.664-4.49,18.284-11.7,25.114-6.235,5.906-11.573,6.126-18.332.661a91.951,91.951,0,0,1,5.61,7.647,39.629,39.629,0,0,1,4.722,9.171c1.057,3.127,2.39,6.148,3.429,9.28a96.81,96.81,0,0,0,12.3,24.916,8.633,8.633,0,0,0,6.572,3.99c6.26.8,11.753,2.92,15.06,9.117,1.5,2.8,4.5,4.707,6.821,7.023-2.231-2.022-4.26-4.254-6.379-6.392a4.163,4.163,0,0,1-.963-4.187c2.153-8.682.965-17.27-.709-25.833-1.239-6.336-1.615-12.333,5.434-16.266-10.209,1.617-15.858-4.953-21.324-11.307-2.607-3.031-4.614-4.916-8.378-2.058-.858.653-2.345,1.29-3.223.028-.816-1.172.078-2.367.915-3.2,7.921-7.849,9.944-17.819,10.278-28.393a8.747,8.747,0,0,1,1.887-5.388c.848-1.063,1.72-1.04,2.64-.1,3.738,3.247,7.133,6.857,10.991,9.972a19.041,19.041,0,0,0,18.155,3.78c11.02-3.142,22.15-5.18,33.72-4.595a53.769,53.769,0,0,1,23.251,6.2,6.922,6.922,0,0,1,4.02,6.436c.246,6.987-.409,13.791-3.34,20.233a82.558,82.558,0,0,0-7.825,37.568c.3,7.352-.654,14.506-.542,21.752a31.549,31.549,0,0,0,.75,6.247c2.3,10.553-1.485,19.1-8.754,26.809,2.21-2.589,4.814-4.386,6.927-6.709.887-.976,1.785-2.3,3.33-1.844,1.7.5,1.933,2.131,2.144,3.64q1.458,10.472,2.431,21c1.214,13.3,1.974,26.595-.425,39.876a62.07,62.07,0,0,1-6.3,19.144,12.135,12.135,0,0,0-1.519,8.643c.916,4.382-.026,8.738-.911,12.931a211.206,211.206,0,0,1-5.839,22.607c-1.8,5.471-1.311,11.332-1.481,16.939-.3,9.735-1.256,19.44-1.23,29.193.024,8.861.838,17.654,1.534,26.463.209,2.647.283,5.146-2.6,6.8,4.129-.207,7.289,1.7,10.4,3.509q10.5,6.117,21.149,11.964c3.447,1.9,7.31,2.783,10.65,4.8,2.475,1.494,5.765,2.5,5.755,6.205-.006,2.114-5.6,7.017-8.138,7.72-1.9.527-3.894.083-5.759.73-7.984.484-15.708-1.539-23.523-2.561-8.948-1.17-17.912-.828-26.873-1.027-2.118-.665-4.5-.489-6.369-1.943-1.207-.937-2.584-2.009-1.956-3.68.674-1.792,2.365-1.492,3.867-1.065a29.829,29.829,0,0,1,3,.95c-2.128-1.032-4.752-1.031-6.469-2.944a9.056,9.056,0,0,1-2.179-7.1c.414-5.428,2.693-8.323,8.18-9.836-3.123-4.09-2.4-8.618-2.141-13.271.574-10.265-1.361-20.32-3.747-30.257-2.522-10.5-5.869-20.883-6.408-31.709-.412-8.252-1.277-16.766,3.473-24.422,2.112-3.4,4.519-6.467,8.356-7.842,2.7-.969,3.093-2.713,3.013-5.218-.282-8.849-2.73-17.2-6.1-25.238a23.424,23.424,0,0,1-.993-16.96c3.309-10.615,3.419-21.86,5.526-32.737.593-3.061,1.152-6.133,1.561-8.452.364-1.32.948-.583.391-.81-.187-.076-.3-.027-.336.149-1.842,8.781-2.93,17.692-4.766,26.482-3.9,18.664-11.394,35.344-25.578,48.549a6.238,6.238,0,0,0-2.286,3.277c-1.274,7.553-6.034,13.293-10.1,19.613,2.014.038,2.908,1.077,2.823,2.967-.1,2.247.343,4.612-.309,6.726-4.155,13.462-5.288,27.711-10.656,40.847a99.087,99.087,0,0,0-5.775,21.233c-1.379,8.246-2.628,16.561-.9,24.949q.158,1.253.313,2.506c-.184,1.531,1.719,4.149-2.066,3.823-.593-.051.068.516.1.8.742,7.034,3.037,13.68,5.047,20.406.871,2.915.988,5.875-1.124,8.495,1.163-.329,2.765-1.3,3.612.6.918,2.057-.828,2.912-2.08,3.935-11.725,4.226-23.141,2.736-34.39-1.857a14.134,14.134,0,0,1-3.4-3.561c-.989-1.315-1.505-2.886-.33-4.108,1.3-1.353,2.377.126,3.418.9.4.295.7.745,1.288.856-7.475-6.385-1.535-19.074,8.448-26.73-2.829-.8-3.339-2.788-2.826-5.229a12.258,12.258,0,0,1,2.543-5.711c4.436-5,4.988-11.1,5.013-17.289.054-13.344,1.207-26.649,1.1-40.009a93.447,93.447,0,0,1,2.074-18.3c.761-3.932,1.982-7.748,1.224-11.963-.469-2.608,1.2-5.192,2.3-7.659,2.9-6.486,7.236-12.092,11.146-17.951a9.505,9.505,0,0,0,1.584-8.039c-5.15-21.423-3.935-42.851.152-64.266a174.678,174.678,0,0,1,3.8-17.589c.888-2.957.342-4.667-2.557-6.589-4.7-3.114-8.6-7.4-12.162-11.8a11.52,11.52,0,0,1-2.806-9.245c.632-3.487-.889-5.707-3.376-7.733a178.753,178.753,0,0,0-18.285-13.093c-7.759-4.844-15.562-9.643-21.877-16.452-6.709-7.233-8.829-16.217-9.82-25.565-.356-3.36,1.4-6.417,3.172-9.229a55.016,55.016,0,0,0,7.519-19.635,41.773,41.773,0,0,1,2.656-9.05c3.778-8.741,13.78-11.744,19.562-2.656-1.413-1.761-2.87-4.047-4.97-5.672-3.068-2.373-3.377-5.3-2.67-8.833,3.1-15.461,21.1-25.634,37.143-20.888.577.168.289-.671.243-.073-.009.107-.164.136-.445.031a22.761,22.761,0,0,0-7.47-1.336c-1.314-.034-2.935.258-3.483-1.363-.6-1.778.888-2.689,2.035-3.625,5.244-4.279,8.3-4.209,14.4.289,1.9-5.224,5.565-7.186,10.783-5.614,5.823,1.754,10.913,4.934,15.826,8.428a3.063,3.063,0,0,0-.927-2.437c-3.949-5.4-6.463-11.057-4.565-18,.505-1.845-.4-3.839-1.162-5.654-.735-3.631.968-7.1.694-10.707,2.651.4,2.015,2.61,2.026,4.156.025,3.538,1.191,6.394,3.775,8.4.341-6.884-1.719-13.623-2.54-20.419-.914-7.57-1.505-15.6-.094-23.392.107-.588.289-1.165.357-1.761.855-7.555,2.315-9.23,9.52-11.33a30.62,30.62,0,0,1,23.434,2.287c3.03,1.565,5.05,3.756,4.263,7.532a9.65,9.65,0,0,0,.374,3.542c.731,4.535,2.177,9.143-1.174,13.354a2.507,2.507,0,0,0-.324,2.588c2.4,4.679,1.036,9.462.18,14.09-1,5.394-1.549,10.911-2.872,15.555C-379.423,627.32-378.227,623.356-374.5,621.856Z" fill="#030303"/>
              <path id="Path_1968" data-name="Path 1968" d="M-317.359,797.6c-1.568,2.433-2.8,4.984-1.2,7.931-1.072-.226-1.523.189-1.9,1.261a36.063,36.063,0,0,1-2.749,6.146c-6.7,11.374-5.939,11.139-18.636,7.67-2.533-.694-5.218-1.4-7.165-3.461,2.956-1.622,5.533.379,8.174,1.009,8.246,1.956,10.364,1.091,14.365-6.533,1.541-2.929,3.127-5.876,3.677-9.165,1.216-7.363,4.83-13.816,7.579-20.611a47.775,47.775,0,0,0,3.623-19.781,22.686,22.686,0,0,0-1.631-7.894c-2.353-5.633-5.345-6.831-11.031-4.5a19.084,19.084,0,0,1-2.082.856c-.721.189-1.541.441-2.082-.225-.676-.821-.279-1.713.2-2.5a8.049,8.049,0,0,1,2.9-2.793c4.948-2.839,5.6-7.652,5.3-12.509-.306-4.93-1.153-9.9-3.712-14.275a11.46,11.46,0,0,1-1.028-9.453c2.749-10.175,2.226-19.926-4.641-28.622a15.393,15.393,0,0,0-12.536-6.264c2.046,3.443,4.092,6.363,5.606,9.553,3.019,6.326,4.866,12.914,4.542,19.988-.207,4.389-1.478,8.31-5.434,10.8-2.217,1.388-2.785,3.424-2.6,5.8a33.642,33.642,0,0,1-3.641,17.862c-1.739,3.452-2.992,7.047-2.135,11.022.008.027.008.063.018.09-.036.027-.072.045-.109.072a2.192,2.192,0,0,1-.009-.243c-2.225-1.073-3.343-.424-4.055,2.009a88.324,88.324,0,0,0-3.884,28.514q-.405,5.055-.811,10.111c.3-.3.586-.585.883-.865-.063.226-.126.469-.2.7q.351-.634.73-1.189c2.541-2.226,5.2-3.5,8.6-3.254,2.361-.117,4.74.117,7.065-.775,1.433-.549,3.605.253,4.146-1.838.559-2.163-1.126-3.875-2.505-4.894-7.48-5.5-7.94-13.247-6.795-21.259a7.328,7.328,0,0,0-1.226-5.677h-.009c0-.009.009-.009.009-.018,2.235-1.01,4.055.369,5.966,1.1,1.09.415,1.541,1.082.712,2.415-3.929,6.3-3.641,11.355.856,17.114a56.479,56.479,0,0,1,4.416,5.677c3.019,5.056,2.109,7.994-3.19,10.364a23.46,23.46,0,0,1-8.318,1.7c-7.021.433-10.824,5.318-9.517,12.2,1.036,5.425,1.8,10.922,3.758,16.131-3.127.054-1.649,2.2-1.442,3.488a255.768,255.768,0,0,1,3.857,37.958c.216,15.473-.279,30.911-8.038,45a4.508,4.508,0,0,0-.28,3.046c.694,4.344.9,8.895-.586,12.924-4.154,11.228-4.289,23.016-5.758,34.632-2.415,19.034-4.47,38.049-4.209,57.3.108,7.886,2.713,13.167,9.589,17.123a260.251,260.251,0,0,0,27.567,14.086c5.146,2.19,10.148,4.641,11.409,10.967.676,3.389.361,5.624-3.947,6.191a87.966,87.966,0,0,1-14.761.523c.234-.063.469-.126.7-.2h.018c.009,0,.009,0,.018-.009a12.986,12.986,0,0,1,2.694-.649c4.7-.379,6.489-4.614,9.544-7.138,1.018-.829-.072-2.036-.883-2.613a29.418,29.418,0,0,0-5.741-3.488c-10.517-4.154-20.088-10.057-29.766-15.779-3.9-2.3-7.913-4.29-13.284-4.57,5.876-1.892,3.911-5.893,3.56-9.624-1.812-18.889-.261-37.769.081-56.658.216-12.455,5.119-23.675,7.237-35.579.594-3.389,1.64-6.967,1.09-10.22-1.072-6.335,1.19-11.418,3.614-17,5.74-13.212,6.173-27.352,5.4-41.527-.622-11.22-1.874-22.4-3.289-33.543-.136-.991.207-2.136-1.028-3.154a66.475,66.475,0,0,1-13.941,11.688c.081-1.811,1.171-2.37,1.892-3.091,7.777-7.786,11.869-16.726,9.355-28.018-1.208-5.434-1.7-10.949.639-16.329a5.48,5.48,0,0,0,.226-3.1c-3-15.159.649-29.424,6.038-43.375,2.793-7.236,4.632-14.509,4.325-22.313a5.4,5.4,0,0,0-3.235-5.236c-13.869-7.363-28.522-7.183-43.4-4.66a80.628,80.628,0,0,0-11.3,2.884c-7.958,2.569-15.041,1.2-21.458-4.118-3.8-3.154-7.579-6.327-10.237-10.589a.526.526,0,0,1,.036-.451v-.009c.072-.135.243-.18.505-.153,3.622,2.379,7.335,4.641,10.841,7.174,5.389,3.9,11.093,4.9,17.411,2.748a107.678,107.678,0,0,1,30.271-6.038,53.154,53.154,0,0,1,29.613,7.471c6.885,3.992,9.138,2.586,9.183-5.335.046-9.409-3.01-17.889-8-26.252,3.325-.541,6.2-1,9.1-1.478.09-1.694-.928-4.019-1.83-3.659-5.6,2.2-8.3-5.136-13.445-3.749-1.46.388-1.677-.973-2.307-1.685a3.636,3.636,0,0,0-3.6-1.361c-7.651,1.451-11.752-5.073-17.492-7.894-1.019-.505-.793-2.172-.793-3.371,0-5.389.423-10.787-.379-16.167-.36-2.433,1.6-3.659,3.118-5.056.316,6.282.523,12.563.974,18.835.279,3.9,7.263,8.408,10.94,7.129,1.793-.631,3.551-1.109,5.146.018,3.109,2.19,4.785,6.813,9.832,5.6,2.5,4.885,8.976,3.172,11.995,7.219-1.388,2.091-.036,3.442,1.442,4.488,14.284,10.075,17.735,24.143,14.969,40.472a8.116,8.116,0,0,0,1.009,5.615c3.6,5.975,4.145,12.589,3.118,19.033-.73,4.6.838,7.714,3.181,11,5.534,7.732,5.993,16.374,4.912,25.449C-308.185,781.48-312.294,789.7-317.359,797.6Z" fill="#030303"/>
              <path id="Path_1969" data-name="Path 1969" d="M-494.941,764.178c-9.547-6.788-13.715-17.061-18.542-27.184-3.138-6.58-2.634-10.934,1.885-16.584,5.893-7.371,8.422-16.589,10.109-25.884,2.819-6.056,5.772-11.96,13.307-13.337,1.669-.306,1.262-1.891,1.385-2.951,1.413-12.172,10.041-19.656,18.03-27.444,2.314-2.255,5.491-3.642,9.1-2.2,2.645,1.054,4.263-1.138,5.8-2.533,3.272-2.976,6.682-3.939,10.57-1.642,1.889,1.115,3.015.313,4.285-.9,2.933-2.8,5.863-4.464,10.432-3.065,4.411,1.35,7.789-1.911,8.321-6.719.312-2.819.682-5.632,1.026-8.447,2.989,2.289,2.877,5.4,2.118,8.566a10.826,10.826,0,0,0,2.064,10.068,32.064,32.064,0,0,1,5.671,11.424c-6.127-5.011-12.055-8.873-18.886-11.155-1.583-.529-3.113-1.079-4.807-.565-4.274,1.3-5.582,4.076-3.44,8.851-3.306-2.762-5.7-5.9-9.509-6.222-4.138-.351-6.425,2.941-10.082,5.589,5.561.915,10.451.761,14.457,3.928a33.7,33.7,0,0,0-16.756-.593c-11.712,2.348-20.879,11.532-22.366,22.344-.323,2.355.079,3.818,1.973,5.37,3.895,3.192,5.14,5.419,6.242,9.475-1.233-.163-1.446-1.352-2.079-2.053-6.334-7.008-13.824-5.873-17.795,2.747-1.9,4.13-2.341,8.656-3.427,13a47.485,47.485,0,0,1-6.9,16c-2.614,3.741-3.231,7.737-2.576,12.356,1.7,12,7.413,21.238,17.266,28.252,10.259,7.3,21.47,13.2,31.138,21.379,3.218,2.722,6.043,5.151,4.51,10.1a7.315,7.315,0,0,0,1.843,6.746c4.762,4.994,8.434,11.323,15.469,13.731,2.307.789,1.386,2.369,1.053,3.665a248.885,248.885,0,0,0-7.157,39.243c-1.4,15.309-1.373,30.525,2.627,45.5a8.2,8.2,0,0,1-1.221,7.5c-4.749,6.9-10.109,13.563-12.747,21.623-2.016,6.161-1.578,12.823-2.782,19.228-3.261,17.339-1.7,35-2.7,52.5-.231,4.043-.479,8.068-.933,12.094a13.022,13.022,0,0,1-2.813,6.472,28.014,28.014,0,0,0-3.457,5.743c-2.119,5.08-1.323,6.091,4.253,5.385-3.6,3.5-7.187,6.574-10.044,10.361-5.594,7.416-5.1,13.586,2.052,19.907-3.483.04-5.311-2.5-7.823-3.926-.594,3.5,1.981,5.376,3.256,7.8-5.129-2.595-7.12-8.739-4.671-14.239,3.562-8,6.166-16.416,9.318-24.484,7.479-19.14,4.727-38.362,3.77-57.646-1.085-21.859.335-42.97,15.1-60.7,3.624-4.352,2.284-8.579,1.7-13.1-2.731-21.115-.13-41.821,4.9-62.328,1.141-4.65,2.217-9.326,3.642-13.891.793-2.541.706-3.856-2.325-4.251a8.686,8.686,0,0,1-4.987-2.881c-1.227-1.3-2.053-2.679-.217-4.165,1.57-.57,1.883,1.193,2.8,1.357a18.814,18.814,0,0,0-2.734-2.213c-5.877-4.179-9.661-9.377-8.342-17.075.275-1.61-.986-2.409-1.891-3.357-5.555-5.816-12.262-10.052-19.189-14C-482.783,771.269-488.852,767.706-494.941,764.178Z" fill="#6fcef3"/>
              <path id="Path_1970" data-name="Path 1970" d="M-442.95,1029.022c-3.15-5.793-1.784-11.975-1.364-18,.938-13.442,5.968-25.872,9.964-38.548a164.876,164.876,0,0,0,5.105-22.759c.832-5.018,3.535-9.676,2.948-15-.065-.583.178-1.212-.967-1.741l-2.216,2.844c-.229-3.873,1.574-6.792,3.75-9.433,3.325-4.036,5.69-8.448,6.166-13.713a4.272,4.272,0,0,1,1.63-3.021c15.775-13.976,23.44-32.155,27.313-52.381,1.655-8.637,2.964-17.373,6.006-25.718-3.08,16.092-2.644,32.723-7.605,48.495a11.579,11.579,0,0,0,.271,8.207c4.051,10.336,7.811,20.74,7.967,32.085.032,2.366-.508,3.306-2.763,4.014-7.29,2.289-11.081,10.713-12.046,18.385-2.529,20.1,6.168,38.207,8.669,57.361.97,7.43,2.227,14.846.713,22.338-.888,4.4,2.147,7.243,4.167,10.742-2.217.867-4.312-1.747-6.382.061a10.055,10.055,0,0,0-3.033,5.868c-1.331,6.267.113,8.255,8.751,11.89-2.779,1.087-5.283-.857-8.014.048,1.21,3.909,5.36,3.73,7.852,5.718-3.646.424-7.03-.723-10.535-1.462-4.492-.948-5.429-3.466-4.646-7.421,1.274-6.443,2.249-12.905,5.8-18.721,2.8-4.573,1.626-9.9,1.659-14.962.105-16.127-5.22-31.2-8.931-46.59a105.772,105.772,0,0,1-2.369-12.772c-1.486-13.057,3.94-23.936,11.4-34,1.534-2.072,2.406-3.976,2.174-6.524-.665-7.292-2.788-14.222-4.89-22.224-5.006,9.584-10.688,17.384-18.445,23.493-.786.618-.746,1.564-.926,2.444-.328,1.61-.316,3.554-1.243,4.732-4.358,5.537-4.119,11.99-3.928,18.37.36,12.044-2.943,23.219-8.731,33.469C-439.267,991.576-442.433,1009.928-442.95,1029.022Z" fill="#577582"/>
              <path id="Path_1971" data-name="Path 1971" d="M-374.5,621.856c-2.239,4.166-5.694,7.236-9.936,11.021,3.958-8.921,3.289-17.847,5.8-26.138a4.976,4.976,0,0,0-.25-3.06c-1.425-3.532-2.951-6.955.98-9.988.435-.336.39-1.379.449-2.1.368-4.6-2.641-8.882-1.14-13.687.415-1.328-1.3-2.577-2.508-3.5-7.253-5.535-22.947-5.724-30.283-.374-2.084,1.519-3.17,3.179-2.446,6.1.717,2.9-.5,5.947-.572,8.988-.075,3.38-1.656,6.664,1.121,9.686a1.329,1.329,0,0,1,.084,1.262c-3.313,4.661-.519,8.854.881,13.2a13.5,13.5,0,0,1,.684,7.08c-.74,3.436.3,6.717,1.7,10.888-5.036-3.924-8.937-7.214-7.67-13.437.234-1.148.347-2.431-.939-3.214-4.693-2.594-5.711-9.386-1.693-12.667,1.316-1.075.907-2.118.79-3.14-.441-3.855-.912-7.719-1.66-11.523a12.5,12.5,0,0,1,3.23-11.481c9.386-10.681,34.158-10.465,43.2.472a11.953,11.953,0,0,1,2.826,10.768,68.534,68.534,0,0,0-1.37,8.394c-.235,2.663-1.017,5.241,1.494,7.8,2.158,2.2,1.07,5.891-.353,8.032C-374.347,614.655-374.046,618.253-374.5,621.856Z" fill="#6fcef3"/>
              <path id="Path_1972" data-name="Path 1972" d="M-447.247,809.183a12.246,12.246,0,0,1,6.135,4.281c-3.153.1-4.068-2.727-6.2-3.425A1.839,1.839,0,0,1-447.247,809.183Z" fill="#172c38"/>
              <path id="Path_1973" data-name="Path 1973" d="M-420.942,789.834c-1.073-1.262-2.524-2.334-1.92-4.245,3.046-9.7.847-19.249-.721-28.829-.784-4.812-1.27-9.535,4.407-12.166a5.541,5.541,0,0,0,3.118-3.749c-10.174,3.082-16.816-2.109-22.71-9-1.739-2.028-3.055-5.434-5.1-5.912-2-.468-4.678,2.01-7.075,3.154-.144.073-.441-.18-.928-.4,9.309-8.552,12.689-19.322,12.1-31.605-.1-2.1.387-4.154,2.965-4.731.081-.09.162-.189.252-.28a.009.009,0,0,1,.009-.009c.081-.108.181-.216.28-.324-1.217-1.361-2.3-3.226-3.488.153a26.84,26.84,0,0,0-1.721,5.029,54.481,54.481,0,0,1-3.993,14.68c-2.667,5.822-5.992,11.121-11.868,14.23-3.7,1.965-7.336,2.208-10.878-.685-1.712-1.406-3.514-2.929-6.542-3.334,4.163,4.65,7.687,8.9,10.327,13.824,2.641,4.9,4.371,10.166,6.192,15.4a102.166,102.166,0,0,0,13.427,26.333,6.26,6.26,0,0,0,5.506,3.019c5.624.145,10.716,2.1,14.149,6.687,2.929,3.911,6.606,6.957,10.562,11.3C-415.742,793.835-418.9,792.258-420.942,789.834Zm-7.9-17.682c-1.288,2.172.181,5.182-2,7-.721.6-11.1-3.416-11.716-4.335a89.645,89.645,0,0,1-12.238-25.342,91.776,91.776,0,0,0-4.425-12.679c-1.694-3.722,1.812-3.308,3.091-4.632,1.37-1.424,2.587-1.505,3.911.36,5,7.029,11.464,12.617,18.2,17.907,1.072.847,2.163,1.649,2.406,3.109q1.446,8.868,2.883,17.735A2.249,2.249,0,0,1-428.837,772.152Z" fill="#577482"/>
              <path id="Path_1974" data-name="Path 1974" d="M-317.269,789.284a31.112,31.112,0,0,0-3.073,8.742,51.771,51.771,0,0,1-6.921,17.42c-2.524,4.154-5.885,6.191-10.941,4.551-3.541-1.154-7.2-1.911-10.8-2.848l-.063-.036a6.538,6.538,0,0,1-3-5.443c-.189-3.542-1.153-7.048-1.838-10.553-1.578-8.057,2.658-13.383,10.787-13.644a25.99,25.99,0,0,0,4.857-.613c8.192-1.838,9.454-5.173,3.948-11.643-4.092-4.8-7.5-9.544-6.84-16.339.279-2.812.729-4.993,4.352-5.849-2.721-1.018-4.83-1.811-6.948-2.6h-.009c-.613-.514-1.226-1.01-1.838-1.505.008.027.008.063.018.09-.036.027-.072.045-.109.072a2.192,2.192,0,0,1-.009-.243c-2.18-2-2.108-4.1-.82-6.678,3.921-7.859,6.895-15.987,5.561-25.035a2.579,2.579,0,0,1,1.838-3.119c5-1.946,6.065-6.209,6.182-10.913.226-8.823-2.523-16.8-7.164-24.188-1.154-1.838-2.442-3.6-3.92-5.714-.127-.189-.262-.378-.4-.576.316-.027.631-.036.937-.045,6.4-.226,11.265,1.928,15.041,6.786,7.048,9.075,7.8,19.2,4.759,29.82a9.754,9.754,0,0,0,.693,7.967c3.371,6.452,5.011,13.328,3.776,20.808-.54,3.254-1.7,5.552-4.478,7.255a11.475,11.475,0,0,0-4.669,4.713c.523.054.838.189,1.019.09,9.489-5.434,13.878-3.542,16.149,7.291C-308.789,768.746-312.051,779.281-317.269,789.284Z" fill="#030303"/>
              <path id="Path_1975" data-name="Path 1975" d="M-345.584,749.01c-.036.027-.072.045-.109.072a2.192,2.192,0,0,1-.009-.243c.037.027.064.054.1.081C-345.594,748.947-345.594,748.983-345.584,749.01Z" fill="#2a82ae"/>
              <path id="Path_1976" data-name="Path 1976" d="M-465.51,654.142c2.623-2.65,4.812-3.183,7.52-1.938Z" fill="#0c1e29"/>
            </g>
          </g>
        </g>
        <g id="Group_2350" data-name="Group 2350">
          <g id="Group_2349" data-name="Group 2349" clip-path="url(#clip-path-3)">
            <g id="Group_2348" data-name="Group 2348">
              <path id="Path_1977" data-name="Path 1977" d="M-399.688,569.2c-8.3.442-15.645,9.282-14.707,17.474a12.2,12.2,0,0,1-1.514,6.822l-.009.018c-.109.144-.217.3-.316.442-1.757,2.893,3.335,3.92,2.271,5.993-1.27,2.46-3.532,4.379-2.307,7.534.009.018.009.027.018.036.063.108.144.216.216.324l.009.009c.451.2.784-.036,1.2-.2,1.091-.451.541-3.262,2.641-2,1.829,1.109.549,2.614.054,3.956-.676,1.812-1.541,3.614-.379,5.561.352.531.7,1.063,1.046,1.6a.228.228,0,0,0,.108.018,3.084,3.084,0,0,1,2.307,1.6c.757,1.316,1.838,3.434,3.7,2.046a1.845,1.845,0,0,0,.82-1.244c1.883,4.876,5.019,9.481,7.786,14.374-1.181-1.234-1.911-1.676-2.893-1.28.18,1.514-.919,3.191.586,4.524,2.415,4.425,2.325,7.318-1.018,10.445-2.461,2.307-4.065,6.417-9.2,3.893-2.55-1.243-5.3,1.965-7.471,3.5-1.865,1.316-5.587,3.7-1.883,7.02.108.1.225.2.342.3l.055.054c1.135,1,.18,2.523-.018,3.794-1.055,6.939-4.912,12.391-9.148,17.762-5.677,7.21-3.019,15.915,5.6,19.16a23.843,23.843,0,0,0,13.139,1.361A22.988,22.988,0,0,1-417,707.076c-3.46.577-4.4,2.578-3.65,5.8a59.621,59.621,0,0,0,2.686,8.588c3.118,7.778,2.163,14.852-2.848,21.629-8.769,11.869-7.786,24.585-3.01,37.553a25.209,25.209,0,0,0-4.677-7.687c-1.712-1.83-4.164-1.947-4.335.685-.369,5.731-4.01,9.94-5.866,14.941-2.767,7.453-2.262,15.4-3.84,22.99-1.865,8.949.6,17.141,2.8,25.531,1.847,6.957,3.947,13.851,5.488,20.889,1.983,9.084,4.723,18.267,3.218,27.559-1.6,9.832.973,18.069,6.677,25.72,1.064,1.433,1.632,2.785.866,4.551-1.352,3.154-1.145,6.506-.775,9.769.549,4.92,1.018,9.841,1.676,14.743s1.162,9.841,1.5,14.762,1.054,9.832,1.207,14.779.181,10.04,1.181,14.735c.829,3.884-1.424,7.912-.072,11.616v.009a6.624,6.624,0,0,0,.559,1.181,7.791,7.791,0,0,0,.621.874c.181.216-.621,0-.9.261-2.685,2.542-.423,3.209,1.478,3.957-3.451,1.27-4.947,4.244-6.128,7.344-2.712,7.147-6.227,13.951-8.706,21.178a2.435,2.435,0,0,1-2.622,1.83c-4.821.288-8.462,2.7-11.472,6.29-1.5,2.172.234,2.587,1.7,2.866,6.363,1.217,12.8,1.018,19.214.658,2.117-.126,3.532-1.091,3.559-3.668.027-3.037,1.74-5.641,2.848-8.39,3.091-5.741,7.877-9.58,13.653-12.392,7.02-3.433,8-7.714,3.434-14.292-.694-.992-2.407-1.677-1.091-3.335q-.4-2.23-.811-4.461a31.782,31.782,0,0,1-1.46-7.759c-.495-5.227-.513-10.481-.721-15.7-.288-7-1.874-14.437,3.65-20.565.946-1.045,1.109-2.794,1.217-4.281.739-10.219,1.216-20.439-3.551-29.991a20.428,20.428,0,0,1-2.361-11.752c1.965-15.816,1.838-31.7,1.847-47.592,0-.6.163-1.2.2-1.793.82-12.9,3.658-25.5,5.641-38.229a11.805,11.805,0,0,0-2.992-10.409,65.022,65.022,0,0,1-5-5.614,12.151,12.151,0,0,0,3.939,2.839c6.551,3.343,10.012,2.487,14.13-3.533a49.022,49.022,0,0,0,2.9-4.551c.757-1.433,1.55-2.839,2.154-3.857-3.605,8.1-8.327,16.446-3.253,26.1a3.351,3.351,0,0,1,.27,1.767c-.171,2.613,1.037,4.542,2.776,6.362a93.61,93.61,0,0,1,23.611,43.329c3.407,13.924,9.688,26.441,20.277,36.445,1.658,1.559,2.19,3.154,1.144,5.191-2.189,4.262-1.432,8.444.361,12.58,2.037,4.677,4.01,9.382,5.876,14.131,6.777,17.168,13.022,34.453,14.653,53.107.252,2.938-.4,5.957.541,8.967.414,1.289,2.938,1.19,1.748,2.9-1.775,2.55-.721,5.029.207,7.291,1.037,2.532,1.974,5.082,2.785,7.66q-.311-.852-.649-1.7c-.766-1.928-1.379-4.469-4.416-4.235a66.384,66.384,0,0,1,3.876,19.6c.171,8.3,4.749,14.761,12.616,17.456,9.49,3.253,12.7.874,12.238-9.066a24.084,24.084,0,0,0-3.658-10.391c-5.326-7.66-8.219-16.366-11.013-25.125-.351-1.109-.514-2.352-1.487-3.181-.856-2.028-1.956-4.02-.883-6.318-.721-3.181-2.019-6.236-2.469-9.471-1.668-12.022-1.7-24.17-2.371-36.273a160.1,160.1,0,0,0-3.577-28.027,23.666,23.666,0,0,0-8.616-13.834,9.511,9.511,0,0,1-3.631-5.939,63.806,63.806,0,0,0-6.913-17.987,19.3,19.3,0,0,1-2.6-10.292,157.564,157.564,0,0,0-1.712-27.775c-1.713-12.049-6.1-23.575-7.426-35.624-1.118-10.21-4.5-19.448-8.76-28.559a42.449,42.449,0,0,1-3.55-11.562c-.352-2.253.018-4.182,2.126-5.452a26.071,26.071,0,0,0,6.363-4.416,15.185,15.185,0,0,0,3.055-5.894,4.345,4.345,0,0,1,2.5-2.83c2.073-1.045,4.109-2.126,6.137-3.244a.068.068,0,0,1,.036-.018c4.912-2.7,9.706-5.623,14.329-8.778a.543.543,0,0,0,.09-.063c1.586-1.09,3.173-2.2,4.723-3.361,8.264-6.1,17.285-11.436,22.349-21.079,2.8-5.326,2.974-6.236-.883-10.679-8.453-9.733-17.033-19.358-26.4-28.244a19.7,19.7,0,0,1-4.695-7.029,39.427,39.427,0,0,0-9.273-14.194c-5.777-5.425-12.266-5.731-19.106-3.352,2.506-2.6,3.01-4.542,1.127-5.137-3.479-1.09-7.093-2.532-10.625-2.343a5.418,5.418,0,0,1-4.569-1.541c-3.3-2.884-3.488-6.381-2.334-10.229.09-.216.189-.432.288-.648,3.8-2.875,7.282-.325,10.418,1.126,17.663,8.138,36.327,9.571,55.36,8.94.991-.027,2.307.333,2.7-.982.432-1.433-.721-2.154-1.794-2.731-.207-.108-.414-.225-.6-.324,3.425,1.459,7.507,2.171,11.338,3.694,1.072.424,2.586,1.109,3.271-.135.793-1.424-.514-2.514-1.667-3.163a51.948,51.948,0,0,0-15.339-5.939,6.215,6.215,0,0,0,2.911-2.325l3.226-.64c-4.037-.928-6.993.081-9.543-1.379a126.9,126.9,0,0,1-24.738-9.03c.333.118.685.244,1.018.379,1.154.469,2.641,1.911,3.551.46.009-.018.027-.046.036-.063a2.059,2.059,0,0,0,.153-.316c.5-1.343-1.1-2.271-2.09-3.127-1.523-1.343-3.227-2.5-4.434-4.794a20.046,20.046,0,0,0,5.758.171c5.227,2.911,11.662.6,17.258,3.7-1-7.273-4.893-12.788-10.823-16.916-6.435-4.479-13.617-7.6-20.926-10.264-4.019-1.46-7.056-3.5-8.534-7.57,5.515-1.613,6.38-1.487,15.032,2.154-2.109-3.11-5.047-4.335-8.192-5.236-4.281-.46-8.471-1.686-12.833-1.307-1.622.135-2.442.55-4.073-1.622-3.713-4.966-10.193-6.345-16.15-5.9-2.541.189-4.848-1.036-7.263-.288-.325.108-.938.108-.406-.532m80.549,468.746a14.671,14.671,0,0,0,.441,2.893,20.823,20.823,0,0,1-1.3-7.254,28.582,28.582,0,0,0-.217-4.389A65.663,65.663,0,0,1-309.442,1037.129ZM-359.17,743.016c-3.659.045-6.056,1.451-6.381,5.38v.009c-3.4-.063-2.929-3.019-3.325-4.92-.847-3.984-.361-8.066-.117-12.112.378.216.748.441,1.108.685a45.96,45.96,0,0,1,6.038-14.708c5.389-8.435,11.31-16.528,15.69-25.585,2.037-4.19,2.388-4.163,5.939-.721,6.119,5.921,11.887,12.275,19.33,16.627,2.055,1.2,1.442,2.136.352,3.461-2.271,2.776-5.137,4.938-7.282,7.9-5.344,7.4-11.2,14.4-18.555,20-3.263,2.469-6.516,4.181-10.661,2.541-.054.009-.1.009-.154.018.235.18.469.361.7.532C-356.989,743.566-358.242,743.007-359.17,743.016Zm41.031-130.961c-8.327,1.315-14.852-1.758-21.3-5.11q-3.15-4.962-6.309-9.922C-334.4,597.636-324.655,601.168-318.139,612.055Zm-87.019,5.38a10.391,10.391,0,0,0-1.046-1.181c-2.523-2.541-2.676-5.119-.793-8.056a24.179,24.179,0,0,0,1.848-4.182A20.945,20.945,0,0,0-405.158,617.435Z" fill="#030303"/>
              <path id="Path_1978" data-name="Path 1978" d="M-399.282,642.65c-.5,3.046-2.884,6.318-5.272,5.9-6.525-1.154-9.968,3.839-14.843,5.876-3.83,1.595-4.182,5.659-6.489,8.246-3.568,4-6.47,8.354-7.678,13.518-2.73,11.607-8.183,21.926-15.266,31.262-3.506,4.6-3,8.579-1.226,13.238,3.227,8.436,8.931,15.15,14.492,22.062,2.838,3.523,4.821,9.12,3.424,12.58-3.866,9.625-6.254,19.655-9.435,29.442-6.083,18.727-8.2,37.905-2.56,57.289,3.055,10.472,6.994,20.773,9,31.443,2.424,12.86,2.506,26.017,5.281,38.985,4.605,21.512,5.768,43.609,8.2,65.481.937,8.417,2.2,17.168-.442,25.062-2.82,8.427-5.4,17.114-9.732,25.045a7.776,7.776,0,0,1-4.876,4.127c-3.83,1.2-7.777,2.487-9.246,6.948,4.632-3.7,9.553-6.561,15.086-5.344.045-6.777,3.668-12.022,6.173-17.483,2.523-5.488,3.524-12.337,11.373-14.221-2.28-1.054-4.8.6-5.533-1.613-.64-1.983,2.271-1.027,2.938-2.343a6.679,6.679,0,0,1-2.307-.73,1.107,1.107,0,0,1-.559-1.181v-.009a3.872,3.872,0,0,1,1.027-1.757c1.271-1.451.685-3.154.568-4.749-1.5-21.53-3.172-43.032-5.849-64.463-.4-3.208-1.045-6.741.983-9.642,1.45-2.073.513-3.082-.776-4.551-5.145-5.849-8.579-12.707-7.4-20.521,1.829-12.085-1.091-23.449-3.38-35.056-2.848-14.356-10.228-27.838-7.606-43.284,1.424-8.372.847-17.123,4.38-25.081,1.91-4.307,5.317-8.02,4.65-13.238a1.5,1.5,0,0,1,1.19-1.676c.874-.135,1.261.685,1.667,1.288,2.379,3.56,4.722,7.138,7.7,11.644a16.488,16.488,0,0,0-.351-2.406c-5.885-14.483-6.66-28.379,3.749-41.536,4.172-5.263,4.469-11.581,2.144-17.943a81.021,81.021,0,0,1-3.649-11.535c-.487-2.38.108-3.046,2.46-3.362,4.416-.6,8.723-1.721,12.427-5.867a81.663,81.663,0,0,1-9,.649c-6.074-.27-11.616-1.856-14.653-7.84-3.055-6,.874-10.012,4.362-13.915,4.6-5.145,6.236-11.481,7.831-17.9.189-.766.4-1.532-.279-2.064-1.037-.8-2.821-1.136-2.839-2.622-.027-2.344,2.947-.929,2.92-1.28-.478-6.7,3.19-1.244,4.587-1.343.568-1.577-2.983-3.19.424-4.046,2.262-.577,4.208-.018,3.667,3.568,2.812-2.307,5.137-4.19,7.426-6.1a25.922,25.922,0,0,0,2.316-2.135m-28.207,60.064c.288,7.516,5.191,13.248,7.579,19.934a31.8,31.8,0,0,1,.82,3.461c-.64,2.109-.36,5.434-2.767,5.506-2.181.063-5.064-.306-6.7-3.343-3.613-6.705-3.46-14.113-4.614-21.25-.36-2.226,2.569-3.407,4.029-5.02C-427.228,706.049-426.309,706.878-426.282,707.536Z" fill="#577482"/>
              <path id="Path_1979" data-name="Path 1979" d="M-403.436,996.147c-2.815-2.958-2.081-6.862-2.4-10.329-.835-8.947-1.666-17.923-1.181-26.938.061-1.124-.5-2.557.839-3.264,3.638-1.917,4.012-5.64,4.342-8.9,1.036-10.23.8-20.423-4.217-29.815-2.646-4.952-2.551-10.306-1.717-15.388,1.713-10.445,1.349-20.926,1.547-31.4.255-13.508,1.261-26.879,4.174-40.136.913-4.155,1.377-8.51,2.022-12.778a9.6,9.6,0,0,0-2.746-8.238,69.878,69.878,0,0,1-7.407-9.212c2.876,1.66,5.673,3.481,8.645,4.946,5.488,2.7,7.5,2.155,10.942-2.84,2.84-4.123,5.532-8.35,9.036-12.172-1.6,4.294-2.985,8.684-4.856,12.857-2.3,5.131-1.163,9.823-.209,15.133,1.32,7.347,6.157,11.677,10.256,16.864,8.5,10.758,13.776,23.013,17.21,36.238,3.706,14.271,9.709,27.366,21.555,36.945,1.172.948,1.474,1.831.705,3.02-3.783,5.845-1.849,11.378.667,17.025,8.432,18.921,15.279,38.368,18.963,58.821.313,1.741.789,3.822.145,5.285-1.138,2.586.906,2.656,2.235,3.68-.723,1-3.555.978-2.609,1.9,1.7,1.65-.462,6.7,5.08,5.167-3.91,1.8-3.728,4.387-2.59,7.374,3.359,8.82,6.453,17.71,6.824,27.289.1,2.515,1.1,4.848,2.749,8.212-5.1-3.666-6.049-7.843-6.1-12.386a37.473,37.473,0,0,0-3.138-15.74c-.732-1.564-1.369-3.378-3.241-4.124-2.151-5.123-.8-10.593-1.481-15.9-1.8-14.011-5.233-27.541-12.964-39.261-8.472-12.843-14.063-26.354-14.78-41.7-.227-4.861-1.976-8.952-4.373-12.97-1.989-3.334-3.856-6.74-5.777-10.113-3.291-2.65-3.792-6.684-4.874-10.328-2.5-8.429-5.437-16.693-8.668-24.86-3.471-8.259-8.8-15.3-14.453-22.138-1.017-1.232-2.46-2.219-2.1-4.222,1.534-8.433-5.2-14.139-7.091-21.626-.765,8.472-4.893,16.036-4.254,24.761.352,4.809-2.261,9.8-2.889,14.87-1.558,12.58-.6,25.158-.153,37.738a56.232,56.232,0,0,1-.433,10.769c-1.017,6.508.637,12.63,2.205,18.944,3.533,14.222,2.623,28.479-1.46,42.573a72.242,72.242,0,0,0-1.882,34.569A7.152,7.152,0,0,1-403.436,996.147Z" fill="#577482"/>
              <path id="Path_1980" data-name="Path 1980" d="M-306.222,996.225c-3.29-4.887-3.931-10.549-4.351-16.155-1.086-14.488-1.83-29-2.88-43.493A76.34,76.34,0,0,0-316.77,919.9c-1.069-3.518-2.64-7.128-5.713-8.915-4.244-2.467-5.322-6.054-6.3-10.342a52.769,52.769,0,0,0-6.6-16.141c-1.344-2.165-2.525-4.445-2.38-7.135,1.14-21.192-3.215-41.626-8.495-61.94a27.094,27.094,0,0,1-1.189-6.6c-.018-8.643-3.708-16.15-7.091-23.739a66,66,0,0,1-4.7-13.988c-.652-3.26-.377-5.455,3.515-5.666-1.206,4.4.995,8.133,2.711,11.773a210.784,210.784,0,0,1,9.239,22.882c8.094,24.128,11.718,45.064,11.629,71.469-.017,4.941,1.455,9.324,2.93,13.929a95.372,95.372,0,0,0,14.134,27.308c6.293,8.65,6.831,19.356,7.1,29.72.329,12.735-.533,25.476.023,38.231C-307.73,985.979-306.292,991.013-306.222,996.225Z" fill="#577582"/>
              <path id="Path_1981" data-name="Path 1981" d="M-346.354,648.224c-.861.672-1.329,1.569.125,1.8,11.707,1.881,16.154,10.984,20.312,20.334a28.137,28.137,0,0,0,7.638,9.786c9.857,8.4,16.828,19.336,25.914,28.373,3.286,3.269.079,5.964-1.239,8.2-3.6,6.11-9.5,10.171-14.942,14.488-10.579,8.4-22.281,15.129-33.935,21.9a3.079,3.079,0,0,0-1.551,2.56c-1.163-.768-1.706-.411-2.16.89-.611,1.751-.87,3.861-3.167,4.456.755-2.807,3.094-5.189,2.247-8.44a1.091,1.091,0,0,1,.415-.964c14.347-4.973,25.8-14.618,37.815-23.359A45.743,45.743,0,0,0-295.5,712.84c1.017-1.871,1.066-3.077-.411-4.722-7.8-8.691-14.993-17.944-23.7-25.813-4.472-4.044-8.507-8.34-10.54-14.277a29.86,29.86,0,0,0-4.213-7.391c-6.257-8.747-13.381-10.712-23.505-6.684-.523.209-1.007.722-1.778.121a23.126,23.126,0,0,0,1.931-1.762c1.112-1.261,3.621-2.409,2.316-4.218-1.335-1.852-3.178.164-4.758.956-.848-1.174,1.775-2.3.371-2.9-2.479-1.067-3.4,1.852-5.285,2.705-1.288-1.566,2.042-2.07.663-3.879-4.863,3.875-7.235-.773-9.306-3.571-1.688-2.279-2.361-5.887.814-8.4.81,3.719.859,8.008,5.357,9.464,2.428.786,5.152.618,7.629,1.3C-355.325,645.018-350.406,645.331-346.354,648.224Z" fill="#6fcef3"/>
              <path id="Path_1982" data-name="Path 1982" d="M-372.61,632.353c.031-2.489.91-3.368,3.609-2.619a95.268,95.268,0,0,1,11.356,4.18c12.772,5.363,26.134,7.412,39.907,7.266,4.334-.046,8.669-.007,13.258-.007-1.431-2.371-4.406-2.518-7.049-4.782,7.167,1.358,13.383,2.786,19.336,5.377-5.489-5.309-12.942-6.294-19.786-9.192l5.965-2.065c-.081,2.246,1.972,1.892,3.146,2.425,5.863,2.664,11.811,5.171,16.694,9.521,4.3,3.835,5.3,8.052,3,13.005-.5-5.089-4.33-6.257-8.06-7.391-7.811-2.376-15.949-2.686-23.988-3.014-17.195-.7-33.975-2.825-49.623-10.669C-367.188,633.216-370.011,633.008-372.61,632.353Z" fill="#6fcef3"/>
              <path id="Path_1983" data-name="Path 1983" d="M-398.722,570.273c-2.9-.955-6.122,1.89-8.931,3.831-4.934,3.408-6.79,8.3-5.561,13.738.747,3.3-.291,4.485-2.7,5.655-1.772-4.7-.556-8.838.784-13.66,2.335-8.4,8.676-11.5,15.532-11.87a84.538,84.538,0,0,1,12.9.077c2.61.174,3.823-.674,6.336-1.544,4.162-1.442,7.787.987,11.408,2.673a11.425,11.425,0,0,1,3.437,2.075,18.24,18.24,0,0,0,13.807,5.9,7.607,7.607,0,0,1,2.439.889c-6.236-.259-12.47-.84-19.469.308,1.6-1.244,4.669-1.376,1.456-3.287-3.465-2.059-6.65-4.508-11.107-4.13-4.989.423-9.868-1.522-15.038-.691" fill="#6fcef3"/>
              <path id="Path_1984" data-name="Path 1984" d="M-312.331,628.493c-11.609-.37-21.12-5.975-30.426-12.108,3.52.729,6.406,3.2,10.942,3.977-3.711-3.38-7.34-5.577-9.475-9.727a18.648,18.648,0,0,1,8.206,1.541c-1.734,1.173.036,1.68.526,2.232C-326.954,620.724-319.842,624.9-312.331,628.493Z" fill="#6fcef3"/>
              <path id="Path_1985" data-name="Path 1985" d="M-399.644,632.3c-3.866-5.232-6.95-11.058-11.818-15.527.649.25,1-1.836,1.948-.135.838,1.5,1.721,3.17,4.215,3.685-.067-3.868-5.655-4.991-4.434-8.852,1.015-3.21,3.2-5.994,3.586-10.036,2.508,2.784,2.913,5.48,1.877,8.185-1.83,4.774-.047,8.61,2.374,12.57" fill="#5b7883"/>
              <path id="Path_1986" data-name="Path 1986" d="M-370.828,858.115a52.341,52.341,0,0,1,7.365,17.08,125.234,125.234,0,0,0,6.177,18.108,2.727,2.727,0,0,1-3.079-2.067C-363.973,880.234-368.645,869.567-370.828,858.115Z" fill="#c9d6dd"/>
              <path id="Path_1987" data-name="Path 1987" d="M-415.922,593.52c-.313,3.486,2.143,4.394,5.673,4.883-3.5,2.8-6.339,5.224-5.782,9.453C-419.547,602.87-419.513,598.406-415.922,593.52Z" fill="#6fcef3"/>
              <path id="Path_1988" data-name="Path 1988" d="M-416.038,607.85c1.162-4.543,3.58-4.989,7.173-2.006a22.531,22.531,0,0,0-3.647,9.327C-415.238,613.478-415.043,610.378-416.038,607.85Z" fill="#5d7684"/>
              <path id="Path_1989" data-name="Path 1989" d="M-320.617,703.346A229.89,229.89,0,0,1-338.569,687.7c-10.156-9.445-15.6-8.291-20.772,4.605-2.731,6.813-7.616,10.625-14.627,11.769-8.525,1.388-17.627.037-20.754-12.625-.145-.586-.478-1.064-1.208-1.01-.631,9.012,3.758,15.077,12.382,16.97,5.083,1.117,10.13.207,15.186-.4,1.784-.207,3.947-1.505,5.272.875,1.126,2.027.522,4.118-.316,6.047a29.77,29.77,0,0,1-2.172,3.406c-6.669,10.778-9.264,21.935-3.181,34.02a6.847,6.847,0,0,0,3.217-2.956c3.344-.658,6.309-3.505,9.787-2.6,3.866,1.018,6.1-.983,8.877-2.884,10.877-7.48,20.295-16.357,27.495-27.468,2.4-3.722,5.092-6.723,10.238-6.02C-312.984,707.194-317.112,705.986-320.617,703.346Zm-38.553,39.67c-3.659.045-6.056,1.451-6.381,5.38v.009c-3.4-.063-2.929-3.019-3.325-4.92-.847-3.984-.361-8.066-.117-12.112.378.216.748.441,1.108.685a45.96,45.96,0,0,1,6.038-14.708c5.389-8.435,11.31-16.528,15.69-25.585,2.037-4.19,2.388-4.163,5.939-.721,6.119,5.921,11.887,12.275,19.33,16.627,2.055,1.2,1.442,2.136.352,3.461-2.271,2.776-5.137,4.938-7.282,7.9-5.344,7.4-11.2,14.4-18.555,20-3.263,2.469-6.516,4.181-10.661,2.541-.054.009-.1.009-.154.018.235.18.469.361.7.532C-356.989,743.566-358.242,743.007-359.17,743.016Z" fill="#030303"/>
              <path id="Path_1990" data-name="Path 1990" d="M-339.443,606.945c-2.686-2.938-6.218-5.335-6.309-9.922Q-342.6,601.984-339.443,606.945Z" fill="#fbfcfc"/>
              <path id="Path_1991" data-name="Path 1991" d="M-380.323,634.208c2.17-4.014,4.116-8.171,6.565-12.006a19.01,19.01,0,0,0,2.237-15.893,10.494,10.494,0,0,1,1.1-8.564c1.663,3.712,1.686,7.7,4.424,10.49.335.343.156,1.543-.172,2.128C-370.688,618.417-370.862,628.866-380.323,634.208Z" fill="#6fcef3"/>
              <path id="Path_1992" data-name="Path 1992" d="M-339.443,606.945c-6.345-.225-7.48-5.56-9.841-9.823,1.28-.712,2.415-.2,3.532-.1Q-342.6,601.984-339.443,606.945Z" fill="#6fcef3"/>
              <path id="Path_1993" data-name="Path 1993" d="M-417.911,661.256c-3.362,7.682-4.956,14.632-10.654,19.735-6.444,5.771-6.893,10.345-3.621,18.5.836,2.084,4.183,3.745,1.184,6.982-2.181,2.353-4.4,1.719-7.069,1.606,4.8,2.419,4.044,7.048,4.76,10.948.9,4.878,1.807,9.753,4.052,14.18,1.193,2.352,1.906,5.622,5.944,5.085,1.226-.162,2.226.745,1,2.359-2.52,3.312-4.893,6.735-7.281,10.049a1.424,1.424,0,0,1-1.487-1.526c.8-5.03-2.387-7.968-5.289-11.361a56.555,56.555,0,0,1-11.9-21.461c-.584-2.08-.822-4.151.646-5.957,7.707-9.476,11.751-20.807,16.21-31.924,2.364-5.893,4.948-11.618,10.388-15.425C-420.433,662.63-419.767,662.316-417.911,661.256Z" fill="#030304"/>
              <path id="Path_1994" data-name="Path 1994" d="M-317.652,708.915c-.343,2-2.776,3.731-4.461,5.407-6.624,6.624-11.193,15.032-18.384,21.169a65.685,65.685,0,0,1-9.58,7.219c-2.677,1.55-4.4,1.036-6.408-.586-.234-.171-.468-.352-.7-.532.055-.009.1-.009.154-.018,4.145,1.64,7.4-.072,10.661-2.541,7.353-5.6,13.211-12.6,18.555-20,2.145-2.965,5.011-5.127,7.282-7.9,1.09-1.325,1.7-2.262-.352-3.461-7.443-4.352-13.211-10.706-19.33-16.627-3.551-3.442-3.9-3.469-5.939.721-4.38,9.057-10.3,17.15-15.69,25.585a45.96,45.96,0,0,0-6.038,14.708c-.36-.244-.73-.469-1.108-.685a60.434,60.434,0,0,1,9.561-19.727c5.038-7.12,9.823-14.474,13.329-22.467,1.7-3.875,2.875-2.722,4.921-.676,5.9,5.9,11.607,12.022,18.546,16.789a1.181,1.181,0,0,1,.325.306C-321.158,707.428-317.247,706.6-317.652,708.915Z" fill="#6fcef3"/>
            </g>
          </g>
        </g>
      </g>
      <g id="Group_2352" data-name="Group 2352">
        <path id="Path_1995" data-name="Path 1995" d="M-386.317,684.384a10.1,10.1,0,0,0-2.51,5.17c-.52,2.05-1.05,4.09-1.73,6.76-.02-.05-.03-.1-.05-.14v-20.84a5.414,5.414,0,0,1,3.99,1.71C-384.637,679.094-384.3,682.374-386.317,684.384Z" fill="#6fcef3"/>
        <path id="Path_1996" data-name="Path 1996" d="M-386.937,680.874v.02a3.728,3.728,0,0,1-3.67,3.78v-7.38A3.715,3.715,0,0,1-386.937,680.874Z" fill="#000203"/>
      </g>
    </g>
  </g>
</svg>
