<svg xmlns="http://www.w3.org/2000/svg" width="75.736" height="40.555" viewBox="0 0 75.736 40.555">
  <g id="Group_540" data-name="Group 540" transform="translate(-42.23 -204.542)">
    <g id="Group_3" data-name="Group 3" transform="translate(42.23 221.951)">
      <path id="Path_1" data-name="Path 1" d="M53.848,327.381q0,2.629,0,5.26a1.4,1.4,0,0,1-1.317,1.579c-.761,0-1.521.007-2.284.01-1.391,0-2.788,0-4.2,0H42.23v-15l2.713,0h.892v11.409h4.2v-11.3c1.327,1.042,2.509,1.953,3.663,2.9.131.107.142.405.144.615Q53.846,325.116,53.848,327.381Z" transform="translate(-42.23 -319.232)" fill="#fff"/>
      <path id="Path_2" data-name="Path 2" d="M53.855,374.124v15H50.249V377.713h-4.2v11.3c-1.327-1.042-2.509-1.953-3.663-2.9-.131-.107-.142-.405-.144-.614q0-2.267-.006-4.532,0-2.629,0-5.26a1.4,1.4,0,0,1,1.317-1.579l2.284-.01v3.261h4.2v-3.261l3.813,0Z" transform="translate(-42.235 -365.975)" fill="#fff"/>
      <path id="Path_3" data-name="Path 3" d="M131.349,342.829V345.4c.821,0,1.608-.036,2.39.018a1.414,1.414,0,0,1,.874.384c.806.865,1.557,1.783,2.412,2.777h-5.682v3.035h7.748v3.13H127.7V339.629h.812c2.449,0,4.9.015,7.346-.011a1.362,1.362,0,0,1,1.147.509c.763.873,1.559,1.717,2.46,2.7Z" transform="translate(-115.016 -336.592)" fill="#fff"/>
      <path id="Path_4" data-name="Path 4" d="M385.83,351.536v-2.572c.821,0,1.608.036,2.39-.018a1.415,1.415,0,0,0,.874-.384c.806-.865,1.557-1.783,2.412-2.777h-5.682v-3.035h7.748v-3.13H382.184v15.118H383c2.449,0,4.9-.015,7.346.01a1.361,1.361,0,0,0,1.147-.509c.763-.873,1.559-1.718,2.46-2.7Z" transform="translate(-331.723 -336.592)" fill="#fff"/>
      <path id="Path_5" data-name="Path 5" d="M213,357.729l-11.947-7.972v5.108h-3.482v-11.15h3.4c.019.107.046.221.056.338.05.5-.092,1.193.184,1.475A11.353,11.353,0,0,0,203.33,347c.083.052.278-.021.4-.082,1.119-.567,2.079-1.226,1.723-2.742a5.744,5.744,0,0,1-.012-1.2h-1.594c-1.658,0-3.316.021-4.972-.019a1.5,1.5,0,0,1-.941-.408c-.845-.862-1.634-1.78-2.511-2.749a2.56,2.56,0,0,1,.4-.074c3.662,0,7.324,0,10.987.016l.189,4.61,1.7-4.26a1.649,1.649,0,0,1,.493,1.32c.033,1.955.028,3.908,0,5.862a.972.972,0,0,1-.436.655c-.668.42-1.374.776-2.137,1.2.187.156.318.284.466.383,1.784,1.2,3.564,2.412,5.364,3.589a1.1,1.1,0,0,1,.569,1.086C212.972,355.3,213,356.411,213,357.729Z" transform="translate(-172.681 -336.688)" fill="#fff"/>
      <path id="Path_6" data-name="Path 6" d="M308.347,361.942a1.4,1.4,0,0,1-1.317,1.579c-3.387.021-6.775.009-10.3.009v-15h3.605v11.409h4.2v-11.3c1.327,1.042,2.509,1.953,3.663,2.9.131.107.142.405.144.615Q308.355,357.045,308.347,361.942Z" transform="translate(-258.955 -344.183)" fill="#fff"/>
      <path id="Path_7" data-name="Path 7" d="M296.736,341.21a1.4,1.4,0,0,1,1.317-1.579c3.387-.021,6.775-.009,10.3-.009v15h-3.605V343.211h-4.2v11.3c-1.327-1.042-2.508-1.953-3.663-2.9-.131-.107-.142-.405-.144-.615Q296.728,346.106,296.736,341.21Z" transform="translate(-258.956 -336.592)" fill="#fff"/>
      <g id="Group_2" data-name="Group 2" transform="translate(60.439 3.026)">
        <g id="Group_1" data-name="Group 1" transform="translate(2.899)">
          <path id="Path_8" data-name="Path 8" d="M472.527,343.056c-.217.642-.058.985.606,1.238,2.081.792,4.125,1.681,6.2,2.492a1.777,1.777,0,0,1,1.3,1.917c-.054,1.5-.009,2.994-.015,4.489,0,.992-.45,1.522-1.419,1.531q-3.264.029-6.525.021V351.6h4.17c.23-1.4.185-1.474-.934-1.975-1.719-.765-3.43-1.546-5.151-2.31a2.639,2.639,0,0,1-1.806-2.844c.083-1.066.012-2.144.018-3.217a1.438,1.438,0,0,1,1.514-1.629c.147-.01.3,0,.445,0l10.41-.006v3.438Z" transform="translate(-468.936 -339.618)" fill="#fff"/>
        </g>
        <path id="Path_9" data-name="Path 9" d="M456.039,423.479v-3.146q-1.674,0-3.346.009a.984.984,0,0,0-.634.287c-.861.892-1.692,1.811-2.653,2.85Z" transform="translate(-449.407 -408.352)" fill="#fff"/>
      </g>
    </g>
    <g id="Group_4" data-name="Group 4" transform="translate(45.538 204.994)">
      <path id="Path_10" data-name="Path 10" d="M362.351,217v-8.019h3.4c.018.106.045.221.056.337.05.5-.093,1.194.183,1.476a11.327,11.327,0,0,0,2.123,1.472c.084.053.278-.021.4-.081,1.12-.567,2.081-1.226,1.724-2.742a5.735,5.735,0,0,1-.012-1.2h-1.594c-1.657,0-3.315.022-4.972-.019a1.5,1.5,0,0,1-.941-.409c-.846-.862-1.635-1.778-2.513-2.749a2.642,2.642,0,0,1,.4-.074c3.884,0,7.767,0,11.651.02,1.162.005,1.7.514,1.716,1.668.033,1.954.028,3.908,0,5.861a.97.97,0,0,1-.437.655c-.667.419-1.373.776-2.137,1.2.188.156.318.283.466.383,1.784,1.2,3.564,2.411,5.364,3.588a1.106,1.106,0,0,1,.569,1.087c-.038,1.111-.012,2.223-.012,3.542l-11.948-7.972v5.108h-15.7V205.011h.812c2.449,0,4.9.014,7.347-.011a1.364,1.364,0,0,1,1.148.51c.762.873,1.558,1.717,2.459,2.7h-8.12v2.572c.821,0,1.608-.035,2.39.018a1.42,1.42,0,0,1,.875.384c.806.866,1.557,1.783,2.412,2.778h-5.681V217Z" transform="translate(-307.737 -204.994)" fill="#fff"/>
      <path id="Path_11" data-name="Path 11" d="M80.643,221.314V209.728H71c-.217.637-.057.977.605,1.227,2.081.786,4.125,1.667,6.2,2.472a1.764,1.764,0,0,1,1.3,1.9c-.053,1.482-.009,2.968-.015,4.452,0,.983-.45,1.509-1.42,1.518-3.29.03-6.58.024-9.871.011a.991.991,0,0,1-.634-.284c-.86-.884-1.692-1.8-2.652-2.826h10.8c.229-1.389.185-1.463-.935-1.958-1.718-.759-3.43-1.534-5.15-2.29a2.617,2.617,0,0,1-1.807-2.821c.083-1.057.012-2.126.018-3.19a1.43,1.43,0,0,1,1.514-1.615c.148-.011.3,0,.445,0l13.953-.009h.892v11.409h4.2V206.419c1.327,1.042,2.51,1.954,3.665,2.9.13.106.142.4.143.613q.013,4.9,0,9.793a1.4,1.4,0,0,1-1.317,1.58C87.554,221.326,84.166,221.314,80.643,221.314Z" transform="translate(-64.515 -206.12)" fill="#fff"/>
      <path id="Union_1" data-name="Union 1" d="M5.987,23.479h0Zm0,0h0Zm0,0h0Zm-.008,0h0Zm0,0h0Zm0,0h0Zm0,0h0Zm-.007,0h0Zm0-7.26-1.8.816V4c1.036,0,2.016-.022,2.993.028.129.006.331.377.341.586.039.858.016,1.719.016,2.746,1.52-.739,2.9-1.394,4.253-2.087.14-.07.211-.37.224-.569.033-.463.01-.931.01-1.471-.335-.019-.6-.046-.856-.046H8.965c-1.427,0-2.854,0-4.282-.008a1.4,1.4,0,0,1-.766-.171C2.638,2.09,1.382,1.133,0,.1A5.284,5.284,0,0,1,.607.011Q7.251,0,13.895,0c1.038,0,1.621.416,1.691,1.467.116,1.748.1,3.507.092,5.262,0,.2-.312.471-.54.6-2.081,1.166-4.153,2.349-6.273,3.439h0c-.095.051-.19.1-.286.148a1.121,1.121,0,0,0-.668.735V13.4l.957-.249.744-.2C8.424,16.543,7.116,20,5.964,23.475Z" transform="translate(25.217 0.048)" fill="#ffb156" stroke="rgba(0,0,0,0)" stroke-width="1"/>
    </g>
  </g>
</svg>
