<svg xmlns="http://www.w3.org/2000/svg" width="25.099" height="25.106" viewBox="0 0 25.099 25.106">
  <g id="Group_543" data-name="Group 543" transform="translate(245.957 -960.886)">
    <path id="Path_703" data-name="Path 703" d="M-220.858,972.7v1.471c-.015.087-.033.173-.045.26-.078.54-.123,1.088-.239,1.62A12.2,12.2,0,0,1-225.8,983.4a12.174,12.174,0,0,1-10.244,2.3,12.116,12.116,0,0,1-7.309-4.626,12.206,12.206,0,0,1-2.539-8.889,12.125,12.125,0,0,1,3.062-7.016,12.323,12.323,0,0,1,7.259-4.083c.472-.084.951-.131,1.427-.2h1.471a1.357,1.357,0,0,0,.189.04,11.948,11.948,0,0,1,5.476,1.727,12.391,12.391,0,0,1,5.955,8.624C-220.965,971.748-220.922,972.227-220.858,972.7Zm-12.551-9.866a10.606,10.606,0,0,0-10.6,10.6,10.609,10.609,0,0,0,10.589,10.607,10.61,10.61,0,0,0,10.614-10.608A10.606,10.606,0,0,0-233.409,962.835Z" fill="#fff"/>
    <path id="Path_704" data-name="Path 704" d="M-131.714,1075.714h-3.048c-.294,0-.589.008-.882,0a.965.965,0,0,1-.925-.933.962.962,0,0,1,.836-.987,2.419,2.419,0,0,1,.342-.021q1.679,0,3.357,0h.319v-.283c0-1.168,0-2.336,0-3.5a.993.993,0,0,1,.706-1.028.975.975,0,0,1,1.243,1c.007,1.16,0,2.32,0,3.479v.338h.313c1.152,0,2.3,0,3.455,0a1,1,0,0,1,1.027.641.966.966,0,0,1-.932,1.3c-1.16.008-2.32,0-3.48,0h-.383v.264c0,1.184,0,2.369,0,3.553a.973.973,0,0,1-.922,1.037.975.975,0,0,1-1.027-1.055c0-1.168,0-2.336,0-3.5Z" transform="translate(-102.671 -101.394)" fill="#fff"/>
  </g>
</svg>
