<svg xmlns="http://www.w3.org/2000/svg" xmlns:xlink="http://www.w3.org/1999/xlink" width="118" height="118" viewBox="0 0 118 118">
  <defs>
    <filter id="Icon_Men" x="0" y="0" width="118" height="118" filterUnits="userSpaceOnUse">
      <feOffset dy="5" input="SourceAlpha"/>
      <feGaussianBlur stdDeviation="10" result="blur"/>
      <feFlood flood-color="#242424" flood-opacity="0.051"/>
      <feComposite operator="in" in2="blur"/>
      <feComposite in="SourceGraphic"/>
    </filter>
  </defs>
  <g id="Group_3002" data-name="Group 3002" transform="translate(30 24.897)">
    <g transform="matrix(1, 0, 0, 1, -30, -24.9)" filter="url(#Icon_Men)">
      <rect id="Icon_Men-2" data-name="Icon_Men" width="58" height="58" rx="29" transform="translate(30 25)" fill="#fff"/>
    </g>
    <g id="Group_2297" data-name="Group 2297" transform="translate(-77.685 -257.365)">
      <path id="Path_1877" data-name="Path 1877" d="M118.934,287.111a6.263,6.263,0,0,0-2.144-4.64,6.011,6.011,0,0,0-2.695-1.276c-.046-.01-.091-.022-.187-.046.1-.077.173-.134.247-.184a24.181,24.181,0,0,0,3.539-2.867,4.481,4.481,0,0,0,1.03-1.416,1,1,0,0,0-.922-1.5,5.735,5.735,0,0,0-2.108.309,21.438,21.438,0,0,0-3.8,1.521c-1.388.706-2.741,1.481-4.11,2.226l-.191.105a2.17,2.17,0,0,1-.06-1.323,3.579,3.579,0,0,1,.647-1.257,1.819,1.819,0,0,0,.356-1.179,1.761,1.761,0,0,0-1.476-1.646c-.062-.013-.121-.035-.181-.053H105.82c-.412.058-.826.1-1.235.176a12.517,12.517,0,0,0-9.816,9.279,12.423,12.423,0,0,0,9.462,15.021c.524.115,1.063.158,1.6.235.079.011.157.03.234.044h1.544c.381-.046.764-.08,1.143-.14a11.6,11.6,0,0,0,9.312-6.909A9.343,9.343,0,0,0,118.934,287.111Zm-11.394-6.579a41.292,41.292,0,0,1,7.39-3.766,9.533,9.533,0,0,1,2.416-.627,1.75,1.75,0,0,1,.264-.01,2.653,2.653,0,0,1,.266.043,2.42,2.42,0,0,1-.719,1.073c-.825.752-1.646,1.515-2.535,2.187a41.765,41.765,0,0,1-6.15,3.783c-.021.011-.045.018-.078.031-.2-.409-.369-.83-.594-1.223s-.5-.763-.771-1.16C107.194,280.757,107.365,280.641,107.54,280.532Zm-.037,3.206-3.52,1.4-.792-1.4,2.971-2.351A6.329,6.329,0,0,1,107.5,283.738Zm9.566,7.7a10.578,10.578,0,0,1-7.957,6.015,11.163,11.163,0,0,1-10.63-3.406,11.457,11.457,0,0,1-1.926-12.832,11.509,11.509,0,0,1,3.437-4.11,10.65,10.65,0,0,1,4.413-2.013c.691-.132,1.4-.159,2.1-.229a1.082,1.082,0,0,1,.264.021.806.806,0,0,1,.607,1.342,4.788,4.788,0,0,0-.8,1.663,3.144,3.144,0,0,0,.1,1.782.244.244,0,0,1-.118.348,28.654,28.654,0,0,0-4.161,3.207.286.286,0,0,1-.227.065,2.4,2.4,0,0,0-2.686,1.046,19.1,19.1,0,0,0-1.729,2.98.471.471,0,0,0,.408.715c.464.044.93.055,1.4.08l.005.049c.783-.066,1.569-.107,2.349-.2a2.237,2.237,0,0,0,1.923-1.669.354.354,0,0,1,.2-.2,34.633,34.633,0,0,0,7.363-3.377,4.157,4.157,0,0,0,.6-.364,1.637,1.637,0,0,1,1.4-.289,5.4,5.4,0,0,1,2.8,1.189,5.091,5.091,0,0,1,1.674,3.126A8.227,8.227,0,0,1,117.068,291.435Zm-14.121-5.615a1.334,1.334,0,0,1-1.252,1.2c-.864.071-1.733.066-2.6.092a1.2,1.2,0,0,1-.17-.029c.366-.611.707-1.2,1.068-1.775a5.276,5.276,0,0,1,.556-.728,1.384,1.384,0,0,1,1.664-.242A1.437,1.437,0,0,1,102.948,285.82Z" fill="#323232"/>
      <path id="Path_1878" data-name="Path 1878" d="M172.973,445.629a1.334,1.334,0,0,1-1.252,1.2c-.864.071-1.733.066-2.6.092a1.2,1.2,0,0,1-.17-.029c.366-.611.707-1.2,1.068-1.775a5.279,5.279,0,0,1,.556-.728,1.385,1.385,0,0,1,1.664-.242A1.437,1.437,0,0,1,172.973,445.629Z" transform="translate(-70.025 -159.809)" fill="#d1ad61"/>
      <path id="Path_1879" data-name="Path 1879" d="M404.731,490.462a1.928,1.928,0,1,1-1.934,1.907A1.939,1.939,0,0,1,404.731,490.462Zm-.013.967a.956.956,0,0,0-.956.971.963.963,0,1,0,.956-.971Z" transform="translate(-289.739 -203.483)" fill="#323232"/>
      <path id="Path_1880" data-name="Path 1880" d="M165.19,538.46a1.928,1.928,0,1,0,1.934,1.935A1.93,1.93,0,0,0,165.19,538.46Zm.009,2.89a.961.961,0,1,1,.959-.951A.966.966,0,0,1,165.2,541.349Z" transform="translate(-64.686 -248.58)" fill="#323232"/>
      <path id="Path_1881" data-name="Path 1881" d="M181.156,555.432a.963.963,0,0,1-1.926-.013.963.963,0,1,1,1.926.013Z" transform="translate(-79.684 -263.613)" fill="#d1ad61"/>
      <path id="Path_1882" data-name="Path 1882" d="M340.885,570.467a1.928,1.928,0,1,1-1.961,1.878A1.936,1.936,0,0,1,340.885,570.467Zm-.035.966a.956.956,0,0,0-.963.964.963.963,0,1,0,.963-.964Z" transform="translate(-229.725 -278.651)" fill="#323232"/>
      <path id="Path_1883" data-name="Path 1883" d="M246.958,588.394a1.9,1.9,0,0,0-2.17-1.816,1.925,1.925,0,0,0,.358,3.83A1.9,1.9,0,0,0,246.958,588.394Zm-1.914,1.058a.961.961,0,1,1,.96-.95A.966.966,0,0,1,245.044,589.452Z" transform="translate(-139.706 -293.781)" fill="#323232"/>
      <path id="Path_1884" data-name="Path 1884" d="M261,603.432a.963.963,0,0,1-1.927-.014.963.963,0,1,1,1.927.014Z" transform="translate(-154.698 -308.712)" fill="#d1ad61"/>
      <path id="Path_1885" data-name="Path 1885" d="M205.115,323.453a1.932,1.932,0,1,1-1.931,1.913A1.945,1.945,0,0,1,205.115,323.453Zm0,.967a.959.959,0,0,0-.964.964.963.963,0,1,0,.964-.964Z" transform="translate(-102.19 -46.567)" fill="#fdfdfd"/>
      <path id="Path_1886" data-name="Path 1886" d="M247.225,500.521a4.487,4.487,0,0,1-3.318-1.292.716.716,0,0,1-.2-.461.46.46,0,0,1,.773-.3c.235.18.451.391.7.548a4.025,4.025,0,0,0,4.533-.358,2.115,2.115,0,0,0,.7-1.132c.014-.062.03-.125.05-.186a.472.472,0,0,1,.576-.346.486.486,0,0,1,.349.581,2.991,2.991,0,0,1-.618,1.37,4.386,4.386,0,0,1-2.869,1.52C247.645,500.5,247.387,500.507,247.225,500.521Z" transform="translate(-140.265 -209.602)" fill="#323232"/>
      <path id="Path_1887" data-name="Path 1887" d="M355.869,455.242a.478.478,0,1,1-.47-.488A.494.494,0,0,1,355.869,455.242Z" transform="translate(-244.748 -169.933)" fill="#fdfdfd"/>
    </g>
  </g>
</svg>
