<svg xmlns="http://www.w3.org/2000/svg" width="44.205" height="44.165" viewBox="0 0 44.205 44.165">
  <g id="Group_62" data-name="Group 62" transform="translate(0)">
    <path id="Path_129" data-name="Path 129" d="M-8.835,214.483a22.105,22.105,0,0,1-22.091,22.072A22.11,22.11,0,0,1-53.04,214.46,22.1,22.1,0,0,1-30.9,192.39,22.1,22.1,0,0,1-8.835,214.483Zm-11.291-6.948a6.742,6.742,0,0,0-4.981-2.829,10.088,10.088,0,0,0-4.038.765,5.194,5.194,0,0,1-3.484.085,20.091,20.091,0,0,0-2.023-.522,6.27,6.27,0,0,0-7.366,3.354,10.594,10.594,0,0,0-1.216,4.919,16.19,16.19,0,0,0,1.747,7.557,16.176,16.176,0,0,0,2.963,4.47,4.412,4.412,0,0,0,2.686,1.454,4.775,4.775,0,0,0,2.454-.53,6.23,6.23,0,0,1,5.057-.086c.371.147.762.243,1.144.365a3.781,3.781,0,0,0,3.976-.97,14.34,14.34,0,0,0,2.876-4.044c.4-.771.71-1.583,1.054-2.362a6.377,6.377,0,0,1-3.9-5.573C-23.407,210.974-22.073,209.1-20.126,207.535Zm-5.767-9.295a6.664,6.664,0,0,0-4.416,2.754,7.456,7.456,0,0,0-1.169,4.155C-28.245,205.168-25,201.16-25.892,198.24Z" transform="translate(53.04 -192.39)" fill="#3f3f3f"/>
    <path id="Path_130" data-name="Path 130" d="M52.4,298.582c-1.947,1.56-3.282,3.439-3.053,6.055a6.377,6.377,0,0,0,3.9,5.573c-.344.778-.658,1.591-1.054,2.361a14.34,14.34,0,0,1-2.876,4.044,3.781,3.781,0,0,1-3.976.97c-.381-.122-.772-.218-1.144-.365a6.23,6.23,0,0,0-5.057.086,4.775,4.775,0,0,1-2.454.53A4.412,4.412,0,0,1,34,316.382a18.418,18.418,0,0,1-4.709-12.027,10.6,10.6,0,0,1,1.216-4.919,6.27,6.27,0,0,1,7.366-3.354,20.078,20.078,0,0,1,2.023.522,5.2,5.2,0,0,0,3.484-.085,10.086,10.086,0,0,1,4.038-.765A6.742,6.742,0,0,1,52.4,298.582Z" transform="translate(-19.483 -283.437)" fill="#fff"/>
    <path id="Path_131" data-name="Path 131" d="M133.669,241.532c.888,2.919-2.352,6.928-5.585,6.909a7.456,7.456,0,0,1,1.169-4.155A6.664,6.664,0,0,1,133.669,241.532Z" transform="translate(-106.521 -235.682)" fill="#fff"/>
  </g>
</svg>
