<svg xmlns="http://www.w3.org/2000/svg" width="13.204" height="11.729" viewBox="0 0 13.204 11.729">
  <g id="Group_318" data-name="Group 318" transform="translate(-1569.887 -1164.956)">
    <g id="Group_317" data-name="Group 317" transform="translate(1569.887 1164.956)">
      <path id="Path_550" data-name="Path 550" d="M1573.517,1176.107v-.185c0-.293,0-.587,0-.881,0-.221-.106-.355-.277-.357s-.283.132-.286.349c0,.058,0,.117,0,.176v.9h-.616V1174.1c.251,0,.49,0,.73,0a1.1,1.1,0,0,0,1.084-.84,1.425,1.425,0,0,0-.021-.816q-.4-1.312-.8-2.624c-.136-.443-.268-.887-.412-1.327a.852.852,0,0,0-.585-.628.867.867,0,0,0-1.14.6c-.212.634-.4,1.276-.6,1.915l-.705,2.281v.458s.012.007.013.011a1.169,1.169,0,0,0,1.359.969c.157-.01.316,0,.487,0v2.018h-.27c-.394,0-.787.007-1.18,0a.434.434,0,0,0-.409.179v.211a.451.451,0,0,0,.409.179l3.823,0h.4a.288.288,0,0,0,.288-.288h0a.288.288,0,0,0-.288-.288Zm-2.38-2.571a.625.625,0,0,1-.652-.864c.185-.647.39-1.289.587-1.934.205-.672.409-1.345.618-2.016.047-.149.09-.31.295-.326.233-.018.324.036.4.295.262.839.518,1.679.775,2.52.137.448.281.894.408,1.345a1.323,1.323,0,0,1,.05.449.547.547,0,0,1-.584.531Zm11.674,2.584c-.076-.006-.153,0-.229,0h-.23v-.218c0-3.383-.006-6.766.007-10.149a.7.7,0,0,0-.8-.8c-.809.013-1.617.012-2.426.01H1576.2c-.215,0-.43,0-.645,0l-.246-.008a.974.974,0,0,0-.177.008.64.64,0,0,0-.572.616,1.111,1.111,0,0,0-.007.128q.006,1.621.007,3.243,0,2.841,0,5.681v2.048h8.126c.042,0,.082,0,.123,0a.285.285,0,0,0,.283-.28A.28.28,0,0,0,1582.811,1176.12Zm-4.654-.01h-1.23v-2.979h1.23Zm1.825,0h-1.235v-2.973h1.235Zm1.806-.178v.186h-1.232v-.191q0-1.339,0-2.678a.611.611,0,0,0-.682-.687h-2.855a.6.6,0,0,0-.667.664c0,.893,0,1.786,0,2.678v.2h-1.231v-.194q0-5.083,0-10.167c0-.187.057-.221.228-.22q3.109.008,6.219,0c.168,0,.231.028.23.219Q1581.783,1170.834,1581.789,1175.927Z" transform="translate(-1569.887 -1164.956)"/>
      <path id="Path_551" data-name="Path 551" d="M1687.607,1177.218c0-.19-.063-.219-.23-.219q-3.11.008-6.219,0c-.171,0-.228.033-.228.22q.01,5.084,0,10.168v.194h1.232v-.2c0-.892,0-1.785,0-2.678a.6.6,0,0,1,.667-.664h2.855a.611.611,0,0,1,.681.687q0,1.34,0,2.678v.191h1.232v-.186Q1687.6,1182.311,1687.607,1177.218Zm-5.856.932c0-.229.1-.332.335-.334q.687-.007,1.374,0c.234,0,.331.1.333.335s0,.458,0,.687,0,.469,0,.7a.284.284,0,0,1-.315.318q-.7.007-1.409,0c-.216,0-.317-.114-.318-.336Q1681.748,1178.838,1681.751,1178.15Zm2.042,4.329c0,.223-.1.323-.321.326-.235,0-.47,0-.7,0s-.458,0-.687,0-.327-.1-.329-.32q0-.7,0-1.391a.291.291,0,0,1,.323-.331q.7-.006,1.391,0a.288.288,0,0,1,.327.325Q1683.8,1181.784,1683.793,1182.479Zm.948-4.349c0-.2.1-.31.3-.313q.722-.01,1.445,0a.278.278,0,0,1,.3.316q.006.7,0,1.41a.287.287,0,0,1-.321.316q-.7.007-1.41,0a.282.282,0,0,1-.313-.32c0-.241,0-.482,0-.722S1684.737,1178.359,1684.741,1178.131Zm2.043,4.37a.279.279,0,0,1-.309.305c-.241,0-.482,0-.723,0s-.47,0-.7,0a.273.273,0,0,1-.306-.3q-.006-.714,0-1.428a.279.279,0,0,1,.305-.309q.714-.007,1.427,0a.285.285,0,0,1,.31.309Q1686.792,1181.787,1686.784,1182.5Z" transform="translate(-1675.7 -1176.433)" fill="#fff"/>
      <path id="Path_552" data-name="Path 552" d="M1583.367,1243.072h-.9a.625.625,0,0,1-.652-.864c.186-.647.39-1.29.587-1.934.205-.672.409-1.345.618-2.016.047-.149.09-.31.295-.326.233-.018.324.037.4.3.262.839.517,1.68.775,2.52.137.448.281.894.408,1.345a1.325,1.325,0,0,1,.05.449.547.547,0,0,1-.584.531h-1Z" transform="translate(-1581.219 -1234.492)" fill="#fff"/>
      <path id="Path_553" data-name="Path 553" d="M1759.261,1338.562v2.973h-1.235v-2.973Z" transform="translate(-1749.166 -1330.386)" fill="#fff"/>
      <path id="Path_554" data-name="Path 554" d="M1720.6,1341.516h-1.23v-2.979h1.23Z" transform="translate(-1712.335 -1330.362)" fill="#fff"/>
      <path id="Path_555" data-name="Path 555" d="M1763.849,1257.157a.285.285,0,0,0-.31-.309q-.714-.007-1.427,0a.279.279,0,0,0-.305.309q0,.714,0,1.428a.273.273,0,0,0,.306.3c.235,0,.47,0,.7,0s.482,0,.722,0a.279.279,0,0,0,.309-.305Q1763.857,1257.871,1763.849,1257.157Zm-.575,1.159h-.893v-.9h.893Z" transform="translate(-1752.765 -1252.517)"/>
      <path id="Path_556" data-name="Path 556" d="M1763.854,1194.586a.279.279,0,0,0-.3-.317q-.723-.01-1.445,0c-.2,0-.3.109-.3.313,0,.229,0,.458,0,.687s0,.482,0,.722a.282.282,0,0,0,.313.32q.705.008,1.41,0a.288.288,0,0,0,.321-.316Q1763.861,1195.291,1763.854,1194.586Zm-.572,1.151h-.9v-.887h.9Z" transform="translate(-1752.77 -1192.885)"/>
      <path id="Path_557" data-name="Path 557" d="M1700.373,1257.172a.288.288,0,0,0-.327-.325q-.7-.005-1.391,0a.291.291,0,0,0-.323.331q0,.7,0,1.391c0,.219.107.318.329.32s.458,0,.687,0,.47,0,.7,0c.22,0,.32-.1.321-.326Q1700.378,1257.868,1700.373,1257.172Zm-.575,1.144h-.892v-.9h.892Z" transform="translate(-1692.281 -1252.517)"/>
      <path id="Path_558" data-name="Path 558" d="M1700.377,1195.282c0-.229,0-.458,0-.687s-.1-.333-.333-.335c-.458,0-.916,0-1.374,0-.233,0-.333.105-.335.334q0,.687,0,1.374c0,.223.1.333.318.336q.7.008,1.409,0a.284.284,0,0,0,.315-.318C1700.38,1195.752,1700.377,1195.517,1700.377,1195.282Zm-.569.447h-.9v-.887h.9Z" transform="translate(-1692.283 -1192.877)"/>
      <path id="Path_559" data-name="Path 559" d="M1774.066,1269.919v-.9h.893v.9Z" transform="translate(-1764.45 -1264.12)" fill="#fff"/>
      <path id="Path_560" data-name="Path 560" d="M1773.979,1207.594v-.887h.9v.887Z" transform="translate(-1764.367 -1204.741)" fill="#fff"/>
      <path id="Path_561" data-name="Path 561" d="M1711.469,1269.912h-.892v-.9h.892Z" transform="translate(-1703.951 -1264.112)" fill="#fff"/>
      <path id="Path_562" data-name="Path 562" d="M1711.457,1206.693v.887h-.9v-.887Z" transform="translate(-1703.932 -1204.727)" fill="#fff"/>
    </g>
    <path id="Path_563" data-name="Path 563" d="M1681.632,1165h-.422a.976.976,0,0,1,.177-.007Z" transform="translate(-106.08 -0.03)"/>
    <path id="Path_564" data-name="Path 564" d="M1668.937,1178.25v3.371q0-1.621-.007-3.243A1.087,1.087,0,0,1,1668.937,1178.25Z" transform="translate(-94.379 -12.668)"/>
  </g>
</svg>
