<svg xmlns="http://www.w3.org/2000/svg" width="27.807" height="24.5" viewBox="0 0 27.807 24.5">
  <path id="icon" d="M63.512,22.2H56.253v-.8a2.4,2.4,0,0,0-2.4-2.4h-6.4a2.4,2.4,0,0,0-2.4,2.4v.8H37.8a.8.8,0,0,0-.8.8V40.6A2.4,2.4,0,0,0,39.4,43H61.907a2.4,2.4,0,0,0,2.4-2.4V23.014A.777.777,0,0,0,63.512,22.2Zm-16.858-.8a.8.8,0,0,1,.8-.8h6.4a.8.8,0,0,1,.8.8v.8h-8ZM62.4,23.8l-2.484,7.453a.8.8,0,0,1-.759.547h-4.5V31a.8.8,0,0,0-.8-.8h-6.4a.8.8,0,0,0-.8.8v.8h-4.5a.8.8,0,0,1-.759-.547L38.91,23.8Zm-9.343,8v1.6h-4.8V31.8Zm9.653,8.8a.8.8,0,0,1-.8.8H39.4a.8.8,0,0,1-.8-.8V27.93l1.276,3.829A2.4,2.4,0,0,0,42.153,33.4h4.5v.8a.8.8,0,0,0,.8.8h6.4a.8.8,0,0,0,.8-.8v-.8h4.5a2.4,2.4,0,0,0,2.277-1.641l1.276-3.829Z" transform="translate(-36.75 -18.75)" fill="#d5be5d" stroke="#d5be5d" stroke-width="0.5"/>
</svg>
