<svg xmlns="http://www.w3.org/2000/svg" width="11.633" height="9.64" viewBox="0 0 11.633 9.64">
  <g id="Group_315" data-name="Group 315" transform="translate(-1840.017 -701.87)">
    <rect id="Rectangle_66" data-name="Rectangle 66" width="3.574" height="1.266" transform="translate(1844.215 701.87)"/>
    <g id="Group_314" data-name="Group 314" transform="translate(1840.017 701.87)">
      <path id="Path_543" data-name="Path 543" d="M1851.649,705.129a1.11,1.11,0,0,0-1.154-1.158c-.286,0-.571,0-.857,0h-.517v-.159c0-.317,0-.634,0-.952a.93.93,0,0,0-.928-.989h-.732q0,.393.007.786c0,.261-.056.331-.317.352q-.826.067-1.653.124l-.08,0h2.372v.826h-3.883v-.822c.037,0,.076-.008.114-.008.177,0,.353.005.53,0a.813.813,0,0,1,.174.005h.694c-.134,0-.15-.044-.15-.217,0-.35,0-.7,0-1.049h-1.755a.925.925,0,0,0-.926,1c0,.318,0,.635,0,.952,0,.047-.007.095-.01.152h-.162c-.426,0-.852-.005-1.278,0a1.1,1.1,0,0,0-1.111,1.1q-.011,2.658,0,5.316a1.078,1.078,0,0,0,.664,1.022,2.586,2.586,0,0,0,.279.1h9.738c.007-.006.013-.014.021-.016a1.125,1.125,0,0,0,.926-1.212v-3.345C1851.65,706.334,1851.652,705.731,1851.649,705.129Zm-3.742-2.8c.511-.11.8.143.782.574-.013.307,0,.615,0,.923,0,.044,0,.088-.006.14h-.442c0-.3,0-.585,0-.869,0-.255-.078-.349-.331-.406Zm-4.885.466a.473.473,0,0,1,.482-.484c.421-.009.841,0,1.262,0a.327.327,0,0,1,.058.011v.381h-.65c-.122,0-.245,0-.367,0a.319.319,0,0,0-.341.339c0,.3,0,.606,0,.926h-.447v-.52C1843.019,703.225,1843.013,703.008,1843.022,702.791Zm8.193,2.884q0,2.331,0,4.663a.69.69,0,0,1-.552.723.938.938,0,0,1-.189.014h-9.287a.68.68,0,0,1-.731-.7q0-2.386,0-4.772c0-.014,0-.027.006-.064l.112.076q1.727,1.146,3.455,2.288a.294.294,0,0,0,.237.018.218.218,0,0,0,.107-.179.351.351,0,0,0-.139-.212c-.6-.407-1.2-.805-1.808-1.206q-.776-.515-1.551-1.03a.543.543,0,0,1-.295-.444.457.457,0,0,1,.453-.434,1.594,1.594,0,0,1,.19-.007h6.609q1.318,0,2.637,0a.755.755,0,0,1,.451.12.363.363,0,0,1,.12.51.921.921,0,0,1-.264.266q-1.643,1.1-3.292,2.19c-.03.02-.061.039-.09.061a.219.219,0,0,0-.069.309.215.215,0,0,0,.312.048c.394-.258.786-.519,1.179-.78l2.4-1.594Z" transform="translate(-1840.017 -701.87)"/>
      <path id="Path_544" data-name="Path 544" d="M1860.406,774.364c-.392.26-.784.522-1.179.78a.216.216,0,0,1-.312-.048.219.219,0,0,1,.069-.309c.029-.022.06-.041.09-.061q1.647-1.094,3.292-2.19a.922.922,0,0,0,.264-.266.363.363,0,0,0-.12-.51.755.755,0,0,0-.451-.12q-1.319,0-2.637,0h-6.609a1.566,1.566,0,0,0-.19.007.456.456,0,0,0-.453.434.543.543,0,0,0,.295.444q.774.517,1.551,1.03c.6.4,1.209.8,1.809,1.206a.351.351,0,0,1,.139.212.218.218,0,0,1-.107.179.294.294,0,0,1-.237-.019q-1.731-1.138-3.455-2.288l-.112-.076c0,.037-.007.05-.007.064q0,2.386,0,4.772a.681.681,0,0,0,.731.7h9.288a.941.941,0,0,0,.189-.014.69.69,0,0,0,.551-.723q0-2.332,0-4.663v-.14Zm-2.067,1.259a.923.923,0,0,1-.931.972.961.961,0,0,1-.982-.966c-.007-.534,0-1.069,0-1.6a.449.449,0,0,1,.478-.476c.317,0,.634,0,.951,0a.45.45,0,0,1,.484.47c0,.009,0,.018,0,.027v.815C1858.339,775.115,1858.34,775.369,1858.338,775.623Z" transform="translate(-1851.608 -769.106)" fill="#fff"/>
      <path id="Path_545" data-name="Path 545" d="M1923.054,715.411h-.447c0-.178,0-.349,0-.52,0-.217-.006-.435,0-.652a.473.473,0,0,1,.482-.485c.421-.009.841,0,1.262,0a.335.335,0,0,1,.058.011v.381h-.65c-.122,0-.245,0-.366,0a.319.319,0,0,0-.341.339C1923.052,714.788,1923.054,715.091,1923.054,715.411Z" transform="translate(-1919.606 -713.319)" fill="#fff"/>
      <path id="Path_546" data-name="Path 546" d="M2057.554,715.355c0-.3,0-.585,0-.869,0-.255-.078-.349-.331-.406v-.362c.511-.11.8.143.781.574-.013.307,0,.615,0,.922,0,.044,0,.088-.006.14Z" transform="translate(-2049.333 -713.264)" fill="#fff"/>
      <path id="Path_547" data-name="Path 547" d="M1974.449,825.5v-.815c0-.009,0-.018,0-.027a.45.45,0,0,0-.484-.47q-.475,0-.951,0a.449.449,0,0,0-.478.476c0,.534-.007,1.069,0,1.6a.961.961,0,0,0,.982.966.923.923,0,0,0,.931-.972C1974.451,826.005,1974.449,825.752,1974.449,825.5Zm-.434.738a.494.494,0,0,1-.5.56.53.53,0,0,1-.541-.568c0-.5,0-1,0-1.493,0-.031,0-.062.005-.108h1.032c0,.049.008.1.008.143Q1974.016,825.5,1974.015,826.236Z" transform="translate(-1967.718 -819.742)"/>
      <path id="Path_548" data-name="Path 548" d="M1985.6,836.493c0-.047-.005-.094-.008-.143h-1.032c0,.046-.005.077-.005.108,0,.5,0,1,0,1.493a.53.53,0,0,0,.541.568.494.494,0,0,0,.5-.56Q1985.6,837.226,1985.6,836.493Zm-.52,1.579a.212.212,0,1,1,0-.423.212.212,0,0,1,0,.423Z" transform="translate(-1979.302 -831.465)" fill="#fff"/>
      <path id="Path_549" data-name="Path 549" d="M1993.337,872.111a.212.212,0,0,1,0,.423.212.212,0,1,1,0-.423Z" transform="translate(-1987.557 -865.927)"/>
    </g>
    <rect id="Rectangle_67" data-name="Rectangle 67" width="4.459" height="0.399" rx="0.2" transform="translate(1843.887 702.302)" fill="#fff"/>
  </g>
</svg>
