<svg xmlns="http://www.w3.org/2000/svg" width="100" height="100" viewBox="0 0 100 100">
  <g id="Group_2776" data-name="Group 2776" transform="translate(-118 -36)">
    <circle id="Ellipse_12" data-name="Ellipse 12" cx="50" cy="50" r="50" transform="translate(118 36)" fill="rgba(30,78,95,0.1)" opacity="0.62"/>
    <circle id="Ellipse_13" data-name="Ellipse 13" cx="34" cy="34" r="34" transform="translate(134 52)" fill="#1e4e5f"/>
    <g id="Group_248" data-name="Group 248" transform="translate(-4902.42 -562.315)">
      <path id="Path_483" data-name="Path 483" d="M5057.171,638.724a6.721,6.721,0,0,1,.316-.95,2.906,2.906,0,0,1,2.705-1.73q10.208-.031,20.417-.006a3.076,3.076,0,0,1,3.057,3.077q.009,5.952,0,11.9v.222c-.091-.08-.148-.126-.2-.177-.562-.56-1.119-1.125-1.687-1.68a.568.568,0,0,1-.188-.449q.01-4.826,0-9.652a1.049,1.049,0,0,0-1.178-1.179h-20.029a1.023,1.023,0,0,0-1.151,1.145v7.6l.05.021,4.251-6.21,3.435,4.291,1.557-2.235,6.042,7.837-1.473,1.475-4.485-5.807-6.406,9.207-1.692-1.174c.063-.1.116-.184.174-.266q2.451-3.525,4.906-7.046a.286.286,0,0,0-.01-.418c-.639-.78-1.264-1.571-1.909-2.377-.056.074-.1.13-.144.19q-2.09,3.051-4.174,6.106a.717.717,0,0,0-.116.379c-.008,1.57-.005,3.14-.005,4.71a1.036,1.036,0,0,0,1.151,1.151q6.535,0,13.068,0a.6.6,0,0,1,.473.2c.6.619,1.208,1.228,1.834,1.86-.083.007-.154.017-.226.017q-7.6,0-15.189,0a3.091,3.091,0,0,1-3.141-2.6.392.392,0,0,0-.041-.092Z" fill="#f5f5f5" stroke="#1e4e5f" stroke-width="0.5"/>
      <path id="Path_484" data-name="Path 484" d="M5382.893,899.972l-1.468-1.468,4.806-4.806,4.8,4.8-1.414,1.4-2.271-2.276-.062.03v7.255h-2.068v-7.277Z" transform="translate(-307.44 -244.307)" fill="#f5f5f5" stroke="#1e4e5f" stroke-width="0.5"/>
      <path id="Path_485" data-name="Path 485" d="M5374.489,710.063a3.1,3.1,0,1,1,3.106,3.108A3.11,3.11,0,0,1,5374.489,710.063Zm2.071-.007a1.032,1.032,0,0,0,1.022,1.044,1.034,1.034,0,1,0,.019-2.068A1.03,1.03,0,0,0,5376.56,710.056Z" transform="translate(-300.863 -67.253)" fill="#f5f5f5" stroke="#1e4e5f" stroke-width="0.5"/>
    </g>
  </g>
</svg>
