<svg xmlns="http://www.w3.org/2000/svg" width="23.919" height="23.965" viewBox="0 0 23.919 23.965">
  <g id="Group_2243" data-name="Group 2243" transform="translate(-403.767 -1058.07)">
    <path id="Path_640" data-name="Path 640" d="M403.767,1070.044a11.96,11.96,0,1,1,11.839,11.99A11.962,11.962,0,0,1,403.767,1070.044Zm9.572,1.89c-.512-.506-.993-1.017-1.517-1.481a1.677,1.677,0,0,0-.779-.384,1.129,1.129,0,0,0-1.188.666,1.18,1.18,0,0,0,.244,1.372c.754.767,1.517,1.525,2.278,2.286a1.208,1.208,0,0,0,1.91,0q1.826-1.826,3.648-3.654,1.685-1.688,3.371-3.376a1.206,1.206,0,0,0,.4-1.034,1.2,1.2,0,0,0-2.051-.714c-.954.951-1.9,1.909-2.853,2.862Q415.075,1070.207,413.339,1071.935Z" fill="#d1ad61"/>
    <path id="Path_641" data-name="Path 641" d="M487.009,1160.606q1.737-1.733,3.462-3.454c.952-.953,1.9-1.91,2.853-2.862a1.2,1.2,0,0,1,2.051.714,1.207,1.207,0,0,1-.4,1.034q-1.688,1.685-3.371,3.376-1.824,1.827-3.648,3.654a1.208,1.208,0,0,1-1.91,0c-.76-.761-1.524-1.519-2.278-2.286a1.18,1.18,0,0,1-.244-1.372,1.129,1.129,0,0,1,1.188-.666,1.679,1.679,0,0,1,.779.384C486.016,1159.589,486.5,1160.1,487.009,1160.606Z" transform="translate(-73.67 -88.672)" fill="#fff"/>
  </g>
</svg>
