<svg xmlns="http://www.w3.org/2000/svg" xmlns:xlink="http://www.w3.org/1999/xlink" width="47.698" height="47.662" viewBox="0 0 47.698 47.662">
  <defs>
    <radialGradient id="radial-gradient" cx="0.5" cy="0.5" r="0.5" gradientUnits="objectBoundingBox">
      <stop offset="0" stop-color="#ffb156"/>
      <stop offset="1" stop-color="#ffb156"/>
    </radialGradient>
  </defs>
  <g id="Group_2752" data-name="Group 2752" transform="translate(0)">
    <path id="Path_629" data-name="Path 629" d="M-774.561,1494.349h-2.605c-.052-.056-.121-.043-.186-.046s-.134-.01-.186.046h-.372c-.624-.11-1.258-.089-1.885-.154a18.8,18.8,0,0,1-5.222-1.44,23.744,23.744,0,0,1-6.463-3.978,24.107,24.107,0,0,1-6.335-8.447,19.227,19.227,0,0,1-1.8-6.458,41.755,41.755,0,0,1-.026-6.067,22.032,22.032,0,0,1,5.489-12.828,23.789,23.789,0,0,1,12.133-7.7,17.009,17.009,0,0,1,4.154-.571c1.3-.032,2.6-.011,3.9-.006a19.108,19.108,0,0,1,7.193,1.571,23.191,23.191,0,0,1,6.762,4.2,24.355,24.355,0,0,1,4.94,6.006,24.076,24.076,0,0,1,2.707,6.944,23.068,23.068,0,0,1,.277,2.848c.009.1-.034.218.046.313v.279c-.056.052-.044.121-.046.187s-.01.134.046.186v2.6a.216.216,0,0,0,0,.279v.372c-.1.654-.092,1.317-.154,1.974a17.31,17.31,0,0,1-1.112,4.4,23.4,23.4,0,0,1-3.934,6.853,24.059,24.059,0,0,1-7.415,6.085,24.227,24.227,0,0,1-6.084,2.232,22.625,22.625,0,0,1-2.854.279c-.1.009-.218-.034-.312.046h-.372A.217.217,0,0,0-774.561,1494.349Z" transform="translate(799.743 -1446.687)" fill="url(#radial-gradient)"/>
    <path id="Path_630" data-name="Path 630" d="M-289.137,1716.6c-.131-.093-.1-.186,0-.279Z" transform="translate(336.835 -1691.171)" fill="#8dc9f8"/>
    <path id="Path_631" data-name="Path 631" d="M-529.73,1956.912c.093-.1.186-.131.279,0Z" transform="translate(554.911 -1909.25)" fill="#8cc8f8"/>
    <path id="Path_632" data-name="Path 632" d="M-289.167,1684.574c-.007-.075-.011-.149.078-.182v.186C-289.118,1684.642-289.144,1684.641-289.167,1684.574Z" transform="translate(336.786 -1662.224)" fill="#a1d2f9"/>
    <path id="Path_633" data-name="Path 633" d="M-289.155,1686.34a.521.521,0,0,1,.078,0v.186A.179.179,0,0,1-289.155,1686.34Z" transform="translate(336.774 -1663.99)" fill="#85c5f8"/>
    <path id="Path_634" data-name="Path 634" d="M-561.655,1956.958c.034-.09.107-.086.182-.079.067.022.069.048,0,.079Z" transform="translate(583.859 -1909.296)" fill="#a1d2f9"/>
    <path id="Path_635" data-name="Path 635" d="M-559.7,1956.969c0-.026,0-.052,0-.078a.177.177,0,0,1,.19.078Z" transform="translate(582.092 -1909.307)" fill="#85c5f8"/>
    <path id="Path_636" data-name="Path 636" d="M-656.06,1618.375a2.138,2.138,0,0,1,1.519.715c1.519,1.528,3.052,3.04,4.562,4.577.275.28.414.316.714.013q5.487-5.524,11-11.023a2.032,2.032,0,0,1,1.921-.679,1.973,1.973,0,0,1,1.191,3.152,4.606,4.606,0,0,1-.411.442q-6.2,6.2-12.393,12.394a2.046,2.046,0,0,1-3.331-.008c-2.049-2.049-4.106-4.091-6.144-6.151a1.971,1.971,0,0,1,.78-3.327A4.678,4.678,0,0,1-656.06,1618.375Z" transform="translate(671.264 -1596.526)" fill="#f9f9f9"/>
  </g>
</svg>
