<svg xmlns="http://www.w3.org/2000/svg" width="18.738" height="17.142" viewBox="0 0 18.738 17.142">
  <g id="Group_2128" data-name="Group 2128" transform="translate(21.649 -114.714)">
    <path id="Path_1564" data-name="Path 1564" d="M-2.911,118.748c-.122.47-.249.939-.366,1.41q-.667,2.686-1.329,5.373a.727.727,0,0,1-.829.65H-16.1a.725.725,0,0,1-.836-.661q-1.095-4.575-2.187-9.15c-.061-.256-.06-.257-.328-.257-.506,0-1.013.006-1.519,0a.693.693,0,0,1-.671-.61.7.7,0,0,1,.5-.754,1.039,1.039,0,0,1,.271-.029q1.08,0,2.159,0a.7.7,0,0,1,.771.6c.194.793.382,1.587.572,2.38.014.059.031.117.051.193H-3.778a.76.76,0,0,1,.571.14,2.69,2.69,0,0,1,.3.426Zm-1.6.555H-16.984l1.31,5.481h.125q4.765,0,9.53,0c.121,0,.164-.038.193-.155.322-1.319.65-2.636.977-3.953C-4.738,120.223-4.626,119.769-4.511,119.3Z" fill="#fff"/>
    <path id="Path_1565" data-name="Path 1565" d="M70.766,389.277a2.334,2.334,0,1,1-2.338-2.333A2.333,2.333,0,0,1,70.766,389.277Zm-1.4.005a.933.933,0,1,0-1.865,0,.933.933,0,0,0,1.865,0Z" transform="translate(-83.725 -259.751)" fill="#fff"/>
    <path id="Path_1566" data-name="Path 1566" d="M251.138,389.275a2.332,2.332,0,1,1,2.336,2.333A2.328,2.328,0,0,1,251.138,389.275Zm1.4.006a.933.933,0,1,0,.922-.937A.939.939,0,0,0,252.539,389.281Z" transform="translate(-260.283 -259.751)" fill="#fff"/>
  </g>
</svg>
