<svg xmlns="http://www.w3.org/2000/svg" width="16.846" height="22.464" viewBox="0 0 16.846 22.464">
  <g id="Group_2209" data-name="Group 2209" transform="translate(-89.556 -182.802)">
    <path id="Path_1685" data-name="Path 1685" d="M104.6,205.266H91.354a.193.193,0,0,0-.053-.034,2.1,2.1,0,0,1-1.745-2.217q0-4.79,0-9.58a2.109,2.109,0,0,1,2.208-2.2h.6c0-.91-.008-1.793,0-2.676a7.8,7.8,0,0,1,.088-1.112,5.612,5.612,0,0,1,11.137,1.046c0,.833,0,1.666,0,2.5v.243c.272,0,.512,0,.753,0a2.086,2.086,0,0,1,2.049,2.047q.018,4.965,0,9.931a2.07,2.07,0,0,1-1.383,1.923C104.877,205.184,104.738,205.222,104.6,205.266Zm-2.884-14.046c0-.73.006-1.444,0-2.159a9.469,9.469,0,0,0-.059-1.289,3.737,3.737,0,0,0-7.416.7c0,.738,0,1.476,0,2.214v.532Zm-4.671,8.4c0,.124,0,.248,0,.373,0,.226-.007.453.006.679a.926.926,0,0,0,.917.858.915.915,0,0,0,.932-.863c.018-.642.012-1.286.005-1.928a.443.443,0,0,1,.2-.416,1.827,1.827,0,0,0,.607-2.173,1.871,1.871,0,0,0-3.538.213,1.821,1.821,0,0,0,.7,1.977.375.375,0,0,1,.178.36C97.038,199,97.046,199.309,97.046,199.615Z" transform="translate(0)" fill="#fff"/>
  </g>
</svg>
