<svg xmlns="http://www.w3.org/2000/svg" width="17.512" height="21.545" viewBox="0 0 17.512 21.545">
  <g id="Group_342" data-name="Group 342" transform="translate(-4500.416 -1186.68)">
    <path id="Path_608" data-name="Path 608" d="M4500.417,1197.441q0-4.056,0-8.113a2.548,2.548,0,0,1,1.99-2.576,2.954,2.954,0,0,1,.664-.069q6.1-.006,12.2,0a2.56,2.56,0,0,1,2.652,2.648q0,8.124,0,16.248a2.562,2.562,0,0,1-2.654,2.647h-12.2a2.562,2.562,0,0,1-2.652-2.649Q4500.412,1201.508,4500.417,1197.441Zm10.718-2.893a2.96,2.96,0,0,0,.652-2.019,2.645,2.645,0,0,0-1-1.881,2.672,2.672,0,0,0-3.4.021,2.617,2.617,0,0,0-.934,1.583,2.756,2.756,0,0,0,.617,2.3c-.05.027-.081.046-.113.062a4.549,4.549,0,0,0-2.57,3.362.631.631,0,0,0,.136.562.719.719,0,0,0,.61.26q2.793,0,5.588,0c.76,0,1.52.006,2.279,0,.583-.007.828-.317.718-.878,0-.015-.008-.029-.011-.043a4.8,4.8,0,0,0-1.98-2.952C4511.544,1194.789,4511.344,1194.678,4511.135,1194.548Zm-1.986,7.614h4.246c.4,0,.8.007,1.207-.007a.605.605,0,0,0,.624-.624.627.627,0,0,0-.567-.7,1.81,1.81,0,0,0-.268-.014q-5.218,0-10.436,0a1.671,1.671,0,0,0-.354.032.669.669,0,0,0,.075,1.3,2.866,2.866,0,0,0,.313.011Zm.045,1.351h-5.184a3.093,3.093,0,0,0-.312.011.611.611,0,0,0-.581.643.62.62,0,0,0,.547.675,1.968,1.968,0,0,0,.311.019q5.2,0,10.392,0a1.954,1.954,0,0,0,.333-.023.62.62,0,0,0,.525-.692.61.61,0,0,0-.579-.622,3.108,3.108,0,0,0-.312-.011Z" fill="#fff"/>
    <path id="Path_609" data-name="Path 609" d="M4593.434,1335.328a3.349,3.349,0,0,1,2.919-1.994,3.307,3.307,0,0,1,3.223,1.994Z" transform="translate(-87.463 -137.894)" fill="#fff"/>
    <path id="Path_610" data-name="Path 610" d="M4622.287,1266.982a1.343,1.343,0,1,1,1.347,1.35A1.341,1.341,0,0,1,4622.287,1266.982Z" transform="translate(-114.593 -74.243)" fill="#fff"/>
  </g>
</svg>
