<svg xmlns="http://www.w3.org/2000/svg" width="11.268" height="14.716" viewBox="0 0 11.268 14.716">
  <g id="Group_313" data-name="Group 313" transform="translate(-1376.853 -570.91)">
    <path id="Path_531" data-name="Path 531" d="M1388.117,576.5a.53.53,0,0,0-.516-.532c-.205-.01-.412-.009-.617,0a.53.53,0,0,0-.524.524q-.013.532,0,1.063a.532.532,0,0,0,.479.524l.128.023c-.01.223,0,.445-.034.662a.466.466,0,0,1-.515.376.116.116,0,0,1-.073-.052,1.021,1.021,0,0,0-1-.52c-.685.009-1.37,0-2.055,0h-.181V577.29c.186,0,.352,0,.519,0a1.7,1.7,0,0,0,1.686-1.686q.008-.905,0-1.811a2.92,2.92,0,0,0-2.127-2.772c-.16-.045-.324-.075-.485-.112h-.747a.356.356,0,0,1-.066.024,2.911,2.911,0,0,0-2.557,2.936q0,.841,0,1.681a1.7,1.7,0,0,0,1.745,1.74h.443v1.274h-.177c-.647,0-1.293,0-1.94,0a1,1,0,0,0-.958.514.126.126,0,0,1-.071.059.479.479,0,0,1-.528-.344c-.033-.229-.029-.463-.042-.7l.138-.021a.533.533,0,0,0,.471-.531c.007-.349.008-.7,0-1.049a.53.53,0,0,0-.518-.53c-.21-.01-.422-.01-.632,0a.528.528,0,0,0-.507.525q-.01.532,0,1.063a.531.531,0,0,0,.466.52l.134.022c0,.164,0,.321,0,.479a.932.932,0,0,0,.879,1.018.164.164,0,0,1,.112.092.969.969,0,0,0,1.031.792h2.151c0,.307,0,.6,0,.889a.456.456,0,0,0,.344.471,1.907,1.907,0,0,0,.218.032v.891c-.348.046-.689.1-1.031.134a1.07,1.07,0,0,0-.855.531c-.1.173-.216.339-.314.514a.223.223,0,0,1-.235.131.76.76,0,0,0-.78.691.778.778,0,0,0,1.531.261.811.811,0,0,0-.2-.732c.142-.23.28-.454.419-.677a.52.52,0,0,1,.373-.245c.359-.055.719-.1,1.1-.146,0,.284,0,.556,0,.827a.129.129,0,0,1-.061.083.8.8,0,0,0-.4.918.722.722,0,0,0,1.426-.083.781.781,0,0,0-.392-.827c-.044-.024-.109-.068-.111-.1-.009-.267-.005-.534-.005-.817.382.052.75.089,1.11.158a.591.591,0,0,1,.331.2c.168.223.3.471.449.706-.037.051-.067.088-.092.129a.783.783,0,0,0,.611,1.207.782.782,0,0,0,.826-.773.772.772,0,0,0-.8-.78.213.213,0,0,1-.222-.128c-.113-.194-.232-.385-.354-.574a.978.978,0,0,0-.659-.445c-.122-.024-.245-.04-.369-.056l-.825-.109v-.885a.267.267,0,0,1,.045-.013c.371-.029.518-.189.518-.562v-.821h.192c.714,0,1.427,0,2.141,0a.947.947,0,0,0,.967-.776c.018-.084.05-.1.127-.115a.92.92,0,0,0,.858-1c0-.161,0-.323,0-.486l.128-.021a.532.532,0,0,0,.473-.529Q1388.125,577.02,1388.117,576.5Zm-10.663,1.128c-.105,0-.144-.047-.14-.15.005-.153,0-.306,0-.459s0-.306,0-.46c0-.1.042-.137.138-.136.158,0,.315,0,.473,0,.1,0,.134.047.134.142,0,.306,0,.612,0,.919,0,.107-.047.146-.147.144Q1377.682,577.62,1377.453,577.623Zm2.292,7.541a.318.318,0,0,1-.31-.328.31.31,0,0,1,.324-.311.317.317,0,0,1,.313.325A.324.324,0,0,1,1379.745,585.164Zm5.371-.64a.309.309,0,0,1,.313.319.32.32,0,0,1-.315.321.326.326,0,0,1-.324-.329A.322.322,0,0,1,1385.116,584.524Zm-3.952-7.694a1.231,1.231,0,0,1-1.271-1.254c-.006-.589-.008-1.178,0-1.767a2.54,2.54,0,0,1,4.9-.849,2.921,2.921,0,0,1,.16.839c.024.593.011,1.188.007,1.781a1.237,1.237,0,0,1-1.249,1.249c-.426,0-.853,0-1.279,0S1381.586,576.832,1381.164,576.83Zm1.577.47v1.257h-.637V577.3Zm-.027,7.54c0,.2-.1.324-.264.325s-.261-.122-.26-.324.089-.313.267-.311S1382.713,584.644,1382.714,584.839Zm.049-3.449h-.66v-.9h.66Zm2.815-1.375c-.33.006-.66,0-.991,0h-5.127a.5.5,0,0,1-.547-.388.486.486,0,0,1,.371-.587,1.078,1.078,0,0,1,.214-.017l2.369.009h.646v-.01q1.508,0,3.015,0a.506.506,0,0,1,.551.4A.492.492,0,0,1,1385.578,580.015Zm2.083-2.526c0,.092-.04.132-.128.132h-.487c-.088,0-.131-.039-.129-.131,0-.158,0-.316,0-.473s0-.306,0-.459c0-.1.036-.142.135-.14.158,0,.316,0,.473,0,.1,0,.138.04.137.138Q1387.655,577.023,1387.66,577.49Z"/>
    <path id="Path_532" data-name="Path 532" d="M1460.987,585.182a2.922,2.922,0,0,0-.16-.839,2.54,2.54,0,0,0-4.9.849c-.008.589-.007,1.178,0,1.767a1.231,1.231,0,0,0,1.271,1.254c.422,0,.843,0,1.264,0s.853,0,1.279,0a1.236,1.236,0,0,0,1.249-1.249C1461,586.369,1461.011,585.774,1460.987,585.182Zm-2.139,1.186q-.387.01-.774,0a.228.228,0,1,1,.006-.455h.488c.091,0,.181,0,.272,0a.227.227,0,1,1,.008.454Zm-.013-.82c-.124.005-.248,0-.373,0h0c-.129,0-.258.005-.387,0a.226.226,0,0,1-.012-.451c.263-.009.526-.009.788,0a.226.226,0,1,1-.017.452Z" transform="translate(-76.038 -11.383)" fill="#fff"/>
    <path id="Path_533" data-name="Path 533" d="M1433.787,782.247h3.015a.506.506,0,0,1,.552.4.492.492,0,0,1-.5.591c-.33.006-.661,0-.991,0h-5.127a.5.5,0,0,1-.547-.388.485.485,0,0,1,.371-.587,1.076,1.076,0,0,1,.214-.017l2.369.009h.646Z" transform="translate(-51.274 -203.223)" fill="#fff"/>
    <path id="Path_534" data-name="Path 534" d="M1638.942,714.974c0-.153,0-.306,0-.459,0-.1.036-.141.134-.14.158,0,.316,0,.474,0,.1,0,.138.04.137.138q0,.466,0,.933c0,.092-.04.133-.128.133h-.487c-.088,0-.131-.039-.129-.131C1638.944,715.29,1638.942,715.132,1638.942,714.974Z" transform="translate(-252.025 -137.957)" fill="#fff"/>
    <path id="Path_535" data-name="Path 535" d="M1388.853,714.969c0-.153,0-.306,0-.459,0-.1.042-.138.137-.136q.237,0,.474,0c.1,0,.134.047.134.142,0,.306,0,.612,0,.918,0,.107-.047.146-.147.144q-.229,0-.458,0c-.1,0-.143-.047-.14-.15C1388.857,715.275,1388.853,715.122,1388.853,714.969Z" transform="translate(-11.538 -137.955)" fill="#fff"/>
    <path id="Path_536" data-name="Path 536" d="M1514.245,738.59h-.637v-1.257h.637Z" transform="translate(-131.505 -160.033)" fill="#fff"/>
    <path id="Path_537" data-name="Path 537" d="M1514.258,821.3h-.66v-.9h.66Z" transform="translate(-131.495 -239.908)" fill="#fff"/>
    <path id="Path_538" data-name="Path 538" d="M1584.227,925.82a.321.321,0,0,1-.315.321.326.326,0,0,1-.324-.329.322.322,0,0,1,.326-.311A.309.309,0,0,1,1584.227,925.82Z" transform="translate(-198.798 -340.976)" fill="#fff"/>
    <path id="Path_539" data-name="Path 539" d="M1444.109,925.824a.311.311,0,0,1,.324-.311.316.316,0,0,1,.313.325.324.324,0,0,1-.326.315A.318.318,0,0,1,1444.109,925.824Z" transform="translate(-64.674 -340.988)" fill="#fff"/>
    <path id="Path_540" data-name="Path 540" d="M1515.838,925.941q0-.314.267-.31c.164,0,.257.115.258.31s-.1.324-.265.325S1515.838,926.144,1515.838,925.941Z" transform="translate(-133.649 -341.102)" fill="#fff"/>
    <path id="Path_541" data-name="Path 541" d="M1506.611,665.15c.124,0,.249,0,.373,0a.227.227,0,1,1,.008.454q-.387.01-.774,0a.228.228,0,1,1,.007-.455h.387Z" transform="translate(-124.181 -90.621)"/>
    <path id="Path_542" data-name="Path 542" d="M1506.612,644.2c-.129,0-.258,0-.387,0a.225.225,0,0,1-.012-.451q.394-.014.788,0a.226.226,0,1,1-.017.452c-.124.005-.249,0-.373,0Z" transform="translate(-124.187 -70.034)"/>
  </g>
</svg>
