<svg id="Component_10_3" data-name="Component 10 – 3" xmlns="http://www.w3.org/2000/svg" width="8.008" height="9.5" viewBox="0 0 8.008 9.5">
  <path id="Path_516" data-name="Path 516" d="M195.524,1006c.157.043.315.085.472.13a.7.7,0,0,1,.118.053,2.564,2.564,0,0,1,1.2,1.521,1.615,1.615,0,0,1-.445,1.5q-2.064,2.073-4.139,4.134a1.234,1.234,0,0,1-.667.32c-.525.1-1.05.205-1.574.314a.959.959,0,0,1-1.123-.705,1.328,1.328,0,0,1,.023-.614c.105-.492.208-.985.312-1.477a1.116,1.116,0,0,1,.306-.572l4.11-4.111a1.653,1.653,0,0,1,.962-.479.359.359,0,0,0,.053-.016Zm-5.238,7.048a.456.456,0,0,0,.064,0q.824-.138,1.648-.278a.188.188,0,0,0,.092-.054q2.047-2.05,4.092-4.1a.731.731,0,0,0,0-1.1c-.112-.115-.227-.228-.342-.341a.758.758,0,0,0-1.076,0q-2.047,2.044-4.09,4.091a.184.184,0,0,0-.054.083C190.508,1011.911,190.4,1012.474,190.287,1013.048Z" transform="translate(-189.342 -1006)" fill="#979fad"/>
  <path id="Path_517" data-name="Path 517" d="M193.676,1352.484h3.494a.455.455,0,1,1,.029.909c-.028,0-.056,0-.084,0H190.2a.462.462,0,0,1-.478-.6.411.411,0,0,1,.4-.311c.186,0,.372,0,.557,0Z" transform="translate(-189.697 -1343.895)" fill="#979fad"/>
  <path id="Path_518" data-name="Path 518" d="M6641.895,3707.1l2.013,2.012" transform="translate(-6637.373 -3705.5)" fill="none" stroke="#979fad" stroke-width="1"/>
</svg>
