<svg id="Group_2104" data-name="Group 2104" xmlns="http://www.w3.org/2000/svg" width="20.759" height="24.627" viewBox="0 0 20.759 24.627">
  <path id="Path_516" data-name="Path 516" d="M205.368,1006c.408.112.817.22,1.224.337a1.81,1.81,0,0,1,.306.139,6.647,6.647,0,0,1,3.116,3.943,4.186,4.186,0,0,1-1.153,3.9q-5.35,5.373-10.728,10.718a3.2,3.2,0,0,1-1.728.828c-1.362.265-2.723.532-4.081.813a2.485,2.485,0,0,1-2.91-1.828,3.442,3.442,0,0,1,.059-1.592c.273-1.276.538-2.553.808-3.83a2.892,2.892,0,0,1,.793-1.483q5.327-5.327,10.653-10.657a4.286,4.286,0,0,1,2.494-1.243.912.912,0,0,0,.136-.041Zm-13.577,18.272a1.15,1.15,0,0,0,.167,0q2.136-.356,4.271-.72a.486.486,0,0,0,.239-.14q5.307-5.314,10.608-10.635a1.9,1.9,0,0,0,0-2.841c-.291-.3-.588-.592-.885-.885a1.964,1.964,0,0,0-2.79-.009q-5.306,5.3-10.6,10.606a.474.474,0,0,0-.14.215C192.365,1021.322,192.081,1022.784,191.791,1024.272Z" transform="translate(-189.342 -1006)" fill="#fff"/>
  <path id="Path_517" data-name="Path 517" d="M200,1352.485q4.528,0,9.056,0a1.179,1.179,0,1,1,.075,2.355c-.072.005-.144,0-.217,0h-17.92a1.2,1.2,0,0,1-1.238-1.55,1.065,1.065,0,0,1,1.043-.806c.481-.011.963,0,1.445,0Z" transform="translate(-189.685 -1330.219)" fill="#fff"/>
  <path id="Path_518" data-name="Path 518" d="M6641.895,3707.1l5.218,5.218" transform="translate(-6630.174 -3702.959)" fill="none" stroke="#fff" stroke-width="1.3"/>
</svg>
