<svg xmlns="http://www.w3.org/2000/svg" width="24.5" height="24.5" viewBox="0 0 24.5 24.5">
  <g id="icon" transform="translate(0.25 0.25)">
    <path id="Shape" d="M12.783,11.53V6.656A2.351,2.351,0,0,1,14.348,8.87a.783.783,0,0,0,1.565,0,3.92,3.92,0,0,0-3.13-3.834V3.913a.783.783,0,1,0-1.565,0V5.035A3.92,3.92,0,0,0,8.087,8.87c0,1.786,1.585,2.772,3.13,3.6v4.873A2.351,2.351,0,0,1,9.652,15.13a.783.783,0,0,0-1.565,0,3.92,3.92,0,0,0,3.13,3.834v1.122a.783.783,0,0,0,1.565,0V18.965a3.92,3.92,0,0,0,3.13-3.834C15.913,13.345,14.328,12.359,12.783,11.53Zm-1.565-.852c-.893-.53-1.565-1.091-1.565-1.808a2.352,2.352,0,0,1,1.565-2.213Zm1.565,6.666V13.322c.893.53,1.565,1.091,1.565,1.808A2.352,2.352,0,0,1,12.783,17.344Z" fill="#5dd583" stroke="#5dd583" stroke-width="0.5"/>
    <path id="Shape-2" data-name="Shape" d="M12,0A12,12,0,1,0,24,12,12.014,12.014,0,0,0,12,0Zm0,22.435A10.435,10.435,0,1,1,22.435,12,10.447,10.447,0,0,1,12,22.435Z" fill="#5dd583" stroke="#5dd583" stroke-width="0.5"/>
  </g>
</svg>
