<svg xmlns="http://www.w3.org/2000/svg" width="44.172" height="44.165" viewBox="0 0 44.172 44.165">
  <g id="Group_61" data-name="Group 61" transform="translate(0 0)">
    <g id="Group_59" data-name="Group 59" transform="translate(0 0)">
      <path id="Path_127" data-name="Path 127" d="M-46.776-245.884a22.1,22.1,0,0,1,22.106-22.051A22.092,22.092,0,0,1-2.6-245.8a22.1,22.1,0,0,1-22.128,22.03A22.1,22.1,0,0,1-46.776-245.884Zm18.923,1.36V-230.9h5.493v-13.621h4.6l.688-5.359h-5.244c0-1.4-.042-2.756.014-4.1a1.676,1.676,0,0,1,1.594-1.761c1.061-.125,2.142-.084,3.214-.113.185-.005.37,0,.559,0v-4.784a23.971,23.971,0,0,0-5.558-.067,5.838,5.838,0,0,0-5.141,4.822,18.131,18.131,0,0,0-.235,3.156c-.036.937-.008,1.877-.008,2.875h-4.566v5.33Z" transform="translate(46.776 267.935)" fill="#3f3f3f"/>
      <path id="Path_128" data-name="Path 128" d="M79.31-191.59H74.721v-5.33h4.566c0-1-.028-1.937.008-2.875a18.129,18.129,0,0,1,.235-3.156,5.838,5.838,0,0,1,5.141-4.822,23.972,23.972,0,0,1,5.558.067v4.784c-.189,0-.374,0-.559,0-1.072.029-2.153-.012-3.214.113a1.676,1.676,0,0,0-1.594,1.761c-.055,1.348-.014,2.7-.014,4.1h5.244l-.688,5.359H84.8v13.621H79.31Z" transform="translate(-60.386 215.001)" fill="#fff"/>
    </g>
  </g>
</svg>
