<svg xmlns="http://www.w3.org/2000/svg" width="20.947" height="16.749" viewBox="0 0 20.947 16.749">
  <g id="Group_2144" data-name="Group 2144" transform="translate(-2051.815 -1212.992)">
    <path id="Path_1570" data-name="Path 1570" d="M2177.373,1218.627v.291q0,4.944,0,9.887a1.764,1.764,0,0,1-.015.326.746.746,0,0,1-1.479-.114c0-.078,0-.156,0-.234q0-4.932,0-9.864a.342.342,0,0,0-.263-.4,2.849,2.849,0,1,1,2.04,0C2177.572,1218.555,2177.484,1218.586,2177.373,1218.627Zm-2.112-2.771a1.364,1.364,0,1,0,1.372-1.359A1.358,1.358,0,0,0,2175.261,1215.856Z" transform="translate(-114.336)" fill="#070707"/>
    <path id="Path_1571" data-name="Path 1571" d="M2299.313,1226.884c0,.765,0,1.52,0,2.275a.747.747,0,1,1-1.493.025c0-.678,0-1.355,0-2.033,0-.085,0-.17-.049-.2a8.23,8.23,0,0,1-1.126-.721,2.835,2.835,0,0,1,.946-4.773.283.283,0,0,0,.233-.323c-.007-2.36,0-4.721-.007-7.081a.762.762,0,0,1,.4-.738.747.747,0,0,1,1.1.612c.007.077,0,.156,0,.234q0,3.482,0,6.964a.284.284,0,0,0,.229.328,2.843,2.843,0,0,1,.041,5.336Zm.615-2.764a1.364,1.364,0,1,0-1.364,1.368A1.362,1.362,0,0,0,2299.928,1224.12Z" transform="translate(-228.659 -0.214)" fill="#070707"/>
    <path id="Path_1572" data-name="Path 1572" d="M2055.419,1216.3c0,.771,0,1.543,0,2.315a.228.228,0,0,0,.189.26,2.844,2.844,0,0,1,.014,5.377.257.257,0,0,0-.2.3c.005,1.535,0,3.07,0,4.606a.725.725,0,0,1-.444.708.7.7,0,0,1-.8-.131.8.8,0,0,1-.251-.653c0-1.5,0-3.008.007-4.512a.289.289,0,0,0-.23-.328,2.838,2.838,0,0,1-.013-5.339.316.316,0,0,0,.243-.367q-.013-2.268,0-4.536a.747.747,0,1,1,1.493-.036C2055.421,1214.746,2055.418,1215.525,2055.419,1216.3Zm-.734,3.9a1.364,1.364,0,1,0,1.364,1.368A1.362,1.362,0,0,0,2054.685,1220.208Z" transform="translate(0 -0.2)" fill="#070707"/>
  </g>
</svg>
