<svg xmlns="http://www.w3.org/2000/svg" width="44" height="44" viewBox="0 0 44 44">
  <g id="Group_187" data-name="Group 187" transform="translate(-110 -575)">
    <circle id="Ellipse_9" data-name="Ellipse 9" cx="22" cy="22" r="22" transform="translate(110 575)" fill="#3f3f3f"/>
    <g id="Group_186" data-name="Group 186" transform="translate(847.411 -29.593)">
      <path id="Path_295" data-name="Path 295" d="M-714.652,639.795H-716.2a1.425,1.425,0,0,0-.2-.043,12.565,12.565,0,0,1-5.76-1.816,13.029,13.029,0,0,1-6.264-9.07c-.092-.495-.138-1-.206-1.5v-1.547c.015-.074.033-.148.045-.222.113-.72.165-1.455.348-2.157a13.005,13.005,0,0,1,7.151-8.762,12.844,12.844,0,0,1,7.781-1.115,12.358,12.358,0,0,1,4.1,1.391c.628.346,1.221.756,1.846,1.147l-3.08,4a8.236,8.236,0,0,0-10.326.311,8.167,8.167,0,0,0-2.142,9.452,8.153,8.153,0,0,0,8.68,4.808,8.086,8.086,0,0,0,6.544-5.568H-715.4v-5.014h13.211c-.031,1.293.012,2.577-.109,3.846a12.7,12.7,0,0,1-3.227,7.376,12.962,12.962,0,0,1-7.621,4.276C-713.647,639.678-714.151,639.727-714.652,639.795Z" transform="translate(0 0)" fill="#fff"/>
    </g>
  </g>
</svg>
