<svg xmlns="http://www.w3.org/2000/svg" xmlns:xlink="http://www.w3.org/1999/xlink" width="118" height="118" viewBox="0 0 118 118">
  <defs>
    <filter id="Icon_Gaming" x="0" y="0" width="118" height="118" filterUnits="userSpaceOnUse">
      <feOffset dy="5" input="SourceAlpha"/>
      <feGaussianBlur stdDeviation="10" result="blur"/>
      <feFlood flood-color="#242424" flood-opacity="0.051"/>
      <feComposite operator="in" in2="blur"/>
      <feComposite in="SourceGraphic"/>
    </filter>
  </defs>
  <g id="Group_3001" data-name="Group 3001" transform="translate(-224 -115)">
    <g id="Group_2979" data-name="Group 2979">
      <g id="Group_2795" data-name="Group 2795" transform="translate(253.796 139.897)">
        <g transform="matrix(1, 0, 0, 1, -29.8, -24.9)" filter="url(#Icon_Gaming)">
          <rect id="Icon_Gaming-2" data-name="Icon_Gaming" width="58" height="58" rx="29" transform="translate(30 25)" fill="#fff"/>
        </g>
        <g id="Icon_Gaming-3" data-name="Icon_Gaming" transform="translate(12.667 18.513)">
          <path id="Path_40" data-name="Path 40" d="M50.844,47.2,49.2,48.469l-.753.877-1.651.774.155,1.413,1.444.774L49.822,54.4l1.259.227L52.3,53.6l.536-.928,1.5-.743.309-1.269L53.4,49.542l-.825-.712-.309-1.114L51.8,47.2Z" transform="translate(-41.975 -42.334)" fill="#d1ad61"/>
          <path id="Path_41" data-name="Path 41" d="M2.6,21.678a4.034,4.034,0,0,0,2.641-.289,19.4,19.4,0,0,0,5.282-3.755c1.279-1.238,3.672-1.857,6.066-1.857s4.786.619,6.066,1.857a19.394,19.394,0,0,0,5.282,3.755,4.316,4.316,0,0,0,2.641.289,3.083,3.083,0,0,0,1.981-1.9,11.033,11.033,0,0,0,.578-4.7,30.923,30.923,0,0,0-.908-5.983,22.963,22.963,0,0,0-1.857-5.034c-2.888-5.075-6.024-4.291-9.779-3.3a26.878,26.878,0,0,1-3.8.743h-.413a26.878,26.878,0,0,1-3.8-.743C8.834-.191,5.7-1.016,2.81,4.1A21.035,21.035,0,0,0,.953,9.134a30.923,30.923,0,0,0-.908,5.983,11.243,11.243,0,0,0,.578,4.7A3.127,3.127,0,0,0,2.6,21.678Zm-1.032-6.52a28.462,28.462,0,0,1,.867-5.694A19.689,19.689,0,0,1,4.171,4.8C6.441.717,9.082,1.377,12.218,2.2a24.205,24.205,0,0,0,4.044.784h.619A23.906,23.906,0,0,0,20.965,2.2C24.1,1.418,26.742.717,29.012,4.8a19.027,19.027,0,0,1,1.733,4.663,31.232,31.232,0,0,1,.867,5.694,9.548,9.548,0,0,1-.454,4.044,1.636,1.636,0,0,1-.99,1.032,2.849,2.849,0,0,1-1.692-.206A16.828,16.828,0,0,1,23.689,16.6c-1.568-1.568-4.333-2.352-7.1-2.352s-5.529.784-7.138,2.269a17.145,17.145,0,0,1-4.786,3.425,2.56,2.56,0,0,1-1.692.206,1.636,1.636,0,0,1-.99-1.032A9.757,9.757,0,0,1,1.572,15.159Z" transform="translate(-0.027 -0.028)"/>
          <path id="Path_42" data-name="Path 42" d="M43.628,46.873a2.2,2.2,0,0,0,.7,1.485,2.337,2.337,0,0,0,1.692.7h0a2.436,2.436,0,0,0,1.692-.7h0a2.507,2.507,0,0,0,.7-1.485,2.2,2.2,0,0,0,1.485-.7,2.337,2.337,0,0,0,.7-1.692h0a2.436,2.436,0,0,0-.7-1.692h0a2.507,2.507,0,0,0-1.485-.7,2.348,2.348,0,0,0-.66-1.444l-.041-.041a2.337,2.337,0,0,0-1.692-.7h0a2.436,2.436,0,0,0-1.692.7,2.4,2.4,0,0,0-.7,1.485,2.458,2.458,0,0,0-1.485.66l-.041.041a2.337,2.337,0,0,0-.7,1.692h0a2.436,2.436,0,0,0,.7,1.692A2.3,2.3,0,0,0,43.628,46.873Zm-.7-2.393a.84.84,0,0,1,.248-.619l.041-.041a.986.986,0,0,1,.578-.206h.578a.783.783,0,0,0,.784-.784v-.578a.846.846,0,0,1,.867-.867h0a.84.84,0,0,1,.619.248l.041.041a.986.986,0,0,1,.206.578v.578a.783.783,0,0,0,.784.784h.578a.84.84,0,0,1,.619.248h0a.84.84,0,0,1,.248.619h0a.846.846,0,0,1-.867.867h-.578a.783.783,0,0,0-.784.784v.536a.84.84,0,0,1-.248.619h0a.84.84,0,0,1-.619.248h0a.846.846,0,0,1-.867-.867v-.578a.783.783,0,0,0-.784-.784h-.578a.846.846,0,0,1-.867-.825Z" transform="translate(-37.132 -35.787)"/>
          <circle id="Ellipse_17" data-name="Ellipse 17" cx="1.444" cy="1.444" r="1.444" transform="translate(22.3 4.319)"/>
          <circle id="Ellipse_18" data-name="Ellipse 18" cx="1.444" cy="1.444" r="1.444" transform="translate(22.3 10.179)"/>
          <circle id="Ellipse_19" data-name="Ellipse 19" cx="1.444" cy="1.444" r="1.444" transform="translate(19.37 7.249)"/>
          <circle id="Ellipse_20" data-name="Ellipse 20" cx="1.444" cy="1.444" r="1.444" transform="translate(25.229 7.249)"/>
        </g>
      </g>
    </g>
  </g>
</svg>
