<svg xmlns="http://www.w3.org/2000/svg" width="16.139" height="16.133" viewBox="0 0 16.139 16.133">
  <g id="Group_2214" data-name="Group 2214" transform="translate(-420.495 -244.198)">
    <path id="Path_1688" data-name="Path 1688" d="M436.634,251.789v.946c-.01.056-.021.111-.029.167-.038.291-.061.585-.116.873a8.068,8.068,0,0,1-6.533,6.432c-.3.052-.612.083-.918.124h-.945c-.046-.009-.091-.02-.137-.027-.44-.068-.887-.105-1.319-.208a8.075,8.075,0,0,1-6-9.341,8.079,8.079,0,0,1,9.037-6.48,7.7,7.7,0,0,1,4.2,1.92,7.9,7.9,0,0,1,2.631,4.68C436.563,251.177,436.593,251.484,436.634,251.789Zm-8.073-6.65a7.123,7.123,0,1,0,7.127,7.122A7.134,7.134,0,0,0,428.561,245.139Z" transform="translate(0 0)"/>
    <path id="Path_1689" data-name="Path 1689" d="M451.67,268.037a7.123,7.123,0,1,1-7.116,7.132A7.134,7.134,0,0,1,451.67,268.037Zm-.966,8.727-2.112-2.114a1.484,1.484,0,0,0-.15-.139.468.468,0,0,0-.75.3.523.523,0,0,0,.194.473q1.193,1.19,2.384,2.382a.5.5,0,0,0,.837,0l4.343-4.344a1.041,1.041,0,0,0,.135-.153.444.444,0,0,0,.013-.5.4.4,0,0,0-.436-.216.81.81,0,0,0-.372.205q-1.99,1.974-3.968,3.962A1.587,1.587,0,0,0,450.7,276.764Z" transform="translate(-23.109 -22.898)" fill="#ffd09a"/>
    <path id="Path_1690" data-name="Path 1690" d="M526.905,383.842a1.579,1.579,0,0,1,.117-.151q1.981-1.984,3.968-3.962a.81.81,0,0,1,.372-.205.4.4,0,0,1,.436.216.444.444,0,0,1-.013.5,1.034,1.034,0,0,1-.135.153l-4.343,4.344a.5.5,0,0,1-.836,0q-1.192-1.191-2.384-2.382a.522.522,0,0,1-.194-.473.468.468,0,0,1,.75-.3,1.481,1.481,0,0,1,.15.139Z" transform="translate(-99.31 -129.976)"/>
  </g>
</svg>
