<svg xmlns="http://www.w3.org/2000/svg" width="21.782" height="12.465" viewBox="0 0 21.782 12.465">
  <g id="Group_341" data-name="Group 341" transform="translate(-4347.988 -951.505)">
    <path id="Path_606" data-name="Path 606" d="M4354.032,951.505a1.64,1.64,0,0,1,1.605,1.112q.933,2.113,1.871,4.225c.762,1.72,1.519,3.443,2.288,5.16a1.3,1.3,0,0,1-.062,1.372,1.257,1.257,0,0,1-2.12-.094,20.926,20.926,0,0,1-.861-1.911.4.4,0,0,0-.437-.291q-2.364.017-4.728,0a.372.372,0,0,0-.424.271c-.221.574-.476,1.136-.721,1.7a1.291,1.291,0,0,1-.941.817,1.172,1.172,0,0,1-1.2-.378,1.125,1.125,0,0,1-.21-1.258c.49-1.13.991-2.256,1.49-3.383q1.374-3.106,2.75-6.212A1.7,1.7,0,0,1,4354.032,951.505Zm1.606,7.227-1.684-4.01-1.684,4.01Z" fill="#fff"/>
    <path id="Path_607" data-name="Path 607" d="M4494.164,986.478a1.577,1.577,0,0,0-1.552-1.8,6.622,6.622,0,0,0-2.346.253,1.053,1.053,0,0,1-1.342-1.2.991.991,0,0,1,.68-.828,7.782,7.782,0,0,1,4.546-.3,3.139,3.139,0,0,1,2.471,2.839,6.6,6.6,0,0,1,.068.946c.008,1.384-.009,2.768.008,4.152a1.3,1.3,0,0,1-1.978,1.151,1.16,1.16,0,0,1-.574-.892c-.106.1-.2.187-.3.271a3.791,3.791,0,0,1-3.308.786,2.718,2.718,0,0,1-2.022-1.362,2.835,2.835,0,0,1,1.958-4.207,6.591,6.591,0,0,1,3.407.13c.072.022.144.042.216.061A.241.241,0,0,0,4494.164,986.478Zm-1.987,3.681c.2-.03.419-.047.629-.1a1.641,1.641,0,0,0,1.411-1.847.277.277,0,0,0-.112-.212,3.615,3.615,0,0,0-2.609-.129,1.142,1.142,0,0,0-.772,1.281,1.1,1.1,0,0,0,.969.936C4491.846,990.123,4492,990.136,4492.177,990.159Z" transform="translate(-126.929 -27.977)" fill="#fff"/>
  </g>
</svg>
