<svg xmlns="http://www.w3.org/2000/svg" width="119.708" height="63.811" viewBox="0 0 119.708 63.811">
  <g id="Group_540" data-name="Group 540" transform="translate(-42.23 -204.57)">
    <g id="Group_3" data-name="Group 3" transform="translate(42.23 231.796)">
      <path id="Path_1" data-name="Path 1" d="M60.593,332.112q0,4.156,0,8.315a2.215,2.215,0,0,1-2.081,2.5c-1.2.007-2.4.012-3.611.016-2.2,0-4.406,0-6.637,0l-6.027,0h0v-23.7l4.289,0h1.41v18.032h6.637V319.4c2.1,1.647,3.965,3.088,5.79,4.582.206.169.225.641.228.971Q60.591,328.532,60.593,332.112Z" transform="translate(-42.23 -319.232)" fill="#fff"/>
      <path id="Path_2" data-name="Path 2" d="M60.6,374.125v23.7l-4.289,0H54.9V379.8H48.264v17.868c-2.1-1.647-3.965-3.087-5.79-4.582-.206-.169-.225-.641-.228-.971q-.007-3.583-.009-7.163,0-4.156,0-8.315a2.215,2.215,0,0,1,2.081-2.5c1.2-.007,2.4-.012,3.611-.016v5.154h6.637v-5.154l6.027,0Z" transform="translate(-42.235 -361.244)" fill="#fff"/>
      <path id="Path_3" data-name="Path 3" d="M133.465,344.693v4.066c1.3,0,2.541-.057,3.777.028a2.236,2.236,0,0,1,1.382.608c1.274,1.368,2.461,2.818,3.812,4.39h-8.981v4.8H145.7v4.948h-18v-23.9h1.283c3.871,0,7.742.023,11.611-.017a2.152,2.152,0,0,1,1.814.8c1.206,1.38,2.463,2.715,3.888,4.27Z" transform="translate(-107.65 -334.835)" fill="#fff"/>
      <path id="Path_4" data-name="Path 4" d="M387.946,358.455v-4.066c1.3,0,2.541.056,3.777-.028a2.237,2.237,0,0,0,1.382-.608c1.274-1.368,2.461-2.818,3.812-4.39h-8.981v-4.8h12.247v-4.948h-18v23.9h1.283c3.871,0,7.742-.023,11.611.016a2.152,2.152,0,0,0,1.814-.8c1.206-1.38,2.464-2.715,3.888-4.27Z" transform="translate(-302.426 -334.835)" fill="#fff"/>
      <path id="Path_5" data-name="Path 5" d="M223.2,368.179l-18.884-12.6v8.073h-5.5V346.027h5.373c.03.169.073.35.089.535.08.8-.145,1.886.291,2.332a17.943,17.943,0,0,0,3.355,2.327c.131.082.439-.033.629-.129,1.769-.9,3.287-1.938,2.724-4.333a9.082,9.082,0,0,1-.019-1.891h-2.52c-2.621,0-5.241.033-7.86-.03a2.375,2.375,0,0,1-1.487-.645c-1.335-1.363-2.583-2.813-3.97-4.345a4.044,4.044,0,0,1,.633-.117c5.788,0,11.576,0,17.366.026l.3,7.287,2.684-6.733a2.606,2.606,0,0,1,.779,2.086c.052,3.09.045,6.177,0,9.265a1.537,1.537,0,0,1-.69,1.035c-1.056.664-2.173,1.227-3.378,1.891.3.246.5.448.737.605,2.82,1.9,5.633,3.812,8.479,5.673a1.746,1.746,0,0,1,.9,1.717C223.163,364.336,223.2,366.1,223.2,368.179Z" transform="translate(-159.48 -334.921)" fill="#fff"/>
      <path id="Path_6" data-name="Path 6" d="M315.091,369.727a2.215,2.215,0,0,1-2.081,2.5c-5.354.033-10.708.014-16.278.014v-23.7l4.289,0h1.41v18.033h6.637V348.7c2.1,1.647,3.965,3.087,5.79,4.582.206.169.225.641.228.971Q315.1,361.988,315.091,369.727Z" transform="translate(-237.023 -341.658)" fill="#fff"/>
      <path id="Path_7" data-name="Path 7" d="M296.738,342.134a2.215,2.215,0,0,1,2.081-2.5c5.354-.033,10.708-.014,16.277-.014v23.7l-4.289,0H309.4V345.3h-6.637v17.868c-2.1-1.647-3.965-3.088-5.79-4.582-.206-.169-.225-.641-.228-.971Q296.725,349.873,296.738,342.134Z" transform="translate(-237.023 -334.835)" fill="#fff"/>
      <g id="Group_2" data-name="Group 2" transform="translate(95.529 4.783)">
        <g id="Group_1" data-name="Group 1" transform="translate(4.582)">
          <path id="Path_8" data-name="Path 8" d="M474.612,345.053c-.343,1.015-.092,1.557.957,1.956,3.289,1.252,6.52,2.657,9.8,3.939a2.809,2.809,0,0,1,2.05,3.031c-.085,2.364-.014,4.732-.023,7.1,0,1.569-.711,2.406-2.243,2.421q-5.159.046-10.313.033v-4.973h6.59c.364-2.212.293-2.331-1.476-3.121-2.717-1.209-5.422-2.444-8.141-3.651a4.171,4.171,0,0,1-2.855-4.5c.131-1.685.019-3.388.028-5.084a2.272,2.272,0,0,1,2.393-2.574c.232-.016.469,0,.7,0l16.453-.009v5.435Z" transform="translate(-468.936 -339.618)" fill="#fff"/>
        </g>
        <path id="Path_9" data-name="Path 9" d="M459.89,425.306v-4.973q-2.646,0-5.288.014a1.556,1.556,0,0,0-1,.454c-1.361,1.41-2.674,2.863-4.193,4.5Z" transform="translate(-449.407 -401.396)" fill="#fff"/>
      </g>
    </g>
    <g id="Group_4" data-name="Group 4" transform="translate(47.458 204.994)">
      <path id="Path_10" data-name="Path 10" d="M369.446,223.968V211.293h5.374c.029.168.071.349.089.533.08.8-.146,1.887.289,2.333a17.9,17.9,0,0,0,3.355,2.327c.132.084.439-.033.628-.129,1.77-.9,3.289-1.937,2.724-4.334a9.063,9.063,0,0,1-.019-1.891h-2.519c-2.62,0-5.24.034-7.858-.03a2.367,2.367,0,0,1-1.487-.647c-1.336-1.362-2.584-2.811-3.971-4.345a4.176,4.176,0,0,1,.633-.117c6.138,0,12.277,0,18.415.031,1.836.009,2.682.812,2.713,2.636.052,3.088.045,6.177-.005,9.265a1.534,1.534,0,0,1-.69,1.035c-1.054.663-2.171,1.226-3.378,1.89.3.246.5.448.737.606,2.82,1.9,5.633,3.811,8.478,5.672a1.748,1.748,0,0,1,.9,1.718c-.06,1.755-.019,3.514-.019,5.6l-18.885-12.6v8.074H350.132v-23.9h1.284c3.871,0,7.742.022,11.612-.018a2.156,2.156,0,0,1,1.814.806c1.2,1.38,2.463,2.713,3.887,4.27H355.894v4.065c1.3,0,2.542-.056,3.777.028a2.245,2.245,0,0,1,1.382.607c1.273,1.369,2.461,2.818,3.812,4.39h-8.979v4.8Z" transform="translate(-283.123 -204.994)" fill="#fff"/>
      <path id="Path_11" data-name="Path 11" d="M90.006,230.022V211.71H74.773c-.343,1.007-.091,1.544.957,1.94,3.289,1.242,6.52,2.634,9.8,3.906a2.788,2.788,0,0,1,2.051,3.006c-.084,2.343-.014,4.691-.023,7.037-.006,1.554-.712,2.386-2.245,2.4-5.2.047-10.4.038-15.6.017a1.566,1.566,0,0,1-1-.449c-1.359-1.4-2.674-2.839-4.192-4.467H81.589c.362-2.2.293-2.313-1.477-3.095-2.716-1.2-5.421-2.425-8.14-3.62-1.95-.857-3.034-2.187-2.856-4.458.131-1.671.019-3.361.028-5.042a2.26,2.26,0,0,1,2.393-2.552c.233-.017.469,0,.7,0l22.053-.014H95.7v18.033h6.637V206.48c2.1,1.647,3.967,3.089,5.792,4.584.205.168.225.639.226.97q.02,7.739.006,15.478a2.215,2.215,0,0,1-2.081,2.5C100.93,230.041,95.576,230.022,90.006,230.022Z" transform="translate(-64.515 -206.006)" fill="#fff"/>
      <path id="Union_1" data-name="Union 1" d="M9.463,37.11h0Zm0,0h0Zm0,0h0Zm-.012,0,.012,0Zm0,0h0Zm0,0h0Zm-.005,0h0Zm-.01,0,.01,0Zm0-11.475L6.576,26.92V6.33c1.638,0,3.186-.035,4.73.045.2.009.523.6.539.927.061,1.356.026,2.717.026,4.34,2.4-1.169,4.577-2.2,6.721-3.3.221-.11.333-.584.354-.9.052-.732.016-1.471.016-2.325-.53-.03-.941-.072-1.354-.072q-1.72,0-3.441,0c-2.255,0-4.511,0-6.767-.012a2.207,2.207,0,0,1-1.211-.27C4.169,3.3,2.184,1.79,0,.155A8.352,8.352,0,0,1,.96.017Q11.461,0,21.962,0c1.64,0,2.562.657,2.672,2.318.183,2.764.164,5.544.145,8.317,0,.321-.493.744-.854.946-3.289,1.844-6.564,3.713-9.914,5.436h0c-.15.08-.3.157-.452.234A1.772,1.772,0,0,0,12.5,18.413v2.771l1.513-.394,1.175-.31C13.315,26.148,11.247,31.605,9.427,37.1Z" transform="translate(39.858 0.076)" fill="#ffb156" stroke="rgba(0,0,0,0)" stroke-width="1"/>
    </g>
  </g>
</svg>
