<svg xmlns="http://www.w3.org/2000/svg" xmlns:xlink="http://www.w3.org/1999/xlink" width="118" height="118" viewBox="0 0 118 118">
  <defs>
    <filter id="Icon_Gadgets" x="0" y="0" width="118" height="118" filterUnits="userSpaceOnUse">
      <feOffset dy="5" input="SourceAlpha"/>
      <feGaussianBlur stdDeviation="10" result="blur"/>
      <feFlood flood-color="#242424" flood-opacity="0.051"/>
      <feComposite operator="in" in2="blur"/>
      <feComposite in="SourceGraphic"/>
    </filter>
    <clipPath id="clip-path">
      <rect id="Rectangle_84" data-name="Rectangle 84" width="27.262" height="25.333"/>
    </clipPath>
    <clipPath id="clip-path-2">
      <rect id="Rectangle_85" data-name="Rectangle 85" width="27.262" height="25.333" fill="#fff"/>
    </clipPath>
  </defs>
  <g id="Gadgets" transform="translate(29.847 24.897)">
    <g id="Group_2780" data-name="Group 2780">
      <g transform="matrix(1, 0, 0, 1, -29.85, -24.9)" filter="url(#Icon_Gadgets)">
        <rect id="Icon_Gadgets-2" data-name="Icon_Gadgets" width="58" height="58" rx="29" transform="translate(30 25)" fill="#1e4e5f"/>
      </g>
      <g id="Icon_Gadgets-3" data-name="Icon_Gadgets" transform="translate(15.59 16.564)">
        <path id="Path_31" data-name="Path 31" d="M271.261,226,269,234.292l3.371,1.283.884-.711,2.261.711,2.128-6.317-2.041-1.443-.838-1.017Z" transform="translate(-251.114 -210.973)" fill="#d1ad61"/>
        <path id="Path_32" data-name="Path 32" d="M17.383,226l2.261,8.292-3.371,1.283-.884-.711-2.261.711L11,229.258l2.041-1.443.838-1.017Z" transform="translate(-10.269 -210.973)" fill="#d1ad61"/>
        <g id="Group_209" data-name="Group 209">
          <path id="Path_33" data-name="Path 33" d="M312.41,266.958a.534.534,0,1,0,.372.658.535.535,0,0,0-.372-.658Zm0,0" transform="translate(-291.013 -249.192)" fill="#fff"/>
          <g id="Group_208" data-name="Group 208">
            <g id="Group_206" data-name="Group 206" clip-path="url(#clip-path)">
              <path id="Path_34" data-name="Path 34" d="M82.417,267.989a.523.523,0,0,0,.372-.652.533.533,0,0,0-1.031.273.548.548,0,0,0,.658.379Zm0,0" transform="translate(-76.306 -249.192)" fill="#fff"/>
            </g>
            <g id="Group_207" data-name="Group 207" clip-path="url(#clip-path-2)">
              <path id="Path_35" data-name="Path 35" d="M26.632,17.662a12.938,12.938,0,0,0,.6-3.777,13.019,13.019,0,0,0-4.056-9.4A13.79,13.79,0,0,0,13.626.6,13.552,13.552,0,0,0,.022,13.885a12.719,12.719,0,0,0,.6,3.777,1.614,1.614,0,0,0-.559,1.669l1.376,5.133a1.6,1.6,0,0,0,1.955,1.13l1.629-.439a1.592,1.592,0,0,0,1.729.638l2.055-.552a1.6,1.6,0,0,0,1.13-1.955L8.008,16.1a1.6,1.6,0,0,0-1.955-1.13L4,15.527a1.683,1.683,0,0,0-.578.286,9.391,9.391,0,0,1-.2-1.469A1.552,1.552,0,0,0,4.311,13a9.391,9.391,0,0,1,18.618,0,1.57,1.57,0,0,0,1.09,1.343,9.392,9.392,0,0,1-.2,1.469,1.477,1.477,0,0,0-.578-.286l-2.055-.552a1.6,1.6,0,0,0-1.955,1.13L17.3,23.294a1.6,1.6,0,0,0,1.13,1.955l2.055.552a1.6,1.6,0,0,0,1.729-.638l1.629.439a1.6,1.6,0,0,0,1.955-1.13l1.376-5.133a1.59,1.59,0,0,0-.545-1.676ZM4.271,16.551,6.326,16a.535.535,0,0,1,.652.379l1.928,7.188a.536.536,0,0,1-.372.652l-.512.14-.964-3.591a.533.533,0,0,0-1.031.273l.964,3.591-.512.14a.535.535,0,0,1-.652-.379h0L3.9,17.2a.523.523,0,0,1,.372-.652Zm.386,7.6-1.543.412a.535.535,0,0,1-.652-.379L1.086,19.051a.532.532,0,0,1,.339-.638c.013-.007.027-.007.033-.013l1.516-.406c.166.386-.12-.5,1.682,6.157ZM1.1,14.417H2.163a10.77,10.77,0,0,0,.465,2.573L1.6,17.263A12.169,12.169,0,0,1,1.1,14.417ZM23.993,12.9a10.453,10.453,0,0,0-20.732,0,.519.519,0,0,1-.519.452H1.1a12.557,12.557,0,0,1,25.054,0H24.511a.524.524,0,0,1-.519-.452Zm2.161,1.516a11.856,11.856,0,0,1-.512,2.846l-1.024-.273a10.77,10.77,0,0,0,.465-2.573Zm-4.721,9.974h0a.532.532,0,0,1-.652.379l-.512-.14.964-3.591a.533.533,0,1,0-1.031-.273l-.964,3.591-.512-.14a.532.532,0,0,1-.379-.652l1.928-7.188a.531.531,0,0,1,.512-.392.506.506,0,0,1,.14.02l2.055.552a.532.532,0,0,1,.379.652Zm4.734-5.339L24.79,24.185a.532.532,0,0,1-.652.379L22.6,24.151c1.8-6.656,1.516-5.765,1.669-6.157,1.616.432,1.523.406,1.556.419a.539.539,0,0,1,.346.638Zm0,0" transform="translate(-0.009 -0.56)" fill="#fff"/>
            </g>
          </g>
        </g>
      </g>
    </g>
  </g>
</svg>
