<svg xmlns="http://www.w3.org/2000/svg" width="16.616" height="16.641" viewBox="0 0 16.616 16.641">
  <g id="Group_2138" data-name="Group 2138" transform="translate(-302 -38)">
    <g id="Group_2137" data-name="Group 2137" transform="translate(334.59 -289.3)">
      <g id="Group_195" data-name="Group 195" transform="translate(-32.59 327.3)">
        <g id="Path_18" data-name="Path 18">
          <path id="Path_1569" data-name="Path 1569" d="M-16.273,331.059l-2.033-2.951a2.049,2.049,0,0,0-1.624-.807h-8.678a1.929,1.929,0,0,0-1.587.835l-2.023,2.961a1.781,1.781,0,0,0-.371,1.077v9.847a1.951,1.951,0,0,0,1.931,1.921H-17.9a1.923,1.923,0,0,0,1.921-1.912v-9.848A1.877,1.877,0,0,0-16.273,331.059Zm-7.406-2.6h3.74a.788.788,0,0,1,.65.325l1.569,2.293H-23.68Zm-5.56.325a.788.788,0,0,1,.65-.325h3.74v2.617h-5.968Zm12.2,13.5h-.121a.88.88,0,0,1-.158.251.717.717,0,0,1-.529.232H-30.678a.741.741,0,0,1-.743-.724v-9.077a.723.723,0,0,1,.715-.724h12.938a.725.725,0,0,1,.733.715Z" transform="translate(32.59 -327.3)" fill="#fff"/>
        </g>
      </g>
      <path id="Path_19" data-name="Path 19" d="M-21.307,336.5h-5.159a.85.85,0,0,1-.859-.843v-.018h0a.851.851,0,0,1,.843-.859h5.176a.852.852,0,0,1,.859.843v.017h0a.852.852,0,0,1-.842.86Z" transform="translate(-0.378 -0.538)" fill="#d1ad61"/>
    </g>
  </g>
</svg>
