<svg xmlns="http://www.w3.org/2000/svg" xmlns:xlink="http://www.w3.org/1999/xlink" width="39.237" height="39.242" viewBox="0 0 39.237 39.242">
  <defs>
    <filter id="Path_747" x="11.234" y="0" width="28.003" height="39.242" filterUnits="userSpaceOnUse">
      <feOffset dy="3" input="SourceAlpha"/>
      <feGaussianBlur stdDeviation="3" result="blur"/>
      <feFlood flood-opacity="0.161"/>
      <feComposite operator="in" in2="blur"/>
      <feComposite in="SourceGraphic"/>
    </filter>
    <filter id="Path_748" x="3.892" y="16.075" width="24.109" height="23.167" filterUnits="userSpaceOnUse">
      <feOffset dy="3" input="SourceAlpha"/>
      <feGaussianBlur stdDeviation="3" result="blur-2"/>
      <feFlood flood-opacity="0.161"/>
      <feComposite operator="in" in2="blur-2"/>
      <feComposite in="SourceGraphic"/>
    </filter>
    <filter id="Path_749" x="7.505" y="6.265" width="25.473" height="26.709" filterUnits="userSpaceOnUse">
      <feOffset dy="3" input="SourceAlpha"/>
      <feGaussianBlur stdDeviation="3" result="blur-3"/>
      <feFlood flood-opacity="0.161"/>
      <feComposite operator="in" in2="blur-3"/>
      <feComposite in="SourceGraphic"/>
    </filter>
    <filter id="Path_750" x="3.894" y="0" width="24.103" height="23.164" filterUnits="userSpaceOnUse">
      <feOffset dy="3" input="SourceAlpha"/>
      <feGaussianBlur stdDeviation="3" result="blur-4"/>
      <feFlood flood-opacity="0.161"/>
      <feComposite operator="in" in2="blur-4"/>
      <feComposite in="SourceGraphic"/>
    </filter>
    <filter id="Path_751" x="0.003" y="3.895" width="23.161" height="24.104" filterUnits="userSpaceOnUse">
      <feOffset dy="3" input="SourceAlpha"/>
      <feGaussianBlur stdDeviation="3" result="blur-5"/>
      <feFlood flood-opacity="0.161"/>
      <feComposite operator="in" in2="blur-5"/>
      <feComposite in="SourceGraphic"/>
    </filter>
    <filter id="Path_752" x="0" y="11.241" width="23.164" height="24.105" filterUnits="userSpaceOnUse">
      <feOffset dy="3" input="SourceAlpha"/>
      <feGaussianBlur stdDeviation="3" result="blur-6"/>
      <feFlood flood-opacity="0.161"/>
      <feComposite operator="in" in2="blur-6"/>
      <feComposite in="SourceGraphic"/>
    </filter>
  </defs>
  <g id="Group_2881" data-name="Group 2881" transform="translate(9 6)">
    <g transform="matrix(1, 0, 0, 1, -9, -6)" filter="url(#Path_747)">
      <path id="Path_747-2" data-name="Path 747" d="M1634.608-483.194a.77.77,0,0,1-.462-.815c.019-.781.005-1.562.006-2.344a.651.651,0,0,1,.617-.74,6.817,6.817,0,0,0,5.51-5.574,6.837,6.837,0,0,0-5.483-7.868.662.662,0,0,1-.644-.778c0-.823,0-1.646,0-2.468a.625.625,0,0,1,.75-.646,10.386,10.386,0,0,1,6.138,3.092,10.617,10.617,0,0,1,3.031,6.305c.024.2.051.4.076.593v1.245c-.058.43-.1.863-.176,1.289a10.773,10.773,0,0,1-7.882,8.466c-.38.1-.767.163-1.151.244Z" transform="translate(-1613.91 510.44)" fill="#fff"/>
    </g>
    <g transform="matrix(1, 0, 0, 1, -9, -6)" filter="url(#Path_748)">
      <path id="Path_748-2" data-name="Path 748" d="M1506.946-209.183c-.354-.081-.711-.153-1.062-.245a11.088,11.088,0,0,1-3.953-2.019.6.6,0,0,1-.062-.942q.872-.886,1.758-1.759a.6.6,0,0,1,.811-.079,7.134,7.134,0,0,0,2.8,1.165.613.613,0,0,1,.532.682c0,.794-.012,1.589.006,2.383a.77.77,0,0,1-.462.815Z" transform="translate(-1488.78 236.43)" fill="#fff"/>
    </g>
    <g transform="matrix(1, 0, 0, 1, -9, -6)" filter="url(#Path_749)">
      <path id="Path_749-2" data-name="Path 749" d="M1566.859-387.04c0-1.21,0-2.42,0-3.629a.659.659,0,0,1,.314-.632.643.643,0,0,1,.7.044q3.036,1.825,6.074,3.647a.63.63,0,0,1,0,1.156q-3.044,1.831-6.093,3.655a.624.624,0,0,1-1-.569Q1566.856-385.205,1566.859-387.04Z" transform="translate(-1550.35 403.65)" fill="#fff"/>
    </g>
    <g transform="matrix(1, 0, 0, 1, -9, -6)" filter="url(#Path_750)">
      <path id="Path_750-2" data-name="Path 750" d="M1507.8-502.494c0,.421,0,.843,0,1.264a.623.623,0,0,1-.558.683,6.985,6.985,0,0,0-2.749,1.138.619.619,0,0,1-.876-.093q-.844-.841-1.685-1.685a.622.622,0,0,1,.077-1.025,10.814,10.814,0,0,1,4.691-2.157c.129-.023.259-.047.389-.06a.618.618,0,0,1,.709.628C1507.8-503.364,1507.8-502.929,1507.8-502.494Z" transform="translate(-1488.8 510.43)" fill="#fff"/>
    </g>
    <g transform="matrix(1, 0, 0, 1, -9, -6)" filter="url(#Path_751)">
      <path id="Path_751-2" data-name="Path 751" d="M1433.408-428.053c-.415,0-.83,0-1.244,0a.635.635,0,0,1-.665-.79,10.743,10.743,0,0,1,2.234-5.038.611.611,0,0,1,.971-.067q.871.859,1.731,1.73a.609.609,0,0,1,.08.846,7,7,0,0,0-1.148,2.772.617.617,0,0,1-.673.546C1434.265-428.05,1433.837-428.053,1433.408-428.053Z" transform="translate(-1422.48 444.05)" fill="#fff"/>
    </g>
    <g transform="matrix(1, 0, 0, 1, -9, -6)" filter="url(#Path_752)">
      <path id="Path_752-2" data-name="Path 752" d="M1433.375-301.579c.422,0,.843,0,1.265,0a.616.616,0,0,1,.673.545,7.007,7.007,0,0,0,1.148,2.772.608.608,0,0,1-.079.846q-.861.87-1.731,1.73a.612.612,0,0,1-.972-.066,10.866,10.866,0,0,1-2.188-4.751c-.021-.116-.039-.232-.053-.348a.622.622,0,0,1,.631-.727C1432.5-301.583,1432.939-301.579,1433.375-301.579Z" transform="translate(-1422.43 318.82)" fill="#fff"/>
    </g>
  </g>
</svg>
