<svg xmlns="http://www.w3.org/2000/svg" width="32.901" height="37.359" viewBox="0 0 32.901 37.359">
  <g id="Group_3003" data-name="Group 3003" transform="translate(-269.201 -967.295)">
    <path id="Path_705" data-name="Path 705" d="M285.377,1004.654a1.771,1.771,0,0,1-.887-.954c-.582-1.2-1.2-2.387-1.782-3.586a.566.566,0,0,0-.427-.332c-5.995-1.422-10.178-4.989-12.133-10.827-2.022-6.04-.773-11.563,3.453-16.337a15.711,15.711,0,0,1,8.817-4.989,16.262,16.262,0,0,1,4.965-.247c.331.034.658.1.987.153.226.165.509.12.756.207a11.871,11.871,0,0,1,4.628,2.38,16.376,16.376,0,0,1,5.421,8.29,18.19,18.19,0,0,1,.729,6.38,17.725,17.725,0,0,1-4.279,10.931,13,13,0,0,1-4.43,3.382c-.161.073-.361.072-.48.231a9.126,9.126,0,0,1-1.7.475.506.506,0,0,0-.386.317c-.606,1.225-1.231,2.441-1.826,3.671a1.5,1.5,0,0,1-.913.856Z" fill="#fff"/>
    <path id="Path_706" data-name="Path 706" d="M474.931,1003.087c-.16-.182.071-.149.112-.166a11.108,11.108,0,0,0,1.608-.847,14.231,14.231,0,0,0,3.3-2.881,15.827,15.827,0,0,0,2.349-3.662,18.529,18.529,0,0,0,1.526-5.1,18.961,18.961,0,0,0,.2-3.914,18.2,18.2,0,0,0-1.535-6.534,16.726,16.726,0,0,0-2.117-3.552,13.982,13.982,0,0,0-6.877-4.847,1.078,1.078,0,0,0-.179-.025c.022-.182.137-.091.225-.076a12.888,12.888,0,0,1,3.493,1.207,16.163,16.163,0,0,1,8.936,11.514,16.427,16.427,0,0,1-10.934,18.862A.611.611,0,0,1,474.931,1003.087Z" transform="translate(-184.218 -3.752)" fill="#ababab"/>
  </g>
</svg>
