<svg xmlns="http://www.w3.org/2000/svg" width="21.132" height="22.29" viewBox="0 0 21.132 22.29">
  <g id="Group_351" data-name="Group 351" transform="translate(-4870.43 -608.208)">
    <g id="Group_57" data-name="Group 57">
      <path id="Path_118" data-name="Path 118" d="M4883.22,612.4c-.28-.06-.56-.1-.85-.14a1.5,1.5,0,0,0-.21-.02,11.191,11.191,0,0,0-3.95.29,11,11,0,0,0-4.4,2.23,11.2,11.2,0,0,0-3.3,4.45.971.971,0,0,1-.08.14v.08c.03.05.06.1.09.16.33.62.62,1.28,1,1.87a11.056,11.056,0,0,0,4.52,4,11.164,11.164,0,0,0,2.07.77,9.217,9.217,0,0,0,.91.2l.88-2.37a3.652,3.652,0,0,1-.88-.3,3.708,3.708,0,0,1-.9-.54,4.8,4.8,0,0,1,1.92-8.54,4.435,4.435,0,0,1,.97-.1,2.711,2.711,0,0,1,.29.01,4.433,4.433,0,0,1,1.04.18,4.271,4.271,0,0,1,.86.34l.93-2.49A9.3,9.3,0,0,0,4883.22,612.4Zm7.72,5.61a11.257,11.257,0,0,0-5.83-5.06l-1.01,2.75a4.03,4.03,0,0,1,.3.29,4.568,4.568,0,0,1,.46.52v.01a3.248,3.248,0,0,1,.38.58,4.823,4.823,0,0,1,.58,2.28,4.774,4.774,0,0,1-.82,2.69,4.056,4.056,0,0,1-.59.71,4.736,4.736,0,0,1-3.39,1.42h-.06l-.87,2.36a11.368,11.368,0,0,0,6.72-1.55,11.27,11.27,0,0,0,4.73-5.49.389.389,0,0,0,0-.26C4891.35,618.84,4891.16,618.41,4890.94,618.01Z" fill="#717171"/>
      <path id="Path_119" data-name="Path 119" d="M4882.34,614.77a4.433,4.433,0,0,0-1.04-.18,2.711,2.711,0,0,0-.29-.01,5.232,5.232,0,0,0-.97.1,4.8,4.8,0,0,0-1.92,8.54,3.708,3.708,0,0,0,.9.54,3.652,3.652,0,0,0,.88.3l.67-1.82-.15-.03a2.73,2.73,0,0,1-.27-.07,2.037,2.037,0,0,1-.46-.19,1.7,1.7,0,0,1-.29-.17,3.467,3.467,0,0,1-.42-.34.031.031,0,0,1-.01-.02,1.8,1.8,0,0,1-.14-.14v-.01a1.3,1.3,0,0,1-.18-.23.242.242,0,0,1-.06-.09,2.228,2.228,0,0,1-.23-.43,2.974,2.974,0,0,1-.18-.6,2.732,2.732,0,0,1-.05-.51v-.04a2.594,2.594,0,0,1,.06-.56c.01,0,.01-.01,0-.02a2.431,2.431,0,0,1,.17-.52v-.01a2.4,2.4,0,0,1,.43-.7v-.01c.07-.07.13-.14.19-.2a1.782,1.782,0,0,1,.2-.19,2.463,2.463,0,0,1,.46-.31,2.976,2.976,0,0,1,.94-.31v-.01a.659.659,0,0,1,.14-.01,1.363,1.363,0,0,1,.29-.02,3.006,3.006,0,0,1,1.52.43l.67-1.82A4.271,4.271,0,0,0,4882.34,614.77Zm.19,2.16v.01a.407.407,0,0,1,.09.05A.474.474,0,0,0,4882.53,616.93Zm1.38,2.45a2.893,2.893,0,0,0-.02-.29c.01.1.01.2.01.3a3.027,3.027,0,0,1-.22,1.12A2.855,2.855,0,0,0,4883.91,619.38Zm-2.009,2.745a3.264,3.264,0,0,0,.419-.155A2.913,2.913,0,0,1,4881.9,622.125Zm-.2.075c.071-.016.133-.053.2-.075a1.851,1.851,0,0,1-.2.055Z" fill="#fff" opacity="0.02" style="mix-blend-mode: normal;isolation: isolate"/>
      <path id="Path_615" data-name="Path 615" d="M4882.53,616.94l-1.96,5.3-.15-.03a2.73,2.73,0,0,1-.27-.07,2.037,2.037,0,0,1-.46-.19,1.7,1.7,0,0,1-.29-.17,3.467,3.467,0,0,1-.42-.34.031.031,0,0,1-.01-.02,1.8,1.8,0,0,1-.14-.14,2.176,2.176,0,0,1-.18-.24.242.242,0,0,1-.06-.09,2.228,2.228,0,0,1-.23-.43,2.974,2.974,0,0,1-.18-.6,2.732,2.732,0,0,1-.05-.51v-.04a3.452,3.452,0,0,1,.06-.56c.01,0,.01-.01,0-.02a4.606,4.606,0,0,1,.17-.52c.01,0,.01,0,0-.01a3.563,3.563,0,0,1,.43-.7c.01-.01,0-.01,0-.01a4.752,4.752,0,0,1,.39-.39,4.607,4.607,0,0,1,.46-.31,2.976,2.976,0,0,1,.94-.31,2.025,2.025,0,0,1,.43-.04,3.006,3.006,0,0,1,1.52.43.474.474,0,0,1,.09.06A.407.407,0,0,0,4882.53,616.94Z" fill="#717171"/>
      <path id="Path_616" data-name="Path 616" d="M4883.91,619.38a2.855,2.855,0,0,1-.23,1.13,2.7,2.7,0,0,1-.43.71,2.955,2.955,0,0,1-.39.4,2.372,2.372,0,0,1-.54.35,3.264,3.264,0,0,1-.419.155c-.068.022-.13.059-.2.075v-.02l1.66-4.48a2.517,2.517,0,0,1,.19.31,1.911,1.911,0,0,1,.22.51v.01a2.568,2.568,0,0,1,.12.55v.01A2.893,2.893,0,0,1,4883.91,619.38Z" fill="#717171"/>
    </g>
    <path id="Path_617" data-name="Path 617" d="M4885.882,608.888l-1.15,3.13-.93,2.49-.67,1.82v.01l-1.96,5.3-.67,1.82-.88,2.37-1.7,4.61-.02.06-1.84-.68,1.66-4.5,1-2.7.71-1.94v-.01l1.75-4.73v-.01l.72-1.94.86-2.35,1.27-3.43.98.36Z" fill="#717171"/>
    <path id="Path_618" data-name="Path 618" d="M4884.07,615.68c.01.01.02.02.03.02l-.01.01C4884.09,615.7,4884.08,615.69,4884.07,615.68Z"/>
  </g>
</svg>
