<svg xmlns="http://www.w3.org/2000/svg" width="21.132" height="14.422" viewBox="0 0 21.132 14.422">
  <g id="Group_57" data-name="Group 57" transform="translate(-594.56 -152.366)">
    <path id="Path_118" data-name="Path 118" d="M594.56,159.535a1.337,1.337,0,0,0,.079-.141,11.333,11.333,0,0,1,3.3-4.451,11.17,11.17,0,0,1,4.4-2.229,11.339,11.339,0,0,1,4.159-.266,11.339,11.339,0,0,1,8.568,5.751c.224.4.409.825.6,1.244a.372.372,0,0,1,0,.266,11.309,11.309,0,0,1-4.726,5.49,11.007,11.007,0,0,1-4.647,1.53,11.215,11.215,0,0,1-6.119-1.084,11.052,11.052,0,0,1-4.526-4c-.382-.592-.671-1.245-1-1.87-.029-.054-.058-.107-.087-.16Zm10.589,4.848a4.807,4.807,0,1,0-4.811-4.808A4.807,4.807,0,0,0,605.149,164.383Z" fill="#717171"/>
    <path id="Path_119" data-name="Path 119" d="M701.665,204.527a4.807,4.807,0,1,1,4.8-4.816A4.808,4.808,0,0,1,701.665,204.527Zm-.01-7.7a2.888,2.888,0,1,0,2.895,2.892A2.9,2.9,0,0,0,701.654,196.832Z" transform="translate(-96.516 -40.144)" fill="#fff" opacity="0.02"/>
    <path id="Path_120" data-name="Path 120" d="M733.7,228.875a2.888,2.888,0,1,1-2.882,2.885A2.9,2.9,0,0,1,733.7,228.875Z" transform="translate(-128.558 -72.186)" fill="#717171"/>
  </g>
</svg>
