<svg xmlns="http://www.w3.org/2000/svg" width="16.08" height="16.08" viewBox="0 0 16.08 16.08">
  <g id="Group_2319" data-name="Group 2319" transform="translate(0 0)">
    <path id="Path_1917" data-name="Path 1917" d="M627.618,72.618a6.254,6.254,0,0,1,8.838-.006l-2.629,2.641,6.253-.03L640.05,69l-2.334,2.346A8.04,8.04,0,0,0,624,77.04h1.787A6.231,6.231,0,0,1,627.618,72.618Z" transform="translate(-624 -69)" fill="#aaaeb5"/>
    <path id="Path_1918" data-name="Path 1918" d="M636.462,82.422A6.231,6.231,0,0,0,638.293,78h1.787a8.04,8.04,0,0,1-13.716,5.694l-2.334,2.346L624,79.816l6.253-.03-2.629,2.641A6.254,6.254,0,0,0,636.462,82.422Z" transform="translate(-624 -69.96)" fill="#aaaeb5"/>
  </g>
</svg>
