<svg xmlns="http://www.w3.org/2000/svg" width="58" height="57" viewBox="0 0 58 57">
  <g id="Group_301" data-name="Group 301" transform="translate(-72 -206)">
    <ellipse id="Ellipse_12" data-name="Ellipse 12" cx="29" cy="28.5" rx="29" ry="28.5" transform="translate(72 206)" fill="#1e4e5f" opacity="0.18"/>
    <g id="Group_300" data-name="Group 300" transform="translate(-5894.091 -1569.216)">
      <path id="Path_514" data-name="Path 514" d="M6006.171,1947.887v7.636a.656.656,0,0,0-.038.1,2.612,2.612,0,0,1-2.665,2.2q-8.791,0-17.582,0a2.623,2.623,0,0,1-2.713-2.722q0-3.48,0-6.96v-.254c.084.024.141.039.2.058,3.467,1.154,6.935,2.3,10.4,3.47a2.723,2.723,0,0,0,1.816,0Q6000.872,1949.637,6006.171,1947.887Z" transform="translate(-0.077 -144.45)" fill="#1e4e5f"/>
      <path id="Path_515" data-name="Path 515" d="M6006.093,1801.91q-2.061.693-4.122,1.385c-2.318.774-4.639,1.541-6.954,2.32a1.258,1.258,0,0,1-.849,0q-5.408-1.814-10.825-3.605a.306.306,0,0,1-.252-.361c.014-.621,0-1.242,0-1.864a2.622,2.622,0,0,1,2.681-2.687c1.564-.006,3.129,0,4.694,0h.3c0-.35-.008-.677,0-1a1.889,1.889,0,0,1,1.525-1.832,2.116,2.116,0,0,1,.425-.037c1.25,0,2.5-.007,3.75,0a1.89,1.89,0,0,1,1.915,1.536,2.737,2.737,0,0,1,.037.491c.006.269,0,.537,0,.846h.272c1.534,0,3.07.027,4.6-.008a2.665,2.665,0,0,1,2.759,2.227.4.4,0,0,0,.034.083Zm-13.407-4.834h3.813v-.928h-3.813Z" transform="translate(0 0)" fill="#1e4e5f"/>
    </g>
  </g>
</svg>
