<svg xmlns="http://www.w3.org/2000/svg" width="19.315" height="19.268" viewBox="0 0 19.315 19.268">
  <g id="Group_2500" data-name="Group 2500" transform="translate(0 0)">
    <path id="Path_11233" data-name="Path 11233" d="M57.715,301.535a7.848,7.848,0,0,0-2.659-6.01,1.011,1.011,0,0,1-.382-1.081A.951.951,0,0,1,56.247,294a9.546,9.546,0,0,1,2.684,3.74,9.715,9.715,0,0,1-6.5,13.014,9.683,9.683,0,0,1-10.1-15.222,11.272,11.272,0,0,1,1.359-1.472.94.94,0,0,1,1.388.033.964.964,0,0,1-.1,1.391A7.778,7.778,0,0,0,48.7,309.021a7.673,7.673,0,0,0,8.885-6.334C57.66,302.25,57.686,301.806,57.715,301.535Z" transform="translate(-40.322 -291.806)" fill="red"/>
    <path id="Path_11234" data-name="Path 11234" d="M186.642,266.468c0,1.272.005,2.543,0,3.815a.958.958,0,0,1-1.272.951.939.939,0,0,1-.642-.845c-.012-.263-.006-.526-.006-.79q0-3.442,0-6.884a1.612,1.612,0,0,1,.04-.424.946.946,0,0,1,1.058-.682.935.935,0,0,1,.818.932c.009,1.309,0,2.618,0,3.927Z" transform="translate(-176.007 -261.602)" fill="red"/>
  </g>
</svg>
