<svg xmlns="http://www.w3.org/2000/svg" width="23.902" height="23.902" viewBox="0 0 23.902 23.902">
  <g id="Group_3017" data-name="Group 3017" transform="translate(-43 -165.89)">
    <path id="Path_11292" data-name="Path 11292" d="M54.2,165.89H55.7a1.282,1.282,0,0,0,.18.038,11.7,11.7,0,0,1,1.841.284,11.954,11.954,0,0,1,9,9.569c.073.436.121.875.181,1.313v1.494a1.226,1.226,0,0,0-.038.18,11.892,11.892,0,0,1-9.83,10.839c-.443.072-.89.123-1.335.184H54.2a.944.944,0,0,0-.156-.037,12.282,12.282,0,0,1-1.637-.235,11.973,11.973,0,0,1-9.224-9.573c-.073-.451-.125-.906-.187-1.359v-1.494c.086-.528.126-1.061.226-1.588a11.971,11.971,0,0,1,9.643-9.432C53.312,166,53.759,165.951,54.2,165.89Zm.739,22.5A10.55,10.55,0,1,0,44.4,177.827,10.569,10.569,0,0,0,54.943,188.391Z" transform="translate(0 0)" fill="#fff"/>
    <path id="Path_11293" data-name="Path 11293" d="M117.879,249.633a8.87,8.87,0,1,1,8.865-8.863A8.886,8.886,0,0,1,117.879,249.633Zm0-16.339a7.469,7.469,0,1,0,7.463,7.469A7.481,7.481,0,0,0,117.88,233.294Z" transform="translate(-62.923 -62.923)" fill="#fff"/>
    <path id="Path_11294" data-name="Path 11294" d="M179.62,311.75c.1-.588.193-1.144.288-1.7.114-.666.228-1.333.348-2a.329.329,0,0,0-.117-.326q-1.242-1.2-2.476-2.408c-.055-.054-.118-.1-.229-.193.492-.073.915-.137,1.339-.2.792-.115,1.584-.233,2.377-.34a.379.379,0,0,0,.321-.248c.5-1.02,1-2.036,1.5-3.053.037-.075.078-.148.12-.226.1.049.11.141.145.212.5,1.016,1.009,2.032,1.5,3.053a.417.417,0,0,0,.359.263c1.124.155,2.246.32,3.369.482.082.012.164.032.263.052-.143.147-.268.283-.4.411-.74.723-1.478,1.448-2.226,2.163a.418.418,0,0,0-.132.43c.2,1.124.392,2.251.585,3.377.012.068.016.137.025.212a.478.478,0,0,1-.257-.1c-1.012-.53-2.024-1.059-3.031-1.6a.359.359,0,0,0-.384.008c-1.015.541-2.033,1.075-3.05,1.61C179.795,311.671,179.725,311.7,179.62,311.75Zm3.489-7.573c-.206.418-.415.768-.555,1.144a.827.827,0,0,1-.837.6,10.851,10.851,0,0,0-1.172.168c.341.361.666.727,1.018,1.065a.517.517,0,0,1,.177.546c-.1.482-.172.971-.262,1.5.507-.266.976-.506,1.437-.759a.349.349,0,0,1,.385-.005c.317.18.644.343.967.512l.472.247c-.087-.516-.149-.986-.25-1.447a.58.58,0,0,1,.2-.627c.351-.325.662-.693.987-1.039-.482-.071-.994-.156-1.51-.215a.384.384,0,0,1-.346-.25C183.6,305.15,183.362,304.69,183.109,304.177Z" transform="translate(-128.158 -128.86)" fill="#fff"/>
  </g>
</svg>
