<svg xmlns="http://www.w3.org/2000/svg" width="12.746" height="13.283" viewBox="0 0 12.746 13.283">
  <path id="Path_334" data-name="Path 334" d="M225.12,1012.367a5.571,5.571,0,0,1-8.018-.876,6.133,6.133,0,0,1,.268-7.856,5.532,5.532,0,0,1,7.584-.68,5.838,5.838,0,0,1,2.247,4.014,6.064,6.064,0,0,1-1.227,4.5.938.938,0,0,1,.152.106q1.1,1.144,2.2,2.292a.691.691,0,0,1,.209.645.628.628,0,0,1-1.04.365c-.064-.057-.122-.122-.181-.184q-1.054-1.1-2.107-2.2A1.052,1.052,0,0,1,225.12,1012.367Zm.86-4.639a4.455,4.455,0,1,0-4.458,4.633A4.537,4.537,0,0,0,225.981,1007.728Z" transform="translate(-215.81 -1001.758)" fill="#fff"/>
</svg>
