<svg xmlns="http://www.w3.org/2000/svg" width="24.984" height="24.994" viewBox="0 0 24.984 24.994">
  <g id="Group_2527" data-name="Group 2527" transform="translate(-5069.916 -1289.751)">
    <path id="Path_492" data-name="Path 492" d="M5252.593,1330.816a.613.613,0,1,1,.6.638A.619.619,0,0,1,5252.593,1330.816Z" transform="translate(-170.791 -40.278)" fill="#070707" stroke="#070707" stroke-width="0.4"/>
    <path id="Path_493" data-name="Path 493" d="M5178.425,1405.726c-.826-1.254-1.659-2.5-2.483-3.759a1.335,1.335,0,0,0-1.205-.647c-1.352.009-2.7,0-4.054,0s-2.7,0-4.051,0a1.308,1.308,0,0,0-1.183.632c-.8,1.231-1.622,2.455-2.432,3.683a1.3,1.3,0,0,0,.125,1.83q3.281,3.736,6.568,7.468a1.2,1.2,0,0,0,1.952.014c2.259-2.5,4.451-5.05,6.664-7.586A1.256,1.256,0,0,0,5178.425,1405.726Zm-9-2.65c.147-.526.149-.524.7-.524.491,0,.981,0,1.472,0,.116,0,.218-.01.26.142.289,1.051.583,2.1.882,3.166h-4.093C5168.906,1404.918,5169.162,1404,5169.42,1403.075Zm-2.968-.414a.21.21,0,0,1,.2-.112c.541,0,1.08,0,1.645,0-.3,1.075-.6,2.123-.89,3.175-.035.126-.1.147-.22.147-.929,0-1.86,0-2.853,0C5165.061,1404.77,5165.758,1403.716,5166.453,1402.661Zm2.79,9.884-4.741-5.392c.073-.094.162-.051.234-.051.809,0,1.614,0,2.423,0,.122,0,.229-.016.285.15q.9,2.615,1.811,5.225C5169.26,1412.488,5169.249,1412.509,5169.243,1412.545Zm1.448.307-.623-1.8c-.428-1.232-.853-2.464-1.291-3.692-.079-.223-.047-.271.19-.269,1.225.01,2.452.005,3.723.005C5172.022,1409.021,5171.372,1410.89,5170.69,1412.851Zm1.542-.376-.087-.057q.189-.541.377-1.084c.456-1.319.916-2.638,1.365-3.96a.336.336,0,0,1,.384-.281c.858.017,1.717.007,2.659.007C5175.338,1408.921,5173.786,1410.7,5172.232,1412.475Zm1.986-6.6c-.123,0-.207-.006-.246-.152-.291-1.051-.587-2.1-.887-3.169.558,0,1.089,0,1.622,0a.215.215,0,0,1,.208.091l2.131,3.23C5176.059,1405.87,5175.139,1405.869,5174.218,1405.872Z" transform="translate(-88.275 -105.533)" fill="#070707" stroke="#070707" stroke-width="0.4"/>
    <path id="Path_494" data-name="Path 494" d="M5135.012,1346.3a12.285,12.285,0,1,1-15.362-11.889c.478-.125.83.023.922.387a.611.611,0,0,1-.509.771,11.093,11.093,0,0,0-2.856,1.155,10.577,10.577,0,0,0-5.4,7.99,10.685,10.685,0,0,0,5.067,10.951,11.049,11.049,0,1,0,8.723-20.04l-.177-.048c-.436-.122-.635-.405-.54-.776a.637.637,0,0,1,.86-.4,12.3,12.3,0,0,1,9.269,11.9Z" transform="translate(-40.312 -44.073)" fill="#070707" stroke="#070707" stroke-width="0.4"/>
    <path id="Path_498" data-name="Path 498" d="M5252.593,1330.816a.613.613,0,1,1,.6.638A.619.619,0,0,1,5252.593,1330.816Z" transform="translate(-170.791 -40.278)" fill="#070707" stroke="#070707" stroke-width="0.4"/>
    <path id="Path_499" data-name="Path 499" d="M5178.425,1405.726c-.826-1.254-1.659-2.5-2.483-3.759a1.335,1.335,0,0,0-1.205-.647c-1.352.009-2.7,0-4.054,0s-2.7,0-4.051,0a1.308,1.308,0,0,0-1.183.632c-.8,1.231-1.622,2.455-2.432,3.683a1.3,1.3,0,0,0,.125,1.83q3.281,3.736,6.568,7.468a1.2,1.2,0,0,0,1.952.014c2.259-2.5,4.451-5.05,6.664-7.586A1.256,1.256,0,0,0,5178.425,1405.726Zm-9-2.65c.147-.526.149-.524.7-.524.491,0,.981,0,1.472,0,.116,0,.218-.01.26.142.289,1.051.583,2.1.882,3.166h-4.093C5168.906,1404.918,5169.162,1404,5169.42,1403.075Zm-2.968-.414a.21.21,0,0,1,.2-.112c.541,0,1.08,0,1.645,0-.3,1.075-.6,2.123-.89,3.175-.035.126-.1.147-.22.147-.929,0-1.86,0-2.853,0C5165.061,1404.77,5165.758,1403.716,5166.453,1402.661Zm2.79,9.884-4.741-5.392c.073-.094.162-.051.234-.051.809,0,1.614,0,2.423,0,.122,0,.229-.016.285.15q.9,2.615,1.811,5.225C5169.26,1412.488,5169.249,1412.509,5169.243,1412.545Zm1.448.307-.623-1.8c-.428-1.232-.853-2.464-1.291-3.692-.079-.223-.047-.271.19-.269,1.225.01,2.452.005,3.723.005C5172.022,1409.021,5171.372,1410.89,5170.69,1412.851Zm1.542-.376-.087-.057q.189-.541.377-1.084c.456-1.319.916-2.638,1.365-3.96a.336.336,0,0,1,.384-.281c.858.017,1.717.007,2.659.007C5175.338,1408.921,5173.786,1410.7,5172.232,1412.475Zm1.986-6.6c-.123,0-.207-.006-.246-.152-.291-1.051-.587-2.1-.887-3.169.558,0,1.089,0,1.622,0a.215.215,0,0,1,.208.091l2.131,3.23C5176.059,1405.87,5175.139,1405.869,5174.218,1405.872Z" transform="translate(-88.275 -105.533)" fill="#070707" stroke="#070707" stroke-width="0.4"/>
    <path id="Path_500" data-name="Path 500" d="M5135.012,1346.3a12.285,12.285,0,1,1-15.362-11.889c.478-.125.83.023.922.387a.611.611,0,0,1-.509.771,11.093,11.093,0,0,0-2.856,1.155,10.577,10.577,0,0,0-5.4,7.99,10.685,10.685,0,0,0,5.067,10.951,11.049,11.049,0,1,0,8.723-20.04l-.177-.048c-.436-.122-.635-.405-.54-.776a.637.637,0,0,1,.86-.4,12.3,12.3,0,0,1,9.269,11.9Z" transform="translate(-40.312 -44.073)" fill="#070707" stroke="#070707" stroke-width="0.4"/>
    <path id="Path_501" data-name="Path 501" d="M5178.425,1405.726c-.826-1.254-1.659-2.5-2.483-3.759a1.335,1.335,0,0,0-1.205-.647c-1.352.009-2.7,0-4.054,0s-2.7,0-4.051,0a1.308,1.308,0,0,0-1.183.632c-.8,1.231-1.622,2.455-2.432,3.683a1.3,1.3,0,0,0,.125,1.83q3.281,3.736,6.568,7.468a1.2,1.2,0,0,0,1.952.014c2.259-2.5,4.451-5.05,6.664-7.586A1.256,1.256,0,0,0,5178.425,1405.726Zm-9-2.65c.147-.526.149-.524.7-.524.491,0,.981,0,1.472,0,.116,0,.218-.01.26.142.289,1.051.583,2.1.882,3.166h-4.093C5168.906,1404.918,5169.162,1404,5169.42,1403.075Zm-2.968-.414a.21.21,0,0,1,.2-.112c.541,0,1.08,0,1.645,0-.3,1.075-.6,2.123-.89,3.175-.035.126-.1.147-.22.147-.929,0-1.86,0-2.853,0C5165.061,1404.77,5165.758,1403.716,5166.453,1402.661Zm2.79,9.884-4.741-5.392c.073-.094.162-.051.234-.051.809,0,1.614,0,2.423,0,.122,0,.229-.016.285.15q.9,2.615,1.811,5.225C5169.26,1412.488,5169.249,1412.509,5169.243,1412.545Zm1.448.307-.623-1.8c-.428-1.232-.853-2.464-1.291-3.692-.079-.223-.047-.271.19-.269,1.225.01,2.452.005,3.723.005C5172.022,1409.021,5171.372,1410.89,5170.69,1412.851Zm1.542-.376-.087-.057q.189-.541.377-1.084c.456-1.319.916-2.638,1.365-3.96a.336.336,0,0,1,.384-.281c.858.017,1.717.007,2.659.007C5175.338,1408.921,5173.786,1410.7,5172.232,1412.475Zm1.986-6.6c-.123,0-.207-.006-.246-.152-.291-1.051-.587-2.1-.887-3.169.558,0,1.089,0,1.622,0a.215.215,0,0,1,.208.091l2.131,3.23C5176.059,1405.87,5175.139,1405.869,5174.218,1405.872Z" transform="translate(-88.275 -105.533)" fill="#070707" stroke="#070707" stroke-width="0.4"/>
    <path id="Path_502" data-name="Path 502" d="M5135.012,1346.3a12.285,12.285,0,1,1-15.362-11.889c.478-.125.83.023.922.387a.611.611,0,0,1-.509.771,11.093,11.093,0,0,0-2.856,1.155,10.577,10.577,0,0,0-5.4,7.99,10.685,10.685,0,0,0,5.067,10.951,11.049,11.049,0,1,0,8.723-20.04l-.177-.048c-.436-.122-.635-.405-.54-.776a.637.637,0,0,1,.86-.4,12.3,12.3,0,0,1,9.269,11.9Z" transform="translate(-40.312 -44.073)" fill="#070707" stroke="#070707" stroke-width="0.4"/>
    <path id="Path_503" data-name="Path 503" d="M5253.819,1330.837a.613.613,0,1,1-.6-.608A.619.619,0,0,1,5253.819,1330.837Z" transform="translate(-170.791 -40.278)" fill="#070707" stroke="#070707" stroke-width="0.4"/>
  </g>
</svg>
