<svg xmlns="http://www.w3.org/2000/svg" width="19.735" height="17.318" viewBox="0 0 19.735 17.318">
  <g id="Group_265" data-name="Group 265" transform="translate(-5070.134 -1289.951)">
    <path id="Path_492" data-name="Path 492" d="M5252.594,1330.643a.432.432,0,1,1,.425.45A.436.436,0,0,1,5252.594,1330.643Z" transform="translate(-174.237 -40.278)" fill="#fff"/>
    <path id="Path_493" data-name="Path 493" d="M5173.781,1404.425c-.582-.884-1.169-1.764-1.75-2.649a.94.94,0,0,0-.849-.456c-.953.007-1.9,0-2.857,0s-1.9,0-2.855,0a.922.922,0,0,0-.833.445c-.566.868-1.143,1.73-1.714,2.6a.916.916,0,0,0,.088,1.29q2.312,2.633,4.628,5.262a.844.844,0,0,0,1.375.01c1.592-1.759,3.136-3.559,4.7-5.346A.885.885,0,0,0,5173.781,1404.425Zm-6.345-1.868c.1-.37.1-.37.495-.37.346,0,.691,0,1.037,0,.082,0,.153-.007.183.1.2.74.411,1.48.622,2.231h-2.884C5167.073,1403.855,5167.253,1403.206,5167.436,1402.557Zm-2.092-.292a.149.149,0,0,1,.139-.079c.381,0,.761,0,1.159,0-.213.758-.423,1.5-.627,2.237-.024.089-.073.1-.155.1-.655,0-1.312,0-2.01,0C5164.363,1403.751,5164.854,1403.008,5165.344,1402.265Zm1.966,6.965-3.341-3.8c.052-.066.114-.036.166-.036.57,0,1.137,0,1.707,0,.086,0,.161-.011.2.106.422,1.229.85,2.455,1.276,3.682C5167.322,1409.19,5167.314,1409.2,5167.31,1409.23Zm1.02.216-.438-1.266c-.3-.868-.6-1.736-.91-2.6-.056-.157-.033-.191.134-.189.863.007,1.728,0,2.623,0C5169.269,1406.747,5168.81,1408.064,5168.33,1409.446Zm1.086-.265-.061-.041c.088-.254.178-.509.266-.764.321-.93.645-1.859.962-2.791a.237.237,0,0,1,.271-.2c.6.012,1.21.005,1.874.005Zm1.4-4.653c-.086,0-.146,0-.173-.107-.2-.74-.414-1.479-.625-2.233.393,0,.767,0,1.143,0a.152.152,0,0,1,.147.064l1.5,2.276C5172.113,1404.527,5171.465,1404.525,5170.816,1404.528Z" transform="translate(-89.542 -107.256)" fill="#fff"/>
    <path id="Path_494" data-name="Path 494" d="M5127.757,1342.776a8.657,8.657,0,1,1-10.825-8.378c.337-.088.584.016.65.273a.431.431,0,0,1-.359.543,7.811,7.811,0,0,0-2.013.814,7.453,7.453,0,0,0-3.8,5.63,7.529,7.529,0,0,0,3.571,7.717,7.786,7.786,0,1,0,6.147-14.122l-.125-.034c-.307-.086-.447-.286-.38-.547a.448.448,0,0,1,.606-.285,8.667,8.667,0,0,1,6.532,8.388Z" transform="translate(-40.312 -44.174)" fill="#fff"/>
    <path id="Path_496" data-name="Path 496" d="M5450.813,1473.98a.234.234,0,0,1-.038-.223.085.085,0,0,0,.038.007Z" transform="translate(-360.944 -175.503)" fill="#fff"/>
    <path id="Path_497" data-name="Path 497" d="M5450.813,1482.325a.084.084,0,0,0-.039.007.236.236,0,0,1,.039-.223Z" transform="translate(-360.943 -183.372)" fill="#fff"/>
    <path id="Path_498" data-name="Path 498" d="M5252.594,1330.643a.432.432,0,1,1,.425.45A.436.436,0,0,1,5252.594,1330.643Z" transform="translate(-174.237 -40.278)" fill="#fff"/>
    <path id="Path_499" data-name="Path 499" d="M5173.781,1404.425c-.582-.884-1.169-1.764-1.75-2.649a.94.94,0,0,0-.849-.456c-.953.007-1.9,0-2.857,0s-1.9,0-2.855,0a.922.922,0,0,0-.833.445c-.566.868-1.143,1.73-1.714,2.6a.916.916,0,0,0,.088,1.29q2.312,2.633,4.628,5.262a.844.844,0,0,0,1.375.01c1.592-1.759,3.136-3.559,4.7-5.346A.885.885,0,0,0,5173.781,1404.425Zm-6.345-1.868c.1-.37.1-.37.495-.37.346,0,.691,0,1.037,0,.082,0,.153-.007.183.1.2.74.411,1.48.622,2.231h-2.884C5167.073,1403.855,5167.253,1403.206,5167.436,1402.557Zm-2.092-.292a.149.149,0,0,1,.139-.079c.381,0,.761,0,1.159,0-.213.758-.423,1.5-.627,2.237-.024.089-.073.1-.155.1-.655,0-1.312,0-2.01,0C5164.363,1403.751,5164.854,1403.008,5165.344,1402.265Zm1.966,6.965-3.341-3.8c.052-.066.114-.036.166-.036.57,0,1.137,0,1.707,0,.086,0,.161-.011.2.106.422,1.229.85,2.455,1.276,3.682C5167.322,1409.19,5167.314,1409.2,5167.31,1409.23Zm1.02.216-.438-1.266c-.3-.868-.6-1.736-.91-2.6-.056-.157-.033-.191.134-.189.863.007,1.728,0,2.623,0C5169.269,1406.747,5168.81,1408.064,5168.33,1409.446Zm1.086-.265-.061-.041c.088-.254.178-.509.266-.764.321-.93.645-1.859.962-2.791a.237.237,0,0,1,.271-.2c.6.012,1.21.005,1.874.005Zm1.4-4.653c-.086,0-.146,0-.173-.107-.2-.74-.414-1.479-.625-2.233.393,0,.767,0,1.143,0a.152.152,0,0,1,.147.064l1.5,2.276C5172.113,1404.527,5171.465,1404.525,5170.816,1404.528Z" transform="translate(-89.542 -107.256)" fill="#fff"/>
    <path id="Path_500" data-name="Path 500" d="M5127.757,1342.776a8.657,8.657,0,1,1-10.825-8.378c.337-.088.584.016.65.273a.431.431,0,0,1-.359.543,7.811,7.811,0,0,0-2.013.814,7.453,7.453,0,0,0-3.8,5.63,7.529,7.529,0,0,0,3.571,7.717,7.786,7.786,0,1,0,6.147-14.122l-.125-.034c-.307-.086-.447-.286-.38-.547a.448.448,0,0,1,.606-.285,8.667,8.667,0,0,1,6.532,8.388Z" transform="translate(-40.312 -44.174)" fill="#fff"/>
    <path id="Path_501" data-name="Path 501" d="M5173.781,1404.425c-.582-.884-1.169-1.764-1.75-2.649a.94.94,0,0,0-.849-.456c-.953.007-1.9,0-2.857,0s-1.9,0-2.855,0a.922.922,0,0,0-.833.445c-.566.868-1.143,1.73-1.714,2.6a.916.916,0,0,0,.088,1.29q2.312,2.633,4.628,5.262a.844.844,0,0,0,1.375.01c1.592-1.759,3.136-3.559,4.7-5.346A.885.885,0,0,0,5173.781,1404.425Zm-6.345-1.868c.1-.37.1-.37.495-.37.346,0,.691,0,1.037,0,.082,0,.153-.007.183.1.2.74.411,1.48.622,2.231h-2.884C5167.073,1403.855,5167.253,1403.206,5167.436,1402.557Zm-2.092-.292a.149.149,0,0,1,.139-.079c.381,0,.761,0,1.159,0-.213.758-.423,1.5-.627,2.237-.024.089-.073.1-.155.1-.655,0-1.312,0-2.01,0C5164.363,1403.751,5164.854,1403.008,5165.344,1402.265Zm1.966,6.965-3.341-3.8c.052-.066.114-.036.166-.036.57,0,1.137,0,1.707,0,.086,0,.161-.011.2.106.422,1.229.85,2.455,1.276,3.682C5167.322,1409.19,5167.314,1409.2,5167.31,1409.23Zm1.02.216-.438-1.266c-.3-.868-.6-1.736-.91-2.6-.056-.157-.033-.191.134-.189.863.007,1.728,0,2.623,0C5169.269,1406.747,5168.81,1408.064,5168.33,1409.446Zm1.086-.265-.061-.041c.088-.254.178-.509.266-.764.321-.93.645-1.859.962-2.791a.237.237,0,0,1,.271-.2c.6.012,1.21.005,1.874.005Zm1.4-4.653c-.086,0-.146,0-.173-.107-.2-.74-.414-1.479-.625-2.233.393,0,.767,0,1.143,0a.152.152,0,0,1,.147.064l1.5,2.276C5172.113,1404.527,5171.465,1404.525,5170.816,1404.528Z" transform="translate(-89.542 -107.256)" fill="#fff"/>
    <path id="Path_502" data-name="Path 502" d="M5127.757,1342.776a8.657,8.657,0,1,1-10.825-8.378c.337-.088.584.016.65.273a.431.431,0,0,1-.359.543,7.811,7.811,0,0,0-2.013.814,7.453,7.453,0,0,0-3.8,5.63,7.529,7.529,0,0,0,3.571,7.717,7.786,7.786,0,1,0,6.147-14.122l-.125-.034c-.307-.086-.447-.286-.38-.547a.448.448,0,0,1,.606-.285,8.667,8.667,0,0,1,6.532,8.388Z" transform="translate(-40.312 -44.174)" fill="#fff"/>
    <path id="Path_503" data-name="Path 503" d="M5253.458,1330.657a.432.432,0,1,1-.425-.428A.436.436,0,0,1,5253.458,1330.657Z" transform="translate(-174.237 -40.278)" fill="#fff"/>
  </g>
</svg>
