<svg id="Component_2_16" data-name="Component 2 – 16" xmlns="http://www.w3.org/2000/svg" width="32" height="32.004" viewBox="0 0 32 32.004">
  <g id="Path_132" data-name="Path 132" transform="translate(-93 -216.588)" fill="#222">
    <path d="M 109.9226379394531 248.3415222167969 L 108.0932235717773 248.3415222167969 C 108.0796127319336 248.3381500244141 108.066032409668 248.3345947265625 108.0524597167969 248.3310394287109 C 107.9906768798828 248.3149261474609 107.9206695556641 248.2966613769531 107.8422546386719 248.2906341552734 C 105.3408584594727 248.1146240234375 103.0299911499023 247.3860473632812 100.9722595214844 246.1250610351562 C 98.93418884277344 244.8765106201172 97.27212524414062 243.3350830078125 96.03219604492188 241.5436096191406 C 94.78688812255859 239.7443389892578 93.93312072753906 237.6432800292969 93.49462890625 235.2987823486328 C 93.41941070556641 234.8958282470703 93.36882019042969 234.4769287109375 93.31990051269531 234.0718078613281 C 93.29779815673828 233.8887481689453 93.27495574951172 233.6996154785156 93.25 233.5129852294922 L 93.25 231.6772155761719 C 93.25482940673828 231.6502075195312 93.259765625 231.623291015625 93.26469421386719 231.5964050292969 C 93.27875518798828 231.5197906494141 93.29329681396484 231.4405517578125 93.30521392822266 231.3599090576172 C 93.33722686767578 231.1379241943359 93.36510467529297 230.9135894775391 93.39206695556641 230.6966400146484 C 93.44908905029297 230.2378082275391 93.50804901123047 229.7633514404297 93.60663604736328 229.3111114501953 C 94.43418884277344 225.5073089599609 96.40092468261719 222.4067840576172 99.45227813720703 220.0955505371094 C 102.306510925293 217.9337921142578 105.4579010009766 216.8377075195312 108.8189086914062 216.8377075195312 C 109.9518051147461 216.8377075195312 111.1266555786133 216.9629211425781 112.3108139038086 217.2098693847656 C 116.0297470092773 217.9856109619141 119.1157455444336 219.9387664794922 121.4830703735352 223.0150909423828 C 123.9944076538086 226.2799072265625 125.0662307739258 230.0328063964844 124.6687393188477 234.1694946289062 C 124.3502502441406 237.4874572753906 123.0577392578125 240.4488525390625 120.8270874023438 242.9714660644531 C 118.3880386352539 245.7302093505859 115.3224258422852 247.4544982910156 111.7153778076172 248.0965118408203 C 111.3137283325195 248.1679840087891 110.8983993530273 248.2191314697266 110.4967498779297 248.2686004638672 C 110.3086776733398 248.291748046875 110.1143951416016 248.3156890869141 109.9226379394531 248.3415222167969 Z" stroke="none"/>
    <path d="M 109.9059448242188 248.0915222167969 C 110.0936431884766 248.0663452148438 110.2828598022461 248.0430450439453 110.466194152832 248.0204620361328 C 110.8645782470703 247.9714202880859 111.2765197753906 247.9206848144531 111.6715698242188 247.8503723144531 C 115.2216949462891 247.218505859375 118.2390365600586 245.5213012695312 120.6398086547852 242.8058624267578 C 122.8347473144531 240.3236389160156 124.1065444946289 237.409912109375 124.4198760986328 234.1455841064453 C 124.8111038208008 230.0740356445312 123.75634765625 226.3804626464844 121.2849502563477 223.1675415039062 C 118.955078125 220.1399078369141 115.9185638427734 218.2178039550781 112.2597808837891 217.4546203613281 C 111.0923690795898 217.2111511230469 109.934684753418 217.0877075195312 108.8189086914062 217.0877075195312 C 105.5136260986328 217.0877075195312 102.4130172729492 218.166748046875 99.60322570800781 220.2948303222656 C 96.60077667236328 222.5690307617188 94.66542816162109 225.6203918457031 93.85090637207031 229.3643493652344 C 93.75473785400391 229.8054809570312 93.69907379150391 230.2533264160156 93.64015960693359 230.7274627685547 C 93.61304473876953 230.9456024169922 93.58501434326172 231.1711883544922 93.55252838134766 231.3964996337891 C 93.53997039794922 231.4814147949219 93.52503967285156 231.5628051757812 93.51059722900391 231.6415100097656 C 93.50704956054688 231.6608276367188 93.50350189208984 231.6801605224609 93.5 231.6995391845703 L 93.5 233.4963989257812 C 93.52429962158203 233.6791687011719 93.54653930664062 233.8633728027344 93.56809997558594 234.0418395996094 C 93.61876678466797 234.4615020751953 93.66663360595703 234.8578796386719 93.74036407470703 235.2528228759766 C 94.17234802246094 237.5625152587891 95.01259613037109 239.6311798095703 96.23777008056641 241.4013366699219 C 97.45777893066406 243.1640472412109 99.09461975097656 244.6816101074219 101.1028747558594 245.9118957519531 C 103.1260375976562 247.1517028808594 105.3988571166992 247.8680877685547 107.8613967895508 248.0413818359375 C 107.9621200561523 248.0491027832031 108.0472106933594 248.0713043212891 108.1155700683594 248.0891418457031 C 108.1186065673828 248.0899353027344 108.1216430664062 248.0907287597656 108.1246795654297 248.0915222167969 L 109.9059448242188 248.0915222167969 M 109.9394760131836 248.5915222167969 L 108.0641784667969 248.5915222167969 C 107.9835739135742 248.5735473632812 107.9045104980469 248.5461578369141 107.8231201171875 248.5399017333984 C 105.3201065063477 248.3637847900391 102.9783554077148 247.6476287841797 100.8416290283203 246.3382110595703 C 96.69580078125 243.7984008789062 94.14505767822266 240.1363067626953 93.24888610839844 235.3447418212891 C 93.13697052001953 234.7452087402344 93.08139038085938 234.1347503662109 93 233.5296936035156 L 93 231.6551971435547 C 93.01956939697266 231.5440673828125 93.04148101806641 231.4344482421875 93.05790710449219 231.3233489990234 C 93.15731811523438 230.6338043212891 93.21444702148438 229.9364166259766 93.36238098144531 229.2578582763672 C 94.19826507568359 225.4156951904297 96.17140960693359 222.2670135498047 99.30133056640625 219.8962554931641 C 103.1951370239258 216.9471282958984 107.5804824829102 215.9679870605469 112.3618545532227 216.9651489257812 C 116.1891479492188 217.7634887695312 119.3003005981445 219.7686614990234 121.6811981201172 222.8626098632812 C 124.2507400512695 226.2031097412109 125.3198699951172 230.0068817138672 124.9175872802734 234.1934051513672 C 124.5919876098633 237.5855255126953 123.2747344970703 240.5808563232422 121.0143661499023 243.1370697021484 C 118.5363998413086 245.9398345947266 115.44873046875 247.6859588623047 111.7591857910156 248.3426361083984 C 111.1565246582031 248.4498901367188 110.5460586547852 248.5093383789062 109.9394760131836 248.5915222167969 Z" stroke="none" fill="#979fad"/>
  </g>
  <g id="Group_263" data-name="Group 263" transform="translate(-6096.422 -929.77)">
    <path id="Path_487" data-name="Path 487" d="M6229.325,943.792v7.371a1.474,1.474,0,0,1-.006.2.541.541,0,0,1-1.076-.046c0-.079,0-.158,0-.237v-7.288a2.1,2.1,0,0,1-1.479-2.484,2.076,2.076,0,0,1,4.052.045A2.1,2.1,0,0,1,6229.325,943.792Zm-1.529-2.013a.987.987,0,1,0,1-.979A.983.983,0,0,0,6227.8,941.779Z" transform="translate(-116.362 0)" fill="#fff"/>
    <path id="Path_488" data-name="Path 488" d="M6350.329,949.8a2.077,2.077,0,0,1,0-4.005V945.6q0-2.563,0-5.125a.539.539,0,0,1,.732-.54.556.556,0,0,1,.349.548q0,1.023,0,2.047,0,1.556,0,3.112c0,.1.009.158.124.2a2.059,2.059,0,0,1-.016,3.909c-.032.011-.062.025-.106.042,0,.521,0,1.044,0,1.568a.988.988,0,0,1-.02.234.537.537,0,0,1-1.06-.113c-.005-.49,0-.981,0-1.472Zm-.447-2.031a.988.988,0,1,0,1.01-.967A.984.984,0,0,0,6349.881,947.765Z" transform="translate(-232.933 -0.177)" fill="#fff"/>
    <path id="Path_489" data-name="Path 489" d="M6107.448,942.158c0,.559,0,1.117,0,1.675a.164.164,0,0,0,.136.189,2.058,2.058,0,0,1,.012,3.892.186.186,0,0,0-.148.216c0,1.111,0,2.223,0,3.334a.526.526,0,0,1-.321.513.508.508,0,0,1-.582-.093.582.582,0,0,1-.183-.472c0-1.089,0-2.177,0-3.266a.208.208,0,0,0-.165-.239,2.054,2.054,0,0,1-.012-3.865.228.228,0,0,0,.177-.265c-.006-1.094,0-2.189,0-3.283a.541.541,0,1,1,1.081-.011C6107.449,941.042,6107.447,941.6,6107.448,942.158Zm-.538,4.8a.987.987,0,1,0-.988-.99A.986.986,0,0,0,6106.91,946.96Z" transform="translate(0 -0.197)" fill="#fff"/>
  </g>
</svg>
