<svg xmlns="http://www.w3.org/2000/svg" width="17.867" height="16.08" viewBox="0 0 17.867 16.08">
  <path id="Path_1924" data-name="Path 1924" d="M437.293,76.147l3.573-3.539L437.293,69v2.78a9.953,9.953,0,0,0-4.678,1.447,6.419,6.419,0,0,0-1.83,1.883,6.307,6.307,0,0,0-1.578-1.847c-1.3-1.007-3.2-1.583-6.207-1.583v1.787c2.8,0,4.25.54,5.113,1.209a5.974,5.974,0,0,1,1.66,2.368c-.064.143-.123.279-.18.409a3.985,3.985,0,0,1-1.233,1.821c-.864.668-2.559,1.34-5.36,1.34V82.4c3.006,0,4.907-.576,6.207-1.583a6.307,6.307,0,0,0,1.578-1.847,6.419,6.419,0,0,0,1.83,1.883,9.953,9.953,0,0,0,4.678,1.447v2.78l3.573-3.539-3.573-3.607V80.5a8.039,8.039,0,0,1-3.683-1.135,5.461,5.461,0,0,1-1.857-2.329,5.461,5.461,0,0,1,1.857-2.329,8.039,8.039,0,0,1,3.683-1.135Z" transform="translate(-423 -69)" fill="#d1ad61"/>
</svg>
