<svg xmlns="http://www.w3.org/2000/svg" width="35.94" height="31.711" viewBox="0 0 35.94 31.711">
  <g id="Group_232" data-name="Group 232" transform="translate(-1277.884 -926.643)">
    <path id="Path_336" data-name="Path 336" d="M1311,933.5c-.931,0-1.864-.011-2.8.005-.279.005-.392-.052-.375-.36.026-.536.008-1.076.008-1.615,0-.787-.085-.893-.85-.89-.3,0-.373-.093-.364-.379.02-.649.01-1.3.006-1.948a1.516,1.516,0,0,0-1.682-1.666q-9.126,0-18.253,0a1.533,1.533,0,0,0-1.673,1.688c-.006.6-.024,1.2.008,1.8.019.378-.058.53-.478.5-.571-.037-.71.136-.712.729s-.015,1.172.006,1.758c.011.291-.072.383-.367.376-.853-.019-1.707-.008-2.56-.008a2.735,2.735,0,0,0-3.029,3.017q0,9.406,0,18.81a2.737,2.737,0,0,0,3.019,3.029h14.934q7.562,0,15.123,0a2.676,2.676,0,0,0,2.861-2.839q.006-9.6,0-19.191A2.67,2.67,0,0,0,1311,933.5Zm-9.244-.322c.009.25-.077.326-.323.326q-5.615-.01-11.232,0c-.233,0-.292-.079-.286-.3.013-.617.006-1.234,0-1.852,0-.569-.157-.716-.739-.72a2.515,2.515,0,0,0-.426,0c-.4.066-.487-.094-.5-.484-.01-.433.127-.513.53-.51,2.354.019,4.707.009,7.062.009s4.707.017,7.06-.014c.466-.006.473.175.5.538.028.441-.16.47-.515.464-1.138-.019-1.138-.006-1.138,1.115C1301.748,932.226,1301.736,932.7,1301.753,933.175Z" transform="translate(0 0)" fill="#3f0f33"/>
    <path id="Path_337" data-name="Path 337" d="M1289.437,1011.543c-.631.007-1.263.034-1.893.016a1.614,1.614,0,0,1-1.623-1.678c-.011-1.693,0-3.386,0-5.079q0-7.072,0-14.145a1.693,1.693,0,0,1,1.877-1.92q12.933,0,25.865.006c.078,0,.157.011.236.017a.61.61,0,0,1-.071.455,39.431,39.431,0,0,1-3.533,7.257.857.857,0,0,1-.516.459c-1.169.077-2.338.036-3.506.026-.458,0-.566-.146-.572-.681-.015-1.219,0-2.438-.005-3.657,0-1.041-.026-1.065-1.061-1.065-1.517,0-3.034,0-4.551,0-.728,0-.817.094-.819.826,0,1.251,0,2.5,0,3.752,0,.736-.092.828-.814.833-1.248.008-2.5,0-3.745,0-.75,0-.841.1-.843.856q0,2.4,0,4.8a.974.974,0,0,0,.181.761c.161.175.374.144.577.144,1.28,0,2.559,0,3.839,0,.609,0,.687.079.689.681.005.95-.007,1.9.006,2.849a.829.829,0,0,1-.467.805,36.383,36.383,0,0,1-8.226,3.491C1290.12,1011.451,1289.771,1011.452,1289.437,1011.543Z" transform="translate(-7.013 -54.226)" fill="#fefefe"/>
    <path id="Path_338" data-name="Path 338" d="M1334.19,996.839a37.579,37.579,0,0,0,3.508-6.869c.156-.394.313-.787.47-1.181,1.453-.007,2.905-.029,4.357-.014a1.592,1.592,0,0,1,1.543,1.353,3.5,3.5,0,0,1,.047.613q0,9.447,0,18.893a1.883,1.883,0,0,1-.648,1.606,1.7,1.7,0,0,1-1.1.358l-28.521,0a.831.831,0,0,1-.139-.023c1-.318,2.007-.62,3-.956a37.667,37.667,0,0,0,6.222-2.857.636.636,0,0,0,.364-.643c-.024-.98-.023-1.961,0-2.942.008-.362-.081-.495-.47-.488-1.357.024-2.715.011-4.073.007-.167,0-.351.054-.494-.093a.7.7,0,0,1,.575-.154c1.311-.006,2.621-.01,3.932,0,.652,0,.757.115.762.792.01,1.281,0,2.563.005,3.844,0,.732.13.864.855.867q2.368.013,4.737,0c.7,0,.832-.14.836-.836.006-1.281,0-2.563,0-3.845,0-.72.1-.819.826-.823,1.279-.008,2.558,0,3.837-.005.656,0,.734-.083.737-.743q.01-2.421,0-4.841c0-.736-.038-.77-.792-.865A.527.527,0,0,1,1334.19,996.839Z" transform="translate(-31.286 -54.254)" fill="#dfdfdf"/>
    <path id="Path_339" data-name="Path 339" d="M1351.9,934.779h9.052c.591,0,.762.165.769.753s-.014,1.2.007,1.8c.011.322-.114.405-.415.4-.982-.023-.813.088-.82-.79-.01-1.177-.036-1.21-1.231-1.21h-15.07c-.744,0-.859.112-.859.841,0,.111,0,.222,0,.332-.021.928.172.8-.831.827-.309.008-.418-.09-.407-.4.02-.617,0-1.234.007-1.852,0-.56.14-.7.7-.7Q1347.351,934.777,1351.9,934.779Z" transform="translate(-56.072 -7.104)" fill="#514c68"/>
    <path id="Path_340" data-name="Path 340" d="M1334.647,967.919c-.567,0-1.134-.011-1.7,0-.259.007-.371-.062-.356-.342.021-.393.017-.789,0-1.182-.01-.256.1-.32.335-.318,1.133.009,2.266.01,3.4,0,.262,0,.366.072.353.346-.019.393-.018.789,0,1.182.012.258-.094.321-.331.315C1335.781,967.91,1335.214,967.919,1334.647,967.919Z" transform="translate(-47.773 -34.44)" fill="#acc3d8"/>
    <path id="Path_341" data-name="Path 341" d="M1476.018,967.924c-.583,0-1.166-.009-1.748,0-.245.006-.336-.074-.325-.324.017-.394.015-.789,0-1.183-.009-.238.062-.338.317-.336,1.165.01,2.33.008,3.495,0,.207,0,.29.078.269.278,0,.016,0,.032,0,.047-.021.485.2,1.105-.083,1.418-.265.3-.892.064-1.359.091C1476.4,967.933,1476.207,967.924,1476.018,967.924Z" transform="translate(-171.214 -34.444)" fill="#acc3d8"/>
    <path id="Path_342" data-name="Path 342" d="M1363.361,1015.093a.48.48,0,0,0,.093.015c1.469-.058,1.261.17,1.265,1.328.006,1.518,0,3.036,0,4.555,0,.818-.064.881-.9.881-1.373,0-2.746.011-4.119-.008-.337,0-.421.1-.417.426.017,1.423.008,2.846.007,4.27,0,.621-.135.766-.738.768q-2.628.005-5.256,0c-.608,0-.749-.146-.749-.757,0-1.439,0-2.878.014-4.317,0-.314-.087-.4-.4-.4-1.578.013-3.156,0-4.734,0a.64.64,0,0,1-.317-.638c.005-1.821,0-3.642.005-5.462,0-.5.16-.643.665-.644,1.454,0,2.908-.013,4.361.007.342,0,.415-.1.411-.423-.018-1.44-.01-2.881-.007-4.322,0-.56.137-.7.7-.7q2.654,0,5.309,0c.611,0,.731.127.731.763,0,1.441.006,2.882,0,4.322,0,.254.049.359.332.354C1360.865,1015.1,1362.113,1015.1,1363.361,1015.093Z" transform="translate(-60.457 -72.508)" fill="#3f0f33"/>
    <path id="Path_343" data-name="Path 343" d="M1360.271,1028c-.084-.362-.359-.39-.661-.39-1.422,0-2.844-.013-4.265.01-.4.007-.506-.109-.5-.5.025-1.25.03-2.5,0-3.751-.011-.437.134-.523.536-.515,1.358.024,2.717.01,4.076.009.7,0,.824-.128.824-.832,0-1.393.01-2.786-.006-4.179,0-.344.086-.473.451-.468q1.943.029,3.886,0c.361-.005.458.116.454.464-.016,1.424-.005,2.849-.008,4.274,0,.276,0,.548.307.681,1.2.072,2.392.009,3.587.035.146,0,.34-.087.428.094s-.062.3-.151.421a29.655,29.655,0,0,1-3.3,3.951,1.321,1.321,0,0,1-.469.31.511.511,0,0,0-.372.3,1.543,1.543,0,0,1-.533.762,34.306,34.306,0,0,1-3.8,2.985c-.115.077-.241.214-.377.146s-.07-.258-.073-.392C1360.28,1030.276,1360.336,1029.137,1360.271,1028Z" transform="translate(-67.207 -79.239)" fill="#fe223d"/>
    <path id="Path_344" data-name="Path 344" d="M1397.566,1100.564a1.6,1.6,0,0,1,.07.834c.012.96,0,1.92,0,2.945a29.788,29.788,0,0,0,3.384-2.557,8.266,8.266,0,0,0,1.355-1.309c0,1.563-.016,3.126,0,4.689,0,.36-.109.455-.458.45-1.324-.019-2.647-.012-3.971,0-.266,0-.4-.05-.4-.36C1397.566,1103.69,1397.563,1102.127,1397.566,1100.564Z" transform="translate(-104.502 -151.804)" fill="#9f133c"/>
    <path id="Path_345" data-name="Path 345" d="M1437.948,1064.849a32.409,32.409,0,0,0,3.874-4.625c-.11-.169-.266-.1-.4-.1-1.025-.006-2.05,0-3.074-.006-.168,0-.35.055-.5-.081,1.608-.01,3.216-.051,4.822.067.221.016.305.091.3.311,0,1.376-.008,2.753,0,4.129,0,.309-.169.317-.394.316Q1440.269,1064.851,1437.948,1064.849Z" transform="translate(-139.698 -116.477)" fill="#9f133c"/>
  </g>
</svg>
