<svg xmlns="http://www.w3.org/2000/svg" width="25.339" height="24.5" viewBox="0 0 25.339 24.5">
  <path id="icon" d="M11.916,23.077a.924.924,0,0,1,.923-.923,10.152,10.152,0,1,0-7.618-3.439V15.468a.923.923,0,1,1,1.846,0V20.69a.923.923,0,0,1-.923.923H.923a.923.923,0,1,1,0-1.847H3.691A12,12,0,1,1,12.839,24,.924.924,0,0,1,11.916,23.077Zm3.539-5.926-3.268-3.268a.92.92,0,0,1-.271-.652v-6.4a.923.923,0,0,1,1.847,0v6.016l3,3a.923.923,0,1,1-1.306,1.305Z" transform="translate(0.25 0.25)" fill="#ff8d8d" stroke="#ff8d8d" stroke-width="0.5"/>
</svg>
