<svg xmlns="http://www.w3.org/2000/svg" xmlns:xlink="http://www.w3.org/1999/xlink" width="118.462" height="118.462" viewBox="0 0 118.462 118.462">
  <defs>
    <filter id="Icon_Women" x="0" y="0" width="118.462" height="118.462" filterUnits="userSpaceOnUse">
      <feOffset dy="5" input="SourceAlpha"/>
      <feGaussianBlur stdDeviation="10" result="blur"/>
      <feFlood flood-color="#242424" flood-opacity="0.051"/>
      <feComposite operator="in" in2="blur"/>
      <feComposite in="SourceGraphic"/>
    </filter>
  </defs>
  <g id="Women" transform="translate(29.949 24.897)">
    <g id="Group_2774" data-name="Group 2774">
      <g transform="matrix(1, 0, 0, 1, -29.95, -24.9)" filter="url(#Icon_Women)">
        <path id="Icon_Women-2" data-name="Icon_Women" d="M29.231,0A29.231,29.231,0,1,1,0,29.231,29.231,29.231,0,0,1,29.231,0Z" transform="translate(30 25)" fill="#fff"/>
      </g>
      <g id="Group_2298" data-name="Group 2298" transform="translate(82.622 100.925)">
        <path id="Path_1888" data-name="Path 1888" d="M-66.571-80.607c.043-.146.082-.293.129-.437a2.55,2.55,0,0,1,2.4-1.772c2.753-.01,5.507,0,8.26,0a.516.516,0,0,1,.584.51c0,.319-.224.518-.6.518q-4.053,0-8.106,0a1.626,1.626,0,0,0-.95.263,1.449,1.449,0,0,0-.685,1.231q-.011,6.2,0,12.4a.6.6,0,0,0,.015.089h24.278v-.28q0-6.008,0-12.017a1.553,1.553,0,0,0-1.677-1.687H-50.85a2.2,2.2,0,0,1-.283-.006.522.522,0,0,1-.454-.511.522.522,0,0,1,.46-.506,1.866,1.866,0,0,1,.231-.005h7.951a2.578,2.578,0,0,1,2.726,2.726q0,8.414,0,16.829a2.557,2.557,0,0,1-1.931,2.591,3.16,3.16,0,0,1-.788.086q-10.46.007-20.92,0a2.569,2.569,0,0,1-2.675-2.149.238.238,0,0,0-.039-.064Zm25.32,13.864H-65.537c0,1.252,0,2.486,0,3.72a.687.687,0,0,0,.018.127,1.551,1.551,0,0,0,1.623,1.282h21c.069,0,.137,0,.206,0a1.518,1.518,0,0,0,1.433-1.429C-41.232-64.272-41.251-65.5-41.251-66.744Z"/>
        <path id="Path_1889" data-name="Path 1889" d="M92.387-7.09a1.313,1.313,0,0,1-.641,1.155c-.945.571-1.894,1.14-2.869,1.657a1.444,1.444,0,0,1-2.118-1.3q-.018-1.569,0-3.138a1.444,1.444,0,0,1,2.118-1.294c.975.518,1.922,1.089,2.87,1.657A1.4,1.4,0,0,1,92.387-7.09Zm-4.6-.077c0,.506,0,1.012,0,1.517a.441.441,0,0,0,.713.412q1.295-.738,2.581-1.49a.442.442,0,0,0,0-.827Q89.8-8.308,88.5-9.045a.44.44,0,0,0-.714.412C87.782-8.145,87.786-7.656,87.786-7.167Z" transform="translate(-142.779 -67.65)"/>
        <path id="Path_1890" data-name="Path 1890" d="M118.172-81.744a.523.523,0,0,1-.513-.527.524.524,0,0,1,.516-.5.512.512,0,0,1,.508.527A.512.512,0,0,1,118.172-81.744Z" transform="translate(-171.561 -0.049)"/>
        <path id="Path_1891" data-name="Path 1891" d="M101.787,6.933c0-.489,0-.977,0-1.466a.44.44,0,0,1,.714-.412q1.294.739,2.581,1.49a.442.442,0,0,1,0,.827q-1.286.753-2.581,1.49a.441.441,0,0,1-.713-.412C101.784,7.944,101.787,7.439,101.787,6.933Z" transform="translate(-156.78 -81.75)" fill="#d1ad61"/>
        <path id="Path_1892" data-name="Path 1892" d="M69.866,181.7h-6.2a1.9,1.9,0,0,1-.282-.008.512.512,0,0,1,.005-1.013,2.054,2.054,0,0,1,.282-.007h12.4c.478,0,.713.165.72.5s-.237.525-.725.525Z" transform="translate(-120.611 -245.378)"/>
        <path id="Path_1893" data-name="Path 1893" d="M-14.19,167.257a1.543,1.543,0,0,1,1.547-1.531,1.551,1.551,0,0,1,1.539,1.543,1.552,1.552,0,0,1-1.564,1.544A1.545,1.545,0,0,1-14.19,167.257Zm1.531.525a.522.522,0,0,0,.524-.516.522.522,0,0,0-.5-.51.515.515,0,0,0-.521.49A.516.516,0,0,0-12.659,167.782Z" transform="translate(-48.779 -231.457)"/>
        <path id="Path_1894" data-name="Path 1894" d="M1.293,181.74a.513.513,0,0,1,.02-1.026.513.513,0,1,1-.02,1.026Z" transform="translate(-62.73 -245.415)" fill="#d1ad61"/>
      </g>
    </g>
  </g>
</svg>
