<svg xmlns="http://www.w3.org/2000/svg" width="79.1" height="79.086" viewBox="0 0 79.1 79.086">
  <g id="Group_2259" data-name="Group 2259" transform="translate(829.047 -89.343)">
    <path id="Path_1833" data-name="Path 1833" d="M-791.97,89.343h4.943c1.347.178,2.7.308,4.039.542a38.586,38.586,0,0,1,23.558,13.439,38.339,38.339,0,0,1,8.741,32.994A38.064,38.064,0,0,1-764,159.025a38.481,38.481,0,0,1-29.513,9.2,37.966,37.966,0,0,1-20.609-8.463,39.04,39.04,0,0,1-14.321-24.053c-.262-1.437-.409-2.9-.609-4.345V126.42a4.447,4.447,0,0,0,.127-.6,37.964,37.964,0,0,1,6.4-18.59A39.1,39.1,0,0,1-796.23,89.945C-794.821,89.686-793.391,89.541-791.97,89.343Zm2.463,9.424a30.174,30.174,0,0,0-30.116,30.112,30.181,30.181,0,0,0,30.094,30.137,30.179,30.179,0,0,0,30.155-30.153A30.172,30.172,0,0,0-789.507,98.767Z" transform="translate(0 0)" fill="#f3f3f3"/>
    <path id="Path_1834" data-name="Path 1834" d="M-709.947,182.915a25.534,25.534,0,0,1-25.472,25.528,25.538,25.538,0,0,1-25.508-25.493,25.532,25.532,0,0,1,25.435-25.487A25.528,25.528,0,0,1-709.947,182.915Zm-25.488-20.7a2.288,2.288,0,0,0-2.2,1.408c-1.489,3.049-3.007,6.085-4.494,9.135a1.055,1.055,0,0,1-.908.672c-3.337.468-6.666.989-10,1.45a2.4,2.4,0,0,0-2.216,1.625,2.4,2.4,0,0,0,.82,2.629q3.638,3.515,7.236,7.071a1.3,1.3,0,0,1,.329.977c-.526,3.275-1.092,6.544-1.665,9.811a2.556,2.556,0,0,0,.872,2.836,2.541,2.541,0,0,0,2.9-.076c2.356-1.264,4.809-2.368,7.071-3.781a3.813,3.813,0,0,1,4.582.032c2.359,1.454,4.885,2.638,7.351,3.913a2.272,2.272,0,0,0,3.414-1.318,4.689,4.689,0,0,0-.04-1.752q-.791-4.834-1.654-9.657a.98.98,0,0,1,.348-1q3.691-3.571,7.361-7.164a2.309,2.309,0,0,0,.715-2.519,2.31,2.31,0,0,0-2.063-1.608c-3.36-.483-6.715-1-10.079-1.463a1.168,1.168,0,0,1-1.021-.745c-1.474-3.028-2.982-6.04-4.459-9.066A2.291,2.291,0,0,0-735.436,162.217Z" transform="translate(-54.061 -54.061)" fill="#f3f3f3"/>
    <path id="Path_1835" data-name="Path 1835" d="M-678.128,240.669c-1.954-1.026-3.863-1.924-5.662-3a3.643,3.643,0,0,0-4.163,0c-1.8,1.081-3.706,1.98-5.719,3.037.2-1.235.373-2.316.555-3.394.218-1.293.425-2.589.675-3.875a2.457,2.457,0,0,0-.743-2.385q-2.325-2.261-4.643-4.529c-.193-.189-.373-.391-.646-.679,2.343-.342,4.541-.711,6.752-.969a3.146,3.146,0,0,0,2.781-1.966c.931-2.054,1.982-4.054,3.052-6.221.188.35.321.58.439.818.911,1.844,1.854,3.672,2.713,5.54a2.951,2.951,0,0,0,2.557,1.807c2.168.27,4.328.613,6.49.926.093.013.185.036.38.074-.2.232-.337.407-.493.56-1.564,1.529-3.125,3.063-4.7,4.579a2.563,2.563,0,0,0-.793,2.512c.4,2.122.745,4.254,1.107,6.383C-678.153,240.106-678.153,240.332-678.128,240.669Z" transform="translate(-103.625 -101.063)" fill="#f3f3f3"/>
  </g>
</svg>
