<svg xmlns="http://www.w3.org/2000/svg" width="26" height="25.981" viewBox="0 0 26 25.981">
  <g id="Group_2753" data-name="Group 2753" transform="translate(799.743 -1446.687)">
    <path id="Path_629" data-name="Path 629" d="M-786.016,1472.668h-1.42c-.028-.031-.066-.024-.1-.025s-.073-.006-.1.025h-.2c-.34-.06-.686-.048-1.027-.084a10.243,10.243,0,0,1-2.847-.785,12.944,12.944,0,0,1-3.523-2.169,13.141,13.141,0,0,1-3.453-4.6,10.482,10.482,0,0,1-.983-3.52,22.765,22.765,0,0,1-.014-3.307,12.01,12.01,0,0,1,2.992-6.992,12.968,12.968,0,0,1,6.614-4.2,9.269,9.269,0,0,1,2.265-.311c.709-.017,1.417-.006,2.125,0a10.415,10.415,0,0,1,3.921.856,12.642,12.642,0,0,1,3.686,2.287,13.275,13.275,0,0,1,2.693,3.274,13.125,13.125,0,0,1,1.476,3.785,12.58,12.58,0,0,1,.151,1.553c.005.057-.018.119.025.17v.152c-.031.028-.024.066-.025.1s-.005.073.025.1v1.42a.118.118,0,0,0,0,.152v.2c-.056.357-.05.718-.084,1.076a9.436,9.436,0,0,1-.606,2.4,12.757,12.757,0,0,1-2.145,3.735,13.116,13.116,0,0,1-4.042,3.317,13.208,13.208,0,0,1-3.316,1.217,12.325,12.325,0,0,1-1.556.152c-.057,0-.119-.019-.17.025h-.2A.118.118,0,0,0-786.016,1472.668Z" fill="#d1ad61"/>
    <path id="Path_630" data-name="Path 630" d="M-289.177,1716.469c-.072-.051-.054-.1,0-.152Z" transform="translate(-484.566 -255.923)" fill="#8dc9f8"/>
    <path id="Path_631" data-name="Path 631" d="M-529.73,1956.872c.051-.054.1-.071.152,0Z" transform="translate(-256.286 -484.204)" fill="#8cc8f8"/>
    <path id="Path_632" data-name="Path 632" d="M-289.168,1684.491c0-.041-.006-.081.043-.1v.1Q-289.15,1684.546-289.168,1684.491Z" transform="translate(-484.617 -225.621)" fill="#a1d2f9"/>
    <path id="Path_633" data-name="Path 633" d="M-289.156,1686.34a.292.292,0,0,1,.043,0v.1A.1.1,0,0,1-289.156,1686.34Z" transform="translate(-484.629 -227.47)" fill="#85c5f8"/>
    <path id="Path_634" data-name="Path 634" d="M-561.655,1956.921c.018-.049.058-.047.1-.043s.037.026,0,.043Z" transform="translate(-225.984 -484.253)" fill="#a1d2f9"/>
    <path id="Path_635" data-name="Path 635" d="M-559.7,1956.933c0-.014,0-.029,0-.043a.1.1,0,0,1,.1.043Z" transform="translate(-227.834 -484.264)" fill="#85c5f8"/>
    <path id="Path_637" data-name="Path 637" d="M6.481-9.511l-.416,6.6a.942.942,0,0,1-.274.608.789.789,0,0,1-.578.243A.8.8,0,0,1,4.6-2.314a.928.928,0,0,1-.259-.6l-.416-6.62a.744.744,0,0,1,.238-.6.846.846,0,0,1,.613-.253H5.63a.823.823,0,0,1,.613.269A.777.777,0,0,1,6.481-9.511ZM4.778.616h.811A.846.846,0,0,1,6.2.87a.81.81,0,0,1,.259.6v.75a.848.848,0,0,1-.852.852H4.758a.848.848,0,0,1-.852-.852v-.73A.885.885,0,0,1,4.17.875.821.821,0,0,1,4.778.616Z" transform="translate(-791.649 1463.07)" fill="#fff"/>
  </g>
</svg>
