<svg xmlns="http://www.w3.org/2000/svg" width="23.564" height="23.603" viewBox="0 0 23.564 23.603">
  <g id="Group_423" data-name="Group 423" transform="translate(-213.604 -970.268)">
    <path id="Path_696" data-name="Path 696" d="M314.911,955.445v1.014c-.014.059-.033.117-.042.177a5.8,5.8,0,0,1-3.874,4.864,10.844,10.844,0,0,1-1.467.352h-1.012a.752.752,0,0,0-.129-.038,5.41,5.41,0,0,1-3.417-1.621,1.741,1.741,0,0,0-1.429-.566c-3.549.025-7.1.014-10.646.012a1.472,1.472,0,0,1-1.54-1.532c0-.806-.018-1.613,0-2.419a3.528,3.528,0,0,1,1.807-3.116,11.479,11.479,0,0,1,1.532-.672c1.156-.47,2.315-.93,3.474-1.391a.756.756,0,0,0,.539-.677c.014-.2,0-.4,0-.6-.056-.022-.1-.043-.155-.06a2.957,2.957,0,0,1-2.051-2.865c0-.983-.007-1.966,0-2.949a5.117,5.117,0,0,1,3.275-4.738,13,13,0,0,1,1.416-.368h.92a1.513,1.513,0,0,0,.177.042,5.16,5.16,0,0,1,4.511,4.975c.016,1.052.014,2.105,0,3.158a2.934,2.934,0,0,1-1.961,2.718c-.079.028-.157.057-.243.089,0,.175,0,.344,0,.513a.747.747,0,0,0,.5.748c.241.1.487.186.723.294a.429.429,0,0,0,.426-.031,5.865,5.865,0,0,1,8.422,3.588C314.782,954.7,314.836,955.078,314.911,955.445ZM304.7,951.953a6.845,6.845,0,0,1-.692-.4,2.522,2.522,0,0,1-.842-2.595,1.407,1.407,0,0,1,1.079-1.165,1.461,1.461,0,0,0,1.09-1.382c.01-1.052.022-2.106,0-3.158a3.679,3.679,0,0,0-7.354.187c0,.953,0,1.905,0,2.858a1.654,1.654,0,0,0,.024.321,1.464,1.464,0,0,0,1.071,1.176,1.464,1.464,0,0,1,1.092,1.21,3.881,3.881,0,0,1,.02.644,2.212,2.212,0,0,1-1.523,2.253l-4.371,1.752a2.207,2.207,0,0,0-1.467,2.154c0,.561,0,1.122,0,1.683v.666h10.732a5.883,5.883,0,0,1,1.143-6.2Zm6.836.382a4.394,4.394,0,0,0-6.116,6.129Zm-5.026,7.238a4.395,4.395,0,0,0,6.115-6.129Z" transform="translate(-77.743 32.018)" fill="#fff"/>
  </g>
</svg>
