<svg xmlns="http://www.w3.org/2000/svg" width="58" height="57" viewBox="0 0 58 57">
  <g id="Group_545" data-name="Group 545" transform="translate(-51 -14.024)">
    <ellipse id="Ellipse_85" data-name="Ellipse 85" cx="29" cy="28.5" rx="29" ry="28.5" transform="translate(51 14.024)" fill="#fff"/>
    <g id="Amazon__company_-Logo.wine" data-name="Amazon_(company)-Logo.wine" transform="translate(55.826 39.024)">
      <path id="Path_504" data-name="Path 504" d="M163.884,194.365a18.418,18.418,0,0,1-10.388,3.176,18.8,18.8,0,0,1-12.69-4.843c-.263-.238-.027-.562.288-.377a25.542,25.542,0,0,0,12.7,3.367,25.248,25.248,0,0,0,9.685-1.98c.476-.2.873.311.408.657" transform="translate(-133.89 -182.971)" fill="#f90"/>
      <path id="Path_505" data-name="Path 505" d="M575.4,183.082c-.358-.459-2.374-.217-3.279-.109-.276.034-.318-.206-.069-.379,1.606-1.13,4.241-.8,4.548-.425s-.08,3.022-1.589,4.283c-.232.194-.453.091-.349-.166.339-.846,1.1-2.742.739-3.2" transform="translate(-544.242 -173.025)" fill="#f90"/>
      <path id="Path_506" data-name="Path 506" d="M27.946,1.591V.492a.271.271,0,0,1,.278-.278h4.918a.274.274,0,0,1,.284.278v.941a1.548,1.548,0,0,1-.37.69L30.507,5.762a5.431,5.431,0,0,1,2.805.6.5.5,0,0,1,.261.427V7.964c0,.16-.177.347-.362.25a5.666,5.666,0,0,0-5.2.008c-.17.093-.349-.093-.349-.253V6.857a1.328,1.328,0,0,1,.181-.756L30.8,1.867H28.23a.272.272,0,0,1-.284-.276M10.005,8.446h-1.5a.283.283,0,0,1-.267-.255V.511A.281.281,0,0,1,8.53.236h1.4A.282.282,0,0,1,10.2.492v1h.027a2.056,2.056,0,0,1,3.912,0,2.21,2.21,0,0,1,3.8-.583,4.087,4.087,0,0,1,.377,2.408l0,4.847a.283.283,0,0,1-.288.278H16.527a.284.284,0,0,1-.269-.278V4.1a9.613,9.613,0,0,0-.042-1.44A.779.779,0,0,0,15.336,2a.994.994,0,0,0-.894.629A4.65,4.65,0,0,0,14.3,4.1v4.07a.283.283,0,0,1-.288.278H12.52a.283.283,0,0,1-.269-.278l0-4.07c0-.857.141-2.117-.922-2.117S10.293,3.209,10.293,4.1v4.07a.283.283,0,0,1-.288.278M37.661.074c2.22,0,3.422,1.907,3.422,4.331,0,2.342-1.328,4.2-3.422,4.2-2.18,0-3.367-1.907-3.367-4.283S35.5.074,37.661.074m.013,1.568c-1.1,0-1.172,1.5-1.172,2.439s-.015,2.942,1.16,2.942,1.214-1.616,1.214-2.6a7.1,7.1,0,0,0-.223-2.037.936.936,0,0,0-.979-.743m6.288,6.8h-1.49a.284.284,0,0,1-.269-.278l0-7.682a.283.283,0,0,1,.288-.25h1.387a.286.286,0,0,1,.267.215V1.625h.027A2.035,2.035,0,0,1,46.209.074a1.963,1.963,0,0,1,1.747.9,4.881,4.881,0,0,1,.391,2.391V8.2a.287.287,0,0,1-.288.242h-1.5a.283.283,0,0,1-.265-.242V4.032c0-.84.1-2.069-.936-2.069a.978.978,0,0,0-.865.615,3.4,3.4,0,0,0-.238,1.454V8.168a.288.288,0,0,1-.293.278M24.025,4.777a2.926,2.926,0,0,1-.28,1.587,1.216,1.216,0,0,1-1.035.68c-.575,0-.911-.438-.911-1.084,0-1.275,1.143-1.507,2.227-1.507v.324m1.509,3.647a.312.312,0,0,1-.354.036,3.647,3.647,0,0,1-.859-1,2.963,2.963,0,0,1-2.467,1.088,2.122,2.122,0,0,1-2.239-2.332,2.54,2.54,0,0,1,1.6-2.446,10.369,10.369,0,0,1,2.814-.52V3.06a1.909,1.909,0,0,0-.183-1.084A1,1,0,0,0,23,1.587a1.138,1.138,0,0,0-1.2.9.313.313,0,0,1-.261.274L20.09,2.6a.264.264,0,0,1-.223-.314C20.2.53,21.79,0,23.213,0a3.392,3.392,0,0,1,2.254.745c.728.68.659,1.587.659,2.574V5.651a2.047,2.047,0,0,0,.564,1.387.283.283,0,0,1-.006.4c-.305.255-.848.728-1.147.993l0,0M4.409,4.777a2.926,2.926,0,0,1-.28,1.587,1.213,1.213,0,0,1-1.035.68c-.575,0-.909-.438-.909-1.084,0-1.275,1.143-1.507,2.225-1.507v.324M5.918,8.424a.312.312,0,0,1-.354.036,3.683,3.683,0,0,1-.859-1A2.961,2.961,0,0,1,2.239,8.551,2.123,2.123,0,0,1,0,6.219,2.543,2.543,0,0,1,1.6,3.773a10.369,10.369,0,0,1,2.814-.52V3.06a1.925,1.925,0,0,0-.181-1.084,1,1,0,0,0-.84-.389,1.141,1.141,0,0,0-1.2.9.313.313,0,0,1-.259.274L.474,2.6A.265.265,0,0,1,.25,2.29C.585.53,2.174,0,3.6,0A3.393,3.393,0,0,1,5.851.745c.728.68.659,1.587.659,2.574V5.651a2.046,2.046,0,0,0,.564,1.387.281.281,0,0,1,0,.4c-.305.255-.848.728-1.147.993l0,0" transform="translate(0 0)" fill="#070707"/>
    </g>
  </g>
</svg>
