<svg xmlns="http://www.w3.org/2000/svg" width="74.382" height="82.011" viewBox="0 0 74.382 82.011">
  <g id="Group_417" data-name="Group 417" transform="translate(-9.828 -6.627)">
    <path id="Path_660" data-name="Path 660" d="M71.778,8.627a1.967,1.967,0,0,1,1.967,1.967V22.4a1.967,1.967,0,0,1-1.967,1.967H22.595A1.967,1.967,0,0,1,20.627,22.4v-11.8a1.967,1.967,0,0,1,1.967-1.967Z" transform="translate(-0.176 -0.033)" fill="#c52229"/>
    <path id="Path_661" data-name="Path 661" d="M75.68,10.562v11.8A3.935,3.935,0,0,1,71.745,26.3H22.562a3.935,3.935,0,0,1-3.935-3.935v-11.8a3.935,3.935,0,0,1,3.935-3.935H71.745A3.935,3.935,0,0,1,75.68,10.562Zm-1.967,0a1.967,1.967,0,0,0-1.967-1.967H22.562a1.967,1.967,0,0,0-1.967,1.967v11.8a1.967,1.967,0,0,0,1.967,1.967H71.745a1.967,1.967,0,0,0,1.967-1.967Z" transform="translate(-0.144 0)" fill="#9b0f15"/>
    <path id="Path_662" data-name="Path 662" d="M22.445,9.611a.984.984,0,0,1,.984-.984H71.562a.984.984,0,1,1,0,1.967H23.428A.984.984,0,0,1,22.445,9.611Z" transform="translate(-0.206 -0.033)" fill="#df3840"/>
    <path id="Path_663" data-name="Path 663" d="M22.065,15.424a.984.984,0,0,1,.984-.984H71.182a.984.984,0,1,1,0,1.967H23.048A.984.984,0,0,1,22.065,15.424Z" transform="translate(-0.2 -0.128)" fill="#af1b22"/>
    <path id="Path_664" data-name="Path 664" d="M22.065,11.736a.984.984,0,0,1,.984-.984H71.182a.984.984,0,1,1,0,1.967H23.048A.984.984,0,0,1,22.065,11.736Z" transform="translate(-0.2 -0.067)" fill="#af1b22"/>
    <path id="Path_665" data-name="Path 665" d="M22.065,19.049a.984.984,0,0,1,.984-.984H71.182a.984.984,0,1,1,0,1.967H23.048A.984.984,0,0,1,22.065,19.049Z" transform="translate(-0.2 -0.187)" fill="#af1b22"/>
    <path id="Path_666" data-name="Path 666" d="M22.445,22.361a.984.984,0,0,1,.984-.984H71.562a.984.984,0,0,1,0,1.967H23.428A.984.984,0,0,1,22.445,22.361Z" transform="translate(-0.206 -0.241)" fill="#af1b22"/>
    <path id="Path_667" data-name="Path 667" d="M23.534,9.4a1.967,1.967,0,0,0-2.782,0L12.4,17.751a1.967,1.967,0,0,0,0,2.782L45.96,54.089a1.967,1.967,0,0,0,2.782,0l8.347-8.347a1.967,1.967,0,0,0,0-2.782Z" transform="translate(-0.033 -0.036)" fill="#f1333b"/>
    <path id="Path_668" data-name="Path 668" d="M19.328,7.981l-8.347,8.347a3.935,3.935,0,0,0,0,5.564L44.536,55.448a3.935,3.935,0,0,0,5.564,0L58.447,47.1a3.935,3.935,0,0,0,0-5.564L24.892,7.981A3.935,3.935,0,0,0,19.328,7.981Zm1.391,1.391a1.967,1.967,0,0,1,2.782,0L57.056,42.928a1.967,1.967,0,0,1,0,2.782L48.71,54.056a1.967,1.967,0,0,1-2.782,0L12.372,20.5a1.967,1.967,0,0,1,0-2.782Z" transform="translate(0 -0.003)" fill="#9b0f15"/>
    <path id="Path_669" data-name="Path 669" d="M70.976,9.443a1.967,1.967,0,0,1,2.8-.019l8.346,8.346a1.967,1.967,0,0,1,.019,2.763L49.533,54.051a1.967,1.967,0,0,1-2.8.019l-8.346-8.346a1.967,1.967,0,0,1-.019-2.763Z" transform="translate(-0.457 -0.036)" fill="#f1333b"/>
    <path id="Path_670" data-name="Path 670" d="M75.136,8l8.346,8.346a3.935,3.935,0,0,1,.038,5.526L50.91,55.39a3.935,3.935,0,0,1-5.6.038l-8.346-8.347a3.935,3.935,0,0,1-.038-5.526L69.534,8.039A3.935,3.935,0,0,1,75.136,8ZM73.745,9.392a1.967,1.967,0,0,0-2.8.019L38.334,42.928a1.967,1.967,0,0,0,.019,2.763L46.7,54.037a1.967,1.967,0,0,0,2.8-.019L82.11,20.5a1.967,1.967,0,0,0-.019-2.763Z" transform="translate(-0.424 -0.004)" fill="#9b0f15"/>
    <path id="Path_671" data-name="Path 671" d="M72.782,10.287a.984.984,0,0,1,.006,1.391l-20.1,20.288a.984.984,0,1,1-1.4-1.385l20.1-20.288A.984.984,0,0,1,72.782,10.287Z" transform="translate(-0.673 -0.055)" fill="#fe666d"/>
    <path id="Path_672" data-name="Path 672" d="M12.665,18.666a.984.984,0,0,1,1.391,0L26.844,31.453a.984.984,0,1,1-1.391,1.391L12.665,20.057A.984.984,0,0,1,12.665,18.666Z" transform="translate(-0.042 -0.192)" fill="#fe666d"/>
    <path id="Path_673" data-name="Path 673" d="M77.183,16A.984.984,0,1,1,77.2,14.59,1,1,0,0,1,77.183,16Z" transform="translate(-1.073 -0.125)" fill="#db1b24"/>
    <path id="Path_674" data-name="Path 674" d="M74.135,18.467a1.224,1.224,0,1,1,.022-1.752A1.24,1.24,0,0,1,74.135,18.467Z" transform="translate(-1.016 -0.159)" fill="#db1b24"/>
    <path id="Path_675" data-name="Path 675" d="M77.393,19.267a.612.612,0,1,1,.011-.876A.62.62,0,0,1,77.393,19.267Z" transform="translate(-1.086 -0.189)" fill="#db1b24"/>
    <path id="Path_676" data-name="Path 676" d="M70.189,27.716a.612.612,0,1,1,.011-.876A.62.62,0,0,1,70.189,27.716Z" transform="translate(-0.969 -0.327)" fill="#db1b24"/>
    <path id="Path_677" data-name="Path 677" d="M73.806,21.975a.612.612,0,1,1,.011-.876A.62.62,0,0,1,73.806,21.975Z" transform="translate(-1.028 -0.234)" fill="#db1b24"/>
    <path id="Path_678" data-name="Path 678" d="M70.178,31.159a.612.612,0,1,1,.011-.876A.62.62,0,0,1,70.178,31.159Z" transform="translate(-0.969 -0.384)" fill="#db1b24"/>
    <path id="Path_679" data-name="Path 679" d="M71.091,21.215a.612.612,0,1,1,.011-.876A.62.62,0,0,1,71.091,21.215Z" transform="translate(-0.984 -0.221)" fill="#db1b24"/>
    <path id="Path_680" data-name="Path 680" d="M73.12,28.34a.612.612,0,1,1,.011-.876A.62.62,0,0,1,73.12,28.34Z" transform="translate(-1.017 -0.337)" fill="#db1b24"/>
    <path id="Path_681" data-name="Path 681" d="M80.412,17.689a.612.612,0,1,1,.011-.876A.62.62,0,0,1,80.412,17.689Z" transform="translate(-1.136 -0.163)" fill="#db1b24"/>
    <path id="Path_682" data-name="Path 682" d="M77.1,22.9a1,1,0,1,1,.018-1.426A1.009,1.009,0,0,1,77.1,22.9Z" transform="translate(-1.071 -0.238)" fill="#db1b24"/>
    <path id="Path_683" data-name="Path 683" d="M80.966,20.472a1,1,0,1,1,.018-1.426A1.009,1.009,0,0,1,80.966,20.472Z" transform="translate(-1.134 -0.198)" fill="#db1b24"/>
    <path id="Path_684" data-name="Path 684" d="M73.14,25.483a1,1,0,1,1,.018-1.426A1.009,1.009,0,0,1,73.14,25.483Z" transform="translate(-1.006 -0.28)" fill="#db1b24"/>
    <path id="Path_685" data-name="Path 685" d="M75.961,25.934a.612.612,0,1,1,.011-.876A.62.62,0,0,1,75.961,25.934Z" transform="translate(-1.063 -0.298)" fill="#db1b24"/>
    <path id="Path_686" data-name="Path 686" d="M74.118,60.559A26.559,26.559,0,1,1,47.559,34,26.559,26.559,0,0,1,74.118,60.559Z" transform="translate(-0.182 -0.447)" fill="#ffbb0d"/>
    <path id="Path_687" data-name="Path 687" d="M76.053,60.526A28.526,28.526,0,1,1,47.526,32,28.526,28.526,0,0,1,76.053,60.526ZM47.526,87.085A26.559,26.559,0,1,0,20.967,60.526,26.559,26.559,0,0,0,47.526,87.085Z" transform="translate(-0.15 -0.414)" fill="#e89b05"/>
    <path id="Path_688" data-name="Path 688" d="M22.984,61.559A.984.984,0,0,1,22,60.575,25.575,25.575,0,0,1,47.575,35a.984.984,0,0,1,0,1.967A23.608,23.608,0,0,0,23.967,60.575.984.984,0,0,1,22.984,61.559Z" transform="translate(-0.199 -0.463)" fill="#e8aa0a"/>
    <path id="Path_689" data-name="Path 689" d="M72.575,60a.984.984,0,0,1,.984.984A25.575,25.575,0,0,1,47.984,86.559a.984.984,0,1,1,0-1.967A23.608,23.608,0,0,0,71.592,60.984.984.984,0,0,1,72.575,60Z" transform="translate(-0.607 -0.872)" fill="#e8aa0a"/>
    <path id="Path_690" data-name="Path 690" d="M67.347,60.673A19.673,19.673,0,1,1,47.673,41,19.673,19.673,0,0,1,67.347,60.673Z" transform="translate(-0.297 -0.561)" fill="#ffdd28"/>
    <path id="Path_691" data-name="Path 691" d="M69.281,60.641A21.641,21.641,0,1,1,47.641,39,21.641,21.641,0,0,1,69.281,60.641ZM47.641,80.314A19.673,19.673,0,1,0,27.967,60.641,19.673,19.673,0,0,0,47.641,80.314Z" transform="translate(-0.264 -0.529)" fill="#e89b05"/>
    <path id="Path_692" data-name="Path 692" d="M47.984,77.706A16.722,16.722,0,0,0,64.706,60.984a.984.984,0,0,1,1.967,0,18.69,18.69,0,0,1-18.69,18.69.984.984,0,0,1,0-1.967Z" transform="translate(-0.607 -0.872)" fill="#ecc704"/>
    <path id="Path_693" data-name="Path 693" d="M47.69,43.967A16.722,16.722,0,0,0,30.967,60.69a.984.984,0,1,1-1.967,0A18.69,18.69,0,0,1,47.69,42a.984.984,0,0,1,0,1.967Z" transform="translate(-0.313 -0.578)" fill="#ffef9c"/>
    <path id="Path_694" data-name="Path 694" d="M37,58.263l6.763-1.377,2.029-3.443L47.82,50l4.058,6.886,6.763,1.377-5.41,5.509,1.353,6.886L47.82,67.214l-6.763,3.443,1.353-6.886Z" transform="translate(-0.444 -0.708)" fill="#ffef9c"/>
    <path id="Path_695" data-name="Path 695" d="M43.73,56.853l4.058-6.886,4.058,6.886,6.763,1.377L53.2,63.739l1.353,6.886-6.763-3.443-6.763,3.443,1.353-6.886-5.41-5.509Zm-3.483,7.524-4.683-4.769A1.967,1.967,0,0,1,36.575,56.3l5.9-1.2,3.613-6.131a1.967,1.967,0,0,1,3.39,0L53.1,55.1,59,56.3a1.967,1.967,0,0,1,1.011,3.306l-4.683,4.769,1.153,5.868a1.967,1.967,0,0,1-2.823,2.132l-5.87-2.988-5.87,2.988a1.967,1.967,0,0,1-2.823-2.132Z" transform="translate(-0.411 -0.676)" fill="#e89b05"/>
  </g>
</svg>
