<svg xmlns="http://www.w3.org/2000/svg" width="19.536" height="24.784" viewBox="0 0 19.536 24.784">
  <g id="Group_425" data-name="Group 425" transform="translate(-627.088 -926.429)">
    <path id="Path_698" data-name="Path 698" d="M637.528,926.429c.4.063.812.109,1.213.19a9.651,9.651,0,0,1,5.252,2.936,9.479,9.479,0,0,1,2.518,5.183,9.589,9.589,0,0,1-1.748,7.193,9.227,9.227,0,0,1-2.263,2.234.382.382,0,0,0-.173.363q.006,2.942,0,5.884c0,.418-.17.705-.518.769a1.1,1.1,0,0,1-.6-.078c-1.38-.606-2.752-1.228-4.123-1.853a.516.516,0,0,0-.473,0q-2.057.937-4.12,1.859a.721.721,0,0,1-1.038-.277,1.157,1.157,0,0,1-.081-.469q-.008-2.905,0-5.811a.457.457,0,0,0-.214-.415,9.546,9.546,0,0,1-4.069-8.268,9.4,9.4,0,0,1,3.166-6.858,9.645,9.645,0,0,1,5.512-2.526c.134-.017.268-.038.4-.057Zm-.67,1.435a8.341,8.341,0,1,0,8.331,8.357A8.354,8.354,0,0,0,636.858,927.864ZM632.8,949.394c.121-.052.21-.087.3-.126,1.109-.5,2.221-.991,3.326-1.5a.948.948,0,0,1,.854,0c1.12.514,2.246,1.013,3.37,1.518.077.035.157.064.246.1v-4.275a9.848,9.848,0,0,1-8.092,0Z" transform="translate(0 0)" fill="#fff"/>
    <path id="Path_699" data-name="Path 699" d="M700.277,981.514a.767.767,0,0,1,.66.415c.446.719.9,1.435,1.341,2.157a.363.363,0,0,0,.345.2c.855.021,1.71.056,2.565.088a.717.717,0,0,1,.648,1.105c-.4.773-.821,1.535-1.219,2.309a.407.407,0,0,0,0,.324c.387.753.79,1.5,1.186,2.245a.736.736,0,0,1-.683,1.178c-.831.03-1.661.061-2.492.08a.386.386,0,0,0-.36.218c-.415.682-.869,1.341-1.257,2.038a.783.783,0,0,1-1.466-.01c-.384-.7-.84-1.357-1.257-2.038a.368.368,0,0,0-.341-.207c-.831-.019-1.661-.053-2.492-.08a.818.818,0,0,1-.687-.288.736.736,0,0,1-.027-.86c.4-.746.791-1.5,1.2-2.24a.363.363,0,0,0,0-.4c-.4-.729-.785-1.463-1.173-2.2-.345-.651-.042-1.16.7-1.183.847-.027,1.694-.056,2.54-.1a.38.38,0,0,0,.256-.16c.461-.72.911-1.446,1.362-2.172A.78.78,0,0,1,700.277,981.514Zm3.737,8.681.031-.1c-.26-.489-.492-1-.786-1.462a1.157,1.157,0,0,1,0-1.369c.295-.468.528-.975.8-1.489-.106-.01-.183-.021-.261-.024-.58-.023-1.161-.051-1.741-.063a.8.8,0,0,1-.714-.416c-.308-.5-.622-1-.935-1.5-.036-.058-.08-.11-.135-.184-.361.577-.709,1.128-1.051,1.683a.8.8,0,0,1-.714.415c-.5.007-1,.031-1.5.05-.158.006-.316.018-.475.027a.306.306,0,0,0,.01.073c.218.414.433.829.655,1.24.491.909.486.832-.005,1.743-.228.423-.451.85-.689,1.3.107.007.184.013.261.016.564.02,1.129.044,1.693.057a.879.879,0,0,1,.792.462c.293.492.6.973.906,1.458.036.057.08.11.136.185.34-.544.678-1.054.983-1.583a.95.95,0,0,1,.9-.526C702.789,990.2,703.4,990.195,704.014,990.195Z" transform="translate(-63.429 -51.744)" fill="#fff"/>
  </g>
</svg>
