<svg xmlns="http://www.w3.org/2000/svg" xmlns:xlink="http://www.w3.org/1999/xlink" width="167.733" height="350.115" viewBox="0 0 167.733 350.115">
  <defs>
    <filter id="Union_5" x="0" y="0" width="167.733" height="350.115" filterUnits="userSpaceOnUse">
      <feOffset dy="3" input="SourceAlpha"/>
      <feGaussianBlur stdDeviation="3" result="blur"/>
      <feFlood flood-color="#fff" flood-opacity="0.161"/>
      <feComposite operator="in" in2="blur"/>
      <feComposite in="SourceGraphic"/>
    </filter>
  </defs>
  <g id="Group_2252" data-name="Group 2252" transform="translate(-1200.238 1018.547)">
    <g transform="matrix(1, 0, 0, 1, 1200.24, -1018.55)" filter="url(#Union_5)">
      <path id="Union_5-2" data-name="Union 5" d="M-13110.315-2748.151c-5.253-.8-9.947-2.778-13.459-6.944a14.653,14.653,0,0,0-7.31-4.99,8.008,8.008,0,0,1-5.3-3.768c.1-3.505,1.705-6.8,1.455-10.356.891-6.369,1.272-12.722-.584-19a142.255,142.255,0,0,0-3.651-14.147q-1.8-7.211-3.605-14.429c-.88-2.91-.531-5.964-1.023-8.921a3.133,3.133,0,0,0-.186-1.827c-.04-1.2-.076-2.4-.113-3.592.313-7.934-.242-15.725-3.355-23.184a69.738,69.738,0,0,1-4.033-12.619c-1.246-5.95-2.734-11.8-5.848-17.1a4.049,4.049,0,0,1-.26-.847c-.445-1.09-.946-2.16-1.332-3.269a69.641,69.641,0,0,1-4.146-19c-.1-1.708-.867-2.465-2.664-2.522-1.864-.057-1.532,1.355-1.768,2.292-1.047,4.2-1.954,8.442-3,12.645a235.568,235.568,0,0,1-7.848,25.254c-2.967,7.539-5.921,15.14-10.726,21.709a29.26,29.26,0,0,0-5.9,16.333q-1,6.379-1.994,12.758-2.944,7.471-5.891,14.945c-2.143,4.645-4.658,9.137-5.844,14.177-1.974,6.532-2.061,13.193-1.366,19.908a32.08,32.08,0,0,0,1.532,6.731,12.484,12.484,0,0,1-4.729,4.891c-2.3,1.366-3.558,3.562-4.811,5.8-3.236,5.771-8.12,8.937-14.8,8.622-1.937-.09-4.456.252-5.636-2.216-.155-2.153,1.14-3.807,1.94-5.631,3.16-3.3,5.023-7.369,6.895-11.439a1.36,1.36,0,0,0,.412-1.189l.073-.09.105.11.14-.063a12.875,12.875,0,0,0,1.729-3.758c1.491-3.283,1.927-6.818,2.451-10.33a49.936,49.936,0,0,0,2.146-11.795,9.017,9.017,0,0,0,.415-3.618c.011-.3.017-.6.027-.9q-.031-5.422-.057-10.844c-.023-.6-.043-1.206-.063-1.807q0-2.936,0-5.867a27.594,27.594,0,0,0,.057-6.781c1.162-.993.269-2.4.694-3.535,1.036-2.784,1.063-5.764,1.7-8.628.84-.256.7-1.063.923-1.661q1.809-4.959,3.6-9.927c.469-.718.96-1.422,1.4-2.16a43.537,43.537,0,0,0,5.8-18.931c.389-4.688.245-9.446.645-14.157.422-5,.993-9.991,1.5-14.984a4.226,4.226,0,0,0,.433-1.033c1.013-7.884,3.664-15.283,6.638-22.59,1.725-4.236,3.485-8.462,5.224-12.7.415-1.007.9-2.3-.655-2.522-4.844-.694-7.987-3.934-11.144-7.15a37.432,37.432,0,0,0-12.854-8.482,18.958,18.958,0,0,1-8.99-7.153c-2.445-3.678-4.768-7.472-7.519-10.924-2.565-3.216-2.672-3.379-1.11-7.16,2.691-6.505,6.513-12.456,8.692-19.247,1.967-6.14,6.342-10.792,11.675-14.439a5.209,5.209,0,0,0,.6-.449,9.849,9.849,0,0,1,2.77-7.168c.152-.345.3-.691.439-1.041a18.532,18.532,0,0,1,2.393-1.655q1.074-.523,2.156-.962a37.1,37.1,0,0,1,12.838-3.268c10.617-1.189,13.36-4.216,17.229-6.5a11.8,11.8,0,0,0,1.068-3.853c.136-1.04.332-2.073.4-3.116.146-2.362.14-4.436-1.854-6.489a8.518,8.518,0,0,1-2.062-8.565,9.462,9.462,0,0,0,.428-4.426,21.453,21.453,0,0,1,.831-9.519l.03-1.229c.272-.093.5-.216.365-.572,1.588-2.419,4.618-3.648,5.4-6.821.22-.89,1.761-.817,2.781-.907.5.036,1.01.219,1.429-.226l2.183-.239,4.512-.007c2.7.422,5.283,1.568,8.1,1.329a1.919,1.919,0,0,1,.638.133c.346.093.611-.146.864-.385.315-.3.608-.608,1-.229.737.714-.672,1.405-.562,1.7.518,1.4,1.884,1.146,3.3,1.08-1.5,2.96.366,5.446.745,8.11-.066.375-.227.771.206,1.047.069.429.143.857.212,1.286.668,3.359-1.645,7.047,1.149,10.2.26.292.11,1.027.023,1.535-.252,1.472-.488,2.957-.877,4.4-.425,1.582-.811,3.276-2.894,3.562-.187.027-.5.216-.5.342-.126,2.818-2.4,5-2.31,7.878a16.912,16.912,0,0,0-.01,3.679c4.03,4.757,24.723,7.646,28.421,9.375a1.9,1.9,0,0,1,.39.244c5.446,1.915,9.623,5.383,11.588,11.445a8.314,8.314,0,0,0,2.046,3.375c3.393,3.512,7.024,6.9,9.16,11.37,2.565,5.379,5.326,10.612,9.286,15.111,2.419,2.748,2.323,5.738.99,8.831-3.631,8.416-9.253,14.808-18.094,18.1a44.251,44.251,0,0,0-12.141,7.25c-4.136,3.326-8.133,6.927-13.608,7.987-1.189-.475-2.658-.552-3.21-2.116q.5,2.686,1,5.376a4.424,4.424,0,0,0,.166,1.734,203.558,203.558,0,0,1,6.8,21.174c4.184,16.147,7.051,32.454,5.595,49.249a3.51,3.51,0,0,0,.04,1.342c1.559,4.864,1.661,9.9,1.788,14.935.007.3.01.6.013.9a1.581,1.581,0,0,0,.355,1.389q1.3,6.12,2.605,12.237c.84,4.183,1.332,8.416,1.794,12.652.545,3.449.017,6.937.408,10.413a14.368,14.368,0,0,1-.621,3.964l-.235,1.276c-.439.429-.243.94-.187,1.432q-.718,5.422-1.436,10.848c-.773,4.5-1.668,8.984-1.013,13.589a24.767,24.767,0,0,0,6.857,17.237,8.368,8.368,0,0,0,2.1,2.681c1.418,1.738,2.734,3.578,4.289,5.19a9.045,9.045,0,0,1,2.123,5.13c-1.481.594-2.819,1.726-4.466,1.726A3.575,3.575,0,0,1-13110.315-2748.151Zm-86.554-210.136a5.867,5.867,0,0,1,2.679-.748c2.863.1,2.93-.339,2.647-3.286-.455-4.7-2.744-8.549-5.372-12.193-3.033-4.2-6.333-8.18-7.267-13.526-.246-1.405-.92-.375-1.269.113a23.332,23.332,0,0,1-7.187,7.027c-1.7.98-1.984,2.066-.562,3.592a11.7,11.7,0,0,1,1.578,2.7c2.432,4.731,3.555,10.041,6.628,14.509,1.2,1.744,2.322,2.907,4.575,2.372C-13199.1-2957.247-13198-2957.768-13196.869-2958.287Zm62.742-16.768a41,41,0,0,0-5.17,16.326,4.447,4.447,0,0,0,2.621-1.013,3.651,3.651,0,0,1,4.549-.392,8.287,8.287,0,0,0,5.187,1.163,2.179,2.179,0,0,0,2.129-.94,28.156,28.156,0,0,0,4.971-6.665c1.924-3.8,3.525-7.778,6.648-11.13-4.9-1.326-8.217-4.442-11.373-7.778-1.01-2.106-2.452-3.967-3.3-6.18A44.765,44.765,0,0,1-13134.127-2975.055Z" transform="translate(13248.01 3085.72)" fill="#d1ad61" stroke="rgba(0,0,0,0)" stroke-width="1"/>
    </g>
  </g>
</svg>
