<svg xmlns="http://www.w3.org/2000/svg" width="22.186" height="22.156" viewBox="0 0 22.186 22.156">
  <g id="Group_356" data-name="Group 356" transform="translate(-5034.485 -218.414)">
    <g id="Group_354" data-name="Group 354" transform="translate(5034.485 218.414)">
      <path id="Path_623" data-name="Path 623" d="M5056.664,231.46a5.017,5.017,0,0,1-4.132,5,5.679,5.679,0,0,1-1.056.082c-1.778.008-3.557,0-5.335.009a.883.883,0,0,0-.455.136c-1.843,1.219-3.679,2.448-5.519,3.672a1.006,1.006,0,0,1-1.6-.514,1.536,1.536,0,0,1-.039-.4c0-.9,0-1.81,0-2.715v-.281a5.024,5.024,0,0,1-2.153-1.02,4.92,4.92,0,0,1-1.878-3.9q-.031-4.037,0-8.072a5.021,5.021,0,0,1,4.345-4.988,5.384,5.384,0,0,1,.8-.051q5.938,0,11.874,0a5.03,5.03,0,0,1,5.038,4.035,5.192,5.192,0,0,1,.106,1.054Q5056.675,227.482,5056.664,231.46Z" transform="translate(-5034.484 -218.414)" fill="#fff"/>
    </g>
    <g id="Group_355" data-name="Group 355" transform="translate(5044.574 222.959)">
      <rect id="Rectangle_75" data-name="Rectangle 75" width="2.009" height="6.617" rx="1.004" transform="translate(0 2.898)" fill="#070707"/>
      <rect id="Rectangle_76" data-name="Rectangle 76" width="2.009" height="2.009" rx="1.004" transform="translate(0)" fill="#070707"/>
    </g>
  </g>
</svg>
