<svg xmlns="http://www.w3.org/2000/svg" width="95.016" height="92.919" viewBox="0 0 95.016 92.919">
  <g id="Group_2257" data-name="Group 2257" transform="translate(-156.978 -252.081)">
    <g id="Group_2256" data-name="Group 2256" transform="translate(934.096 461.696)">
      <path id="Path_1820" data-name="Path 1820" d="M-766.886-81.416l10.046-41.307,29.828,34.655-29.617,10.733Z" transform="translate(-7.577 -46.151)" fill="#fefefe"/>
      <g id="Union_6" data-name="Union 6" transform="translate(6728.515 586.657)" fill="#222">
        <path d="M -7449.29345703125 -725.4642333984375 L -7449.29345703125 -725.4642333984375 C -7450.1640625 -725.4641723632812 -7451.03662109375 -725.693359375 -7451.880859375 -725.9149780273438 C -7451.984375 -725.942138671875 -7452.08740234375 -725.96923828125 -7452.19091796875 -725.9959106445312 C -7455.62744140625 -726.8867797851562 -7458.658203125 -728.5834350585938 -7461.169921875 -730.1256713867188 C -7466.6904296875 -733.5151977539062 -7471.8525390625 -737.9033813476562 -7477.4150390625 -743.935546875 C -7482.1044921875 -749.02001953125 -7485.54248046875 -753.9945068359375 -7487.92431640625 -759.143310546875 C -7488.787109375 -761.0054931640625 -7489.68994140625 -763.23291015625 -7489.84521484375 -765.6362915039062 C -7489.849609375 -765.9222412109375 -7489.82080078125 -766.2056884765625 -7489.79052734375 -766.5056762695312 C -7489.74951171875 -766.9122314453125 -7489.70703125 -767.3316040039062 -7489.751953125 -767.7612915039062 C -7489.533203125 -768.0604858398438 -7489.4345703125 -768.3945922851562 -7489.33935546875 -768.7186889648438 C -7489.26513671875 -768.97021484375 -7489.19482421875 -769.207763671875 -7489.072265625 -769.4249267578125 C -7488.265625 -770.8529663085938 -7486.92529296875 -771.1799926757812 -7485.5068359375 -771.4125366210938 C -7485.36572265625 -771.4354248046875 -7485.20703125 -771.4465942382812 -7485.02197265625 -771.4465942382812 C -7484.85498046875 -771.4465942382812 -7484.6884765625 -771.4381103515625 -7484.51220703125 -771.4291381835938 C -7484.3681640625 -771.4217529296875 -7484.2197265625 -771.4141845703125 -7484.0712890625 -771.4118041992188 C -7483.91552734375 -771.3447875976562 -7483.7509765625 -771.3109130859375 -7483.58203125 -771.3109130859375 C -7483.43212890625 -771.3109130859375 -7483.279296875 -771.33642578125 -7483.1162109375 -771.3887939453125 C -7482.90673828125 -771.3326416015625 -7482.2431640625 -771.1475219726562 -7481.23779296875 -770.803466796875 L -7481.234375 -770.8023071289062 L -7481.23095703125 -770.8013305664062 L -7481.21240234375 -770.7955322265625 C -7481.08837890625 -770.7568359375 -7480.96435546875 -770.7181396484375 -7480.84033203125 -770.6792602539062 C -7479.10009765625 -770.136474609375 -7477.396484375 -769.4285278320312 -7475.7763671875 -768.574951171875 L -7475.77099609375 -768.5723266601562 L -7475.76611328125 -768.5698852539062 C -7470.25927734375 -765.9808349609375 -7465.1953125 -762.6266479492188 -7460.71484375 -758.6005859375 C -7454.49951171875 -753.0153198242188 -7449.64208984375 -746.303955078125 -7446.27734375 -738.6530151367188 L -7446.27490234375 -738.648193359375 L -7446.27294921875 -738.6434326171875 C -7445.9140625 -737.912841796875 -7445.5927734375 -737.1836547851562 -7445.31884765625 -736.4761962890625 C -7444.86279296875 -735.2996826171875 -7444.5302734375 -734.2472534179688 -7444.30224609375 -733.2586669921875 C -7444.15673828125 -732.630615234375 -7444.01708984375 -731.9605102539062 -7444.04296875 -731.27685546875 L -7444.04443359375 -731.23828125 L -7444.0341796875 -731.2010498046875 C -7443.912109375 -730.7586669921875 -7443.91259765625 -730.3138427734375 -7444.03564453125 -729.8789672851562 L -7444.048828125 -729.8312377929688 L -7444.04345703125 -729.7819213867188 C -7443.9521484375 -729.00390625 -7444.2744140625 -728.1011962890625 -7444.92724609375 -727.3052368164062 C -7445.60693359375 -726.4771728515625 -7446.5166015625 -725.9234008789062 -7447.3017578125 -725.860107421875 L -7447.34228515625 -725.8568115234375 L -7447.3798828125 -725.8408203125 C -7447.49560546875 -725.79150390625 -7447.63037109375 -725.7692260742188 -7447.77294921875 -725.7456665039062 C -7447.97607421875 -725.712158203125 -7448.20458984375 -725.6743774414062 -7448.4169921875 -725.547607421875 C -7448.69921875 -725.4915161132812 -7448.98681640625 -725.4642333984375 -7449.29345703125 -725.4642333984375 Z" stroke="none"/>
        <path d="M -7449.29345703125 -725.7142333984375 C -7449.017578125 -725.7142333984375 -7448.7587890625 -725.7374877929688 -7448.5048828125 -725.78515625 C -7448.2646484375 -725.9178466796875 -7448.01708984375 -725.958740234375 -7447.8134765625 -725.9923706054688 C -7447.68603515625 -726.0133666992188 -7447.56591796875 -726.0332641601562 -7447.47802734375 -726.0707397460938 L -7447.4033203125 -726.1027221679688 L -7447.32177734375 -726.1092529296875 C -7446.60205078125 -726.1672973632812 -7445.75830078125 -726.6863403320312 -7445.12060546875 -727.4638061523438 C -7444.5107421875 -728.2075805664062 -7444.20849609375 -729.0419311523438 -7444.29150390625 -729.7529296875 L -7444.30322265625 -729.8515014648438 L -7444.27587890625 -729.9469604492188 C -7444.1640625 -730.3427734375 -7444.1640625 -730.7313232421875 -7444.27490234375 -731.1345825195312 L -7444.29541015625 -731.2091064453125 L -7444.29248046875 -731.2863159179688 C -7444.26806640625 -731.9391479492188 -7444.404296875 -732.5906982421875 -7444.5458984375 -733.2024536132812 C -7444.77099609375 -734.1793212890625 -7445.10009765625 -735.2205810546875 -7445.55224609375 -736.3859252929688 C -7445.82373046875 -737.086669921875 -7446.1416015625 -737.80908203125 -7446.4970703125 -738.533203125 L -7446.505859375 -738.5523681640625 C -7449.8564453125 -746.1705932617188 -7454.693359375 -752.8532104492188 -7460.8818359375 -758.4146728515625 C -7465.34423828125 -762.4243774414062 -7470.3876953125 -765.7650146484375 -7475.87255859375 -768.3436889648438 L -7475.892578125 -768.353759765625 C -7477.49951171875 -769.2002563476562 -7479.189453125 -769.90234375 -7480.9150390625 -770.440673828125 C -7481.0390625 -770.4795532226562 -7481.1630859375 -770.5181884765625 -7481.287109375 -770.5568237304688 L -7481.31884765625 -770.56689453125 C -7482.2255859375 -770.8773803710938 -7482.85205078125 -771.0571899414062 -7483.1123046875 -771.1287841796875 C -7483.27392578125 -771.0831909179688 -7483.4287109375 -771.0609130859375 -7483.58203125 -771.0609130859375 C -7483.76806640625 -771.0609130859375 -7483.94970703125 -771.0950927734375 -7484.123046875 -771.1627197265625 C -7484.25927734375 -771.1658935546875 -7484.39404296875 -771.1727294921875 -7484.52490234375 -771.179443359375 C -7484.69775390625 -771.188232421875 -7484.861328125 -771.1965942382812 -7485.02197265625 -771.1965942382812 C -7485.193359375 -771.1965942382812 -7485.33935546875 -771.1864624023438 -7485.46630859375 -771.1658325195312 C -7486.87451171875 -770.9349975585938 -7488.1015625 -770.6353759765625 -7488.8544921875 -769.3019409179688 C -7488.96337890625 -769.1096801757812 -7489.029296875 -768.8854370117188 -7489.099609375 -768.6480102539062 C -7489.18896484375 -768.3444213867188 -7489.2880859375 -768.0070190429688 -7489.49462890625 -767.6937255859375 C -7489.46142578125 -767.2732543945312 -7489.501953125 -766.8712158203125 -7489.54150390625 -766.4805297851562 C -7489.5712890625 -766.1901245117188 -7489.5986328125 -765.91552734375 -7489.59521484375 -765.6459350585938 C -7489.44140625 -763.2860717773438 -7488.5498046875 -761.0879516601562 -7487.69775390625 -759.248291015625 C -7485.32666015625 -754.1234741210938 -7481.90283203125 -749.1701049804688 -7477.23095703125 -744.10498046875 C -7471.6845703125 -738.0902709960938 -7466.53955078125 -733.7158813476562 -7461.0390625 -730.3386840820312 C -7458.54296875 -728.80615234375 -7455.53271484375 -727.1204833984375 -7452.1279296875 -726.2379760742188 C -7452.02490234375 -726.211181640625 -7451.9208984375 -726.1840209960938 -7451.8173828125 -726.1567993164062 C -7450.95068359375 -725.9291381835938 -7450.1318359375 -725.7141723632812 -7449.29345703125 -725.7142333984375 L -7449.29345703125 -725.7142333984375 M -7449.29345703125 -725.2142333984375 C -7450.30322265625 -725.2141723632812 -7451.28173828125 -725.5025024414062 -7452.25341796875 -725.75390625 C -7455.5126953125 -726.5988159179688 -7458.45361328125 -728.1644287109375 -7461.30078125 -729.91259765625 C -7467.44873046875 -733.6873779296875 -7472.73828125 -738.4952392578125 -7477.5986328125 -743.7660522460938 C -7481.8232421875 -748.3462524414062 -7485.51513671875 -753.3403930664062 -7488.1513671875 -759.038330078125 C -7489.12255859375 -761.1345825195312 -7489.94482421875 -763.2816772460938 -7490.09521484375 -765.6263427734375 C -7490.10693359375 -766.364013671875 -7489.9091796875 -767.0922241210938 -7490.0126953125 -767.8336181640625 C -7489.6005859375 -768.32666015625 -7489.60791015625 -768.9852905273438 -7489.2900390625 -769.5479125976562 C -7488.4375 -771.0570678710938 -7487.03955078125 -771.4146118164062 -7485.54736328125 -771.6592407226562 C -7485.04833984375 -771.7403564453125 -7484.52734375 -771.6648559570312 -7484.015625 -771.6611328125 C -7483.72021484375 -771.518310546875 -7483.4248046875 -771.5405883789062 -7483.12548828125 -771.6498413085938 C -7483.12548828125 -771.6498413085938 -7482.4072265625 -771.468017578125 -7481.15673828125 -771.0399780273438 C -7481.0263671875 -770.9993286132812 -7480.89599609375 -770.9586791992188 -7480.765625 -770.9178466796875 C -7478.9951171875 -770.3655395507812 -7477.294921875 -769.6575317382812 -7475.65966796875 -768.796142578125 C -7467.22119140625 -764.8287353515625 -7453.67041015625 -756.08544921875 -7446.04833984375 -738.753662109375 C -7445.69677734375 -738.0379028320312 -7445.37353515625 -737.3092041015625 -7445.0859375 -736.5664672851562 C -7444.67578125 -735.5089111328125 -7444.31591796875 -734.4306640625 -7444.05859375 -733.3148193359375 C -7443.900390625 -732.6317138671875 -7443.7666015625 -731.965576171875 -7443.79296875 -731.2674560546875 C -7443.6591796875 -730.781982421875 -7443.65771484375 -730.2964477539062 -7443.794921875 -729.8109741210938 C -7443.57275390625 -727.910400390625 -7445.5771484375 -725.748291015625 -7447.28173828125 -725.6109008789062 C -7447.61669921875 -725.4678955078125 -7448.00830078125 -725.5205688476562 -7448.322265625 -725.3117065429688 C -7448.6494140625 -725.2432861328125 -7448.97314453125 -725.2142333984375 -7449.29345703125 -725.2142333984375 Z" stroke="none" fill="#979fad"/>
      </g>
      <g id="Group_2255" data-name="Group 2255" transform="translate(-777.118 -185.039)">
        <path id="Path_1822" data-name="Path 1822" d="M-727.446-164.658a24.747,24.747,0,0,0,3.443,9.3,72.681,72.681,0,0,0,13.562,16.871A64.538,64.538,0,0,0-694.765-127.1a19.2,19.2,0,0,0,8.841,2.443c.175-.053.379-.165.356.178l-.339.18a11.618,11.618,0,0,1-5.243-.778,2.814,2.814,0,0,0-2.1.011c-4.544,1.764-9.125,3.431-13.661,5.215a.383.383,0,0,1-.477-.221,46.164,46.164,0,0,1-14.858-12.051,45.512,45.512,0,0,1-9.027-18.733,2.378,2.378,0,0,1,.124-1.148q1.685-6.97,3.4-13.934C-727.167-165.629-727.719-165.043-727.446-164.658Z" transform="translate(743.194 170.891)" fill="#dc1c4b"/>
        <path id="Path_1823" data-name="Path 1823" d="M-766.177-43a36.384,36.384,0,0,0,7.452,21.639c-.113.339-.429.4-.706.508-4.239,1.628-8.493,3.215-12.737,4.83a1.06,1.06,0,0,1-.873.1l3.529-14.634,3.041-12.61C-766.242-43.34-766.239-43.119-766.177-43Z" transform="translate(774.099 80.016)" fill="#dc1c4b"/>
        <path id="Path_1824" data-name="Path 1824" d="M-776.06,46.44-761.744,41l.061-.028A7.462,7.462,0,0,1-759.31,43.9q-5.944,2.275-11.889,4.549c-1.913.73-3.83,1.45-5.919,2.24A40.386,40.386,0,0,1-776.06,46.44Z" transform="translate(777.118 17.653)" fill="#b11d48"/>
        <path id="Path_1825" data-name="Path 1825" d="M-637.682-4.853a8.386,8.386,0,0,1,2.7-1.186c3.85-1.5,7.728-2.925,11.591-4.392a1.107,1.107,0,0,1,.86-.044A16.378,16.378,0,0,0-616.8-9.342c.078,0,.155.083.233.128-2.675,1.178-5.446,2.107-8.171,3.155-2.476.952-4.957,1.887-7.435,2.833a3.1,3.1,0,0,1-1.138.255.652.652,0,0,1-.6.04A20.212,20.212,0,0,1-637.3-4.385.621.621,0,0,1-637.682-4.853Z" transform="translate(673.852 55.809)" fill="#b11d48"/>
        <path id="Path_1826" data-name="Path 1826" d="M-666.62,11.008a27.393,27.393,0,0,0,4.372,1.882c-.526.711-1.394.737-2.119,1.019-3.7,1.437-7.407,2.831-11.115,4.236-.195.074-.4.113-.6.168a.926.926,0,0,1-.533-.7,4.979,4.979,0,0,1,.17-2.924c2.658-1.023,5.318-2.04,7.972-3.074.516-.2,1.12-.246,1.489-.747Z" transform="translate(702.791 39.947)" fill="#f3e2e2"/>
        <path id="Path_1827" data-name="Path 1827" d="M-706.713,25.6c0,.664.044,1.331-.013,1.99a3.2,3.2,0,0,0,.376,1.631c-2.945,1.15-5.851,2.409-8.9,3.292-.756-1-1.7-1.855-2.373-2.925a40.88,40.88,0,0,0,4.482-1.614C-710.985,27.211-708.853,26.395-706.713,25.6Z" transform="translate(733.053 29.04)" fill="#f3e2e2"/>
        <path id="Path_1828" data-name="Path 1828" d="M-717.3-167.777c-.334-.37.043-.913-.312-1.278l.186-1.092A6.573,6.573,0,0,1-717.3-167.777Z" transform="translate(733.05 174.01)" fill="#dd7f9c"/>
        <path id="Path_1829" data-name="Path 1829" d="M-538.737-27.732q0-.728,0-1.456A1.385,1.385,0,0,1-538.737-27.732Z" transform="translate(600.574 69.616)" fill="#edcfda"/>
        <path id="Path_1830" data-name="Path 1830" d="M-555.989-7.085l-.356-.178a1.767,1.767,0,0,1,1.081-.152C-555.444-7.168-555.732-7.161-555.989-7.085Z" transform="translate(613.615 53.5)" fill="#e17593"/>
        <path id="Path_1831" data-name="Path 1831" d="M-692.892-184.9a.618.618,0,0,1-.889-.012Z" transform="translate(715.399 184.941)" fill="#debfcf"/>
      </g>
    </g>
    <g id="Group_2254" data-name="Group 2254" transform="translate(538.711 444.005)">
      <path id="Path_1787" data-name="Path 1787" d="M-369.823-191.484a2,2,0,0,1,1.105,1.126c.507,1.06,1.06,2.1,1.553,3.164a.977.977,0,0,0,.881.63c1.258.15,2.509.358,3.764.535a1.53,1.53,0,0,1,1.371,1.023,1.58,1.58,0,0,1-.452,1.736c-.893.859-1.757,1.748-2.668,2.587a1.172,1.172,0,0,0-.413,1.263c.253,1.148.422,2.314.623,3.473a1.677,1.677,0,0,1-.574,1.791,1.634,1.634,0,0,1-1.872.023c-1.093-.575-2.2-1.135-3.275-1.735a.986.986,0,0,0-1.085,0c-1.078.6-2.184,1.155-3.271,1.74a1.645,1.645,0,0,1-1.873-.017,1.6,1.6,0,0,1-.574-1.7c.2-1.221.357-2.451.622-3.657a1.116,1.116,0,0,0-.4-1.168,32.952,32.952,0,0,1-3.27-3.353v-.907a1.761,1.761,0,0,1,1.623-1.337c1.1-.177,2.2-.367,3.313-.5a1.294,1.294,0,0,0,1.111-.788c.473-.979.945-1.959,1.466-2.913.308-.564.668-1.1,1.431-1.078A2.283,2.283,0,0,1-369.823-191.484Z" transform="translate(0 -0.274)" fill="#fff"/>
      <path id="Path_1788" data-name="Path 1788" d="M-248.238-191.924c1.915.751,2.818,2.128,2.442,3.727a3.076,3.076,0,0,1-3.041,2.453,3.1,3.1,0,0,1-2.993-2.294,3.128,3.128,0,0,1,1.636-3.568c.171-.093.434-.063.5-.319Z" transform="translate(-96.729)" fill="#fff"/>
      <path id="Path_1789" data-name="Path 1789" d="M-64.908-191.924c1.3.962.993,2.33.824,3.6a1.326,1.326,0,0,1-1.343,1.032,1.473,1.473,0,0,1-1.475-.848A3.32,3.32,0,0,1-66-191.924Z" transform="translate(-236.679)" fill="#fff"/>
      <path id="Path_1790" data-name="Path 1790" d="M-379.634,181.972l.061-.065.085.028a.776.776,0,0,1,.019,1.146l-.081-.021h-.084Z" transform="translate(0 -283.156)" fill="#595959"/>
      <path id="Path_1795" data-name="Path 1795" d="M-73.779,94.024a4.393,4.393,0,0,1-1.121-1.15A23.489,23.489,0,0,0-90.2,82.636a1.772,1.772,0,0,0-1.906.483,1.557,1.557,0,0,0,1.075,2.527A21.681,21.681,0,0,1-85.077,87.7a19.511,19.511,0,0,1,5.637,4.431,2.387,2.387,0,0,1-.228.121c-.143.046-.289.087-.434.129a8.968,8.968,0,0,0-5.234,3.789,6.242,6.242,0,0,0,.344,7.124,6.207,6.207,0,0,0,6.918,2.008c3.015-1.1,4.092-3.519,4.4-6.636.148.216.221.3.274.4a7.687,7.687,0,0,1,.082,7.369,1.546,1.546,0,0,0,.65,2.3c.868.4,1.642.049,2.188-1A10.8,10.8,0,0,0-73.779,94.024ZM-76.8,98.2c-.007,2.348-.934,3.842-2.593,4.271a3.1,3.1,0,0,1-3.2-1.191,3,3,0,0,1-.124-3.4,5.594,5.594,0,0,1,3.449-2.45,1.627,1.627,0,0,1,2.282,1.332A4.267,4.267,0,0,1-76.8,98.2Z" transform="translate(-217.513 -207.905)" fill="#fff"/>
      <path id="Path_1796" data-name="Path 1796" d="M-174.986-54.192c-1.414.661-2.827,1.326-4.244,1.983a1.582,1.582,0,0,1-1.851-.2,1.486,1.486,0,0,1-.427-1.57,1.791,1.791,0,0,1,1.1-1.118q1.528-.763,3.059-1.52c3.268-1.532,6.543-3.051,9.8-4.6q9.346-4.433,18.681-8.889a6.644,6.644,0,0,1,.832-.346,1.5,1.5,0,0,1,1.844.73,1.452,1.452,0,0,1-.453,1.929,4.706,4.706,0,0,1-.864.483q-13.5,6.435-27,12.864C-174.666-54.361-174.825-54.275-174.986-54.192Z" transform="translate(-150.022 -91.952)" fill="#fff"/>
      <path id="Path_1797" data-name="Path 1797" d="M-248.124-133.461a69.815,69.815,0,0,1-4.682,13.607c-.036.083-.066.168-.1.251-.541,1.277-1.3,1.734-2.249,1.348-.92-.375-1.137-1.281-.618-2.55a77.838,77.838,0,0,0,3.949-10.648c.3-1.2.522-2.409.781-3.614a42.441,42.441,0,0,0-.251-15.912c-.062-.295-.107-.594-.145-.893a1.6,1.6,0,0,1,1.2-1.859,1.517,1.517,0,0,1,1.811,1.234,43,43,0,0,1,.88,5.344A49.576,49.576,0,0,1-248.124-133.461Z" transform="translate(-93.607 -28.901)" fill="#fff"/>
      <path id="Path_1798" data-name="Path 1798" d="M-179.38,21.6a32.788,32.788,0,0,0-7.034.445c-1.971.278-3.929.645-5.893.97-1.526.253-2.575-.716-2.142-1.971a1.621,1.621,0,0,1,1.434-1.073,88.908,88.908,0,0,1,10.847-1.48,5.65,5.65,0,0,0,.792-.142,64.957,64.957,0,0,1,10.2.7,53.9,53.9,0,0,1,9.425,2.468,1.6,1.6,0,0,1,1.2,2.087,1.6,1.6,0,0,1-2.179.875,48.636,48.636,0,0,0-8.365-2.24A36.156,36.156,0,0,0-179.38,21.6Z" transform="translate(-140.193 -159.268)" fill="#fff"/>
      <path id="Path_1799" data-name="Path 1799" d="M-132.658-116.326c0,1.178.018,2.356,0,3.533-.023,1.228-.543,1.8-1.749,1.82q-3.669.052-7.339,0a1.546,1.546,0,0,1-1.738-1.737q-.041-3.714,0-7.429a1.509,1.509,0,0,1,1.7-1.67q3.715-.035,7.43,0a1.514,1.514,0,0,1,1.691,1.679C-132.633-118.863-132.659-117.594-132.658-116.326Z" transform="translate(-178.85 -53.094)" fill="#fff"/>
      <path id="Path_1801" data-name="Path 1801" d="M-215.472-61.385q-3.746,3.337-7.493,6.672a7.985,7.985,0,0,1-1.124.9,1.387,1.387,0,0,1-1.874-.324,1.385,1.385,0,0,1-.133-1.827,4.91,4.91,0,0,1,.8-.849q3.811-3.466,7.632-6.919,3.338-2.983,6.676-5.967c1.188-1.063,2.009-1.186,2.744-.4s.5,1.685-.681,2.752Q-212.206-64.375-215.472-61.385Z" transform="translate(-116.083 -91.894)" fill="#fff"/>
      <path id="Path_1802" data-name="Path 1802" d="M-196.182-131.621a4.624,4.624,0,0,1-4.614-4.685,4.69,4.69,0,0,1,4.655-4.584,4.675,4.675,0,0,1,4.608,4.715A4.61,4.61,0,0,1-196.182-131.621Z" transform="translate(-135.46 -38.656)" fill="#fff"/>
      <path id="Path_1803" data-name="Path 1803" d="M-42.9,47.1a4.6,4.6,0,0,1-4.645-4.643,4.647,4.647,0,0,1,4.6-4.62A4.7,4.7,0,0,1-38.278,42.5,4.662,4.662,0,0,1-42.9,47.1Z" transform="translate(-251.536 -174.031)" fill="#fff"/>
      <path id="Path_1804" data-name="Path 1804" d="M-51.778-169.743c-1.508,0-2.288-.543-2.286-1.589s.773-1.576,2.289-1.578c1.579,0,2.384.531,2.384,1.581S-50.2-169.741-51.778-169.743Z" transform="translate(-246.601 -14.402)" fill="#fff"/>
      <path id="Path_1805" data-name="Path 1805" d="M-83.718-169.774c-.211,0-.424.017-.632,0a1.642,1.642,0,0,1-1.64-1.591,1.6,1.6,0,0,1,1.578-1.54,7.5,7.5,0,0,1,1.532.005,1.517,1.517,0,0,1,1.533,1.561,1.577,1.577,0,0,1-1.558,1.559,7.089,7.089,0,0,1-.813,0Z" transform="translate(-222.419 -14.375)" fill="#fff"/>
      <path id="Path_1806" data-name="Path 1806" d="M-63.8-157.635c0,.3.024.6,0,.9a1.477,1.477,0,0,1-1.482,1.4,1.493,1.493,0,0,1-1.564-1.315,9.934,9.934,0,0,1-.01-1.891,1.5,1.5,0,0,1,1.58-1.4,1.5,1.5,0,0,1,1.485,1.5c.02.269,0,.541,0,.812Z" transform="translate(-236.877 -24.222)" fill="#fff"/>
      <path id="Path_1807" data-name="Path 1807" d="M-13.5-67.621c-1.512,0-2.3-.548-2.264-1.58.036-1.011.785-1.512,2.262-1.512a8.859,8.859,0,0,1,.9.014,1.593,1.593,0,0,1,1.491,1.542,1.57,1.57,0,0,1-1.579,1.534C-12.959-67.607-13.231-67.621-13.5-67.621Z" transform="translate(-275.608 -91.807)" fill="#fff"/>
      <path id="Path_1808" data-name="Path 1808" d="M-38.243-42.78c.019,1.526-.515,2.3-1.547,2.284s-1.548-.8-1.54-2.334a5.222,5.222,0,0,1,.07-1.079A1.563,1.563,0,0,1-39.7-45.152a1.543,1.543,0,0,1,1.448,1.468C-38.219-43.385-38.243-43.081-38.243-42.78Z" transform="translate(-256.246 -111.17)" fill="#fff"/>
      <path id="Path_1809" data-name="Path 1809" d="M-19.043-91.584a3.575,3.575,0,0,1-2.574,2.573,1.463,1.463,0,0,1-1.34-.767,1.393,1.393,0,0,1,.048-1.6,6.349,6.349,0,0,1,1.52-1.522,1.385,1.385,0,0,1,1.613-.029A1.449,1.449,0,0,1-19.043-91.584Z" transform="translate(-269.989 -74.794)" fill="#fff"/>
      <path id="Path_1810" data-name="Path 1810" d="M-38.279-100.3c0,.271.018.545,0,.815a1.518,1.518,0,0,1-1.475,1.527,1.549,1.549,0,0,1-1.591-1.425,9.444,9.444,0,0,1-.025-1.447,1.628,1.628,0,0,1,1.556-1.768c.893-.005,1.507.689,1.55,1.755.007.181,0,.362,0,.544Z" transform="translate(-256.202 -67.657)" fill="#fff"/>
      <path id="Path_1811" data-name="Path 1811" d="M-62.189-93.131a3.451,3.451,0,0,1,2.621,2.641A1.517,1.517,0,0,1-61.849-89.2,4.951,4.951,0,0,1-63.5-90.853,1.529,1.529,0,0,1-62.189-93.131Z" transform="translate(-239.299 -74.83)" fill="#fff"/>
      <path id="Path_1812" data-name="Path 1812" d="M-21.513-52.561a3.5,3.5,0,0,1,2.6,2.656,1.5,1.5,0,0,1-2.274,1.274,4.923,4.923,0,0,1-1.594-1.577A1.537,1.537,0,0,1-21.513-52.561Z" transform="translate(-270.116 -105.56)" fill="#fff"/>
      <path id="Path_1813" data-name="Path 1813" d="M-354.9-171.059c.642,2.211,1.946,3.346,4.361,3.161-1.831,1.341-2.582,2.952-1.624,5.191-1.834-1.4-3.567-1.547-5.407-.018.733-2.176.292-3.837-1.7-5.109A3.9,3.9,0,0,0-354.9-171.059Z" transform="translate(-15.429 -15.804)" fill="#feda43"/>
      <path id="Path_1817" data-name="Path 1817" d="M-126.259-107.021c-.1.744.311,1.7-.172,2.182s-1.435.138-2.18.145c-2.3.021-2.307.008-2.3-2.27,0-.75-.247-1.744.132-2.187.447-.521,1.474-.16,2.247-.169.716-.009,1.65-.318,2.1.124C-125.947-108.712-126.363-107.763-126.259-107.021Z" transform="translate(-188.333 -62.482)" fill="#c8d953"/>
      <path id="Path_1818" data-name="Path 1818" d="M-188.032-126.578a1.594,1.594,0,0,1,1.544-1.488,1.575,1.575,0,0,1,1.526,1.591,1.52,1.52,0,0,1-1.629,1.458A1.533,1.533,0,0,1-188.032-126.578Z" transform="translate(-145.127 -48.369)" fill="#db93bf"/>
      <path id="Path_1819" data-name="Path 1819" d="M-31.68,52.126a1.575,1.575,0,0,1-1.469,1.552,1.5,1.5,0,0,1-1.592-1.488A1.546,1.546,0,0,1-33.3,50.619,1.618,1.618,0,0,1-31.68,52.126Z" transform="translate(-261.237 -183.711)" fill="#d2547c"/>
    </g>
  </g>
</svg>
