<svg xmlns="http://www.w3.org/2000/svg" width="15.816" height="22.673" viewBox="0 0 15.816 22.673">
  <g id="google-maps-2020-icon-2" transform="translate(-42.241 -179.17)">
    <path id="Path_4119-2" data-name="Path 4119-2" d="M52.541,179.537a7.924,7.924,0,0,0-8.447,2.456l3.74,3.141Z" fill="#fff"/>
    <path id="Path_4120-2" data-name="Path 4120-2" d="M44.094,181.993a7.878,7.878,0,0,0-1.852,5.083,8.9,8.9,0,0,0,.783,3.772l4.805-5.713Z" fill="#fff"/>
    <path id="Path_4121-2" data-name="Path 4121-2" d="M50.153,184.055a3.026,3.026,0,0,1,2.309,4.98l4.707-5.6a7.912,7.912,0,0,0-4.631-3.9l-4.7,5.6a3.016,3.016,0,0,1,2.318-1.083" fill="#fff"/>
    <path id="Path_4122-2" data-name="Path 4122-2" d="M50.155,190.1a3.023,3.023,0,0,1-2.32-4.966l-4.81,5.713a28.219,28.219,0,0,0,3.593,5.127l5.843-6.944a3.022,3.022,0,0,1-2.306,1.07" fill="#fff"/>
    <path id="Path_4123-2" data-name="Path 4123-2" d="M52.344,197.871c2.64-4.125,5.713-6,5.713-10.8a7.872,7.872,0,0,0-.89-3.646L46.622,195.979c.447.586.9,1.208,1.338,1.9,1.6,2.479,1.159,3.964,2.192,3.964s.591-1.49,2.192-3.968" fill="#fff"/>
  </g>
</svg>
