<svg xmlns="http://www.w3.org/2000/svg" width="25.067" height="25.063" viewBox="0 0 25.067 25.063">
  <g id="Group_577" data-name="Group 577" transform="translate(-121.916 -245.488)">
    <path id="Path_752" data-name="Path 752" d="M121.915,258.012a12.534,12.534,0,1,1,12.391,12.539A12.549,12.549,0,0,1,121.915,258.012ZM124.2,258a10.252,10.252,0,1,0,10.276-10.232A10.256,10.256,0,0,0,124.2,258Z" transform="translate(0 0)" fill="#d0ad60"/>
    <path id="Path_753" data-name="Path 753" d="M222.165,371.161l1.718-1.574q2.125-1.947,4.248-3.895a1.149,1.149,0,0,1,.944-.345,1.088,1.088,0,0,1,.963.772,1.074,1.074,0,0,1-.308,1.194c-.826.77-1.663,1.529-2.5,2.292-1.409,1.292-2.815,2.589-4.233,3.871a1.662,1.662,0,0,1-.66.371,1.035,1.035,0,0,1-1.025-.307c-1.139-1.138-2.281-2.273-3.414-3.417a1.135,1.135,0,1,1,1.6-1.607c.818.8,1.625,1.62,2.437,2.431C222.01,371.016,222.081,371.081,222.165,371.161Z" transform="translate(-88.816 -111.305)" fill="#d0ad60"/>
  </g>
</svg>
