<svg xmlns="http://www.w3.org/2000/svg" width="179.093" height="179.093" viewBox="0 0 179.093 179.093">
  <g id="Group_2293" data-name="Group 2293" transform="translate(338.507 -1301.097)">
    <path id="Path_1874" data-name="Path 1874" d="M-187.362,1501.45a61.607,61.607,0,0,1-61.565,59.362,61.607,61.607,0,0,1-61.565-59.362h-27.954a88.815,88.815,0,0,0,7.022,32.619,89.3,89.3,0,0,0,19.176,28.457,89.3,89.3,0,0,0,28.456,19.176,88.972,88.972,0,0,0,34.864,7.05,88.938,88.938,0,0,0,34.864-7.05,89.2,89.2,0,0,0,28.456-19.176,89.225,89.225,0,0,0,19.176-28.457,88.816,88.816,0,0,0,7.022-32.619Z" transform="translate(-0.033 -108.562)" fill="#d1ad61"/>
    <path id="Path_1875" data-name="Path 1875" d="M-55.522,1390.644c0,.75-.009,1.5-.028,2.244H-83.5c.028-.745.042-1.495.042-2.244a61.605,61.605,0,0,0-61.607-61.607c-.573,0-1.141.01-1.7.023v-27.944c.568-.014,1.136-.019,1.7-.019a88.939,88.939,0,0,1,34.864,7.05,89.123,89.123,0,0,1,28.456,19.176,89.124,89.124,0,0,1,19.176,28.456A88.938,88.938,0,0,1-55.522,1390.644Z" transform="translate(-103.892)" fill="#f8ce77"/>
    <path id="Path_1876" data-name="Path 1876" d="M-250.665,1301.138v27.944a61.607,61.607,0,0,0-59.9,61.584c0,.75.014,1.5.042,2.244h-27.954c-.018-.745-.028-1.495-.028-2.244a88.947,88.947,0,0,1,7.05-34.864,89.2,89.2,0,0,1,19.176-28.456,89.222,89.222,0,0,1,28.456-19.176A88.79,88.79,0,0,1-250.665,1301.138Z" transform="translate(0 -0.022)" fill="#9d8249"/>
    <g id="Group_2292" data-name="Group 2292" transform="translate(-311.207 1328.717)">
      <g id="Group_2291" data-name="Group 2291" transform="translate(0 0)">
        <circle id="Ellipse_203" data-name="Ellipse 203" cx="77.85" cy="77.85" r="77.85" transform="translate(-16 -16)" fill="#fff" opacity="0.35"/>
        <circle id="Ellipse_203-2" data-name="Ellipse 203" cx="61.85" cy="61.85" r="61.85" fill="#fff"/>
      </g>
    </g>
    <circle id="Ellipse_204" data-name="Ellipse 204" cx="54.52" cy="54.52" r="54.52" transform="translate(-303.877 1336.047)" fill="none" stroke="#2d2d2d" stroke-width="2" opacity="0.15" style="mix-blend-mode: normal;isolation: isolate"/>
  </g>
</svg>
