<svg id="Component_26_1" data-name="Component 26 – 1" xmlns="http://www.w3.org/2000/svg" width="32.013" height="32.004" viewBox="0 0 32.013 32.004">
  <path id="Path_1691" data-name="Path 1691" d="M550.553-372.9h-2a1.325,1.325,0,0,0-.209-.049,15.439,15.439,0,0,1-7.593-2.593,15.766,15.766,0,0,1-6.957-10.574c-.11-.591-.167-1.192-.249-1.789v-2c.019-.1.04-.2.056-.3.119-.77.184-1.553.362-2.31a15.983,15.983,0,0,1,19.006-12.024,16.007,16.007,0,0,1,12.581,15.035,15.679,15.679,0,0,1-3.937,11.116,15.624,15.624,0,0,1-9.3,5.249C551.728-373.043,551.138-372.983,550.553-372.9Zm-.984-29.51a13.5,13.5,0,0,0-13.523,13.471A13.507,13.507,0,0,0,549.535-375.4a13.5,13.5,0,0,0,13.523-13.472A13.5,13.5,0,0,0,549.568-402.413Z" transform="translate(-533.544 404.907)" fill="#fff"/>
  <g id="Group_2233" data-name="Group 2233" transform="translate(13.026 6.632)">
    <path id="Path_1692" data-name="Path 1692" d="M743.937-215.151v-7.331c-.391,0-.772.008-1.152,0a1.245,1.245,0,0,1-1.287-1.183,1.213,1.213,0,0,1,1.208-1.31c.812-.016,1.625-.011,2.438,0a1.235,1.235,0,0,1,1.3,1.319q0,3.343,0,6.687v1.824c.374,0,.734,0,1.094,0a1.246,1.246,0,0,1,1.358,1.266,1.247,1.247,0,0,1-1.359,1.234q-2.344,0-4.688,0a1.246,1.246,0,0,1-1.358-1.265,1.248,1.248,0,0,1,1.357-1.235C743.206-215.152,743.558-215.151,743.937-215.151Z" transform="translate(-741.496 229.625)" fill="#fff"/>
    <path id="Path_1693" data-name="Path 1693" d="M774.877-299.034a1.553,1.553,0,0,1,1.567,1.559,1.575,1.575,0,0,1-1.574,1.562,1.574,1.574,0,0,1-1.551-1.553A1.553,1.553,0,0,1,774.877-299.034Z" transform="translate(-771.326 299.034)" fill="#fff"/>
  </g>
</svg>
