<svg xmlns="http://www.w3.org/2000/svg" width="28.314" height="29.402" viewBox="0 0 28.314 29.402">
  <g id="Group_2270" data-name="Group 2270" transform="translate(-321.386 -34.764)">
    <path id="Path_1837" data-name="Path 1837" d="M-401.1,224.89h.517a1.273,1.273,0,0,1,.816,1.441c-.023.234,0,.473,0,.723h13.076c0-.289-.007-.564,0-.839a2.71,2.71,0,0,1,.063-.594,1.22,1.22,0,0,1,.747-.732h.517a1.242,1.242,0,0,1,.852,1.391c-.017.254,0,.51,0,.789.542,0,1.05-.033,1.551.01a5.243,5.243,0,0,1,1.371.253,3.863,3.863,0,0,1,2.518,3.8q0,9.545,0,19.091c0,.153-.007.306-.018.459a3.868,3.868,0,0,1-3.818,3.6q-10.32.016-20.641,0a3.488,3.488,0,0,1-1.631-.391,3.862,3.862,0,0,1-2.2-3.671q0-9.474,0-18.947c0-.182,0-.364.013-.545a3.814,3.814,0,0,1,3.053-3.559,12.965,12.965,0,0,1,2-.1c.12-.005.24,0,.375,0,0-.293.015-.542,0-.789A1.239,1.239,0,0,1-401.1,224.89Zm-.849,4.36h-1.361a1.736,1.736,0,0,0-1.9,1.906q0,9.517,0,19.034a1.743,1.743,0,0,0,1.922,1.92h14.613c1.895,0,3.79,0,5.684,0a1.7,1.7,0,0,0,1.674-1.272,2.665,2.665,0,0,0,.067-.654q.005-9.5,0-19.006a2.875,2.875,0,0,0-.029-.457,1.54,1.54,0,0,0-1.231-1.388,13.906,13.906,0,0,0-2-.11c0,.384,0,.7,0,1.013a1.113,1.113,0,0,1-1.095,1.19,1.1,1.1,0,0,1-1.082-1.194c0-.322,0-.643,0-.959h-13.076c0,.338,0,.652,0,.967a1.1,1.1,0,0,1-1.09,1.186,1.114,1.114,0,0,1-1.087-1.2C-401.948,229.915-401.945,229.6-401.945,229.25Z" transform="translate(728.772 -190.126)" fill="#fff"/>
    <circle id="Ellipse_194" data-name="Ellipse 194" cx="2" cy="2" r="2" transform="translate(327 50)" fill="#fff"/>
    <circle id="Ellipse_195" data-name="Ellipse 195" cx="2" cy="2" r="2" transform="translate(334 50)" fill="#fff"/>
    <circle id="Ellipse_196" data-name="Ellipse 196" cx="2" cy="2" r="2" transform="translate(341 50)" fill="#fff"/>
  </g>
</svg>
