<svg xmlns="http://www.w3.org/2000/svg" width="26" height="25.981" viewBox="0 0 26 25.981">
  <g id="Group_2762" data-name="Group 2762" transform="translate(799.743 -1446.687)">
    <path id="Path_629" data-name="Path 629" d="M-786.016,1472.668h-1.42c-.028-.031-.066-.024-.1-.025s-.073-.006-.1.025h-.2c-.34-.06-.686-.048-1.027-.084a10.243,10.243,0,0,1-2.847-.785,12.944,12.944,0,0,1-3.523-2.169,13.141,13.141,0,0,1-3.453-4.6,10.482,10.482,0,0,1-.983-3.52,22.765,22.765,0,0,1-.014-3.307,12.01,12.01,0,0,1,2.992-6.992,12.968,12.968,0,0,1,6.614-4.2,9.269,9.269,0,0,1,2.265-.311c.709-.017,1.417-.006,2.125,0a10.415,10.415,0,0,1,3.921.856,12.642,12.642,0,0,1,3.686,2.287,13.275,13.275,0,0,1,2.693,3.274,13.125,13.125,0,0,1,1.476,3.785,12.58,12.58,0,0,1,.151,1.553c.005.057-.018.119.025.17v.152c-.031.028-.024.066-.025.1s-.005.073.025.1v1.42a.118.118,0,0,0,0,.152v.2c-.056.357-.05.718-.084,1.076a9.436,9.436,0,0,1-.606,2.4,12.757,12.757,0,0,1-2.145,3.735,13.116,13.116,0,0,1-4.042,3.317,13.208,13.208,0,0,1-3.316,1.217,12.325,12.325,0,0,1-1.556.152c-.057,0-.119-.019-.17.025h-.2A.118.118,0,0,0-786.016,1472.668Z" fill="#d1ad61"/>
    <path id="Path_630" data-name="Path 630" d="M-289.177,1716.469c-.072-.051-.054-.1,0-.152Z" transform="translate(-484.566 -255.923)" fill="#8dc9f8"/>
    <path id="Path_631" data-name="Path 631" d="M-529.73,1956.872c.051-.054.1-.071.152,0Z" transform="translate(-256.286 -484.204)" fill="#8cc8f8"/>
    <path id="Path_632" data-name="Path 632" d="M-289.168,1684.491c0-.041-.006-.081.043-.1v.1Q-289.15,1684.546-289.168,1684.491Z" transform="translate(-484.617 -225.621)" fill="#a1d2f9"/>
    <path id="Path_633" data-name="Path 633" d="M-289.156,1686.34a.292.292,0,0,1,.043,0v.1A.1.1,0,0,1-289.156,1686.34Z" transform="translate(-484.629 -227.47)" fill="#85c5f8"/>
    <path id="Path_634" data-name="Path 634" d="M-561.655,1956.921c.018-.049.058-.047.1-.043s.037.026,0,.043Z" transform="translate(-225.984 -484.253)" fill="#a1d2f9"/>
    <path id="Path_635" data-name="Path 635" d="M-559.7,1956.933c0-.014,0-.029,0-.043a.1.1,0,0,1,.1.043Z" transform="translate(-227.834 -484.264)" fill="#85c5f8"/>
    <path id="Path_636" data-name="Path 636" d="M-656.965,1615.447a1.165,1.165,0,0,1,.828.39c.828.833,1.664,1.657,2.487,2.5.15.153.225.172.389.007q2.991-3.011,6-6.009a1.108,1.108,0,0,1,1.047-.37,1.076,1.076,0,0,1,.649,1.718,2.529,2.529,0,0,1-.224.241l-6.755,6.756a1.115,1.115,0,0,1-1.816,0c-1.117-1.117-2.238-2.23-3.349-3.353a1.074,1.074,0,0,1,.425-1.813A2.53,2.53,0,0,1-656.965,1615.447Z" transform="translate(-134.49 -156.85)" fill="#f9f9f9"/>
  </g>
</svg>
