<svg xmlns="http://www.w3.org/2000/svg" width="22.186" height="22.156" viewBox="0 0 22.186 22.156">
  <g id="Group_353" data-name="Group 353" transform="translate(-5032.346 -218.416)">
    <path id="Path_622" data-name="Path 622" d="M5036.393,236.457a5.029,5.029,0,0,1-2.153-1.02,4.92,4.92,0,0,1-1.878-3.905q-.031-4.036,0-8.072a5.022,5.022,0,0,1,4.345-4.988,5.392,5.392,0,0,1,.8-.051q5.938,0,11.875,0a5.028,5.028,0,0,1,5.037,4.035,5.261,5.261,0,0,1,.107,1.054q.012,3.977,0,7.954a5.018,5.018,0,0,1-4.132,5,5.723,5.723,0,0,1-1.056.082c-1.778.008-3.557,0-5.335.01a.879.879,0,0,0-.455.136c-1.843,1.219-3.678,2.449-5.518,3.672a1.006,1.006,0,0,1-1.6-.514,1.494,1.494,0,0,1-.038-.4c0-.9,0-1.81,0-2.714Zm7.048-9.977h4.392c.56,0,1.118.007,1.677,0a1,1,0,0,0,.3-1.953,1.767,1.767,0,0,0-.511-.06q-5.856,0-11.712,0c-.079,0-.158,0-.236,0a.987.987,0,0,0-.9.66,1,1,0,0,0,.99,1.353Q5040.443,226.484,5043.441,226.48Zm-.005,4.025h3.447c.212,0,.425.006.637,0a1,1,0,0,0,.912-1.3,1.011,1.011,0,0,0-1.055-.7h-7.86c-.063,0-.125,0-.189,0a1,1,0,0,0,.12,2C5040.777,230.51,5042.106,230.5,5043.436,230.505Z" fill="#fff"/>
  </g>
</svg>
