<svg xmlns="http://www.w3.org/2000/svg" width="30" height="30" viewBox="0 0 30 30">
  <g id="Group_349" data-name="Group 349" transform="translate(-207 -184)">
    <circle id="Ellipse_19" data-name="Ellipse 19" cx="15" cy="15" r="15" transform="translate(207 184)" fill="#fff"/>
    <g id="Group_348" data-name="Group 348" transform="translate(-4017.962 -353.819)">
      <path id="Path_612" data-name="Path 612" d="M4247.378,596.385a1.547,1.547,0,0,0-1.655-1.655h-12.1a1.548,1.548,0,0,0-1.655,1.654q0,3.484,0,6.967a1.549,1.549,0,0,0,1.655,1.656h6.036q3.042,0,6.084,0a1.983,1.983,0,0,0,.492-.054,1.53,1.53,0,0,0,1.148-1.534Q4247.379,599.9,4247.378,596.385Zm-12.847,1.427a.513.513,0,1,1,.514-.508A.517.517,0,0,1,4234.531,597.812Zm5.135,5.653a3.6,3.6,0,1,1,3.6-3.589A3.6,3.6,0,0,1,4239.666,603.465Z" transform="translate(0 -45.855)" fill="#070707"/>
      <path id="Path_613" data-name="Path 613" d="M4345.368,548.353c.107-.414.2-.821.319-1.218a.452.452,0,0,1,.461-.314q2.063,0,4.125,0a.443.443,0,0,1,.453.3c.125.4.219.813.328,1.231Z" transform="translate(-108.54)" fill="#070707"/>
      <path id="Path_614" data-name="Path 614" d="M4354.294,654.61a2.569,2.569,0,1,0,2.574,2.572A2.573,2.573,0,0,0,4354.294,654.61Zm1.565,3.082a.52.52,0,0,1-.533-.538,1.029,1.029,0,0,0-.994-1,.516.516,0,1,1,.038-1.028,2.066,2.066,0,0,1,1.983,1.992A.522.522,0,0,1,4355.859,657.692Z" transform="translate(-114.629 -103.166)" fill="#070707"/>
    </g>
  </g>
</svg>
