<svg xmlns="http://www.w3.org/2000/svg" width="7.958" height="13.551" viewBox="0 0 7.958 13.551">
  <g id="Group_344" data-name="Group 344" transform="translate(-4654.185 -792.382)">
    <path id="Path_611" data-name="Path 611" d="M4655.519,792.382a1.491,1.491,0,0,1,.591.425q2.875,2.879,5.753,5.753a.759.759,0,0,1,.238.824.881.881,0,0,1-.21.329q-2.979,2.989-5.967,5.97a.74.74,0,0,1-1.1.005c-.158-.153-.318-.306-.461-.474a.722.722,0,0,1,.014-.956c.038-.043.078-.084.119-.125q2.427-2.428,4.855-4.855a1.133,1.133,0,0,0,.152-.161.582.582,0,0,1-.139-.077q-2.453-2.449-4.9-4.9a.729.729,0,0,1-.115-1.011,2.24,2.24,0,0,1,.885-.748Z" transform="translate(0)" fill="#fff"/>
  </g>
</svg>
