<svg xmlns="http://www.w3.org/2000/svg" width="22.186" height="22.192" viewBox="0 0 22.186 22.192">
  <g id="Group_352" data-name="Group 352" transform="translate(-4526.6 -188.688)">
    <path id="Path_621" data-name="Path 621" d="M4540.344,189.013a11.1,11.1,0,0,0-13.477,8.376c-.109.5-.153,1.011-.229,1.517-.009.063-.025.126-.038.189v1.386c.057.413.092.831.175,1.238a10.938,10.938,0,0,0,7.338,8.558,9.856,9.856,0,0,0,2.745.567.8.8,0,0,1,.143.036h1.387c.406-.057.813-.1,1.217-.171a11.091,11.091,0,0,0,.739-21.7Zm-2.663,17.239a.918.918,0,1,1,.933-.9A.909.909,0,0,1,4537.681,206.252Zm1.547-5.876a.947.947,0,0,0-.613.97,3.574,3.574,0,0,1-.007.39.918.918,0,0,1-1.827,0c-.01-.136,0-.274,0-.411a2.673,2.673,0,0,1,1.649-2.61,1.841,1.841,0,0,0,1.085-2.014,1.845,1.845,0,0,0-3.639.007c-.018.121-.026.244-.036.366A.92.92,0,0,1,4534,197a3.694,3.694,0,1,1,5.227,3.375Z" transform="translate(0 0)" fill="#fff"/>
  </g>
</svg>
