<svg xmlns="http://www.w3.org/2000/svg" width="11.675" height="11.683" viewBox="0 0 11.675 11.683">
  <path id="Path_659" data-name="Path 659" d="M-248.09,1355.729a1.215,1.215,0,0,1,1.124.722c.36.751.712,1.507,1.064,2.262a.231.231,0,0,0,.2.152q1.21.18,2.418.375a1.16,1.16,0,0,1,.961.812,1.17,1.17,0,0,1-.259,1.257c-.583.616-1.18,1.219-1.775,1.823a.3.3,0,0,0-.1.3q.205,1.261.387,2.526a1.19,1.19,0,0,1-.512,1.218,1.19,1.19,0,0,1-1.33.065q-1.032-.562-2.055-1.141a.252.252,0,0,0-.285,0q-1.029.581-2.067,1.147a1.238,1.238,0,0,1-1.807-.75,1.908,1.908,0,0,1,.024-.839q.185-1.133.374-2.265a.261.261,0,0,0-.078-.255c-.57-.578-1.131-1.165-1.7-1.743a1.232,1.232,0,0,1-.344-1.326,1.228,1.228,0,0,1,1.073-.851c.765-.117,1.529-.245,2.295-.364a.273.273,0,0,0,.232-.174q.516-1.116,1.044-2.226A1.21,1.21,0,0,1-248.09,1355.729Z" transform="translate(253.919 -1355.729)" fill="#d1ad61"/>
</svg>
