<svg xmlns="http://www.w3.org/2000/svg" width="144" height="144" viewBox="0 0 144 144">
  <g id="bitcoin-wallet" transform="translate(-2 -2)">
    <path id="Path_1694" data-name="Path 1694" d="M142.585,81.86a60.726,60.726,0,1,0,60.727,60.726A60.727,60.727,0,0,0,142.585,81.86Z" transform="translate(-68.586 -68.586)" fill="#edf3fc" opacity="0.17"/>
    <path id="Path_1695" data-name="Path 1695" d="M74,2a72,72,0,1,0,72,72A72.081,72.081,0,0,0,74,2Zm0,141.693A69.693,69.693,0,1,1,143.693,74,69.772,69.772,0,0,1,74,143.693Z" fill="#d1ad61" opacity="0.48"/>
    <path id="Path_1696" data-name="Path 1696" d="M228.974,144.962a8.152,8.152,0,0,1-5.924-5.924l-.125-.5-.124.5a8.153,8.153,0,0,1-5.924,5.924l-.5.125.5.125a8.153,8.153,0,0,1,5.924,5.924l.124.5.125-.5a8.151,8.151,0,0,1,5.924-5.924l.5-.125Zm60.784,2.958a6.131,6.131,0,0,1-4.459-4.458l-.093-.375-.095.375a6.131,6.131,0,0,1-4.459,4.458l-.374.094.374.093a6.129,6.129,0,0,1,4.459,4.459l.095.374.093-.374a6.131,6.131,0,0,1,4.459-4.459l.374-.093Zm-18.265-19.3a9.691,9.691,0,0,1-7.044-7.044l-.147-.592-.15.592a9.687,9.687,0,0,1-7.042,7.044l-.591.149.591.148a9.683,9.683,0,0,1,7.042,7.043l.15.591.147-.591a9.688,9.688,0,0,1,7.044-7.043l.592-.148Z" transform="translate(-184.113 -102.186)" fill="#fff"/>
    <path id="Path_1697" data-name="Path 1697" d="M272.474,386.284a22.9,22.9,0,0,1,.493-4.726h-5.088a7.1,7.1,0,0,0-7.1,6.926,5.769,5.769,0,0,0,3.254,4.077c1.871.978,4.9.967,6.337.967h3.284a22.771,22.771,0,0,1-1.181-7.245Zm49.115-4.726h-3.981a22.835,22.835,0,0,1-.69,11.975l7.7,0a7.069,7.069,0,0,1,4.075,1.287v-6.157A7.1,7.1,0,0,0,321.589,381.558Z" transform="translate(-222.246 -325.973)" fill="#a58032"/>
    <path id="Path_1698" data-name="Path 1698" d="M366.425,253.438a22.811,22.811,0,0,0-21.63,30.062l43.262,0a22.811,22.811,0,0,0-21.632-30.058Z" transform="translate(-293.384 -215.941)" fill="#ffbe1b"/>
    <path id="Path_1699" data-name="Path 1699" d="M401.025,293.73a17.125,17.125,0,0,0-15.517,24.37h31.033a17.125,17.125,0,0,0-15.516-24.37Z" transform="translate(-327.985 -250.545)" fill="#ffe37b"/>
    <path id="Path_1700" data-name="Path 1700" d="M464.54,353.934a4.369,4.369,0,0,0-2.46-1.39q.3-.129.594-.272a4.3,4.3,0,0,0,.594-.417,3.394,3.394,0,0,0,1.26-2.9,4.3,4.3,0,0,0-1.117-2.9,4.174,4.174,0,0,0-1.842-1.095,6.925,6.925,0,0,0-.776-.2v-2.113h-2.916v1.912h-1.954v-1.912h-2.916v1.912h-3.19V347.7h2.375v10.339h-2.375v2.076h13.908a3.485,3.485,0,0,0,.542-.484,4.462,4.462,0,0,0,1.189-3.066A3.879,3.879,0,0,0,464.54,353.934ZM455.9,347.7h1.782a5.46,5.46,0,0,1,2.331.357,1.486,1.486,0,0,1,.689,1.461,1.4,1.4,0,0,1-.749,1.436,5.926,5.926,0,0,1-2.294.334H455.9Zm4.931,9.946a5.612,5.612,0,0,1-2.389.393H455.9v-3.827h2.186a7.247,7.247,0,0,1,2.7.368,1.486,1.486,0,0,1,.844,1.522A1.55,1.55,0,0,1,460.831,357.642Z" transform="translate(-384.595 -292.557)" fill="#2e2f31"/>
    <path id="Path_1701" data-name="Path 1701" d="M324.587,435.45H270.343c-1.433,0-4.466.011-6.337-.967a5.715,5.715,0,0,1-3.259-4.112v46.821a7.1,7.1,0,0,0,7.1,7.1h56.736a7.1,7.1,0,0,0,7.1-7.1V442.55A7.1,7.1,0,0,0,324.587,435.45Z" transform="translate(-222.219 -367.894)" fill="#d1ad61"/>
    <path id="Path_1702" data-name="Path 1702" d="M607.978,585.212a3.183,3.183,0,0,0-3.182,3.182v8.757a3.183,3.183,0,0,0,3.182,3.183h19.186V585.212Z" transform="translate(-517.695 -500.876)" fill="#3f3f3f"/>
    <path id="Path_1703" data-name="Path 1703" d="M629.294,616.4a3.158,3.158,0,1,0,3.158,3.158A3.158,3.158,0,0,0,629.294,616.4Z" transform="translate(-536.023 -527.663)" fill="#d1ad61"/>
  </g>
</svg>
