<svg id="Group_220" data-name="Group 220" xmlns="http://www.w3.org/2000/svg" width="9.613" height="13.154" viewBox="0 0 9.613 13.154">
  <path id="Path_335" data-name="Path 335" d="M174.785,1008.419a4.726,4.726,0,0,0-3.467-2.49c-.163-.028-.329-.045-.493-.067h-.514c-.093.01-.185.019-.278.031a4.765,4.765,0,0,0-2.065.753,4.929,4.929,0,0,0-2.168,4.714,7.818,7.818,0,0,0,.865,2.616,21.32,21.32,0,0,0,3.564,4.873.428.428,0,0,0,.674.007q.25-.249.49-.509a19.09,19.09,0,0,0,3.064-4.257,7.784,7.784,0,0,0,.9-2.883A4.789,4.789,0,0,0,174.785,1008.419Zm-4.212,4.451a2.35,2.35,0,1,1,2.343-2.36A2.357,2.357,0,0,1,170.573,1012.87Z" transform="translate(-165.76 -1005.861)" fill="#fff"/>
</svg>
