<svg xmlns="http://www.w3.org/2000/svg" width="13.125" height="15.571" viewBox="0 0 13.125 15.571">
  <g id="Group_416" data-name="Group 416" transform="translate(-337.815 -42.964)">
    <path id="Path_516" data-name="Path 516" d="M199.475,1006c.258.071.517.139.774.213a1.145,1.145,0,0,1,.194.088,4.2,4.2,0,0,1,1.97,2.493,2.647,2.647,0,0,1-.729,2.463q-3.383,3.4-6.783,6.776a2.021,2.021,0,0,1-1.093.524c-.861.167-1.722.336-2.58.514a1.571,1.571,0,0,1-1.84-1.156,2.177,2.177,0,0,1,.038-1.007c.173-.807.34-1.615.511-2.422a1.829,1.829,0,0,1,.5-.937q3.368-3.368,6.736-6.738a2.71,2.71,0,0,1,1.577-.786.584.584,0,0,0,.086-.026Zm-8.584,11.553a.735.735,0,0,0,.106,0q1.351-.225,2.7-.455a.308.308,0,0,0,.151-.088q3.356-3.36,6.707-6.724a1.2,1.2,0,0,0,0-1.8c-.184-.189-.372-.374-.56-.559a1.242,1.242,0,0,0-1.764-.006q-3.355,3.35-6.7,6.706a.3.3,0,0,0-.088.136C191.253,1015.688,191.074,1016.612,190.89,1017.553Z" transform="translate(148.473 -963.036)" fill="#fff"/>
    <path id="Path_517" data-name="Path 517" d="M196.214,1352.485q2.863,0,5.726,0a.745.745,0,1,1,.047,1.489c-.045,0-.091,0-.137,0H190.52a.757.757,0,0,1-.783-.98.674.674,0,0,1,.659-.51c.3-.007.609,0,.914,0Z" transform="translate(148.122 -1295.442)" fill="#fff"/>
    <path id="Path_518" data-name="Path 518" d="M6641.895,3707.1l3.3,3.3" transform="translate(-6296.669 -3661.516)" fill="none" stroke="#979fad" stroke-width="1.3"/>
  </g>
</svg>
