<svg xmlns="http://www.w3.org/2000/svg" width="11.7" height="11.693" viewBox="0 0 11.7 11.693">
  <g id="Group_428" data-name="Group 428" transform="translate(-292.827 -1546.693)">
    <path id="Path_700" data-name="Path 700" d="M303.66,1558.386h-.137a.265.265,0,0,0-.053-.018.908.908,0,0,1-.72-.5,1.381,1.381,0,0,1-.116-.667,8.392,8.392,0,0,0-.283-2.017,8.855,8.855,0,0,0-8.5-6.606.941.941,0,0,1-.915-.544,2.188,2.188,0,0,1-.108-.391v-.023a.436.436,0,0,0,.019-.075.941.941,0,0,1,1-.856c.414.019.829.041,1.241.085a9.757,9.757,0,0,1,2.878.766,10.7,10.7,0,0,1,5.611,5.492,10.5,10.5,0,0,1,.948,4.359.894.894,0,0,1-.4.8A2.49,2.49,0,0,1,303.66,1558.386Z" fill="#fff"/>
    <path id="Path_701" data-name="Path 701" d="M300.026,1584.383a1.106,1.106,0,0,1-.545-.236.894.894,0,0,1-.323-.644,5.822,5.822,0,0,0-.224-1.565,5.3,5.3,0,0,0-3.972-3.741,4.224,4.224,0,0,0-1.027-.129,1.022,1.022,0,0,1-1.109-.837V1577a1.043,1.043,0,0,1,.336-.6.946.946,0,0,1,.642-.225,7.154,7.154,0,0,1,5.454,2.514,7.026,7.026,0,0,1,1.694,3.665,8.266,8.266,0,0,1,.078,1.057.922.922,0,0,1-.827.957.182.182,0,0,0-.041.017Z" transform="translate(0 -25.997)" fill="#fff"/>
    <path id="Path_702" data-name="Path 702" d="M296.831,1615.429a1.887,1.887,0,1,1-1.871-1.889A1.887,1.887,0,0,1,296.831,1615.429Z" transform="translate(-0.204 -58.949)" fill="#fff"/>
  </g>
</svg>
