<svg xmlns="http://www.w3.org/2000/svg" width="68.163" height="68.165" viewBox="0 0 68.163 68.165">
  <g id="Group_2863" data-name="Group 2863" transform="translate(268.206 -15.905)">
    <path id="Path_11258" data-name="Path 11258" d="M-268.206,49.975A34.057,34.057,0,0,1-234.085,15.9a34.047,34.047,0,0,1,34.042,34.141A34.053,34.053,0,0,1-234.16,84.07,34.051,34.051,0,0,1-268.206,49.975Zm5.94.007a28.17,28.17,0,0,0,28.089,28.153A28.173,28.173,0,0,0-205.977,50a28.172,28.172,0,0,0-28.137-28.153A28.167,28.167,0,0,0-262.266,49.982Z" transform="translate(0 0)"/>
    <path id="Path_11259" data-name="Path 11259" d="M43.2,270.193c0-3.321.009-6.642-.006-9.964a1.872,1.872,0,0,1,3.137-1.614q6.836,4.983,13.689,9.942a1.944,1.944,0,0,1,.941,1.663,1.877,1.877,0,0,1-.891,1.549q-4.513,3.267-9.017,6.545c-1.595,1.158-3.2,2.308-4.782,3.477a1.857,1.857,0,0,1-2.082.264,1.878,1.878,0,0,1-.992-1.852C43.206,276.866,43.2,273.53,43.2,270.193Z" transform="translate(-283.05 -220.154)"/>
  </g>
</svg>
