<svg xmlns="http://www.w3.org/2000/svg" width="38" height="38" viewBox="0 0 38 38">
  <g id="Group_758" data-name="Group 758" transform="translate(-1129.049 -696.721)">
    <g id="Group_2445" data-name="Group 2445">
      <circle id="Ellipse_7-2" data-name="Ellipse 7-2" cx="19" cy="19" r="19" transform="translate(1129.049 696.721)" fill="#fff"/>
    </g>
    <g id="Group_90" data-name="Group 90">
      <g id="Group_82" data-name="Group 82">
        <path id="Path_361" data-name="Path 361" d="M1148.048,724a8.281,8.281,0,1,1,8.281-8.282h0A8.291,8.291,0,0,1,1148.048,724Zm0-16.089a7.808,7.808,0,1,0,7.808,7.807,7.807,7.807,0,0,0-7.808-7.807Z" fill="#172631"/>
      </g>
      <g id="Group_83" data-name="Group 83">
        <circle id="Ellipse_6" data-name="Ellipse 6" cx="5" cy="5" r="5" transform="translate(1143.048 710.719)" fill="#172631"/>
      </g>
      <g id="Group_86" data-name="Group 86">
        <g id="Group_84" data-name="Group 84">
          <rect id="Rectangle_89" data-name="Rectangle 89" width="0.473" height="2.839" transform="translate(1147.811 704.836)" fill="#172631"/>
        </g>
        <g id="Group_85" data-name="Group 85">
          <rect id="Rectangle_90" data-name="Rectangle 90" width="0.473" height="2.839" transform="translate(1147.811 723.765)" fill="#172631"/>
        </g>
      </g>
      <g id="Group_89" data-name="Group 89">
        <g id="Group_87" data-name="Group 87">
          <rect id="Rectangle_91" data-name="Rectangle 91" width="2.839" height="0.473" transform="translate(1156.093 715.482)" fill="#172631"/>
        </g>
        <g id="Group_88" data-name="Group 88">
          <rect id="Rectangle_92" data-name="Rectangle 92" width="2.839" height="0.473" transform="translate(1137.164 715.482)" fill="#172631"/>
        </g>
      </g>
    </g>
  </g>
</svg>
