<svg xmlns="http://www.w3.org/2000/svg" width="21.662" height="21.712" viewBox="0 0 21.662 21.712">
  <g id="Group_424" data-name="Group 424" transform="translate(150.606 -856.77)">
    <path id="Path_697" data-name="Path 697" d="M-140.457,878.482h-1.185l-.417-.051a9.154,9.154,0,0,1-4.93-2.044,9.333,9.333,0,0,1-3.414-9.427,9.164,9.164,0,0,1,3.62-5.717,9.078,9.078,0,0,1,4.989-1.886c.8-.052,1.607-.03,2.41-.042.075,0,.151,0,.23,0a2.47,2.47,0,0,1,1.1-2.068,6.578,6.578,0,0,1,1.113-.476h.677a.555.555,0,0,0,.094.038,2.511,2.511,0,0,1,2.043,1.956,5.447,5.447,0,0,1,.086.557h2.568v2.573a2.455,2.455,0,0,1,2.058,1.1,6.588,6.588,0,0,1,.474,1.114v.679a.553.553,0,0,0-.039.094,2.515,2.515,0,0,1-1.954,2.048,5.377,5.377,0,0,1-.547.085c0,.6,0,1.191,0,1.783a9.274,9.274,0,0,1-1.119,4.575,9.464,9.464,0,0,1-6.688,4.942C-139.675,878.39-140.068,878.426-140.457,878.482Zm2.977-17.885h-2.925v1.283c1.609.262,2.522,1.184,2.53,2.545.008,1.385-.894,2.31-2.526,2.587v1.257h2.9c-.11.311-.221.593-.31.881a1.269,1.269,0,0,0,1.254,1.656,1.27,1.27,0,0,0,1.156-1.665c-.09-.288-.2-.57-.307-.88h2.957v-2.935c.283.1.535.215.8.283a1.748,1.748,0,0,0,.68.082,1.251,1.251,0,0,0,1.017-1.574,1.25,1.25,0,0,0-1.647-.855c-.278.094-.553.2-.855.307V860.58h-2.963c.057-.164.11-.3.154-.441a4.4,4.4,0,0,0,.224-.768,1.211,1.211,0,0,0-.691-1.19,1.222,1.222,0,0,0-1.385.164,1.211,1.211,0,0,0-.39,1.318C-137.715,859.963-137.6,860.258-137.481,860.6Zm-2.935,11.857c-.32-.114-.6-.226-.889-.314a1.268,1.268,0,0,0-1.649,1.241,1.267,1.267,0,0,0,1.666,1.173c.287-.09.568-.2.883-.308v2.922a8.242,8.242,0,0,0,7.6-7.624h-1.238a2.579,2.579,0,0,1-2.477,2.533,2.487,2.487,0,0,1-1.684-.575,2.559,2.559,0,0,1-.945-1.953h-1.262Zm-1.264-4.2v-2.908c.31.11.592.221.88.31a1.268,1.268,0,0,0,1.654-1.214,1.267,1.267,0,0,0-1.663-1.2c-.287.09-.569.2-.883.31v-2.922a8.245,8.245,0,0,0-7.6,7.618h1.252a2.572,2.572,0,0,1,2.4-2.525,2.582,2.582,0,0,1,2.709,2.532Zm-2.92,1.286c.112-.318.222-.6.311-.888a1.268,1.268,0,0,0-1.208-1.659,1.268,1.268,0,0,0-1.2,1.663c.09.288.2.57.31.885H-149.3a8.249,8.249,0,0,0,7.6,7.621V875.9a2.573,2.573,0,0,1-2.523-2.422,2.581,2.581,0,0,1,2.526-2.693v-1.25Z" transform="translate(0 0)" fill="#fff"/>
  </g>
</svg>
