<svg xmlns="http://www.w3.org/2000/svg" width="15.816" height="22.673" viewBox="0 0 15.816 22.673">
  <g id="google-maps-2020-icon" transform="translate(-42.241 -121.5)">
    <path id="Path_4119" data-name="Path 4119" d="M52.541,121.867a7.924,7.924,0,0,0-8.447,2.456l3.74,3.141Z" fill="#1c5eaa"/>
    <path id="Path_4120" data-name="Path 4120" d="M44.094,124.323a7.878,7.878,0,0,0-1.852,5.083,8.9,8.9,0,0,0,.783,3.772l4.805-5.713Z" fill="#e12a26"/>
    <path id="Path_4121" data-name="Path 4121" d="M50.153,126.385a3.026,3.026,0,0,1,2.309,4.98l4.707-5.6a7.912,7.912,0,0,0-4.631-3.9l-4.7,5.6a3.016,3.016,0,0,1,2.318-1.083" fill="#346bb3"/>
    <path id="Path_4122" data-name="Path 4122" d="M50.155,132.434a3.023,3.023,0,0,1-2.32-4.966l-4.81,5.713a28.219,28.219,0,0,0,3.593,5.127l5.843-6.944a3.022,3.022,0,0,1-2.306,1.07" fill="#fdab00"/>
    <path id="Path_4123" data-name="Path 4123" d="M52.344,140.2c2.64-4.125,5.713-6,5.713-10.8a7.872,7.872,0,0,0-.89-3.646L46.622,138.309c.447.586.9,1.208,1.338,1.9,1.6,2.479,1.159,3.964,2.192,3.964s.591-1.49,2.192-3.968" fill="#3d993d"/>
  </g>
</svg>
