<svg xmlns="http://www.w3.org/2000/svg" xmlns:xlink="http://www.w3.org/1999/xlink" width="853.337" height="1116.315" viewBox="0 0 853.337 1116.315">
  <defs>
    <linearGradient id="linear-gradient" x1="0.5" x2="0.5" y2="0.634" gradientUnits="objectBoundingBox">
      <stop offset="0" stop-color="#ffb156"/>
      <stop offset="0.536" stop-color="#ffb156"/>
      <stop offset="1" stop-color="#060608"/>
    </linearGradient>
  </defs>
  <g id="Group_539" data-name="Group 539" transform="translate(-835.614 268.59)">
    <g id="Group_482" data-name="Group 482" transform="translate(835.614 -268.59)">
      <g id="Group_475" data-name="Group 475">
        <g id="Group_481" data-name="Group 481" transform="translate(351.764)">
          <path id="Path_725-2" data-name="Path 725-2" d="M1435.03,57.032c-13.352-15.172-22.657-32.805-31.288-50.944-7.215-15.071-19.454-26.5-30.883-38.334a27.782,27.782,0,0,1-6.911-11.4c-7.958-24.545-26.669-36.446-50.607-41.841-2.225-.506-4.416-1.079-6.642-1.618a80.659,80.659,0,0,0-8.6.877c-1.416.2-2.866.438-4.281.742-2.8.539-5.564,1.214-8.328,1.922-6.946,1.787-13.756,4.046-20.6,6.2-4.08,1.281-8.159,2.529-12.306,3.607a.047.047,0,0,0-.068,0,113.006,113.006,0,0,1-12.508,2.664c-6.709,1.011-13.588.775-20.87.506-3.674-.135-7.451-.27-11.4-.27.944-.91,1.854-1.821,2.731-2.7.91-.944,1.821-1.854,2.7-2.8A116.953,116.953,0,0,0,1229.2-94.822a12.407,12.407,0,0,0,2.293-11.193,53.442,53.442,0,0,1-1.686-21.038v-.034c-.27-9.676,7.349-17.026,7.788-26.534,0-.4,1.046-1.045,1.686-1.146,7.013-.944,8.294-6.676,9.744-12,1.314-4.855,2.09-9.879,2.967-14.835.27-1.719.776-4.181-.1-5.158-9.406-10.654-1.618-23.095-3.877-34.39l-.708-4.349c-1.45-.944-.911-2.259-.708-3.54-1.248-8.968-7.552-17.363-2.495-27.343-4.754.236-9.373,1.079-11.126-3.641-.371-.978,4.383-3.3,1.888-5.732-2.327-2.259-3.608,2.832-6.271,2.09a6.657,6.657,0,0,0-2.158-.438c-9.474.809-18.206-3.068-27.309-4.484h-15.205l-7.35.809c-1.416,1.484-3.169.877-4.821.742-3.439.3-8.631.068-9.373,3.068-2.63,10.688-12.846,14.835-18.206,22.994.438,1.214-.3,1.618-1.247,1.922l-.1,4.147a72.429,72.429,0,0,0-2.8,32.1,31.236,31.236,0,0,1-1.45,14.936,28.727,28.727,0,0,0,6.979,28.86c6.709,6.945,6.743,13.924,6.237,21.881-.236,3.506-.877,6.979-1.349,10.485a38.32,38.32,0,0,1-5.091,15.745v.034a15.065,15.065,0,0,0-1.281,2.731,7.918,7.918,0,0,0,1.517,7.586c.337.472.742.91,1.146,1.382.27.3.54.607.843.91,1.652,1.753,3.372,3.439,5.091,5.125q5.158,5.007,10.789,9.541c1.854,1.517,3.776,3,5.7,4.417a12.442,12.442,0,0,1,3.506,3.034,5.536,5.536,0,0,1,1.046,2.428h-.034c-16.656-2.326-33.513-.438-50-2.8-2.765-.4-5.5-.91-8.227-1.585a64.215,64.215,0,0,1-6.338-1.854c-1.383-.506-2.8-1.045-4.214-1.652a71.887,71.887,0,0,0-6.945-2.529c-2.326-.708-4.619-1.315-6.945-1.787-17.9-3.641-35.6.067-52.832,8.463-.708.4-1.382.843-2.09,1.247a71.634,71.634,0,0,0-5.934,4.316h-.034c-.4,1.011-.809,2.023-1.247,3.034-.877,2.023-1.821,4.046-2.765,6.035-.91,1.989-1.787,4.012-2.563,6.035,0,.034,0,.034-.034.034-.371,1.045-.742,2.057-1.079,3.068a37.312,37.312,0,0,0-1.517,6.507,6.887,6.887,0,0,1-.169.809,5.217,5.217,0,0,1-1.079,1.821,13.338,13.338,0,0,1-2.36,1.854,128.734,128.734,0,0,0-18.611,15.34A87.51,87.51,0,0,0,982.47-5.139a80.967,80.967,0,0,0-4.551,11.126c-7.35,22.893-20.229,42.953-29.3,64.868-1.113,2.731-1.989,4.889-2.562,6.709-1.72,5.226-1.079,7.687,2.427,12.475.809,1.146,1.787,2.394,2.967,3.81.3.371.607.742.91,1.146q5.209,6.574,9.912,13.52c2.158,3.068,4.214,6.17,6.237,9.272v.034c3.068,4.653,6.069,9.373,9.171,14.026.944,1.382,1.888,2.7,2.933,4.012.573.742,1.18,1.45,1.821,2.158a57.329,57.329,0,0,0,4.855,5.057,64.277,64.277,0,0,0,9,6.979c.2.135.438.3.674.438a68.8,68.8,0,0,0,11.059,5.462c2.326.91,4.619,1.922,6.878,3a125.035,125.035,0,0,1,31.726,21.072c1.585,1.483,3.169,3,4.72,4.552,8.665,8.8,17.262,17.667,28.962,21.915a40.659,40.659,0,0,0,8.6,2.191,7.86,7.86,0,0,1,.944.169h.034a3.345,3.345,0,0,1,1.349.641,1.908,1.908,0,0,1,.506.4c1.214,1.315.809,3.372.135,5.394-.236.641-.472,1.281-.742,1.888-2.934,7.148-5.867,14.262-8.833,21.409-2.933,7.114-5.9,14.262-8.8,21.409-1.248,3.068-2.495,6.17-3.675,9.238q-1.821,4.653-3.54,9.305c-2.9,7.754-5.563,15.61-7.855,23.533-1.382,4.754-2.63,9.575-3.742,14.4-.742,3.237-1.416,6.507-1.989,9.777-.607,3.27-1.112,6.574-1.551,9.879a13.057,13.057,0,0,1-.641,1.821,15.7,15.7,0,0,1-.843,1.686c-1.686,16.824-3.608,33.648-5.057,50.505-1.348,15.88-.843,31.928-2.158,47.741a146.48,146.48,0,0,1-13.418,52.056,1.788,1.788,0,0,1-.1.169c-1.821,3.945-3.844,7.822-6.035,11.6-1.484,2.495-3.135,4.855-4.72,7.283q-6.018,16.74-12.138,33.479c-.742,2.023-.27,4.72-3.1,5.6-2.158,9.643-2.259,19.69-5.732,29.1-1.449,3.81,1.551,8.564-2.36,11.9a92.9,92.9,0,0,1-.2,22.893v19.757c.1,2.057.168,4.079.236,6.1q.1,18.307.169,36.547c0,1.011-.033,2.023-.067,3.034a29.892,29.892,0,0,1-1.416,12.2,166.1,166.1,0,0,1-7.215,39.784c-1.787,11.834-3.237,23.736-8.26,34.828a44.167,44.167,0,0,1-5.833,12.677l-.472.2-.371-.371-.236.3a4.592,4.592,0,0,1-1.382,4.012c-6.3,13.722-12.609,27.444-23.263,38.57-2.7,6.136-7.047,11.733-6.541,18.982,3.978,8.328,12.474,7.181,19.015,7.485,22.522,1.045,38.975-9.609,49.9-29.1,4.214-7.552,8.462-14.936,16.217-19.555a42.122,42.122,0,0,0,15.947-16.487,106.859,106.859,0,0,1-5.125-22.69c-2.326-22.657-2.023-45.111,4.619-67.127,3.271-13.857,9.508-26.5,15.61-39.177,1.382-2.866,2.765-5.732,4.08-8.631l19.858-50.371q3.388-21.493,6.743-43.021a98.551,98.551,0,0,1,19.892-55.057c16.183-22.117,26.129-47.741,36.109-73.128,0-.034.034-.034.034-.067a792.341,792.341,0,0,0,26.466-85.165c3.54-14.16,6.574-28.456,10.115-42.616.641-2.529.068-6.035,2.967-7.282a7.1,7.1,0,0,1,2.9-.438c.4,0,.809.034,1.214.067,5.26.438,7.552,3.034,7.856,8.429a235.946,235.946,0,0,0,13.991,64.059c1.315,3.742,3,7.35,4.485,11.025a14.788,14.788,0,0,0,.876,2.866c10.486,17.869,15.509,37.592,19.724,57.653a235.858,235.858,0,0,0,13.587,42.549c10.519,25.152,12.373,51.416,11.328,78.152.135,4.046.236,8.058.371,12.1a10.487,10.487,0,0,1,.64,6.17c1.652,9.98.472,20.263,3.439,30.074l12.137,48.651a473.652,473.652,0,0,1,12.307,47.707c6.271,21.173,4.989,42.616,1.989,64.093.809,11.969-4.586,23.095-4.923,34.9a27.046,27.046,0,0,0,17.869,12.711,49.174,49.174,0,0,1,24.646,16.824c11.834,14.026,27.68,20.7,45.381,23.4,6.439.978,11.362-3.439,16.891-5.664a30.338,30.338,0,0,0-7.148-17.3c-5.26-5.428-9.677-11.632-14.464-17.5a28.008,28.008,0,0,1-7.08-9.036,83.6,83.6,0,0,1-23.128-58.125c-2.192-15.509.809-30.647,3.438-45.819q2.378-18.257,4.821-36.547c-.169-1.686-.843-3.405.641-4.855l.776-4.282a47.445,47.445,0,0,0,2.09-13.385c-1.315-11.7.471-23.466-1.349-35.1-1.585-14.3-3.237-28.557-6.069-42.65l-8.8-41.267a5.389,5.389,0,0,1-1.314-3.506v-.135a3.72,3.72,0,0,1,.135-1.045c-.034-1.011-.034-2.023-.034-3.034-.438-16.959-.809-33.918-6.035-50.337a12,12,0,0,1-.134-4.518c4.889-56.642-4.788-111.6-18.881-166.047a687.414,687.414,0,0,0-22.926-71.409,14.858,14.858,0,0,1-.573-5.833c-1.113-6.035-2.259-12.1-3.372-18.139,1.854,5.293,6.811,5.529,10.822,7.148,18.443-3.574,31.929-15.711,45.887-26.938a149.186,149.186,0,0,1,40.93-24.444c29.8-11.092,48.753-32.636,60.991-61.025C1442.885,76.384,1443.188,66.3,1435.03,57.032ZM1098.383,133.8a3.644,3.644,0,0,1-.438.978,3.562,3.562,0,0,1-.337.4,2.2,2.2,0,0,1-.539.438,3.5,3.5,0,0,1-1.18.573,21.526,21.526,0,0,1-6.473.4c-3.271-.1-6.17,1.214-9.036,2.529a38.8,38.8,0,0,1-4.079,1.72,11.585,11.585,0,0,1-6.069.641l-.91-.2a9.292,9.292,0,0,1-.91-.27v-.034c-3.675.877-6.44.438-8.766-.944a9.94,9.94,0,0,1-1.45-.978l-.708-.607a31.34,31.34,0,0,1-4.518-5.428c-.641-.944-1.248-1.888-1.854-2.866-1.18-1.922-2.292-3.911-3.338-5.9s-1.989-4.012-2.9-6.069c-1.989-4.45-3.776-9-5.5-13.554-1.113-2.866-2.225-5.765-3.372-8.6-.91-2.293-1.854-4.518-2.832-6.743-.809-1.753-1.652-3.506-2.529-5.226a41.813,41.813,0,0,0-5.327-9.1c-4.113-4.383-3.978-7.721-.236-10.654a19.326,19.326,0,0,1,2.124-1.416,84.46,84.46,0,0,0,7.012-4.922,79.61,79.61,0,0,0,17.229-18.813,15.843,15.843,0,0,1,1.72-2.124,3.538,3.538,0,0,1,.4-.337.926.926,0,0,1,1.349.034,1.278,1.278,0,0,1,.371.539v.034a7.3,7.3,0,0,1,.405,1.517,60.232,60.232,0,0,0,3.742,12.711v.034a76.267,76.267,0,0,0,4.248,8.665c1.585,2.832,3.338,5.6,5.125,8.294,1.214,1.787,2.462,3.54,3.709,5.293,1.281,1.787,2.562,3.54,3.843,5.293s2.563,3.54,3.844,5.293c1.112,1.551,2.191,3.068,3.27,4.653,1.079,1.551,2.124,3.136,3.1,4.72,1.011,1.585,1.956,3.2,2.866,4.855v.034c1.349,2.427,2.6,4.922,3.743,7.519a58.984,58.984,0,0,1,2.9,7.957c.539,1.821,1.011,3.675,1.382,5.563.2.944.371,1.922.506,2.9s.236,1.956.337,2.933c.068.539.1,1.045.168,1.551v.067q.2,2.276.2,3.945A10.092,10.092,0,0,1,1098.383,133.8Zm241.7-22.623a94.949,94.949,0,0,1-16.756,22.454,7.307,7.307,0,0,1-7.181,3.169,27.752,27.752,0,0,1-17.5-3.911,12.316,12.316,0,0,0-15.341,1.315,14.926,14.926,0,0,1-8.833,3.439c.1-1.214.235-2.427.4-3.607a135.753,135.753,0,0,1,7.788-31.692,142.262,142.262,0,0,1,9.238-19.757,150.1,150.1,0,0,0,21.106-56c2.865,7.451,7.721,13.722,11.126,20.836,10.654,11.227,21.847,21.746,38.368,26.23C1351.955,84.948,1346.56,98.366,1340.087,111.178Z" transform="translate(-939.948 268.59)" fill="url(#linear-gradient)"/>
        </g>
        <path id="Path_726" data-name="Path 726" d="M1397.866-225a38.606,38.606,0,0,1-5.085,15.748c-3.206,5.357-1.47,8.827,2.229,12.636a168.383,168.383,0,0,0,21.578,19.083c1.76,1.281,3.925,2.34,4.521,5.448-23.024-3.2-46.453,1.618-68.779-7.862-22.589-9.6-45.077-6.436-66.729,4.1a63.415,63.415,0,0,0-8.062,5.577,66.8,66.8,0,0,0-20.377,11.9,223.491,223.491,0,0,0-27.7,27.9c-13.843,15.7-28.139,30.991-41.952,46.7a713.154,713.154,0,0,1-52.6,53.344,985.474,985.474,0,0,1-77.825,64.855c-25.287,18.881-51.618,36.109-77.926,53.449-8.166,5.394-17.714,8.665-24.565,16.042-4.279-1.065-5.6,3.3-8.567,4.68-13.9,6.483-27,14.454-40.317,22.016l-27.235,14.326c-14.137,6.665-27.856,14.235-42.565,19.659q.04-3.707.087-7.417l.121-1.612-.506-4.521c3.762-12.613,5.334-25.715,9.322-38.334a349.35,349.35,0,0,1,18.479-42.734,66.08,66.08,0,0,1,9.133-11.767c5.131-2.552,6.507-8.375,10.748-11.986a146.126,146.126,0,0,1,35.91-21.365c1.686-.748,3.254-1.167,3.962-2.994,12.714-1.079,23.692-7.6,35.489-11.531,2.9-.964,6.487-.9,8.712-3.661a134.48,134.48,0,0,0,27.35-9.191,340.154,340.154,0,0,0,40.627-15.678c14.956-3.894,28.341-11.5,42.029-18.25,28.011-13.8,52.289-33.014,74.757-54.406q39.669-37.758,78.27-76.679c29.481-29.669,65.07-41.77,106.3-38.988a8.544,8.544,0,0,0,7.208-1.349,14.749,14.749,0,0,1,12.738-3.554c4.592.634,6.534-1.5,8.324-5.5,4.181-9.346,7.62-10.789,17.97-10.044C1388-226.588,1392.7-224.035,1397.866-225Z" transform="translate(-835.614 366.944)" fill="#343434"/>
        <path id="Path_727" data-name="Path 727" d="M870.913,63.94c6.851-7.38,16.4-10.661,24.565-16.042,26.3-17.34,52.646-34.555,77.926-53.449A985.5,985.5,0,0,0,1051.229-70.4a712.566,712.566,0,0,0,52.6-53.341c13.823-15.711,28.108-31,41.952-46.7a223.49,223.49,0,0,1,27.7-27.9,66.79,66.79,0,0,1,20.377-11.9c-3.236,8.169-8,15.772-9.2,24.693-.307,2.279-1.895,3.311-3.638,4.5-17.977,12.3-32.74,27.984-39.373,48.678-7.34,22.9-20.229,42.96-29.295,64.892-5.273,12.751-4.913,13.3,3.739,24.143,9.275,11.632,17.107,24.433,25.347,36.824A63.773,63.773,0,0,0,1171.751,17.6a126.435,126.435,0,0,1,43.341,28.6c10.634,10.843,21.24,21.763,37.565,24.11,5.243.752,3.608,5.1,2.212,8.5-5.859,14.275-11.8,28.516-17.619,42.818-10.02,24.612-18.961,49.561-22.377,76.149a14.238,14.238,0,0,1-1.456,3.493,21.6,21.6,0,0,1-2.778-1.133,236.182,236.182,0,0,0-105.01-29.882c-25.307-1.507-50.644-2.593-75.917-4.541-13.8-1.062-27.451-3.638-38.745-12.792-.452-7.586-5.28-9.777-11.949-9.67-2.057-1.8-4.218-3.493-6.153-5.418C959.79,124.85,948,110.579,933.755,98.758a103.891,103.891,0,0,0-20.509-16.44c-10.29-6.709-20.671-13.361-33.159-15.4Z" transform="translate(-751.902 406.94)" fill="#272727"/>
        <path id="Path_728" data-name="Path 728" d="M1070.115-20.472c-4.322.162-3.142,4.046-3.708,6.2A447.451,447.451,0,0,0,1050.9,95.943c0,1.234-.124,2.471-.2,3.79-2.9-.03-2.984-2.546-3.894-4.046a487.329,487.329,0,0,0-41.469-58.941c-1.564-1.9-2.643-4.353-5.219-5.28a795.693,795.693,0,0,0,26.459-85.151c3.51-14.16,6.571-28.462,10.115-42.63.789-3.162-.337-7.923,5.961-7.728,6.068.189,8.658,2.741,8.982,8.5a234.933,234.933,0,0,0,13.975,64.059C1066.922-27.754,1068.608-24.144,1070.115-20.472Z" transform="translate(-445.487 658.806)" fill="#060608"/>
        <path id="Path_729" data-name="Path 729" d="M1010.521-73.534c-7.6,1.8-11.382-2.117-15.428-8-10.364-15.064-14.161-32.97-22.35-48.917a39.293,39.293,0,0,0-5.32-9.1c-4.784-5.142-3.82-8.81,1.9-12.1a78.787,78.787,0,0,0,24.231-23.7c1.177-1.645,3.442-5.111,4.272-.378,3.149,18.017,14.282,31.429,24.508,45.607,8.861,12.286,16.578,25.263,18.105,41.109.958,9.936.728,11.423-8.924,11.072C1023.893-78.213,1018.3-70.675,1010.521-73.534Z" transform="translate(-530.288 483.12)" fill="#272727"/>
        <path id="Path_730" data-name="Path 730" d="M1080.835-70.815a27.968,27.968,0,0,1-17.488-3.921,12.311,12.311,0,0,0-15.337,1.328,15.034,15.034,0,0,1-8.836,3.415,138.192,138.192,0,0,1,17.431-55.054,150.906,150.906,0,0,0,21.109-55.994c2.859,7.458,7.717,13.736,11.126,20.836a249.9,249.9,0,0,1,.338,32.559C1088.594-108.367,1084.385-89.645,1080.835-70.815Z" transform="translate(-352.87 476.217)" fill="#343434"/>
        <path id="Path_731" data-name="Path 731" d="M1040-226.615c8.881-.044,16.9,1.156,18.388,12.276a3.035,3.035,0,0,0,1.767,2.144c7.178,1.568,12.734,6.51,19.005,9.282,8.122,3.591,16.43,8.567,26.17,8.26a14.565,14.565,0,0,1,13.6,7.987c-23.264,1.187-44.079,12.589-66.715,16.008-10.057,1.517-20.529.256-32.262.256a117.879,117.879,0,0,0,19.467-23.988,12.38,12.38,0,0,0,2.279-11.193A53.247,53.247,0,0,1,1040-226.615Z" transform="translate(-398.441 368.131)" fill="#343434"/>
      </g>
    </g>
    <path id="Path_738" data-name="Path 738" d="M986.71-148.83" transform="translate(358.328 284.013)" fill="#272727"/>
    <path id="Path_739" data-name="Path 739" d="M1035.942,224.7a106.859,106.859,0,0,0,5.125,22.69,42.121,42.121,0,0,1-15.947,16.487c-7.755,4.619-12,12-16.217,19.555-10.924,19.487-27.377,30.141-49.9,29.1-6.541-.3-15.037.843-19.015-7.485-.506-7.249,3.843-12.846,6.541-18.982,10.654-11.126,16.958-24.848,23.263-38.57a4.591,4.591,0,0,0,1.382-4.012l.236-.3.371.371.472-.2a44.167,44.167,0,0,0,5.833-12.677c5.024-11.092,6.473-22.994,8.26-34.828a166.1,166.1,0,0,0,7.215-39.784,29.892,29.892,0,0,0,1.416-12.2c.034-1.011.067-2.023.067-3.034q-.05-18.257-.169-36.547c-.068-2.023-.135-4.046-.236-6.1V78.405a92.9,92.9,0,0,0,.2-22.893c3.911-3.338.91-8.092,2.36-11.9,3.473-9.407,3.574-19.454,5.732-29.1,2.832-.877,2.36-3.574,3.1-5.6q6.119-16.74,12.138-33.479c1.584-2.427,3.236-4.788,4.72-7.282,2.192-3.776,4.214-7.653,6.035-11.6a1.783,1.783,0,0,0,.1-.169s-22.454,196.931,24.578,131.456c-2.7,6.136-4.113,28.152,2.562,30.546-6.1,12.677-12.339,25.32-15.61,39.177C1033.919,179.585,1033.615,202.039,1035.942,224.7Z" transform="translate(247.43 533.545)" fill="#060608"/>
    <path id="Path_740" data-name="Path 740" d="M1056.235-35.116a3.72,3.72,0,0,0-.135,1.045c.034-1.349.067-2.7.1-4.08C1056.2-37.139,1056.2-36.127,1056.235-35.116Z" transform="translate(522.887 546.494)" fill="#272727"/>
    <path id="Path_741" data-name="Path 741" d="M1153.48,292.464c-5.53,2.225-10.452,6.642-16.891,5.664-17.7-2.7-33.547-9.373-45.381-23.4a49.175,49.175,0,0,0-24.646-16.824,27.046,27.046,0,0,1-17.869-12.711c.337-11.8,5.732-22.926,4.922-34.9,3-21.477,4.282-42.919-1.989-64.093A473.586,473.586,0,0,0,1039.32,98.5s11.531-5.6,8.665-42.009c9.71,24.005,44.436,37.424,47.909-93.391a5.386,5.386,0,0,0,1.315,3.506l8.8,41.267c2.832,14.093,4.484,28.355,6.069,42.65,1.821,11.632.034,23.4,1.349,35.1a47.423,47.423,0,0,1-2.09,13.385l-.776,4.282c-1.483,1.45-.809,3.169-.641,4.855q-2.427,18.257-4.821,36.547c-2.63,15.172-5.63,30.31-3.439,45.819a83.605,83.605,0,0,0,23.129,58.125,28.008,28.008,0,0,0,7.08,9.036c4.787,5.866,9.2,12.07,14.464,17.5A30.337,30.337,0,0,1,1153.48,292.464Z" transform="translate(483.093 549.458)" fill="#060608"/>
    <path id="Path_742" data-name="Path 742" d="M1005.244-144.337s-21.612,19.454-29.939,40.728l-.034.034c-2.259-1.079-4.552-2.09-6.878-3a68.8,68.8,0,0,1-11.059-5.462c-.236-.135-.472-.3-.674-.438a134.723,134.723,0,0,1,43.088-45.414C1001.468-153.338,1003.254-148.787,1005.244-144.337Z" transform="translate(287.063 262.528)" fill="#343434"/>
    <path id="Path_743" data-name="Path 743" d="M1006.123-155.7c-32.906,17.094-48.718,47.033-48.718,47.033a57.329,57.329,0,0,1-4.855-5.057c17.768-31.76,39.683-44.2,50.741-48.719C1004.269-160.215,1005.213-157.99,1006.123-155.7Z" transform="translate(277.316 251.737)" fill="#343434"/>
    <path id="Polygon_1" data-name="Polygon 1" d="M79.888,0l79.888,137.807H0Z" transform="translate(1477.636 -147.681) rotate(60)" fill="#fff"/>
  </g>
</svg>
