<svg xmlns="http://www.w3.org/2000/svg" width="120.054" height="120.285" viewBox="0 0 120.054 120.285">
  <g id="Group_395" data-name="Group 395" transform="translate(-371.737 -1026)">
    <path id="Path_643" data-name="Path 643" d="M479.725,1358.239c-.313-3.535-.654-7.069-.92-10.607a16.3,16.3,0,0,1,.17-2.69c.21-2.283.216-2.283,2.6-3.36,0,1.177-.012,2.29,0,3.4a2.144,2.144,0,1,0,4.251.015c.015-3.354,0-6.707,0-10.371.414.5.67.761.873,1.059,1.454,2.131,2.882,4.28,4.349,6.4a11.547,11.547,0,0,0,10.533,5.4c2.769-.111,5.546-.027,8.319-.026a10.39,10.39,0,0,0,8.634-4.191c1.83-2.383,3.457-4.923,5.177-7.39.244-.35.511-.684.905-1.208.052.478.107.755.108,1.032.006,3.052,0,6.1.007,9.157.005,1.568.834,2.544,2.126,2.549s2.114-.968,2.131-2.539c.011-1.055,0-2.111,0-3.177,1.762.42,2.387,1.138,2.561,2.772a40.615,40.615,0,0,1-.683,13.183,3.588,3.588,0,0,0-.034.583Z" transform="translate(-73.519 -211.953)" fill="#fff"/>
    <path id="Path_644" data-name="Path 644" d="M638.963,1055.213c-2.007,8.51-7.95,14.18-14.244,19.511-8.463,7.167-18.023,12.615-28.012,17.334a1.479,1.479,0,0,1-.883.167c-3.26-.771-6.511-1.576-9.787-2.655.432-.173.862-.349,1.3-.52,12.076-4.747,23.595-10.517,33.841-18.6a44.912,44.912,0,0,0,9.031-8.994,56.375,56.375,0,0,0,3.115-5.6c.141-.256.286-.593.518-.7a9.408,9.408,0,0,0,4.431-4.4l.694,2.115Z" transform="translate(-147.172 -16.997)" fill="#d1ad61"/>
    <path id="Path_645" data-name="Path 645" d="M376.233,1381.719c.8-.522,1.572-1.1,2.411-1.557,4.246-2.3,8.528-4.529,12.761-6.85a36.117,36.117,0,0,1,8.982-3.554c1.206-.289,2.4-.606,3.718-.938,0,.476-.024.924,0,1.368q.338,5.3.692,10.6c.02.308.026.618.039.927Z" transform="translate(-3.087 -235.434)" fill="#fff"/>
    <path id="Path_646" data-name="Path 646" d="M659.185,1381.8c.253-2.478.574-4.952.736-7.435.117-1.785.023-3.584.023-5.427,4.234,1.015,8.429,2.063,12.281,4.215,4.418,2.468,8.916,4.792,13.366,7.2.768.416,1.469.958,2.2,1.443Z" transform="translate(-197.407 -235.517)" fill="#fff"/>
    <path id="Path_647" data-name="Path 647" d="M611.518,1026l2.187.335c-.315,1.309-.636,2.645-.975,4.054-2.128,0-4.342-.061-6.552.011a106.293,106.293,0,0,0-23.335,3.486,5.961,5.961,0,0,1-2.484-.026c-2.45-.449-4.882-1-7.313-1.5a3.15,3.15,0,0,1,.535-.266,125.787,125.787,0,0,1,30-5.9,6.091,6.091,0,0,0,.9-.189Z" transform="translate(-138.25)" fill="#d1ad61"/>
    <path id="Path_648" data-name="Path 648" d="M723.282,1155.651a10.146,10.146,0,0,1-5.288,6.517,8.154,8.154,0,0,1-.742.345c-.139.059-.289.092-.529.166a12.1,12.1,0,0,0-1.737-8.142.8.8,0,0,1,.072-.71,4.753,4.753,0,0,0,.314-5.132,56.059,56.059,0,0,0-3.884-6.367,30.705,30.705,0,0,0-2.673-3.036l3.526-2.842c4.89,4.791,9.41,9.707,10.941,16.618Z" transform="translate(-231.491 -75.852)" fill="#fff"/>
    <path id="Path_649" data-name="Path 649" d="M432.411,1026c2.2.235,4.412.443,6.612.71a131.381,131.381,0,0,1,20.771,4.372c-1.641.657-3.08,1.113-4.4,1.795a6.119,6.119,0,0,1-4.58.337,99.127,99.127,0,0,0-23.751-2.9c-1.013,0-2.026.094-3.04.139a.672.672,0,0,1-.2-.051l-1.29-4.024,2.616-.378Z" transform="translate(-34.88)" fill="#fff"/>
    <path id="Path_650" data-name="Path 650" d="M385.135,1026c1.921.762,3.468,1.89,4,4.037a5.348,5.348,0,1,1-7.382-3.558c.345-.158.689-.319,1.033-.478Z" transform="translate(-4.72)" fill="#fff"/>
    <path id="Path_651" data-name="Path 651" d="M719.3,1026c.264.146.524.3.793.437a4.278,4.278,0,1,1-3.707-.01c.272-.135.536-.285.8-.428Z" transform="translate(-235.01)" fill="#fff"/>
    <path id="Path_652" data-name="Path 652" d="M480.064,1226.651c4.946-1.006,9.591-1.839,14.177-2.918,3.677-.865,7.279-2.051,10.929-3.037a3.544,3.544,0,0,1,1.9-.016,148.109,148.109,0,0,0,24.016,5.6c.806.117,1.009.4,1.014,1.168.019,2.582.111,5.164.181,7.746a16.782,16.782,0,0,1-5.155,12.9,51.324,51.324,0,0,0-8.778,11.1c-2.362,4.158-5.6,6.328-10.534,5.718a47.981,47.981,0,0,0-6.088-.041,6.607,6.607,0,0,1-5.5-2.62,37.415,37.415,0,0,1-2.459-3.426,58.492,58.492,0,0,0-8.628-10.776,16.23,16.23,0,0,1-4.892-9.4,15.036,15.036,0,0,1-.178-1.984C480.055,1233.3,480.064,1229.937,480.064,1226.651Z" transform="translate(-74.393 -133.613)" fill="#fff"/>
    <path id="Path_653" data-name="Path 653" d="M530.233,1081.207a7.282,7.282,0,0,1-.945.739,158.128,158.128,0,0,1-24.542,11.243,6.636,6.636,0,0,1-4.913-.016,164.487,164.487,0,0,1-24.458-11.155,1.5,1.5,0,0,1-.888-1.845c1.463-8.459,6.328-14.042,14.208-17.2,10.861-4.346,21.389-3.723,31.464,2.221a20.036,20.036,0,0,1,9.968,15.119C530.156,1080.511,530.175,1080.706,530.233,1081.207Z" transform="translate(-70.533 -23.457)" fill="#fff"/>
    <path id="Path_654" data-name="Path 654" d="M372,1062.77a10.1,10.1,0,0,0,5.952,3.351,1.178,1.178,0,0,1,.7.54c4.026,6.879,10.022,11.76,16.511,16.054a154.179,154.179,0,0,0,55.756,22.55c3.747.742,7.558,1.156,11.321,1.718v7.334c-2.026-.273-4.306-.516-6.564-.895a158.7,158.7,0,0,1-58.434-22.4c-7.451-4.662-14.392-9.994-19.946-16.917-2.513-3.133-4.645-6.491-5.246-10.591C372.036,1063.37,372.035,1063.218,372,1062.77Z" transform="translate(-0.183 -25.252)" fill="#fff"/>
    <path id="Path_655" data-name="Path 655" d="M382.763,1136.663l3.352,2.719c-1.464,1.791-2.936,3.464-4.262,5.247a12.99,12.99,0,0,0-2.685,5.919,4.32,4.32,0,0,0,2.212,4.657,18.606,18.606,0,0,0,7.46,2.226c7.843.988,15.59.079,23.3-1.3a5.492,5.492,0,0,1,3.477.351c2.936,1.346,5.944,2.532,9.232,3.913-2.218.589-4.16,1.148-6.124,1.617-8.989,2.147-18.061,3.686-27.346,3.386-4.86-.157-9.668-.72-14.091-2.976-2.754-1.4-4.9-3.361-5.442-6.609a11.168,11.168,0,0,1,.8-5.743C374.169,1145.935,379.085,1139.407,382.763,1136.663Z" transform="translate(0 -75.999)" fill="#d1ad61"/>
    <path id="Path_656" data-name="Path 656" d="M687.824,1198.041a7.432,7.432,0,0,1-7.45,7.548,7.5,7.5,0,1,1,7.45-7.548Z" transform="translate(-206.78 -113.029)" fill="#fff"/>
    <path id="Path_657" data-name="Path 657" d="M451.992,1089.716,448.4,1099.1l-5.425-3.8Z" transform="translate(-48.926 -43.757)" fill="#d1ad61"/>
  </g>
</svg>
