<svg xmlns="http://www.w3.org/2000/svg" width="19.282" height="21.938" viewBox="0 0 19.282 21.938">
  <g id="Group_329" data-name="Group 329" transform="translate(-3371.633 87.143)">
    <path id="Path_594" data-name="Path 594" d="M3587.9-87.143a.8.8,0,0,1,.476.861c-.021.355,0,.712-.005,1.068a.645.645,0,0,1-.642.682.646.646,0,0,1-.642-.682c0-.356.016-.713-.005-1.068a.8.8,0,0,1,.476-.861Z" transform="translate(-203.888)" fill="#323232"/>
    <path id="Path_595" data-name="Path 595" d="M3385.253-8.08h.245c1.135,0,2.27,0,3.405,0a1.876,1.876,0,0,1,1.791,1.065,1.817,1.817,0,0,1-.145,1.962.254.254,0,0,0,0,.364,1.885,1.885,0,0,1,0,2.218c-.075.1-.131.174-.031.31A1.9,1.9,0,0,1,3389.632.8c-.04.015-.078.033-.09.038a5.309,5.309,0,0,1,.058.918,1.871,1.871,0,0,1-1.9,1.729c-1.885.016-3.77.008-5.654-.005a6.76,6.76,0,0,1-2.094-.394c-.635-.212-1.273-.418-1.906-.639-.14-.049-.2-.015-.268.1a1.824,1.824,0,0,1-1.589.933c-1.3.019-2.6.01-3.9.005a.647.647,0,0,1-.658-.731q0-3.062,0-6.125,0-2.6,0-5.2c0-.557.233-.788.8-.788,1.185,0,2.37,0,3.555,0a1.931,1.931,0,0,1,1.878,1.1c.059.116.123.1.223.071a3.888,3.888,0,0,0,1.633-1.1,8.031,8.031,0,0,0,1.982-3.827c.065-.292.14-.582.216-.871a.67.67,0,0,1,.709-.556,3.508,3.508,0,0,1,1.557.2,2.511,2.511,0,0,1,1.582,2.321,12.2,12.2,0,0,1-.473,3.786C3385.279-8.2,3385.269-8.149,3385.253-8.08Zm-2.194-5.169c-.026.1-.054.19-.073.28a9.5,9.5,0,0,1-2,4.184,5.242,5.242,0,0,1-2.8,1.9c-.134.032-.123.11-.123.2q0,3.8,0,7.6a.211.211,0,0,0,.177.237c.739.24,1.474.492,2.212.735a5.81,5.81,0,0,0,1.807.308q2.7,0,5.4,0A.643.643,0,1,0,3387.7.917a.652.652,0,0,1-.646-.66.65.65,0,0,1,.7-.625c.386,0,.771,0,1.157,0a.651.651,0,0,0,.709-.638.649.649,0,0,0-.7-.646c-.386,0-.771,0-1.157,0a.65.65,0,0,1-.708-.639.649.649,0,0,1,.7-.645c.386,0,.771,0,1.157,0a.65.65,0,0,0,.708-.64.649.649,0,0,0-.7-.644c-.378,0-.757,0-1.135,0a.654.654,0,0,1-.728-.641.654.654,0,0,1,.727-.643c.407,0,.814.007,1.221,0a.635.635,0,0,0,.62-.617.645.645,0,0,0-.577-.658,2.168,2.168,0,0,0-.235-.005h-6.169a.652.652,0,0,1-.726-.643.654.654,0,0,1,.728-.641c.407,0,.813,0,1.215,0a1.045,1.045,0,0,0,.053-.108,10.039,10.039,0,0,0,.556-3.914A1.25,1.25,0,0,0,3383.059-13.249ZM3372.926,2.2h.208q1.445,0,2.89,0a.661.661,0,0,0,.749-.749q0-4.388,0-8.777a.665.665,0,0,0-.765-.755h-2.869c-.069,0-.138.006-.214.01Z" transform="translate(0 -68.696)" fill="#323232"/>
    <path id="Path_596" data-name="Path 596" d="M3511.669-55.416a2.415,2.415,0,0,1,.425.256c.294.27.573.557.851.844a.639.639,0,0,1,.031.937.638.638,0,0,1-.936-.027c-.3-.293-.6-.59-.89-.9a.6.6,0,0,1-.11-.714A.714.714,0,0,1,3511.669-55.416Z" transform="translate(-131.861 -30.025)" fill="#323232"/>
    <path id="Path_597" data-name="Path 597" d="M3647.954-55.216a.689.689,0,0,1,.585.374.564.564,0,0,1-.055.664c-.332.363-.678.714-1.042,1.044a.609.609,0,0,1-.835-.059.609.609,0,0,1-.044-.836c.326-.358.675-.7,1.03-1.026A1.228,1.228,0,0,1,3647.954-55.216Z" transform="translate(-260.041 -30.214)" fill="#323232"/>
    <path id="Path_598" data-name="Path 598" d="M3420.208,251.111a.641.641,0,1,1,.647-.635A.647.647,0,0,1,3420.208,251.111Z" transform="translate(-45.368 -318.893)" fill="#323232"/>
  </g>
</svg>
