<svg xmlns="http://www.w3.org/2000/svg" width="24.363" height="20.293" viewBox="0 0 24.363 20.293">
  <g id="Group_462" data-name="Group 462" transform="translate(911.394 -314.542)">
    <path id="Path_714" data-name="Path 714" d="M-886.955,468.213V476.3a.749.749,0,0,0-.04.111,2.765,2.765,0,0,1-2.822,2.326q-9.31,0-18.621,0a2.778,2.778,0,0,1-2.874-2.883q0-3.686,0-7.372v-.268c.089.026.149.041.209.061,3.671,1.223,7.345,2.439,11.012,3.675a2.881,2.881,0,0,0,1.923,0Q-892.567,470.067-886.955,468.213Z" transform="translate(-0.077 -143.904)" fill="#fff"/>
    <path id="Path_715" data-name="Path 715" d="M-887.031,322.691q-2.183.733-4.366,1.466c-2.455.82-4.912,1.632-7.365,2.458a1.332,1.332,0,0,1-.9,0q-5.729-1.921-11.466-3.818a.324.324,0,0,1-.266-.382c.014-.658,0-1.316.005-1.974a2.777,2.777,0,0,1,2.839-2.846c1.657-.006,3.314,0,4.971,0h.315c0-.371-.008-.717,0-1.063a2,2,0,0,1,1.617-1.94,2.2,2.2,0,0,1,.449-.039c1.324,0,2.648-.008,3.972,0a2,2,0,0,1,2.029,1.626,2.872,2.872,0,0,1,.039.52c.006.284,0,.569,0,.9h.289c1.625,0,3.251.029,4.876-.008a2.823,2.823,0,0,1,2.922,2.359.38.38,0,0,0,.036.087Zm-14.2-5.12h4.039v-.982h-4.039Z" fill="#fff"/>
  </g>
</svg>
