<svg xmlns="http://www.w3.org/2000/svg" width="18.651" height="18.64" viewBox="0 0 18.651 18.64">
  <g id="Group_216" data-name="Group 216" transform="translate(119.337 -310.453)">
    <path id="Path_326" data-name="Path 326" d="M-102.069,329.093h-.218a.449.449,0,0,0-.085-.028,1.446,1.446,0,0,1-1.147-.792,2.2,2.2,0,0,1-.185-1.063,13.378,13.378,0,0,0-.452-3.216,13.965,13.965,0,0,0-3.125-5.806A14,14,0,0,0-113,314.307a13.859,13.859,0,0,0-4.7-.843,1.5,1.5,0,0,1-1.459-.867,3.477,3.477,0,0,1-.172-.622v-.036a.68.68,0,0,0,.03-.119,1.5,1.5,0,0,1,1.6-1.364c.66.03,1.322.065,1.979.135a15.557,15.557,0,0,1,4.587,1.22,17.048,17.048,0,0,1,8.944,8.754,16.74,16.74,0,0,1,1.511,6.95,1.425,1.425,0,0,1-.637,1.278A3.946,3.946,0,0,1-102.069,329.093Z" transform="translate(0 0)" fill="#fff"/>
    <path id="Path_327" data-name="Path 327" d="M-107.861,353.02a1.762,1.762,0,0,1-.869-.376,1.424,1.424,0,0,1-.514-1.027,9.276,9.276,0,0,0-.357-2.494,8.451,8.451,0,0,0-6.331-5.963,6.735,6.735,0,0,0-1.637-.206,1.628,1.628,0,0,1-1.767-1.334v-.364a1.663,1.663,0,0,1,.535-.964,1.508,1.508,0,0,1,1.023-.358,11.4,11.4,0,0,1,8.694,4.008,11.2,11.2,0,0,1,2.7,5.842,13.143,13.143,0,0,1,.124,1.685,1.47,1.47,0,0,1-1.318,1.525.285.285,0,0,0-.065.028Z" transform="translate(0 -23.927)" fill="#fff"/>
    <path id="Path_328" data-name="Path 328" d="M-113.091,380.312a3.008,3.008,0,0,1-3.017,3,3.019,3.019,0,0,1-3-3.007,3.011,3.011,0,0,1,3.032-3A3,3,0,0,1-113.091,380.312Z" transform="translate(-0.187 -54.257)" fill="#fff"/>
  </g>
</svg>
