<svg xmlns="http://www.w3.org/2000/svg" width="20.021" height="20.896" viewBox="0 0 20.021 20.896">
  <g id="Group_328" data-name="Group 328" transform="translate(-2642.049 148.434)">
    <path id="Path_584" data-name="Path 584" d="M2656.541-127.537c-.305-.061-.615-.106-.914-.187a4.853,4.853,0,0,1-2.353-1.434.49.49,0,0,0-.405-.17q-4.133.007-8.266,0a2.462,2.462,0,0,1-2.554-2.559q0-7,0-14a2.468,2.468,0,0,1,2.545-2.551h10.551a2.467,2.467,0,0,1,2.536,2.541q0,3.979,0,7.958v.251c.249.06.493.11.732.177a5.072,5.072,0,0,1,3.637,5.33,5.083,5.083,0,0,1-4.215,4.565c-.133.022-.265.05-.4.075Zm-.083-10.157v-.23q0-3.958,0-7.915a1.253,1.253,0,0,0-1.369-1.368h-10.447a1.251,1.251,0,0,0-1.367,1.368q0,6.967,0,13.934a1.242,1.242,0,0,0,1.355,1.357h7.7a5.037,5.037,0,0,1,.254-4.609A5.036,5.036,0,0,1,2656.458-137.694Zm-3.332,5.068a3.868,3.868,0,0,0,3.849,3.865,3.869,3.869,0,0,0,3.874-3.861,3.856,3.856,0,0,0-3.827-3.862A3.864,3.864,0,0,0,2653.125-132.626Z" fill="#323232"/>
    <path id="Path_585" data-name="Path 585" d="M2706.224,10.041c.578,0,1.156,0,1.735,0a.614.614,0,1,1,.021,1.222q-1.775.008-3.551,0a.623.623,0,0,1-.653-.5.6.6,0,0,1,.392-.681.891.891,0,0,1,.28-.038C2705.04,10.04,2705.632,10.041,2706.224,10.041Z" transform="translate(-59.195 -151.995)" fill="#323232"/>
    <path id="Path_586" data-name="Path 586" d="M2706.222,69.936c.578,0,1.156,0,1.735,0a.614.614,0,1,1,.021,1.222q-1.776.008-3.551,0a.623.623,0,0,1-.653-.5.6.6,0,0,1,.392-.681.891.891,0,0,1,.28-.038C2705.038,69.935,2705.63,69.936,2706.222,69.936Z" transform="translate(-59.193 -209.442)" fill="#323232"/>
    <path id="Path_587" data-name="Path 587" d="M2706.2,129.831c.585,0,1.17,0,1.755,0a.609.609,0,0,1,.679.6.617.617,0,0,1-.681.624q-1.755,0-3.51,0a.629.629,0,0,1-.672-.5.6.6,0,0,1,.394-.68.974.974,0,0,1,.3-.038C2705.048,129.829,2705.626,129.831,2706.2,129.831Z" transform="translate(-59.194 -266.888)" fill="#323232"/>
    <path id="Path_588" data-name="Path 588" d="M2706.259,191.928c-.591,0-1.183,0-1.775,0a.617.617,0,0,1-.659-.562.6.6,0,0,1,.616-.659c.68-.006,1.36,0,2.04,0,.517,0,1.034,0,1.551,0a.6.6,0,0,1,.661.6.612.612,0,0,1-.658.626C2707.443,191.933,2706.852,191.928,2706.259,191.928Z" transform="translate(-59.249 -325.271)" fill="#323232"/>
    <path id="Path_589" data-name="Path 589" d="M2706.206-49.854c.585,0,1.17,0,1.755,0a.608.608,0,0,1,.679.6.618.618,0,0,1-.681.625q-1.755.006-3.51,0a.629.629,0,0,1-.672-.5.6.6,0,0,1,.393-.68.9.9,0,0,1,.28-.037C2705.036-49.856,2705.621-49.854,2706.206-49.854Z" transform="translate(-59.196 -94.548)" fill="#323232"/>
    <path id="Path_590" data-name="Path 590" d="M2845.952-49.859c.592,0,1.184,0,1.775,0a.605.605,0,0,1,.663.594.606.606,0,0,1-.636.626q-1.8.011-3.592,0a.606.606,0,0,1-.642-.621.6.6,0,0,1,.657-.6C2844.769-49.861,2845.361-49.859,2845.952-49.859Z" transform="translate(-193.235 -94.544)" fill="#323232"/>
    <path id="Path_591" data-name="Path 591" d="M2845.981,10.038c.578,0,1.156,0,1.734,0a.614.614,0,1,1,.014,1.222q-1.775.007-3.551,0a.613.613,0,1,1,.006-1.221C2844.783,10.036,2845.382,10.038,2845.981,10.038Z" transform="translate(-193.237 -151.992)" fill="#323232"/>
    <path id="Path_592" data-name="Path 592" d="M2845.013,69.921c.285,0,.571,0,.855,0a.609.609,0,1,1,.033,1.217q-.886.022-1.772,0a.609.609,0,1,1,.028-1.217C2844.442,69.918,2844.727,69.921,2845.013,69.921Z" transform="translate(-193.24 -209.426)" fill="#323232"/>
    <path id="Path_593" data-name="Path 593" d="M2953.025,195.889l.9-1.113c.213-.265.423-.532.639-.794a.612.612,0,1,1,.953.765q-.94,1.18-1.89,2.353a.6.6,0,0,1-.9.12q-.7-.5-1.386-1.005a.612.612,0,1,1,.717-.989c.312.218.619.443.929.664C2952.987,195.892,2953,195.889,2953.025,195.889Z" transform="translate(-296.378 -328.166)" fill="#323232"/>
  </g>
</svg>
