<svg xmlns="http://www.w3.org/2000/svg" width="20.65" height="18.3" viewBox="0 0 20.65 18.3">
  <path id="Path_501" data-name="Path 501" d="M5182.741,1406.935c-1.052-1.6-2.114-3.19-3.165-4.791a1.7,1.7,0,0,0-1.535-.824c-1.723.012-3.445,0-5.167,0s-3.442.005-5.163,0a1.669,1.669,0,0,0-1.508.805c-1.023,1.569-2.066,3.128-3.1,4.693a1.656,1.656,0,0,0,.16,2.333q4.181,4.761,8.371,9.517a1.526,1.526,0,0,0,2.487.018c2.879-3.181,5.672-6.436,8.494-9.667A1.6,1.6,0,0,0,5182.741,1406.935Zm-11.475-3.378c.187-.67.189-.669.894-.669.625,0,1.25,0,1.875,0,.148,0,.277-.013.332.181.367,1.339.742,2.676,1.124,4.035h-5.215C5170.61,1405.906,5170.937,1404.731,5171.267,1403.557Zm-3.783-.528a.268.268,0,0,1,.251-.142c.689.005,1.376,0,2.1,0-.386,1.37-.765,2.706-1.133,4.046-.045.161-.132.188-.28.188-1.184-.006-2.372,0-3.636,0C5165.71,1405.717,5166.6,1404.373,5167.483,1403.029Zm3.556,12.6-6.042-6.872c.094-.119.206-.065.3-.065,1.03,0,2.057,0,3.087,0,.155,0,.291-.021.363.191.762,2.222,1.537,4.44,2.308,6.659C5171.063,1415.553,5171.047,1415.579,5171.04,1415.625Zm1.844.391c-.29-.837-.542-1.563-.793-2.289-.544-1.57-1.085-3.14-1.645-4.706-.1-.283-.061-.345.243-.342,1.561.013,3.124.007,4.743.007C5174.581,1411.134,5173.752,1413.517,5172.884,1416.016Zm1.966-.479-.111-.073q.24-.69.481-1.382c.582-1.681,1.167-3.362,1.739-5.047a.429.429,0,0,1,.49-.358c1.093.022,2.188.009,3.387.009C5178.808,1411.007,5176.83,1413.272,5174.85,1415.536Zm2.531-8.415c-.156,0-.265-.008-.314-.194-.37-1.339-.749-2.675-1.13-4.038.711,0,1.387,0,2.066,0a.274.274,0,0,1,.266.116l2.716,4.117C5179.726,1407.12,5178.555,1407.117,5177.381,1407.121Z" transform="translate(-5162.582 -1401.169)" fill="#323232" stroke="#fff" stroke-width="0.3"/>
</svg>
