<svg xmlns="http://www.w3.org/2000/svg" width="17.718" height="18.277" viewBox="0 0 17.718 18.277">
  <g id="Group_327" data-name="Group 327" transform="translate(-3094.682 -437.885)">
    <path id="Path_582" data-name="Path 582" d="M3101.827,456.162c-.112-.037-.228-.064-.336-.111a1.426,1.426,0,0,1-.874-1.152c-.048-.293-.095-.586-.146-.879a1.067,1.067,0,0,0-1.432-.848c-.3.1-.589.222-.885.33a1.417,1.417,0,0,1-1.794-.642q-.736-1.263-1.462-2.532a1.412,1.412,0,0,1,.338-1.874c.236-.2.479-.391.715-.592a1.064,1.064,0,0,0,0-1.676c-.245-.208-.5-.406-.742-.615a1.406,1.406,0,0,1-.325-1.82q.735-1.294,1.488-2.578a1.416,1.416,0,0,1,1.77-.629c.29.105.577.22.867.324a1.068,1.068,0,0,0,1.466-.858c.057-.328.105-.657.172-.983a1.4,1.4,0,0,1,1.368-1.136q1.526-.011,3.052,0a1.423,1.423,0,0,1,1.4,1.257c.048.293.1.586.146.879a1.066,1.066,0,0,0,1.43.852c.3-.1.589-.221.885-.33a1.416,1.416,0,0,1,1.8.638q.742,1.27,1.471,2.547a1.411,1.411,0,0,1-.329,1.848c-.24.2-.488.4-.729.6a1.063,1.063,0,0,0,0,1.675c.244.209.5.406.742.615a1.406,1.406,0,0,1,.329,1.82q-.739,1.3-1.5,2.594a1.414,1.414,0,0,1-1.743.624c-.3-.105-.588-.224-.884-.33a1.066,1.066,0,0,0-1.468.853c-.052.3-.095.611-.155.914a1.4,1.4,0,0,1-1.135,1.182.346.346,0,0,0-.064.029Zm9.14-6.582-.685-.565a2.5,2.5,0,0,1,0-3.98c.228-.187.456-.376.687-.566-.487-.843-.966-1.671-1.441-2.5a.114.114,0,0,0-.17-.059c-.31.121-.62.243-.936.344a2.489,2.489,0,0,1-3.2-1.917c-.062-.337-.117-.676-.176-1.015h-3c-.048.286-.1.566-.142.848a2.49,2.49,0,0,1-3.038,2.136,9.068,9.068,0,0,1-1.108-.388c-.1-.039-.158-.032-.211.073-.08.159-.176.31-.265.464l-1.163,2.014.72.594a2.5,2.5,0,0,1,0,3.924l-.72.594,1.5,2.6c.326-.121.632-.236.938-.348a2.392,2.392,0,0,1,1.332-.109,2.5,2.5,0,0,1,2.013,2.158c.043.285.1.568.144.855h3c.05-.3.1-.583.143-.865a2.491,2.491,0,0,1,3.045-2.125,10.005,10.005,0,0,1,1.108.388c.082.03.135.043.188-.05C3110,451.252,3110.479,450.425,3110.967,449.58Z" transform="translate(0 0)" fill="#323232"/>
    <path id="Path_583" data-name="Path 583" d="M3210.175,562.7a3.523,3.523,0,1,1,3.425-3.614A3.531,3.531,0,0,1,3210.175,562.7Zm-.074-5.618a2.1,2.1,0,1,0,2.074,2.127A2.11,2.11,0,0,0,3210.1,557.079Z" transform="translate(-106.538 -112.15)" fill="#323232"/>
  </g>
</svg>
