<svg xmlns="http://www.w3.org/2000/svg" width="20.708" height="20.708" viewBox="0 0 20.708 20.708">
  <g id="Group_217" data-name="Group 217" transform="translate(-34.744 -273.23)">
    <path id="Path_329" data-name="Path 329" d="M36.487,276.061a6.09,6.09,0,0,0-4.248-2.744,8.92,8.92,0,0,0-1.227-.082q-3.928-.006-7.861,0a6.15,6.15,0,0,0-4.853,2.178,6,6,0,0,0-1.474,3.492,1.747,1.747,0,0,1-.035.2v5.54c.078.428.125.864.242,1.283a6.21,6.21,0,0,0,5.506,4.542c.035,0,.065.009.121.013v.225c0,.821.009,1.642,0,2.463a.723.723,0,0,0,.445.774h.285a4.889,4.889,0,0,0,.5-.4,10.13,10.13,0,0,1,2.766-2.109,9.043,9.043,0,0,1,4.153-.946,7.245,7.245,0,0,0,2.217-.255,6.144,6.144,0,0,0,3.461-2.567,6.218,6.218,0,0,0,1.02-3.557q-.006-2.243,0-4.486A6.214,6.214,0,0,0,36.487,276.061ZM22.654,283.23a1.381,1.381,0,0,1-1.374-1.379,1.379,1.379,0,1,1,2.757.013A1.372,1.372,0,0,1,22.654,283.23Zm4.486,0a1.369,1.369,0,0,1-1.37-1.379,1.376,1.376,0,1,1,2.753.013A1.375,1.375,0,0,1,27.14,283.23Zm4.486,0a1.372,1.372,0,0,1-1.37-1.379,1.376,1.376,0,1,1,1.37,1.379Z" transform="translate(17.954 0)" fill="#fff"/>
  </g>
</svg>
