<svg xmlns="http://www.w3.org/2000/svg" width="19.417" height="19.411" viewBox="0 0 19.417 19.411">
  <g id="Group_325" data-name="Group 325" transform="translate(-2775.362 -1468.514)">
    <path id="Path_573" data-name="Path 573" d="M2784.465,1468.514h1.213c.049.011.1.023.146.031a14.642,14.642,0,0,1,1.822.324,9.551,9.551,0,0,1,6.983,7.679c.072.351.1.71.149,1.066v1.213c-.036.275-.068.55-.109.824a9.343,9.343,0,0,1-2.808,5.5,9.445,9.445,0,0,1-8.453,2.628,9.243,9.243,0,0,1-5.863-3.433,9.489,9.489,0,0,1-1.951-8.221,9.7,9.7,0,0,1,7.785-7.457C2783.74,1468.605,2784.1,1468.564,2784.465,1468.514Zm.606,1.359a8.349,8.349,0,1,0,8.349,8.354A8.351,8.351,0,0,0,2785.072,1469.873Z" fill="#323232"/>
    <path id="Path_574" data-name="Path 574" d="M2917.346,1563.967a3.664,3.664,0,0,1,1.627.319,1.969,1.969,0,0,1,.928,2.832,4.112,4.112,0,0,1-1.09,1.246c-.113.091-.225.184-.331.283a1.365,1.365,0,0,0-.441.974c-.005.114,0,.227-.006.341a.486.486,0,0,1-.447.539,1.75,1.75,0,0,1-.433.022c-.379-.03-.531-.2-.563-.579a2.471,2.471,0,0,1,1.06-2.385,2.661,2.661,0,0,0,.517-.442,1.988,1.988,0,0,0,.369-.624.752.752,0,0,0-.395-.911,1.456,1.456,0,0,0-1.882.438c-.277.4-.533.484-.911.306a.729.729,0,0,1-.364-.932,1.9,1.9,0,0,1,1.17-1.185A3.116,3.116,0,0,1,2917.346,1563.967Z" transform="translate(-132.507 -90.618)" fill="#323232"/>
    <path id="Path_575" data-name="Path 575" d="M2944.211,1712.014a.973.973,0,1,1-1.946-.023.973.973,0,1,1,1.946.023Z" transform="translate(-158.448 -230.226)" fill="#323232"/>
  </g>
</svg>
