<svg xmlns="http://www.w3.org/2000/svg" width="18.84" height="20.46" viewBox="0 0 18.84 20.46">
  <g id="Group_2212" data-name="Group 2212" transform="translate(-526.545 -405.12)">
    <g id="Group_2127" data-name="Group 2127">
      <path id="Path_1562" data-name="Path 1562" d="M539.06,415.93a4.869,4.869,0,0,1,1.21-.21l-.35-5.91h-2.87c0-.51.03-.99,0-1.47a3.516,3.516,0,0,0-7.02.32v1.16h-2.85c-.11,1.87-.22,3.72-.33,5.57-.08,1.5-.18,3-.26,4.5a5.505,5.505,0,0,0,.04,1.67,3.055,3.055,0,0,0,3,2.29h6.86a4.891,4.891,0,0,1-.66-1.21h-6.12a1.7,1.7,0,0,1-.39-.01,1.85,1.85,0,0,1-1.56-2.1c.09-1.23.15-2.46.22-3.69.1-1.76.2-3.52.31-5.28.01-.17.01-.34.02-.53h1.7v1.47h1.22v-1.47h4.64v1.47h1.21v-1.47h1.71l.06.96c.07,1.28.14,2.55.22,3.82v.01A.2.2,0,0,1,539.06,415.93Zm-3.19-6.13h-4.69a11.123,11.123,0,0,1,.17-1.83,2.255,2.255,0,0,1,2.45-1.63,2.334,2.334,0,0,1,2.07,2.26C535.88,409,535.87,409.39,535.87,409.8Z" fill="#323232"/>
    </g>
    <g id="Group_2211" data-name="Group 2211">
      <path id="Path_1686" data-name="Path 1686" d="M540.867,425.58H540.3a.469.469,0,0,0-.072-.016,4.349,4.349,0,0,1-1.683-.441,4.707,4.707,0,0,1-2.754-4.134,4.429,4.429,0,0,1,.676-2.674,4.7,4.7,0,0,1,3.9-2.329,4.474,4.474,0,0,1,2.462.557,4.73,4.73,0,0,1,2.473,3.4c.035.183.051.369.075.554v.563c-.006.03-.014.06-.017.09a4.141,4.141,0,0,1-.226,1.125,4.745,4.745,0,0,1-3.749,3.231C541.22,425.541,541.042,425.556,540.867,425.58Zm-.287-.8a4,4,0,1,0-4-4A4,4,0,0,0,540.58,424.779Z" fill="#323232"/>
      <path id="Path_1687" data-name="Path 1687" d="M541.052,423.512h-.508v-.842H540.2v.84h-.527v-.847h-1.007v-.551c.12,0,.237,0,.355,0,.164,0,.236-.068.237-.233q0-1.158,0-2.316c0-.141-.055-.2-.2-.2s-.292,0-.444,0v-.542h1.04v-.828h.522v.821h.349v-.823h.52v.1c0,.219,0,.437,0,.656,0,.064.019.084.083.091a2.025,2.025,0,0,1,.814.259.835.835,0,0,1,.116,1.321c-.05.046-.1.087-.141.117a3.312,3.312,0,0,1,.384.249.812.812,0,0,1,.286.6,1.1,1.1,0,0,1-.492,1.074,1.534,1.534,0,0,1-.752.2c-.093.005-.186,0-.286,0Zm-.874-1.459c.253,0,.5.01.739,0a.736.736,0,0,0,.528-.227.5.5,0,0,0-.039-.728.7.7,0,0,0-.184-.089,4.183,4.183,0,0,0-1.044-.064Zm0-1.647c.213,0,.418,0,.623,0a.5.5,0,0,0,.388-.175.469.469,0,0,0-.145-.762,2.3,2.3,0,0,0-.866-.083Z" fill="#323232"/>
    </g>
  </g>
</svg>
