<svg xmlns="http://www.w3.org/2000/svg" width="18.469" height="18.407" viewBox="0 0 18.469 18.407">
  <g id="Group_468" data-name="Group 468" transform="translate(-106 -229.297)">
    <path id="Path_716" data-name="Path 716" d="M108.633,249.178a4.274,4.274,0,0,1-.627-.251,1.621,1.621,0,0,1-.847-1.456c-.009-2.307,0-4.615,0-6.922a.577.577,0,1,1,1.152.013q0,3.38,0,6.76c0,.49.211.7.7.7h2.761v-.22q0-3,0-6a1.738,1.738,0,0,1,1.862-1.854h3.246a1.731,1.731,0,0,1,1.816,1.81q0,3.02,0,6.039v.229H121.5a.586.586,0,0,0,.655-.657q0-4.84,0-9.681a.317.317,0,0,0-.13-.272q-3.174-2.639-6.344-5.283a.6.6,0,0,0-.9,0l-7.63,6.358a.853.853,0,0,0-.083.07.612.612,0,0,1-1.072-.2v-.289a1.9,1.9,0,0,1,.258-.336q3.9-3.259,7.809-6.509a1.726,1.726,0,0,1,2.348.011l2.881,2.4.842.7c0-.356,0-.672,0-.988a.578.578,0,1,1,1.153.007c0,.451.034.9-.009,1.351a1.014,1.014,0,0,0,.465.989c.848.66,1.662,1.365,2.485,2.057a.572.572,0,0,1,.1.831.578.578,0,0,1-.837.055l-.183-.144v.919q0,3.993,0,7.986a1.734,1.734,0,0,1-1.207,1.7c-.09.029-.181.054-.271.081Zm4.292-1.167h4.617v-.174q0-3.037,0-6.075a.591.591,0,0,0-.668-.662H113.61c-.469,0-.685.214-.685.681q0,3.019,0,6.039Z" transform="translate(0 -1.475)" fill="#323232"/>
    <path id="Path_718" data-name="Path 718" d="M274.88,505.682a.576.576,0,1,1-.567-.581A.58.58,0,0,1,274.88,505.682Z" transform="translate(-159.647 -262.59)" fill="#323232"/>
  </g>
</svg>
