<svg xmlns="http://www.w3.org/2000/svg" width="17.996" height="17.987" viewBox="0 0 17.996 17.987">
  <g id="Group_2116" data-name="Group 2116" transform="translate(-106 -229.683)">
    <path id="Path_1556" data-name="Path 1556" d="M121.218,247.671h-13.5a.7.7,0,0,0-.1-.032,1.857,1.857,0,0,1-1.367-.957,4.7,4.7,0,0,1-.257-.7v-10.05a.952.952,0,0,0,.032-.1,1.91,1.91,0,0,1,1.442-1.535c.1-.03.213-.042.332-.065-.079-.217-.154-.419-.226-.623a1.215,1.215,0,0,1,.744-1.623q3.053-1.122,6.112-2.227a1.213,1.213,0,0,1,1.584.739c.132.344.259.69.374,1.039a.214.214,0,0,0,.245.178q1.607-.01,3.215,0a1.217,1.217,0,0,1,1.221,1.217c.006.381,0,.761,0,1.142v.163a1.949,1.949,0,0,1,1.863,2.054q0,.861,0,1.721v.271c.041.015.063.024.085.03a1.221,1.221,0,0,1,.969,1.234c0,.925,0,1.85,0,2.775a1.226,1.226,0,0,1-.915,1.191l-.138.038c0,.072,0,.136,0,.2,0,.673.007,1.347,0,2.02a1.922,1.922,0,0,1-1.365,1.807C121.455,247.615,121.336,247.64,121.218,247.671Zm.668-4.114c-.679,0-1.329.007-1.979,0a2.634,2.634,0,0,1,.046-5.268c.58,0,1.16,0,1.74,0h.193c0-.712,0-1.4,0-2.081a.87.87,0,0,0-.91-.9q-6.5,0-13,0a.87.87,0,0,0-.917.916q0,4.735,0,9.469a.879.879,0,0,0,.925.928q6.493,0,12.985,0a.878.878,0,0,0,.92-.917c0-.662,0-1.323,0-1.985ZM115.332,231.7c-.094-.264-.183-.522-.278-.779-.068-.184-.133-.212-.323-.143l-6,2.183c-.187.068-.219.136-.153.32.1.27.207.535.293.808.042.133.109.162.239.161,1.523,0,3.045,0,4.568,0h.178a.366.366,0,0,0,.011-.044c0-.427,0-.855.006-1.282a1.212,1.212,0,0,1,.957-1.17A4.542,4.542,0,0,1,115.332,231.7Zm5.956,7.642c-.422,0-.843,0-1.265,0a1.9,1.9,0,0,0-.315.019,1.58,1.58,0,0,0,.263,3.141c.9.006,1.8,0,2.705,0,.208,0,.262-.053.263-.257q0-1.326,0-2.652c0-.206-.049-.253-.264-.253Zm-6.361-5.107h5.1c0-.4,0-.782,0-1.168,0-.261-.034-.3-.291-.3h-4.511c-.035,0-.07,0-.105,0a.173.173,0,0,0-.187.187C114.926,233.378,114.927,233.8,114.927,234.233Z" transform="translate(0 0)" fill="#323232"/>
    <path id="Path_1557" data-name="Path 1557" d="M392.549,458.947a.536.536,0,0,1-.521-.53.527.527,0,1,1,1.053.012A.536.536,0,0,1,392.549,458.947Z" transform="translate(-272.603 -217.5)" fill="#323232"/>
  </g>
</svg>
