<svg xmlns="http://www.w3.org/2000/svg" width="18.336" height="18.367" viewBox="0 0 18.336 18.367">
  <g id="Group_2805" data-name="Group 2805" transform="translate(828.366 -224.773)">
    <path id="Path_2226" data-name="Path 2226" d="M-819.781,224.923h1.129c.261.034.523.062.783.1a8.889,8.889,0,0,1,5.614,3.193,8.835,8.835,0,0,1,2.06,5.237,5.434,5.434,0,0,1-.306,2.375,2.415,2.415,0,0,1-2.782,1.58,2.861,2.861,0,0,1-1.475-.774,1.3,1.3,0,0,0-2.144.635,1.308,1.308,0,0,0,.38,1.272,2.574,2.574,0,0,1,.273,3.242,2.79,2.79,0,0,1-1.7,1.059c-.267.063-.542.1-.813.144h-1.023a.739.739,0,0,0-.118-.028,8.639,8.639,0,0,1-4.31-1.5,8.918,8.918,0,0,1-3.869-5.95c-.06-.328-.093-.661-.138-.992v-1.129c.058-.4.1-.8.176-1.2a9.043,9.043,0,0,1,7.249-7.128C-820.456,225.007-820.118,224.97-819.781,224.923Zm-7.416,9.03c.068.535.1,1.079.21,1.6a7.844,7.844,0,0,0,4.293,5.561,7.53,7.53,0,0,0,3.733.806,2.824,2.824,0,0,0,1.448-.385,1.317,1.317,0,0,0,.649-1.315,1.6,1.6,0,0,0-.458-.989,2.375,2.375,0,0,1-.677-1.511,2.364,2.364,0,0,1,2.567-2.483,2.554,2.554,0,0,1,1.486.7,1.464,1.464,0,0,0,2.5-.608c.012-.033.023-.067.032-.1a5.685,5.685,0,0,0,.049-2.655,7.613,7.613,0,0,0-2.493-4.492,7.665,7.665,0,0,0-8.075-1.605A7.987,7.987,0,0,0-827.2,233.953Z" fill="#323232" stroke="#323232" stroke-width="0.3"/>
    <path id="Path_2227" data-name="Path 2227" d="M-645,287.526a1.592,1.592,0,0,1-1.6,1.586,1.593,1.593,0,0,1-1.577-1.589,1.592,1.592,0,0,1,1.6-1.586A1.591,1.591,0,0,1-645,287.526Zm-1.586-.53a.535.535,0,0,0-.53.523.536.536,0,0,0,.518.535.535.535,0,0,0,.539-.532A.535.535,0,0,0-646.589,287Z" transform="translate(-173.685 -58.861)" fill="#323232" stroke="#323232" stroke-width="0.3"/>
    <path id="Path_2228" data-name="Path 2228" d="M-736.6,379.113a1.593,1.593,0,0,1-1.586-1.6,1.592,1.592,0,0,1,1.589-1.577,1.591,1.591,0,0,1,1.586,1.6A1.592,1.592,0,0,1-736.6,379.113Zm0-2.116a.535.535,0,0,0-.526.527.535.535,0,0,0,.523.53.535.535,0,0,0,.535-.536A.535.535,0,0,0-736.6,377Z" transform="translate(-86.85 -145.686)" fill="#323232" stroke="#323232" stroke-width="0.3"/>
    <path id="Path_2229" data-name="Path 2229" d="M-463.982,407.526a1.592,1.592,0,0,1-1.6,1.586,1.593,1.593,0,0,1-1.577-1.589,1.592,1.592,0,0,1,1.6-1.586A1.591,1.591,0,0,1-463.982,407.526Zm-1.059-.01a.535.535,0,0,0-.532-.521.535.535,0,0,0-.525.528.535.535,0,0,0,.541.529A.536.536,0,0,0-465.041,407.516Z" transform="translate(-348.318 -174.627)" fill="#323232" stroke="#323232" stroke-width="0.3"/>
    <path id="Path_2230" data-name="Path 2230" d="M-736.6,495.938a1.591,1.591,0,0,1,1.58,1.6,1.592,1.592,0,0,1-1.6,1.571,1.593,1.593,0,0,1-1.58-1.6A1.593,1.593,0,0,1-736.6,495.938Zm.521,1.59A.535.535,0,0,0-736.6,497a.535.535,0,0,0-.535.518.536.536,0,0,0,.531.54A.535.535,0,0,0-736.074,497.527Z" transform="translate(-86.849 -261.452)" fill="#323232" stroke="#323232" stroke-width="0.3"/>
    <path id="Path_2231" data-name="Path 2231" d="M-646.582,585.938A1.591,1.591,0,0,1-645,587.543a1.592,1.592,0,0,1-1.6,1.57,1.593,1.593,0,0,1-1.579-1.605A1.593,1.593,0,0,1-646.582,585.938Zm.52,1.592a.535.535,0,0,0-.52-.533.536.536,0,0,0-.537.516.536.536,0,0,0,.529.542A.535.535,0,0,0-646.062,587.529Z" transform="translate(-173.684 -348.276)" fill="#323232" stroke="#323232" stroke-width="0.3"/>
  </g>
</svg>
