<svg xmlns="http://www.w3.org/2000/svg" width="18.992" height="20.538" viewBox="0 0 18.992 20.538">
  <g id="Group_2127" data-name="Group 2127" transform="translate(-120.408 -229.571)">
    <path id="Path_1562" data-name="Path 1562" d="M134.039,250.109c-.357-.078-.722-.133-1.071-.238a4.886,4.886,0,0,1-2.24-1.455.432.432,0,0,0-.289-.117c-2.313-.006-4.627,0-6.94-.006a3.046,3.046,0,0,1-3-2.287,5.294,5.294,0,0,1-.042-1.675c.084-1.5.175-3,.263-4.5.108-1.847.216-3.695.326-5.566h2.847c0-.4,0-.782,0-1.161a3.517,3.517,0,0,1,7.021-.319c.034.478.005.96.005,1.468h2.865l.35,5.984c.244,0,.483-.014.719,0a4.945,4.945,0,0,1,.324,9.823c-.1.015-.2.033-.294.05Zm-8.946-13.166h-1.212v-1.468h-1.7c-.01.187-.018.36-.028.532q-.154,2.641-.309,5.283c-.072,1.227-.13,2.456-.219,3.682a1.852,1.852,0,0,0,1.947,2.118q3.048,0,6.1,0c.068,0,.137-.007.222-.012-.032-.093-.052-.156-.075-.218a4.766,4.766,0,0,1-.3-1.547,4.935,4.935,0,0,1,3.251-4.794.212.212,0,0,0,.165-.259c-.079-1.274-.148-2.548-.221-3.822-.018-.32-.041-.639-.062-.966h-1.709v1.473h-1.21v-1.469h-4.633Zm9.37,11.962a3.745,3.745,0,1,0-3.751-3.749A3.757,3.757,0,0,0,134.463,248.905Zm-9.418-14.664h4.687c0-.408.012-.8,0-1.193a2.321,2.321,0,0,0-2.065-2.262,2.256,2.256,0,0,0-2.45,1.632A11.564,11.564,0,0,0,125.045,234.241Z" transform="translate(0 0)" fill="#323232"/>
    <path id="Path_1563" data-name="Path 1563" d="M335.915,488.96l-1.953-2.209.9-.8,1.093,1.233,2.273-2.351.807.895Z" transform="translate(-202.11 -241.587)" fill="#323232"/>
  </g>
</svg>
