<svg xmlns="http://www.w3.org/2000/svg" width="15.489" height="20.187" viewBox="0 0 15.489 20.187">
  <g id="Group_322" data-name="Group 322" transform="translate(-1999.705 -1022.6)">
    <g id="Group_320" data-name="Group 320" transform="translate(1999.805 1022.7)">
      <path id="Path_565" data-name="Path 565" d="M2015.094,1026.069a1.757,1.757,0,0,0-1.8-1.792c-.379-.006-.765,0-1.139,0h-1.015v-.261c0-.064,0-.127,0-.188,0-.138,0-.27,0-.406a.622.622,0,0,0-.428-.721h-6.53l-.082.046a.658.658,0,0,0-.174.117,1.131,1.131,0,0,0-.162.456,2.632,2.632,0,0,0-.01.454c0,.078.005.159.005.242v.261h-.5c-.169,0-.338,0-.508,0h-.5l-.612,0a1.764,1.764,0,0,0-1.832,1.837q0,7.369,0,14.737a1.754,1.754,0,0,0,1.829,1.836c4.167,0,7.972,0,11.634,0a1.755,1.755,0,0,0,1.826-1.8C2015.1,1035.781,2015.1,1030.8,2015.094,1026.069Zm-10.235-2.278h5.2v2.052h-5.2Zm9.156,17.021a.7.7,0,0,1-.793.793h-11.536c-.553,0-.8-.248-.8-.8q0-7.32,0-14.64a.7.7,0,0,1,.8-.806h2.076v.261c0,.08,0,.158,0,.233,0,.156,0,.3,0,.451,0,.435.2.638.631.638,1.963,0,3.961,0,6.108,0,.435,0,.639-.207.64-.651,0-.146,0-.291,0-.442v-.456l.24-.019.057-.006c.046,0,.092-.009.144-.009h.1c.507,0,1.031,0,1.546,0a.7.7,0,0,1,.791.8Q2014.017,1033.483,2014.016,1040.813Z" transform="translate(-1999.805 -1022.7)" fill="#323232" stroke="#323232" stroke-width="0.2"/>
    </g>
    <g id="Group_321" data-name="Group 321" transform="translate(2003.758 1031.823)">
      <path id="Path_566" data-name="Path 566" d="M2105.553,1250.882a1.892,1.892,0,0,1-.145.155l-3.993,3.994a.583.583,0,0,1-.981,0l-.372-.372c-.51-.509-1.037-1.035-1.553-1.554a.559.559,0,0,1-.169-.657.522.522,0,0,1,.378-.308.54.54,0,0,1,.1-.01.605.605,0,0,1,.42.18c.337.326.673.665,1,.994l.331.333c.024.024.05.056.086.1l.079.1.208.246.2-.255c.028-.036.051-.068.072-.1a.847.847,0,0,1,.072-.091l1.355-1.356c.67-.67,1.362-1.362,2.042-2.045a.563.563,0,0,1,.622-.195.523.523,0,0,1,.348.351A.529.529,0,0,1,2105.553,1250.882Z" transform="translate(-2098.293 -1250.011)" fill="#323232" stroke="#323232" stroke-width="0.2"/>
    </g>
  </g>
</svg>
