<svg xmlns="http://www.w3.org/2000/svg" width="17.994" height="18" viewBox="0 0 17.994 18">
  <g id="Group_324" data-name="Group 324" transform="translate(-2743.114 -844.514)">
    <path id="Path_570" data-name="Path 570" d="M2875.833,844.514c.3.065.61.109.9.2a4.492,4.492,0,1,1-1.811-.167.536.536,0,0,0,.1-.03Zm-.388,1.5a3,3,0,1,0,2.988,3.037A3,3,0,0,0,2875.446,846.018Z" transform="translate(-121.821 0)" fill="#323232"/>
    <path id="Path_571" data-name="Path 571" d="M2743.114,959.1a.861.861,0,0,1,.958-.593c.42.019.843,0,1.292,0v-.175c0-.428,0-.855,0-1.283a.751.751,0,1,1,1.5-.008c.006.479,0,.959,0,1.466h.2c.427,0,.855,0,1.283,0a.753.753,0,0,1,.738.543.72.72,0,0,1-.311.826,1.044,1.044,0,0,1-.464.126c-.473.016-.947.006-1.443.006v.253c0,.4,0,.8,0,1.2a.753.753,0,1,1-1.5,0c0-.474,0-.948,0-1.447h-.352c-.323,0-.646-.014-.967,0a.832.832,0,0,1-.931-.6Z" transform="translate(0 -106.497)" fill="#323232"/>
    <path id="Path_572" data-name="Path 572" d="M2814.107,1068.124c.814,0,1.629-.014,2.443,0a5.2,5.2,0,0,1,4.973,4.415,19.251,19.251,0,0,1,.073,2.385.724.724,0,0,1-.7.688.742.742,0,0,1-.779-.616,1.9,1.9,0,0,1-.019-.28c-.015-.644.02-1.293-.053-1.93a3.717,3.717,0,0,0-3.339-3.152c-.21-.015-.421-.022-.632-.023q-2.075,0-4.148,0a3.746,3.746,0,0,0-3.769,3.131,3.863,3.863,0,0,0-.053.646c-.008.492,0,.984,0,1.476a.746.746,0,0,1-.7.747.709.709,0,0,1-.784-.645,8.841,8.841,0,0,1,.207-3.1,5.155,5.155,0,0,1,4.4-3.706,5.073,5.073,0,0,1,.735-.04c.715,0,1.43,0,2.145,0Z" transform="translate(-60.489 -213.103)" fill="#323232"/>
  </g>
</svg>
