<svg xmlns="http://www.w3.org/2000/svg" width="110" height="110" viewBox="0 0 110 110">
  <g id="Group_306" data-name="Group 306" transform="translate(-133 -108)">
    <circle id="Ellipse_17" data-name="Ellipse 17" cx="55" cy="55" r="55" transform="translate(133 108)" fill="#3f3f3f"/>
    <g id="Ellipse_18" data-name="Ellipse 18" transform="translate(138 113)" fill="none" stroke="#ffe5e5" stroke-width="0.6" stroke-dasharray="3">
      <circle cx="50" cy="50" r="50" stroke="none"/>
      <circle cx="50" cy="50" r="49.7" fill="none"/>
    </g>
    <g id="Group_300" data-name="Group 300" transform="translate(-5812.091 -1645.216)">
      <path id="Path_514" data-name="Path 514" d="M6017.573,1947.887v11.422a.945.945,0,0,0-.057.156,3.907,3.907,0,0,1-3.986,3.285q-13.148.005-26.3,0a3.924,3.924,0,0,1-4.059-4.071q0-5.205,0-10.411v-.379c.125.037.211.058.294.086,5.186,1.727,10.373,3.444,15.552,5.19a4.075,4.075,0,0,0,2.717,0Q6009.646,1950.505,6017.573,1947.887Z" transform="translate(-0.075 -139.878)" fill="#fff"/>
      <path id="Path_515" data-name="Path 515" d="M6017.5,1805.724q-3.082,1.036-6.165,2.071c-3.469,1.158-6.939,2.305-10.4,3.471a1.881,1.881,0,0,1-1.27-.006q-8.089-2.713-16.192-5.393a.458.458,0,0,1-.377-.539c.021-.929.006-1.859.008-2.788a3.922,3.922,0,0,1,4.01-4.019c2.34-.009,4.68,0,7.021,0h.444c0-.524-.012-1.013,0-1.5a2.825,2.825,0,0,1,2.281-2.74,3.172,3.172,0,0,1,.636-.055c1.869,0,3.739-.01,5.609,0a2.828,2.828,0,0,1,2.864,2.3,4.083,4.083,0,0,1,.056.734c.009.4,0,.8,0,1.265h.407c2.295,0,4.593.041,6.886-.012a3.986,3.986,0,0,1,4.127,3.332.569.569,0,0,0,.051.124Zm-20.055-7.231h5.705v-1.388h-5.705Z" transform="translate(0.001 0)" fill="#fff"/>
    </g>
  </g>
</svg>
