<svg id="Group_477" data-name="Group 477" xmlns="http://www.w3.org/2000/svg" width="43.085" height="43.09" viewBox="0 0 43.085 43.09">
  <g id="Path_132" data-name="Path 132" transform="translate(-93 -216.588)" fill="#979fad">
    <path d="M 115.7737884521484 259.4278259277344 L 113.2944259643555 259.4278259277344 C 113.0348739624023 259.3927917480469 112.7715759277344 259.3603820800781 112.516731262207 259.3289794921875 C 111.9747848510742 259.2622680664062 111.4143905639648 259.1932373046875 110.8712921142578 259.0965881347656 C 105.9950408935547 258.2286987304688 101.8507614135742 255.8976898193359 98.55356597900391 252.1683349609375 C 95.53782653808594 248.7578735351562 93.79039764404297 244.7540893554688 93.35981750488281 240.2682189941406 C 92.82247161865234 234.6759796142578 94.27149200439453 229.6024932861328 97.66661071777344 225.1886901855469 C 100.8669052124023 221.0299224853516 105.0390472412109 218.3894500732422 110.0671081542969 217.3406372070312 C 111.6672821044922 217.0069122314453 113.2550582885742 216.8377075195312 114.7863311767578 216.8377075195312 C 119.3309097290039 216.8377075195312 123.5915374755859 218.3194122314453 127.4498748779297 221.2416534423828 C 131.5751647949219 224.3663330078125 134.2340850830078 228.5579376220703 135.3527679443359 233.7000427246094 C 135.4863739013672 234.3128509521484 135.5659942626953 234.95361328125 135.6430053710938 235.5732727050781 C 135.6792602539062 235.864990234375 135.7167510986328 236.1666412353516 135.7595520019531 236.4635314941406 C 135.7754821777344 236.5712585449219 135.7948608398438 236.6769104003906 135.8135986328125 236.7790832519531 C 135.8207855224609 236.8181915283203 135.8279571533203 236.8573455810547 135.8349609375 236.8966369628906 L 135.8349609375 239.3817901611328 C 135.8011474609375 239.6343383789062 135.7701873779297 239.8906555175781 135.740234375 240.1387176513672 C 135.6741943359375 240.6855621337891 135.6059112548828 241.2510070800781 135.5041046142578 241.7964019775391 C 134.9114685058594 244.9650115966797 133.7572784423828 247.8051300048828 132.0735931396484 250.2377624511719 C 130.3972625732422 252.6597747802734 128.1507110595703 254.743408203125 125.3963470458984 256.4307861328125 C 122.6138153076172 258.1359558105469 119.4892807006836 259.1211242675781 116.109489440918 259.3589172363281 C 116.0101013183594 259.3665466308594 115.9198608398438 259.3901062011719 115.8402404785156 259.410888671875 C 115.8181228637695 259.4166564941406 115.7959899902344 259.4224548339844 115.7737884521484 259.4278259277344 Z" stroke="none"/>
    <path d="M 115.7431030273438 259.1778259277344 C 115.7544479370117 259.1749267578125 115.7657775878906 259.1719360351562 115.7771072387695 259.1689758300781 C 115.8624420166016 259.146728515625 115.9686279296875 259.1190185546875 116.0919494628906 259.1095275878906 C 119.431282043457 258.8745727539062 122.5177688598633 257.901611328125 125.265754699707 256.2176208496094 C 127.9902801513672 254.5485076904297 130.2116088867188 252.4887237548828 131.8680267333984 250.0954742431641 C 133.5315704345703 247.6919708251953 134.6722412109375 244.8842620849609 135.2583312988281 241.7505187988281 C 135.3586883544922 241.2130432128906 135.4264831542969 240.6516571044922 135.4920349121094 240.1087493896484 C 135.5214385986328 239.8652801513672 135.5517883300781 239.6139068603516 135.5849609375 239.3651428222656 L 135.5849609375 236.9188232421875 C 135.5792694091797 236.8872222900391 135.573486328125 236.8556823730469 135.5677032470703 236.8241882324219 C 135.548583984375 236.7199249267578 135.52880859375 236.6121215820312 135.5121154785156 236.4992065429688 C 135.4689636230469 236.1999053955078 135.4313201904297 235.8970184326172 135.3949127197266 235.6040954589844 C 135.3150939941406 234.9617309570312 135.2396850585938 234.35498046875 135.1084899902344 233.753173828125 C 134.0028228759766 228.6710205078125 131.3753051757812 224.5285797119141 127.2989349365234 221.4409332275391 C 123.4850158691406 218.5523529052734 119.2751693725586 217.0877075195312 114.7863311767578 217.0877075195312 C 113.2721481323242 217.0877075195312 111.701545715332 217.2551422119141 110.1181564331055 217.5853729248047 C 105.1502380371094 218.6216430664062 101.0275802612305 221.2310791015625 97.86476898193359 225.3411102294922 C 94.50953674316406 229.7030487060547 93.07757568359375 234.7172088623047 93.60866546630859 240.2443389892578 C 94.03411102294922 244.6765441894531 95.76081848144531 248.6326293945312 98.74085998535156 252.0027465820312 C 100.3670120239258 253.8420257568359 102.213996887207 255.3504791259766 104.2305221557617 256.4862365722656 C 106.2535247802734 257.6256103515625 108.5025482177734 258.4210510253906 110.9151000976562 258.8504638671875 C 111.4515991210938 258.9459228515625 112.0086212158203 259.0145263671875 112.5472869873047 259.0808715820312 C 112.79736328125 259.1116638183594 113.0556335449219 259.1434631347656 113.3111343383789 259.1778259277344 L 115.7431030273438 259.1778259277344 M 115.8024749755859 259.6778259277344 L 113.2775650024414 259.6778259277344 C 112.4608612060547 259.5671691894531 111.6389083862305 259.4871215820312 110.8274917602539 259.3427124023438 C 105.8598709106445 258.4585571289062 101.7026290893555 256.1075744628906 98.36627197265625 252.3339233398438 C 95.32290649414062 248.8922119140625 93.54934692382812 244.8592834472656 93.1109619140625 240.2921142578125 C 92.5693359375 234.6553649902344 94.00881958007812 229.533935546875 97.46844482421875 225.0362701416016 C 100.6740951538086 220.8705596923828 104.8629684448242 218.1707916259766 110.0160598754883 217.0959014892578 C 116.4537124633789 215.7533264160156 122.3581695556641 217.0716552734375 127.6008148193359 221.0423583984375 C 131.8149719238281 224.2343597412109 134.4716033935547 228.4737548828125 135.5970611572266 233.6468811035156 C 135.7962341308594 234.5604858398438 135.8731384277344 235.4994506835938 136.0069885253906 236.4278564453125 C 136.0291137695312 236.5774536132812 136.0586242675781 236.7250366210938 136.0849609375 236.8746643066406 L 136.0849609375 239.3984985351562 C 135.9753723144531 240.213134765625 135.9005432128906 241.0350646972656 135.7498474121094 241.84228515625 C 134.5432434082031 248.2936706542969 131.1089172363281 253.2243347167969 125.5269470214844 256.6439514160156 C 122.6500549316406 258.4069519042969 119.4971008300781 259.3711853027344 116.1270370483398 259.6083068847656 C 116.0174560546875 259.6167297363281 115.9109954833984 259.6536254882812 115.8024749755859 259.6778259277344 Z" stroke="none" fill="#323232"/>
  </g>
  <path id="Path_133" data-name="Path 133" d="M234.667,325.9a4.069,4.069,0,0,0-.323.254q-2.327,2.322-4.652,4.646a1.246,1.246,0,0,0-.437,1.124,1.163,1.163,0,0,0,1.88.721,3.056,3.056,0,0,0,.262-.24l5.522-5.519a1.221,1.221,0,0,0,0-1.987l-5.522-5.519a1.187,1.187,0,1,0-1.656,1.652q2.315,2.315,4.631,4.628C234.437,325.726,234.522,325.781,234.667,325.9Z" transform="translate(-210.947 -304.463)" fill="#070707"/>
</svg>
