<svg xmlns="http://www.w3.org/2000/svg" width="43.085" height="43.09" viewBox="0 0 43.085 43.09">
  <g id="Group_476" data-name="Group 476" transform="translate(-93 -216.588)">
    <g id="Path_132" data-name="Path 132" transform="translate(0 0)" fill="#222">
      <path d="M 115.7905349731445 259.4278259277344 L 113.3111724853516 259.4278259277344 C 113.2889709472656 259.4224548339844 113.2668380737305 259.4166564941406 113.2447204589844 259.410888671875 C 113.1651000976562 259.3901062011719 113.0748596191406 259.3665466308594 112.9770736694336 259.3590393066406 C 109.5956802368164 259.1211242675781 106.4711456298828 258.1359558105469 103.6886444091797 256.4307861328125 C 100.9342498779297 254.743408203125 98.68770599365234 252.6597747802734 97.01136016845703 250.2377624511719 C 95.32768249511719 247.8051300048828 94.17349243164062 244.9650268554688 93.58084106445312 241.7963256835938 C 93.47907257080078 241.2511444091797 93.41080474853516 240.6858520507812 93.34477996826172 240.13916015625 C 93.31481170654297 239.8909454345703 93.28384399414062 239.6344757080078 93.24999237060547 239.3817749023438 L 93.24999237060547 238.1365814208984 L 93.24999237060547 236.8966522216797 C 93.25695037841797 236.8576202392578 93.26408386230469 236.8187103271484 93.27120971679688 236.7798767089844 C 93.29001617431641 236.6774291992188 93.30944061279297 236.5715179443359 93.32527160644531 236.4644012451172 C 93.36820220947266 236.1666717529297 93.40569305419922 235.8650360107422 93.44194030761719 235.5733337402344 C 93.51895141601562 234.9536437988281 93.59857940673828 234.3128814697266 93.73216247558594 233.7001342773438 C 94.85089874267578 228.5579223632812 97.50981903076172 224.3663330078125 101.6350936889648 221.2416534423828 C 105.4934234619141 218.3194122314453 109.7540512084961 216.8377075195312 114.2986297607422 216.8377075195312 C 115.8299026489258 216.8377075195312 117.4176788330078 217.0069122314453 119.0178604125977 217.3406372070312 C 124.0459136962891 218.3894500732422 128.2180480957031 221.0299224853516 131.4183807373047 225.1887359619141 C 134.8134765625 229.6024932861328 136.2624969482422 234.6759796142578 135.7251586914062 240.2682037353516 C 135.2945556640625 244.7540893554688 133.5471343994141 248.7578735351562 130.5314178466797 252.1683197021484 C 127.2341995239258 255.8976898193359 123.0899200439453 258.2286987304688 118.2136611938477 259.0965881347656 C 117.6705703735352 259.1932373046875 117.1101760864258 259.2622680664062 116.568229675293 259.3289794921875 C 116.3133850097656 259.3603820800781 116.0500869750977 259.3927917480469 115.7905349731445 259.4278259277344 Z" stroke="none"/>
      <path d="M 115.7738265991211 259.1778259277344 C 116.0293273925781 259.1434631347656 116.28759765625 259.1116638183594 116.5376739501953 259.0808715820312 C 117.0763397216797 259.0145263671875 117.6333618164062 258.9459228515625 118.1698532104492 258.8504638671875 C 120.5824127197266 258.4210510253906 122.8314361572266 257.6256103515625 124.8544387817383 256.4862365722656 C 126.870964050293 255.3504791259766 128.7179565429688 253.8420257568359 130.3441314697266 252.0027160644531 C 133.3241424560547 248.6326293945312 135.0508575439453 244.6765441894531 135.4762878417969 240.2442932128906 C 136.0073852539062 234.7172088623047 134.5754241943359 229.7030487060547 131.2202606201172 225.3412017822266 C 128.0573883056641 221.2310791015625 123.9347229003906 218.6216430664062 118.9668197631836 217.5853729248047 C 117.383415222168 217.2551422119141 115.8128128051758 217.0877075195312 114.2986297607422 217.0877075195312 C 109.8097915649414 217.0877075195312 105.5999450683594 218.5523529052734 101.7860412597656 221.4409332275391 C 97.70966339111328 224.5285797119141 95.08214569091797 228.6710205078125 93.97643280029297 233.7533874511719 C 93.84527587890625 234.3549957275391 93.76985931396484 234.9617614746094 93.69003295898438 235.6041717529297 C 93.65363311767578 235.8970489501953 93.61598968505859 236.1999206542969 93.57259368896484 236.5009613037109 C 93.55612182617188 236.6123657226562 93.53629302978516 236.720458984375 93.51711273193359 236.8249969482422 C 93.51138305664062 236.8562469482422 93.50563812255859 236.8875122070312 93.49999237060547 236.9188690185547 L 93.49999237060547 239.3651275634766 C 93.53318786621094 239.6140289306641 93.56356811523438 239.8655853271484 93.59297943115234 240.1091766357422 C 93.65853118896484 240.6519470214844 93.72631072998047 241.2131805419922 93.82658386230469 241.7503662109375 C 94.4127197265625 244.8842620849609 95.55340576171875 247.6919708251953 97.21693420410156 250.0954742431641 C 98.87335205078125 252.4887237548828 101.0946807861328 254.5485076904297 103.8192596435547 256.2176513671875 C 106.5671920776367 257.901611328125 109.653678894043 258.8745727539062 112.9962310791016 259.1097717285156 C 113.1163330078125 259.1190185546875 113.2225189208984 259.146728515625 113.3078536987305 259.1689758300781 C 113.3191833496094 259.1719360351562 113.3305130004883 259.1749267578125 113.3418579101562 259.1778259277344 L 115.7738265991211 259.1778259277344 M 115.8073959350586 259.6778259277344 L 113.2824859619141 259.6778259277344 C 113.1739654541016 259.6536254882812 113.0675048828125 259.6167297363281 112.9579238891602 259.6083068847656 C 109.5878601074219 259.3711853027344 106.4349060058594 258.4069519042969 103.5580139160156 256.6439514160156 C 97.97603607177734 253.2243347167969 94.54172515869141 248.2936706542969 93.33510589599609 241.84228515625 C 93.18442535400391 241.0350646972656 93.10959625244141 240.213134765625 92.99999237060547 239.3984985351562 L 92.99999237060547 236.8746643066406 C 93.02634429931641 236.7250366210938 93.05585479736328 236.5774536132812 93.07796478271484 236.4278564453125 C 93.21181488037109 235.4994506835938 93.28873443603516 234.5604858398438 93.48789978027344 233.6468811035156 C 94.61336517333984 228.4737548828125 97.26998901367188 224.2343597412109 101.4841461181641 221.0423583984375 C 106.7267990112305 217.0716400146484 112.6312484741211 215.7532653808594 119.0689010620117 217.0959014892578 C 124.2219924926758 218.1707916259766 128.4108581542969 220.8705596923828 131.6165161132812 225.0362701416016 C 135.0761413574219 229.533935546875 136.515625 234.6553649902344 135.9739990234375 240.2921142578125 C 135.5356140136719 244.8592834472656 133.7620544433594 248.8922119140625 130.7186889648438 252.3339233398438 C 127.3823318481445 256.1075744628906 123.2250900268555 258.4585571289062 118.2574691772461 259.3427124023438 C 117.4460525512695 259.4871215820312 116.6240997314453 259.5671691894531 115.8073959350586 259.6778259277344 Z" stroke="none" fill="#979fad"/>
    </g>
    <path id="Path_133" data-name="Path 133" d="M232,325.9a4.069,4.069,0,0,1,.323.254q2.327,2.322,4.652,4.646a1.246,1.246,0,0,1,.437,1.124,1.163,1.163,0,0,1-1.88.721,3.056,3.056,0,0,1-.262-.24l-5.522-5.519a1.221,1.221,0,0,1,0-1.987l5.522-5.519a1.187,1.187,0,1,1,1.656,1.652q-2.315,2.315-4.631,4.628C232.23,325.726,232.145,325.781,232,325.9Z" transform="translate(-119.636 -87.875)" fill="#fff"/>
  </g>
</svg>
