<svg xmlns="http://www.w3.org/2000/svg" width="20.914" height="21.717" viewBox="0 0 20.914 21.717">
  <g id="Group_2183" data-name="Group 2183" transform="translate(407.386 -224.89)">
    <path id="Path_1669" data-name="Path 1669" d="M-402.74,224.89h.382a.94.94,0,0,1,.6,1.065c-.017.173,0,.349,0,.534h9.658c0-.214-.006-.417,0-.62a2,2,0,0,1,.046-.439.9.9,0,0,1,.552-.541h.382a.917.917,0,0,1,.629,1.028c-.013.187,0,.377,0,.583.4,0,.775-.024,1.146.007a3.872,3.872,0,0,1,1.013.187,2.853,2.853,0,0,1,1.86,2.809q0,7.051,0,14.1c0,.113-.005.226-.013.339a2.857,2.857,0,0,1-2.82,2.659q-7.623.011-15.246,0a2.577,2.577,0,0,1-1.2-.289,2.852,2.852,0,0,1-1.629-2.712q0-7,0-14c0-.134,0-.269.01-.4a2.817,2.817,0,0,1,2.255-2.629,9.577,9.577,0,0,1,1.477-.077c.089,0,.177,0,.277,0,0-.216.011-.4,0-.583A.915.915,0,0,1-402.74,224.89Zm-.627,3.22h-1.006a1.282,1.282,0,0,0-1.406,1.408q0,7.03,0,14.059A1.287,1.287,0,0,0-404.36,245h10.794c1.4,0,2.8,0,4.2,0a1.253,1.253,0,0,0,1.236-.939,1.968,1.968,0,0,0,.049-.483q0-7.019,0-14.038a2.12,2.12,0,0,0-.021-.338,1.138,1.138,0,0,0-.909-1.025,10.274,10.274,0,0,0-1.48-.081c0,.283,0,.516,0,.749a.822.822,0,0,1-.809.879.815.815,0,0,1-.8-.882c0-.238,0-.475,0-.709h-9.658c0,.249,0,.482,0,.714a.814.814,0,0,1-.805.876.823.823,0,0,1-.8-.884C-403.369,228.6-403.367,228.369-403.367,228.11Z" transform="translate(0 0)" fill="#fff"/>
    <path id="Path_1670" data-name="Path 1670" d="M5174.658,1404.67c-.628-.954-1.262-1.9-1.889-2.859a1.014,1.014,0,0,0-.916-.492c-1.028.007-2.056,0-3.083,0s-2.055,0-3.082,0a1,1,0,0,0-.9.481c-.611.936-1.232,1.867-1.85,2.8a.988.988,0,0,0,.1,1.392q2.495,2.841,4.994,5.679a.911.911,0,0,0,1.484.011c1.718-1.9,3.385-3.841,5.068-5.769A.954.954,0,0,0,5174.658,1404.67Zm-6.848-2.016c.112-.4.113-.4.534-.4.373,0,.746,0,1.119,0,.088,0,.165-.008.2.108.219.8.443,1.6.671,2.408h-3.111C5167.419,1404.056,5167.614,1403.355,5167.811,1402.655Zm-2.258-.315a.161.161,0,0,1,.15-.085c.411,0,.821,0,1.252,0-.23.818-.457,1.615-.678,2.415-.026.1-.079.112-.166.112-.707,0-1.416,0-2.17,0C5164.5,1403.943,5165.025,1403.142,5165.553,1402.34Zm2.122,7.516-3.605-4.1c.057-.071.123-.039.179-.039.615,0,1.228,0,1.843,0,.093,0,.174-.012.216.114q.684,1.989,1.378,3.974C5167.688,1409.813,5167.68,1409.829,5167.675,1409.856Zm1.1.233c-.173-.5-.323-.933-.474-1.366-.325-.937-.647-1.874-.981-2.808-.061-.169-.036-.206.145-.2.932.008,1.864,0,2.83,0C5169.789,1407.176,5169.294,1408.6,5168.776,1410.089Zm1.172-.286-.065-.044c.095-.275.191-.549.287-.824.347-1,.7-2.006,1.038-3.011a.255.255,0,0,1,.292-.214c.652.013,1.306.005,2.021.005C5172.312,1407.1,5171.131,1408.452,5169.948,1409.8Zm1.511-5.022c-.093,0-.157-.005-.187-.116-.22-.8-.446-1.6-.674-2.41.425,0,.828,0,1.233,0a.164.164,0,0,1,.158.069l1.62,2.457C5172.859,1404.781,5172.159,1404.779,5171.459,1404.781Z" transform="translate(-5565.705 -1169.267)" fill="#fff"/>
  </g>
</svg>
