<svg xmlns="http://www.w3.org/2000/svg" xmlns:xlink="http://www.w3.org/1999/xlink" width="262.083" height="349.115" viewBox="0 0 262.083 349.115">
  <defs>
    <filter id="Path_725" x="95.333" y="0" width="166.75" height="349.115" filterUnits="userSpaceOnUse">
      <feOffset dy="3" input="SourceAlpha"/>
      <feGaussianBlur stdDeviation="3" result="blur"/>
      <feFlood flood-color="#fff" flood-opacity="0.161"/>
      <feComposite operator="in" in2="blur"/>
      <feComposite in="SourceGraphic"/>
    </filter>
  </defs>
  <g id="Group_475" data-name="Group 475" transform="translate(-1186.403 267.046)">
    <g transform="matrix(1, 0, 0, 1, 1186.4, -267.05)" filter="url(#Path_725)">
      <path id="Path_725-2" data-name="Path 725" d="M1447.309,50.255a12.5,12.5,0,0,1-4.728,4.892c-2.3,1.366-3.56,3.56-4.812,5.8-3.234,5.773-8.12,8.938-14.8,8.624-1.937-.091-4.454.25-5.633-2.219-.156-2.153,1.139-3.807,1.939-5.63,3.159-3.295,5.022-7.37,6.893-11.441a1.355,1.355,0,0,0,.413-1.189l.071-.089.107.11.14-.064a12.866,12.866,0,0,0,1.729-3.757c1.49-3.284,1.925-6.818,2.451-10.33a49.77,49.77,0,0,0,2.145-11.794,9.014,9.014,0,0,0,.418-3.62q.012-.451.024-.9-.028-5.422-.057-10.844-.032-.9-.064-1.808,0-2.933,0-5.866a27.476,27.476,0,0,0,.055-6.782c1.166-.995.271-2.4.7-3.537,1.036-2.783,1.065-5.764,1.7-8.626.841-.257.7-1.064.923-1.663q1.811-4.959,3.6-9.927c.467-.719.96-1.423,1.4-2.159a43.582,43.582,0,0,0,5.8-18.932c.385-4.688.243-9.446.642-14.156.424-5,.995-9.99,1.5-14.984a4.234,4.234,0,0,0,.432-1.036c1.013-7.883,3.664-15.282,6.637-22.586,1.725-4.239,3.487-8.463,5.226-12.7.413-1.006.9-2.3-.656-2.521-4.843-.7-7.987-3.934-11.142-7.151a37.5,37.5,0,0,0-12.855-8.484,18.923,18.923,0,0,1-8.992-7.153c-2.444-3.675-4.767-7.472-7.518-10.922-2.566-3.217-2.672-3.379-1.109-7.161,2.69-6.505,6.513-12.456,8.689-19.247,1.967-6.138,6.346-10.79,11.678-14.438.517-.354.988-.66,1.079-1.336.357-2.647,1.77-4.9,2.731-7.324a18.52,18.52,0,0,1,2.391-1.655c6.422-3.126,13.092-4.064,19.792-1.217,6.617,2.812,13.567,1.383,20.4,2.332-.177-.921-.819-1.236-1.341-1.616a49.92,49.92,0,0,1-6.4-5.66c-1.1-1.13-1.612-2.159-.661-3.748a11.453,11.453,0,0,0,1.508-4.671c.135-1.038.331-2.073.4-3.115.145-2.363.139-4.436-1.855-6.489a8.524,8.524,0,0,1-2.064-8.565,9.439,9.439,0,0,0,.431-4.425,21.429,21.429,0,0,1,.829-9.519l.03-1.232c.272-.093.5-.214.367-.569,1.588-2.421,4.618-3.65,5.4-6.823.218-.89,1.759-.817,2.78-.906.494.037,1.011.219,1.43-.225l2.183-.24,4.511,0c2.7.422,5.284,1.569,8.1,1.328a1.945,1.945,0,0,1,.638.135c.785.215,1.167-1.289,1.861-.617.739.717-.671,1.406-.561,1.7.517,1.4,1.885,1.145,3.3,1.077-1.5,2.963.365,5.447.742,8.113-.066.375-.226.77.207,1.047l.213,1.284c.668,3.359-1.647,7.049,1.148,10.2.26.293.109,1.027.023,1.535-.251,1.473-.488,2.956-.876,4.4-.426,1.58-.811,3.277-2.894,3.561-.187.025-.5.216-.5.342-.126,2.817-2.4,5-2.309,7.877a15.8,15.8,0,0,0,.5,6.238,3.671,3.671,0,0,1-.676,3.32,34.984,34.984,0,0,1-5.774,7.115c3.479,0,6.586.374,9.569-.076,6.715-1.014,12.89-4.4,19.788-4.748.654.159,1.306.328,1.963.476,7.108,1.6,12.653,5.138,15.012,12.417a8.338,8.338,0,0,0,2.049,3.376c3.391,3.514,7.023,6.9,9.158,11.37,2.568,5.381,5.328,10.613,9.288,15.111,2.418,2.746,2.322,5.738.988,8.83-3.63,8.417-9.253,14.808-18.091,18.105a44.208,44.208,0,0,0-12.143,7.25c-4.135,3.326-8.134,6.925-13.608,7.984-1.19-.474-2.658-.549-3.208-2.116q.5,2.688,1,5.376a4.432,4.432,0,0,0,.167,1.735,204.052,204.052,0,0,1,6.805,21.174c4.181,16.149,7.05,32.456,5.594,49.25a3.549,3.549,0,0,0,.039,1.342c1.558,4.866,1.661,9.9,1.79,14.934q.006.452.013.9a1.584,1.584,0,0,0,.353,1.389l2.605,12.235c.841,4.183,1.332,8.416,1.8,12.653.544,3.448.015,6.937.407,10.414a14.394,14.394,0,0,1-.62,3.962l-.235,1.277c-.44.428-.244.939-.188,1.432q-.718,5.422-1.436,10.845c-.772,4.5-1.667,8.987-1.014,13.591a24.781,24.781,0,0,0,6.859,17.237,8.371,8.371,0,0,0,2.1,2.679c1.419,1.74,2.733,3.581,4.287,5.19a9.039,9.039,0,0,1,2.124,5.13c-1.641.658-3.105,1.977-5.011,1.686-5.253-.8-9.948-2.78-13.46-6.943a14.651,14.651,0,0,0-7.308-4.993,8,8,0,0,1-5.3-3.766c.1-3.506,1.7-6.8,1.456-10.356.888-6.369,1.271-12.723-.588-19.007a141.624,141.624,0,0,0-3.651-14.145q-1.8-7.214-3.6-14.429c-.878-2.912-.531-5.966-1.024-8.923a3.1,3.1,0,0,0-.185-1.827q-.056-1.8-.112-3.591c.312-7.935-.242-15.726-3.357-23.186a70.085,70.085,0,0,1-4.034-12.616c-1.245-5.953-2.734-11.8-5.845-17.106a3.8,3.8,0,0,1-.259-.847c-.447-1.089-.947-2.16-1.334-3.27a69.681,69.681,0,0,1-4.145-19c-.1-1.709-.869-2.467-2.664-2.522-1.865-.058-1.534,1.354-1.768,2.292-1.048,4.2-1.955,8.44-3,12.644a235.849,235.849,0,0,1-7.849,25.256c-2.968,7.539-5.922,15.14-10.725,21.708a29.279,29.279,0,0,0-5.9,16.335q-1,6.379-1.995,12.757l-5.89,14.943c-2.143,4.645-4.657,9.137-5.845,14.177-1.971,6.532-2.058,13.193-1.365,19.908A32.083,32.083,0,0,0,1447.309,50.255ZM1528.9-140.793a2.181,2.181,0,0,0,2.129-.942A28.1,28.1,0,0,0,1536-148.4c1.925-3.8,3.524-7.778,6.647-11.131-4.9-1.322-8.215-4.442-11.373-7.776-1.01-2.106-2.451-3.968-3.3-6.18a44.768,44.768,0,0,1-6.261,16.608,40.978,40.978,0,0,0-5.171,16.329,4.463,4.463,0,0,0,2.621-1.013,3.651,3.651,0,0,1,4.549-.394A8.3,8.3,0,0,0,1528.9-140.793Zm-73.478,1.242c2.306.848,3.97-1.388,6.226-1.306,2.864.1,2.931-.337,2.647-3.284-.453-4.7-2.742-8.549-5.37-12.193-3.033-4.205-6.335-8.183-7.269-13.527-.245-1.4-.918-.376-1.266.112a23.37,23.37,0,0,1-7.187,7.03c-1.7.977-1.983,2.065-.564,3.59a11.648,11.648,0,0,1,1.578,2.7c2.434,4.731,3.555,10.041,6.629,14.509C1452.046-140.18,1453.169-139.017,1455.422-139.552Z" transform="translate(-1312.99 267.05)" fill="#d1ad61"/>
    </g>
    <path id="Path_726" data-name="Path 726" d="M1353.16-168.6a11.449,11.449,0,0,1-1.508,4.671c-.951,1.589-.436,2.618.661,3.748a49.937,49.937,0,0,0,6.4,5.66c.522.38,1.164.694,1.341,1.616-6.829-.949-13.778.48-20.4-2.332-6.7-2.847-13.37-1.909-19.792,1.217a18.618,18.618,0,0,0-2.391,1.654,19.8,19.8,0,0,0-6.044,3.531,66.293,66.293,0,0,0-8.217,8.276c-4.106,4.657-8.346,9.192-12.443,13.851a211.587,211.587,0,0,1-15.6,15.822,292.429,292.429,0,0,1-23.083,19.236c-7.5,5.6-15.31,10.71-23.113,15.853-2.422,1.6-5.254,2.57-7.286,4.758-1.269-.316-1.662.978-2.541,1.388-4.123,1.923-8.008,4.287-11.958,6.53l-8.078,4.249c-4.193,1.977-8.262,4.222-12.625,5.831q.013-1.1.026-2.2l.036-.478-.15-1.341c1.116-3.741,1.582-7.627,2.765-11.37a103.542,103.542,0,0,1,5.481-12.675,19.614,19.614,0,0,1,2.709-3.49c1.522-.757,1.93-2.484,3.188-3.555a43.33,43.33,0,0,1,10.651-6.337c.5-.222.965-.346,1.175-.888,3.771-.32,7.027-2.255,10.526-3.42.859-.286,1.924-.266,2.584-1.086a39.887,39.887,0,0,0,8.112-2.726,101.081,101.081,0,0,0,12.05-4.65c4.436-1.155,8.406-3.412,12.466-5.413,8.308-4.093,15.509-9.792,22.173-16.137q11.767-11.2,23.215-22.743c8.744-8.8,19.3-12.389,31.528-11.564a2.537,2.537,0,0,0,2.138-.4,4.373,4.373,0,0,1,3.778-1.054c1.362.188,1.938-.444,2.469-1.63,1.24-2.772,2.26-3.2,5.33-2.979C1350.233-169.07,1351.628-168.313,1353.16-168.6Z" transform="translate(0 -50.336)" fill="#343434"/>
    <path id="Path_727" data-name="Path 727" d="M1264.513-50.578c2.032-2.189,4.864-3.162,7.286-4.758,7.8-5.143,15.615-10.249,23.113-15.853a292.426,292.426,0,0,0,23.083-19.236,211.59,211.59,0,0,0,15.6-15.821c4.1-4.66,8.337-9.194,12.443-13.851a66.3,66.3,0,0,1,8.217-8.276,19.8,19.8,0,0,1,6.044-3.531c-.96,2.423-2.373,4.678-2.73,7.324-.091.676-.562.982-1.079,1.336-5.332,3.648-9.711,8.3-11.678,14.438-2.177,6.791-6,12.742-8.689,19.247-1.564,3.782-1.457,3.944,1.109,7.161,2.751,3.45,5.074,7.247,7.518,10.922a18.922,18.922,0,0,0,8.992,7.153,37.5,37.5,0,0,1,12.855,8.484c3.154,3.216,6.3,6.455,11.142,7.151,1.555.223,1.07,1.514.656,2.521-1.738,4.234-3.5,8.458-5.226,12.7-2.972,7.3-5.624,14.7-6.637,22.586a4.23,4.23,0,0,1-.432,1.036,6.449,6.449,0,0,1-.824-.336,70.04,70.04,0,0,0-31.146-8.863c-7.506-.447-15.021-.769-22.517-1.347-4.092-.315-8.142-1.079-11.492-3.794-.134-2.25-1.566-2.9-3.544-2.868-.61-.534-1.251-1.036-1.825-1.607-3.878-3.852-7.375-8.085-11.6-11.591a30.78,30.78,0,0,0-6.083-4.876c-3.052-1.99-6.131-3.963-9.835-4.568Z" transform="translate(-42.819 -70.794)" fill="#272727"/>
    <path id="Path_728" data-name="Path 728" d="M1571.253,127.942c-1.282.048-.932,1.2-1.1,1.84a132.7,132.7,0,0,0-4.6,32.689c0,.366-.037.733-.058,1.124-.861-.009-.885-.755-1.155-1.2a144.493,144.493,0,0,0-12.3-17.482c-.464-.564-.784-1.291-1.548-1.566a235.9,235.9,0,0,0,7.848-25.256c1.041-4.2,1.949-8.442,3-12.644.234-.938-.1-2.35,1.768-2.292,1.8.056,2.568.813,2.664,2.522a69.681,69.681,0,0,0,4.145,19C1570.306,125.782,1570.806,126.853,1571.253,127.942Z" transform="translate(-199.592 -199.647)" fill="#343434"/>
    <path id="Path_729" data-name="Path 729" d="M1485.034-29.778c-2.253.535-3.376-.628-4.576-2.372-3.074-4.468-4.2-9.779-6.629-14.509a11.653,11.653,0,0,0-1.578-2.7c-1.419-1.525-1.133-2.613.564-3.59a23.372,23.372,0,0,0,7.187-7.03c.349-.488,1.021-1.516,1.267-.112.934,5.344,4.236,9.322,7.269,13.527,2.628,3.644,4.917,7.493,5.37,12.193.284,2.947.216,3.388-2.647,3.284C1489-31.166,1487.34-28.93,1485.034-29.778Z" transform="translate(-156.201 -109.774)" fill="#272727"/>
    <path id="Path_730" data-name="Path 730" d="M1649.282-34.556a8.3,8.3,0,0,1-5.187-1.163,3.651,3.651,0,0,0-4.549.394,4.463,4.463,0,0,1-2.621,1.013,40.976,40.976,0,0,1,5.17-16.329,44.765,44.765,0,0,0,6.261-16.608c.848,2.212,2.289,4.074,3.3,6.18a74.071,74.071,0,0,1,.1,9.657C1651.583-45.694,1650.335-40.141,1649.282-34.556Z" transform="translate(-246.971 -106.237)" fill="#343434"/>
    <path id="Path_731" data-name="Path 731" d="M1600.338-168.122c2.634-.013,5.012.343,5.454,3.641a.9.9,0,0,0,.524.636c2.129.465,3.777,1.931,5.637,2.753,2.409,1.065,4.873,2.541,7.762,2.45a4.319,4.319,0,0,1,4.035,2.369c-6.9.352-13.074,3.734-19.788,4.748-2.983.45-6.089.076-9.569.076a34.985,34.985,0,0,0,5.774-7.115,3.671,3.671,0,0,0,.676-3.32A15.8,15.8,0,0,1,1600.338-168.122Z" transform="translate(-223.655 -50.94)" fill="#343434"/>
  </g>
</svg>
